%TF.GenerationSoftware,KiCad,Pcbnew,9.0.5*%
%TF.CreationDate,2026-09-14T21:20:41-05:00*%
%TF.ProjectId,rover-panel-supervisor,726f7665-722d-4706-916e-656c2d737570,rev?*%
%TF.SameCoordinates,Original*%
%TF.FileFunction,Copper,L2,Bot*%
%TF.FilePolarity,Positive*%
%FSLAX46Y46*%
G04 Gerber Fmt 4.6, Leading zero omitted, Abs format (unit mm)*
G04 Created by KiCad (PCBNEW 9.0.5) date 2026-09-14 21:20:41*
%MOMM*%
%LPD*%
G01*
G04 APERTURE LIST*
G04 Aperture macros list*
%AMRoundRect*
0 Rectangle with rounded corners*
0 $1 Rounding radius*
0 $2 $3 $4 $5 $6 $7 $8 $9 X,Y pos of 4 corners*
0 Add a 4 corners polygon primitive as box body*
4,1,4,$2,$3,$4,$5,$6,$7,$8,$9,$2,$3,0*
0 Add four circle primitives for the rounded corners*
1,1,$1+$1,$2,$3*
1,1,$1+$1,$4,$5*
1,1,$1+$1,$6,$7*
1,1,$1+$1,$8,$9*
0 Add four rect primitives between the rounded corners*
20,1,$1+$1,$2,$3,$4,$5,0*
20,1,$1+$1,$4,$5,$6,$7,0*
20,1,$1+$1,$6,$7,$8,$9,0*
20,1,$1+$1,$8,$9,$2,$3,0*%
G04 Aperture macros list end*
%TA.AperFunction,ComponentPad*%
%ADD10RoundRect,0.250001X0.499999X-0.499999X0.499999X0.499999X-0.499999X0.499999X-0.499999X-0.499999X0*%
%TD*%
%TA.AperFunction,ComponentPad*%
%ADD11C,1.500000*%
%TD*%
%TA.AperFunction,ComponentPad*%
%ADD12C,0.600000*%
%TD*%
%TA.AperFunction,SMDPad,CuDef*%
%ADD13R,2.300000X2.800000*%
%TD*%
%TA.AperFunction,ComponentPad*%
%ADD14RoundRect,0.250001X-0.499999X-0.499999X0.499999X-0.499999X0.499999X0.499999X-0.499999X0.499999X0*%
%TD*%
%TA.AperFunction,ViaPad*%
%ADD15C,0.600000*%
%TD*%
%TA.AperFunction,Conductor*%
%ADD16C,1.000000*%
%TD*%
%TA.AperFunction,Conductor*%
%ADD17C,0.200000*%
%TD*%
%TA.AperFunction,Conductor*%
%ADD18C,0.400000*%
%TD*%
%TA.AperFunction,Conductor*%
%ADD19C,0.250000*%
%TD*%
G04 APERTURE END LIST*
D10*
%TO.P,P3,1*%
%TO.N,/ARM_IN*%
X101000000Y-31000000D03*
D11*
%TO.P,P3,2*%
%TO.N,/SDA*%
X101000000Y-28000000D03*
%TO.P,P3,3*%
%TO.N,/SCL*%
X101000000Y-25000000D03*
%TO.P,P3,4*%
%TO.N,/ALERT_N*%
X101000000Y-22000000D03*
%TO.P,P3,5*%
%TO.N,GND*%
X104000000Y-31000000D03*
%TO.P,P3,6*%
%TO.N,/K1_ON_N*%
X104000000Y-28000000D03*
%TO.P,P3,7*%
%TO.N,/FAULT_N*%
X104000000Y-25000000D03*
%TO.P,P3,8*%
%TO.N,/ESTOP_OK_N*%
X104000000Y-22000000D03*
%TD*%
D12*
%TO.P,U1,11*%
%TO.N,GND*%
X89000000Y-8250000D03*
X89000000Y-9750000D03*
X89500000Y-9000000D03*
D13*
X89500000Y-9000000D03*
D12*
X90000000Y-8250000D03*
X90000000Y-9750000D03*
%TD*%
D14*
%TO.P,P2,1*%
%TO.N,/KELVIN_P*%
X5500000Y-19000000D03*
D11*
%TO.P,P2,2*%
%TO.N,/KELVIN_N*%
X5500000Y-22000000D03*
%TD*%
D14*
%TO.P,P1,1*%
%TO.N,GND*%
X38000000Y-3200000D03*
D11*
%TO.P,P1,2*%
X41000000Y-3200000D03*
%TO.P,P1,3*%
%TO.N,/COIL_POS*%
X44000000Y-3200000D03*
%TO.P,P1,4*%
X47000000Y-3200000D03*
%TO.P,P1,5*%
%TO.N,GND*%
X50000000Y-3200000D03*
%TO.P,P1,6*%
%TO.N,/COIL_NEG*%
X38000000Y-6200000D03*
%TO.P,P1,7*%
%TO.N,/+24V_IN*%
X41000000Y-6200000D03*
%TO.P,P1,8*%
X44000000Y-6200000D03*
%TO.P,P1,9*%
%TO.N,/SW_SENSE*%
X47000000Y-6200000D03*
%TO.P,P1,10*%
%TO.N,/PRE_OUT*%
X50000000Y-6200000D03*
%TD*%
D15*
%TO.N,GND*%
X95800000Y-33800000D03*
X95800000Y-31000000D03*
X84400000Y-31700000D03*
X30700000Y-32299999D03*
X91900000Y-7900000D03*
X35600000Y-35100000D03*
X106000000Y-10000000D03*
X95800000Y-36600000D03*
X26000000Y-2000000D03*
X6000000Y-14000000D03*
X55700000Y-32299999D03*
X6000000Y-34000000D03*
X84400000Y-26700000D03*
X18000000Y-10000000D03*
X82300000Y-7300000D03*
X10000000Y-10000000D03*
X55700000Y-21100000D03*
X95200000Y-14400000D03*
X14000000Y-26000000D03*
X2000000Y-30000000D03*
X78000000Y-2000000D03*
X6000000Y-10000000D03*
X6000000Y-26000000D03*
X86000000Y-2000000D03*
X102000000Y-34000000D03*
X2000000Y-18000000D03*
X18200000Y-29500000D03*
X18000000Y-14000000D03*
X14000000Y-42000000D03*
X69100000Y-26600000D03*
X19500000Y-21600000D03*
X77300000Y-6700000D03*
X2000000Y-34000000D03*
X102000000Y-38000000D03*
X14000000Y-2000000D03*
X61200000Y-21100000D03*
X74000000Y-2000000D03*
X61900000Y-39200000D03*
X10800000Y-41600000D03*
X61100000Y-23900000D03*
X2000000Y-14000000D03*
X95800000Y-19800000D03*
X83100000Y-9800000D03*
X22400000Y-19600000D03*
X6000000Y-30000000D03*
X10000000Y-14000000D03*
X46000000Y-28100000D03*
X2000000Y-10000000D03*
X72600000Y-25900000D03*
X22000000Y-14000000D03*
X2000000Y-26000000D03*
X97400000Y-13600000D03*
X68700000Y-14900000D03*
X18000000Y-2000000D03*
X10000000Y-38000000D03*
X66200000Y-21800000D03*
X35600000Y-23900000D03*
X14000000Y-14000000D03*
X95800000Y-28200000D03*
X82000000Y-2000000D03*
X83100000Y-12400000D03*
X35700000Y-32299999D03*
X69100000Y-16600000D03*
X10000000Y-30000000D03*
X68400000Y-33700000D03*
X55600000Y-35100000D03*
X40600000Y-22800000D03*
X14000000Y-30000000D03*
X18000000Y-18000000D03*
X30200000Y-21100000D03*
X84400000Y-21700000D03*
X10000000Y-26000000D03*
X55600000Y-23900000D03*
X14000000Y-10000000D03*
X10000000Y-2000000D03*
X90000000Y-2000000D03*
X102100000Y-9000000D03*
X31100000Y-4200000D03*
X30100000Y-23900000D03*
X11700000Y-5400000D03*
X35700000Y-21100000D03*
X14000000Y-6000000D03*
X102000000Y-18000000D03*
X14000000Y-38000000D03*
X95800000Y-25400000D03*
X68400000Y-38200000D03*
X26700000Y-11400000D03*
X22000000Y-34000000D03*
X22000000Y-2000000D03*
X76900000Y-39200000D03*
X58500000Y-14900000D03*
X76600000Y-20000000D03*
X95800000Y-22600000D03*
X10000000Y-34000000D03*
X14000000Y-34000000D03*
X91200000Y-7400000D03*
X40500000Y-13200000D03*
X76600000Y-31100000D03*
X98000000Y-42000000D03*
X87900000Y-39200000D03*
X22000000Y-30000000D03*
X99100000Y-8900000D03*
X52800000Y-13200000D03*
%TO.N,/COIL_POS*%
X51600000Y-10200000D03*
X51700000Y-4200000D03*
%TO.N,/PRE_OUT*%
X58700000Y-7000000D03*
X60300000Y-8500000D03*
%TO.N,/K1_G*%
X46800000Y-40300000D03*
X80200000Y-26200000D03*
X53000000Y-40200000D03*
X45700000Y-41400000D03*
X81300000Y-25100000D03*
X25800000Y-38400000D03*
X71400000Y-35000000D03*
X71400000Y-37600000D03*
X26900000Y-39500000D03*
X51400000Y-40200000D03*
%TO.N,/Q6_G*%
X69100000Y-4000000D03*
X63100000Y-2700000D03*
X65000000Y-4600000D03*
X67700000Y-5400000D03*
%TO.N,/EN*%
X20900000Y-41200000D03*
X36700000Y-23900000D03*
X19400000Y-42600000D03*
X70600000Y-25000000D03*
X26600000Y-32100000D03*
X65500000Y-19900000D03*
X57900000Y-18800000D03*
X25000000Y-37700000D03*
X28500000Y-38400000D03*
X50000000Y-17700000D03*
X28700000Y-26500000D03*
%TO.N,/FAULT*%
X90200000Y-27200000D03*
X44000000Y-28900000D03*
X52700000Y-16800000D03*
X57100000Y-27200000D03*
X90200000Y-36600000D03*
X84400000Y-38000000D03*
X62500000Y-34000000D03*
X51400000Y-18100000D03*
X44500000Y-27200000D03*
X31000000Y-37100000D03*
X79500000Y-37500000D03*
X76400000Y-37500000D03*
X88100000Y-38000000D03*
X31000000Y-38700000D03*
%TO.N,/+5V*%
X26600000Y-21300000D03*
X40800000Y-25700000D03*
X37800000Y-23900000D03*
X57900000Y-26400000D03*
X40900000Y-27300000D03*
X59400000Y-41500000D03*
X68300000Y-18500000D03*
X63900000Y-17200000D03*
X60700000Y-29500000D03*
X65400000Y-41300000D03*
X44600000Y-41400000D03*
X78700000Y-22200000D03*
X45700000Y-42500000D03*
X44000000Y-34700000D03*
X54600000Y-42800000D03*
X62800000Y-18300000D03*
X82100000Y-45200000D03*
X72700000Y-41300000D03*
X43100000Y-28500000D03*
X69000000Y-20100000D03*
X32100000Y-23100000D03*
X72500000Y-24800000D03*
X63800000Y-41300000D03*
X72500000Y-21200000D03*
X82400000Y-18500000D03*
X46700000Y-42800000D03*
X60000000Y-31900000D03*
X59600000Y-28400000D03*
X78500000Y-44100000D03*
X73800000Y-42400000D03*
X21600000Y-21300000D03*
%TO.N,/ALERT_N*%
X27800000Y-5700000D03*
X27800000Y-8300000D03*
X100800000Y-20100000D03*
%TO.N,/SDA*%
X88400000Y-35000000D03*
X88400000Y-36600000D03*
%TO.N,/SCL*%
X91200000Y-27400000D03*
X85200000Y-35000000D03*
X91200000Y-29000000D03*
X85200000Y-36600000D03*
%TO.N,/CHG*%
X34700000Y-27300000D03*
X76700000Y-36600000D03*
X29200000Y-29400000D03*
X36100000Y-26500000D03*
X32100000Y-27400000D03*
X30300000Y-28200000D03*
X76700000Y-35000000D03*
%TO.N,/VA*%
X37700000Y-30500000D03*
X36600000Y-29400000D03*
%TO.N,/ESTOP_OK*%
X54700000Y-28200000D03*
X50900000Y-27900000D03*
X49800000Y-26800000D03*
X52200000Y-33200000D03*
X52200000Y-37900000D03*
X52200000Y-29800000D03*
X57300000Y-29200000D03*
X52200000Y-39500000D03*
%TO.N,/ARM_IN*%
X61800000Y-33200000D03*
X60200000Y-33200000D03*
%TD*%
D16*
%TO.N,/COIL_POS*%
X51600000Y-6900000D02*
X51600000Y-10200000D01*
X51700000Y-6800000D02*
X51600000Y-6900000D01*
X51700000Y-4200000D02*
X51700000Y-6800000D01*
%TO.N,/PRE_OUT*%
X60300000Y-8500000D02*
X60200000Y-8500000D01*
X60200000Y-8500000D02*
X58700000Y-7000000D01*
D17*
%TO.N,/K1_G*%
X81300000Y-25100000D02*
X80200000Y-26200000D01*
X71400000Y-37600000D02*
X71400000Y-35000000D01*
X25800000Y-38400000D02*
X26900000Y-39500000D01*
X45700000Y-41400000D02*
X46800000Y-40300000D01*
X51400000Y-40200000D02*
X53000000Y-40200000D01*
%TO.N,/Q6_G*%
X69100000Y-4000000D02*
X67700000Y-5400000D01*
X65000000Y-4600000D02*
X63100000Y-2700000D01*
%TO.N,/EN*%
X28500000Y-38400000D02*
X28500000Y-34000000D01*
X19500000Y-42600000D02*
X20900000Y-41200000D01*
X36700000Y-23900000D02*
X36600000Y-23900000D01*
X51100000Y-18800000D02*
X50000000Y-17700000D01*
X28500000Y-34000000D02*
X26600000Y-32100000D01*
X25000000Y-37700000D02*
X28400000Y-37700000D01*
X70600000Y-25000000D02*
X65500000Y-19900000D01*
X57900000Y-18800000D02*
X51100000Y-18800000D01*
X19400000Y-42600000D02*
X19500000Y-42600000D01*
X34000000Y-26500000D02*
X28700000Y-26500000D01*
X36600000Y-23900000D02*
X34000000Y-26500000D01*
%TO.N,/FAULT*%
X31000000Y-38700000D02*
X31000000Y-37100000D01*
X44500000Y-28400000D02*
X44000000Y-28900000D01*
X44500000Y-27200000D02*
X44500000Y-28400000D01*
X52700000Y-16800000D02*
X51400000Y-18100000D01*
X62500000Y-32600000D02*
X57100000Y-27200000D01*
X62500000Y-34000000D02*
X62500000Y-32600000D01*
X88100000Y-38000000D02*
X84400000Y-38000000D01*
X79500000Y-37500000D02*
X76400000Y-37500000D01*
X90200000Y-27200000D02*
X90200000Y-36600000D01*
D18*
%TO.N,/+5V*%
X59400000Y-32900000D02*
X59400000Y-41500000D01*
X40900000Y-27300000D02*
X40900000Y-25800000D01*
X60000000Y-31900000D02*
X60000000Y-32299999D01*
X63900000Y-17200000D02*
X62800000Y-18300000D01*
X37000000Y-23100000D02*
X37800000Y-23900000D01*
X57900000Y-26700000D02*
X59500000Y-28300000D01*
X69000000Y-19200000D02*
X68300000Y-18500000D01*
X82400000Y-18500000D02*
X78700000Y-22200000D01*
X73800000Y-42400000D02*
X72700000Y-41300000D01*
X79600000Y-45200000D02*
X78500000Y-44100000D01*
X60000000Y-32299999D02*
X59400000Y-32900000D01*
X54600000Y-42800000D02*
X46700000Y-42800000D01*
X44000000Y-34700000D02*
X44000000Y-30000000D01*
X57900000Y-26400000D02*
X57900000Y-26700000D01*
D19*
X72500000Y-24800000D02*
X72500000Y-21200000D01*
D18*
X21600000Y-21300000D02*
X26600000Y-21300000D01*
X45700000Y-42500000D02*
X44600000Y-41400000D01*
X69000000Y-20100000D02*
X69000000Y-19200000D01*
X44000000Y-30000000D02*
X43100000Y-29100000D01*
X32100000Y-23100000D02*
X37000000Y-23100000D01*
X40900000Y-25800000D02*
X40800000Y-25700000D01*
X65400000Y-41300000D02*
X63800000Y-41300000D01*
X82100000Y-45200000D02*
X79600000Y-45200000D01*
X59600000Y-28400000D02*
X60700000Y-29500000D01*
X43100000Y-29100000D02*
X43100000Y-28500000D01*
D17*
%TO.N,/ALERT_N*%
X27800000Y-8300000D02*
X27800000Y-5700000D01*
X100800000Y-21300000D02*
X100800000Y-20100000D01*
X101000000Y-22000000D02*
X100800000Y-21300000D01*
%TO.N,/SDA*%
X88400000Y-36600000D02*
X88400000Y-35000000D01*
%TO.N,/SCL*%
X85200000Y-36600000D02*
X85200000Y-35000000D01*
X91200000Y-29000000D02*
X91200000Y-27400000D01*
%TO.N,/CHG*%
X76700000Y-36600000D02*
X76700000Y-35000000D01*
X34700000Y-27300000D02*
X35300000Y-27300000D01*
X35300000Y-27300000D02*
X36100000Y-26500000D01*
X30300000Y-28300000D02*
X30300000Y-28200000D01*
X32100000Y-27400000D02*
X34600000Y-27400000D01*
X29200000Y-29400000D02*
X30300000Y-28300000D01*
%TO.N,/VA*%
X37700000Y-30500000D02*
X36600000Y-29400000D01*
%TO.N,/ESTOP_OK*%
X52200000Y-37900000D02*
X52200000Y-39500000D01*
X55700000Y-29200000D02*
X54700000Y-28200000D01*
X52200000Y-29800000D02*
X52200000Y-33200000D01*
X57300000Y-29200000D02*
X55700000Y-29200000D01*
X49800000Y-26800000D02*
X50900000Y-27900000D01*
%TO.N,/ARM_IN*%
X60200000Y-33200000D02*
X61800000Y-33200000D01*
%TD*%
%TA.AperFunction,Conductor*%
%TO.N,GND*%
G36*
X104631515Y-619098D02*
G01*
X104667842Y-669098D01*
X104667842Y-730902D01*
X104631515Y-780902D01*
X104619876Y-788192D01*
X104059834Y-1087541D01*
X104051707Y-1092971D01*
X103528929Y-1522004D01*
X103522004Y-1528929D01*
X103092971Y-2051707D01*
X103087541Y-2059834D01*
X102768734Y-2656278D01*
X102764995Y-2665305D01*
X102568678Y-3312477D01*
X102566768Y-3322078D01*
X102500482Y-3995106D01*
X102500482Y-4004893D01*
X102566768Y-4677920D01*
X102568678Y-4687521D01*
X102764995Y-5334693D01*
X102768734Y-5343720D01*
X103087541Y-5940164D01*
X103092971Y-5948291D01*
X103522004Y-6471069D01*
X103528929Y-6477994D01*
X104051707Y-6907027D01*
X104059834Y-6912457D01*
X104656278Y-7231264D01*
X104665305Y-7235003D01*
X105312477Y-7431320D01*
X105322078Y-7433230D01*
X105995106Y-7499518D01*
X106004894Y-7499518D01*
X106677920Y-7433230D01*
X106687521Y-7431320D01*
X107334693Y-7235003D01*
X107343720Y-7231264D01*
X107940164Y-6912457D01*
X107948291Y-6907027D01*
X108471069Y-6477994D01*
X108477994Y-6471069D01*
X108907027Y-5948291D01*
X108912457Y-5940164D01*
X109211808Y-5380120D01*
X109256359Y-5337285D01*
X109317580Y-5328817D01*
X109372085Y-5357951D01*
X109399057Y-5413559D01*
X109400000Y-5427260D01*
X109400000Y-40572738D01*
X109380902Y-40631517D01*
X109330902Y-40667844D01*
X109269098Y-40667844D01*
X109219098Y-40631517D01*
X109211808Y-40619878D01*
X108912457Y-40059834D01*
X108907027Y-40051707D01*
X108477994Y-39528929D01*
X108471069Y-39522004D01*
X107948291Y-39092971D01*
X107940164Y-39087541D01*
X107343720Y-38768734D01*
X107334693Y-38764995D01*
X106687521Y-38568678D01*
X106677920Y-38566768D01*
X106004894Y-38500482D01*
X105995106Y-38500482D01*
X105322078Y-38566768D01*
X105312477Y-38568678D01*
X104665305Y-38764995D01*
X104656278Y-38768734D01*
X104059834Y-39087541D01*
X104051707Y-39092971D01*
X103528929Y-39522004D01*
X103522004Y-39528929D01*
X103092971Y-40051707D01*
X103087541Y-40059834D01*
X102768734Y-40656278D01*
X102764995Y-40665305D01*
X102568678Y-41312477D01*
X102566768Y-41322078D01*
X102500482Y-41995106D01*
X102500482Y-42004893D01*
X102566768Y-42677920D01*
X102568678Y-42687521D01*
X102764995Y-43334693D01*
X102768734Y-43343720D01*
X103087541Y-43940164D01*
X103092971Y-43948291D01*
X103522004Y-44471069D01*
X103528929Y-44477994D01*
X104051707Y-44907027D01*
X104059834Y-44912457D01*
X104619878Y-45211808D01*
X104662713Y-45256359D01*
X104671181Y-45317580D01*
X104642047Y-45372085D01*
X104586439Y-45399057D01*
X104572738Y-45400000D01*
X82746135Y-45400000D01*
X82687356Y-45380902D01*
X82651029Y-45330902D01*
X82649842Y-45285555D01*
X82647448Y-45285240D01*
X82650000Y-45265853D01*
X82650000Y-45134146D01*
X82648303Y-45121260D01*
X82614213Y-44994035D01*
X82609242Y-44982034D01*
X82543387Y-44867968D01*
X82535475Y-44857657D01*
X82442342Y-44764524D01*
X82432031Y-44756612D01*
X82317965Y-44690757D01*
X82305964Y-44685786D01*
X82178739Y-44651696D01*
X82165853Y-44650000D01*
X82034147Y-44650000D01*
X82021260Y-44651696D01*
X81894034Y-44685786D01*
X81882037Y-44690756D01*
X81802628Y-44736603D01*
X81752628Y-44750000D01*
X79827818Y-44750000D01*
X79769039Y-44730902D01*
X79757107Y-44720711D01*
X79063826Y-44027430D01*
X79037944Y-43982600D01*
X79014214Y-43894036D01*
X79009242Y-43882034D01*
X78943387Y-43767968D01*
X78935475Y-43757657D01*
X78842342Y-43664524D01*
X78832031Y-43656612D01*
X78717965Y-43590757D01*
X78705964Y-43585786D01*
X78578739Y-43551696D01*
X78565853Y-43550000D01*
X78434147Y-43550000D01*
X78421260Y-43551696D01*
X78294035Y-43585786D01*
X78282034Y-43590757D01*
X78167968Y-43656612D01*
X78157657Y-43664524D01*
X78064524Y-43757657D01*
X78056612Y-43767968D01*
X77990757Y-43882034D01*
X77985786Y-43894035D01*
X77951696Y-44021260D01*
X77950000Y-44034146D01*
X77950000Y-44165853D01*
X77951696Y-44178739D01*
X77985786Y-44305964D01*
X77990757Y-44317965D01*
X78056612Y-44432031D01*
X78064524Y-44442342D01*
X78157657Y-44535475D01*
X78167968Y-44543387D01*
X78282034Y-44609242D01*
X78294036Y-44614214D01*
X78382600Y-44637944D01*
X78427430Y-44663826D01*
X78992893Y-45229289D01*
X79020951Y-45284357D01*
X79011283Y-45345399D01*
X78967581Y-45389101D01*
X78922182Y-45400000D01*
X5427261Y-45400000D01*
X5368482Y-45380902D01*
X5332155Y-45330902D01*
X5332155Y-45269098D01*
X5368482Y-45219098D01*
X5380121Y-45211808D01*
X5940164Y-44912457D01*
X5948291Y-44907027D01*
X6471069Y-44477994D01*
X6477994Y-44471069D01*
X6907027Y-43948291D01*
X6912457Y-43940164D01*
X7231264Y-43343720D01*
X7235003Y-43334693D01*
X7431320Y-42687521D01*
X7433230Y-42677920D01*
X7447391Y-42534146D01*
X18850000Y-42534146D01*
X18850000Y-42665853D01*
X18851696Y-42678739D01*
X18885786Y-42805964D01*
X18890757Y-42817965D01*
X18956612Y-42932031D01*
X18964524Y-42942342D01*
X19057657Y-43035475D01*
X19067968Y-43043387D01*
X19182034Y-43109242D01*
X19194035Y-43114213D01*
X19321260Y-43148303D01*
X19334147Y-43150000D01*
X19465853Y-43150000D01*
X19478739Y-43148303D01*
X19605964Y-43114213D01*
X19617965Y-43109242D01*
X19732031Y-43043387D01*
X19742342Y-43035475D01*
X19835475Y-42942342D01*
X19843387Y-42932031D01*
X19909242Y-42817965D01*
X19914213Y-42805964D01*
X19948302Y-42678743D01*
X19948733Y-42675472D01*
X19949751Y-42673335D01*
X19950000Y-42672409D01*
X19950171Y-42672455D01*
X19975335Y-42619687D01*
X19977168Y-42617805D01*
X20815685Y-41779289D01*
X20870753Y-41751231D01*
X20886396Y-41750000D01*
X20965853Y-41750000D01*
X20978739Y-41748303D01*
X21105964Y-41714213D01*
X21117965Y-41709242D01*
X21232031Y-41643387D01*
X21242342Y-41635475D01*
X21335475Y-41542342D01*
X21343387Y-41532031D01*
X21409242Y-41417965D01*
X21414213Y-41405964D01*
X21433457Y-41334146D01*
X44050000Y-41334146D01*
X44050000Y-41465853D01*
X44051696Y-41478739D01*
X44085786Y-41605964D01*
X44090757Y-41617965D01*
X44156612Y-41732031D01*
X44164524Y-41742342D01*
X44257657Y-41835475D01*
X44267968Y-41843387D01*
X44382034Y-41909242D01*
X44394036Y-41914214D01*
X44482600Y-41937944D01*
X44527430Y-41963826D01*
X45136173Y-42572569D01*
X45162054Y-42617397D01*
X45185785Y-42705960D01*
X45190758Y-42717967D01*
X45256612Y-42832031D01*
X45264524Y-42842342D01*
X45357657Y-42935475D01*
X45367968Y-42943387D01*
X45482034Y-43009242D01*
X45494035Y-43014213D01*
X45621260Y-43048303D01*
X45634147Y-43050000D01*
X45765853Y-43050000D01*
X45778739Y-43048303D01*
X45905964Y-43014213D01*
X45917965Y-43009242D01*
X46037708Y-42940110D01*
X46039398Y-42943037D01*
X46084375Y-42926701D01*
X46143773Y-42943775D01*
X46181791Y-42992502D01*
X46184392Y-43000760D01*
X46185786Y-43005964D01*
X46190757Y-43017965D01*
X46256612Y-43132031D01*
X46264524Y-43142342D01*
X46357657Y-43235475D01*
X46367968Y-43243387D01*
X46482034Y-43309242D01*
X46494035Y-43314213D01*
X46621260Y-43348303D01*
X46634147Y-43350000D01*
X46765853Y-43350000D01*
X46778739Y-43348303D01*
X46905965Y-43314213D01*
X46917962Y-43309243D01*
X46997372Y-43263397D01*
X47047372Y-43250000D01*
X54252628Y-43250000D01*
X54302628Y-43263397D01*
X54382037Y-43309243D01*
X54394034Y-43314213D01*
X54521260Y-43348303D01*
X54534147Y-43350000D01*
X54665853Y-43350000D01*
X54678739Y-43348303D01*
X54805964Y-43314213D01*
X54817965Y-43309242D01*
X54932031Y-43243387D01*
X54942342Y-43235475D01*
X55035475Y-43142342D01*
X55043387Y-43132031D01*
X55109242Y-43017965D01*
X55114213Y-43005964D01*
X55148303Y-42878739D01*
X55150000Y-42865853D01*
X55150000Y-42734146D01*
X55148303Y-42721260D01*
X55114213Y-42594035D01*
X55109242Y-42582034D01*
X55043387Y-42467968D01*
X55035475Y-42457657D01*
X54942342Y-42364524D01*
X54932031Y-42356612D01*
X54817965Y-42290757D01*
X54805964Y-42285786D01*
X54678739Y-42251696D01*
X54665853Y-42250000D01*
X54534147Y-42250000D01*
X54521260Y-42251696D01*
X54394034Y-42285786D01*
X54382037Y-42290756D01*
X54302628Y-42336603D01*
X54252628Y-42350000D01*
X47047372Y-42350000D01*
X46997372Y-42336603D01*
X46917962Y-42290756D01*
X46905965Y-42285786D01*
X46778739Y-42251696D01*
X46765853Y-42250000D01*
X46634147Y-42250000D01*
X46621260Y-42251696D01*
X46494035Y-42285786D01*
X46482034Y-42290757D01*
X46362292Y-42359890D01*
X46360709Y-42357149D01*
X46314410Y-42373333D01*
X46255224Y-42355538D01*
X46217801Y-42306353D01*
X46215606Y-42299233D01*
X46214213Y-42294036D01*
X46209242Y-42282034D01*
X46143387Y-42167968D01*
X46135475Y-42157657D01*
X46042342Y-42064524D01*
X46032028Y-42056610D01*
X45997374Y-42036603D01*
X45956019Y-41990674D01*
X45949558Y-41929210D01*
X45980459Y-41875686D01*
X45997374Y-41863397D01*
X46032028Y-41843389D01*
X46042342Y-41835475D01*
X46135475Y-41742342D01*
X46143387Y-41732031D01*
X46209242Y-41617965D01*
X46214213Y-41605964D01*
X46248303Y-41478739D01*
X46250000Y-41465853D01*
X46250000Y-41386396D01*
X46269098Y-41327617D01*
X46279289Y-41315685D01*
X46715685Y-40879289D01*
X46770753Y-40851231D01*
X46786396Y-40850000D01*
X46865853Y-40850000D01*
X46878739Y-40848303D01*
X47005964Y-40814213D01*
X47017965Y-40809242D01*
X47132031Y-40743387D01*
X47142342Y-40735475D01*
X47235475Y-40642342D01*
X47243387Y-40632031D01*
X47309242Y-40517965D01*
X47314213Y-40505964D01*
X47348303Y-40378739D01*
X47350000Y-40365853D01*
X47350000Y-40234146D01*
X47348303Y-40221260D01*
X47324961Y-40134146D01*
X50850000Y-40134146D01*
X50850000Y-40265853D01*
X50851696Y-40278739D01*
X50885786Y-40405964D01*
X50890757Y-40417965D01*
X50956612Y-40532031D01*
X50964524Y-40542342D01*
X51057657Y-40635475D01*
X51067968Y-40643387D01*
X51182034Y-40709242D01*
X51194035Y-40714213D01*
X51321260Y-40748303D01*
X51334147Y-40750000D01*
X51465853Y-40750000D01*
X51478739Y-40748303D01*
X51605964Y-40714213D01*
X51617965Y-40709242D01*
X51732031Y-40643387D01*
X51742342Y-40635475D01*
X51798529Y-40579289D01*
X51853597Y-40551231D01*
X51869240Y-40550000D01*
X52530760Y-40550000D01*
X52589539Y-40569098D01*
X52601471Y-40579289D01*
X52657657Y-40635475D01*
X52667968Y-40643387D01*
X52782034Y-40709242D01*
X52794035Y-40714213D01*
X52921260Y-40748303D01*
X52934147Y-40750000D01*
X53065853Y-40750000D01*
X53078739Y-40748303D01*
X53205964Y-40714213D01*
X53217965Y-40709242D01*
X53332031Y-40643387D01*
X53342342Y-40635475D01*
X53435475Y-40542342D01*
X53443387Y-40532031D01*
X53509242Y-40417965D01*
X53514213Y-40405964D01*
X53548303Y-40278739D01*
X53550000Y-40265853D01*
X53550000Y-40134146D01*
X53548303Y-40121260D01*
X53514213Y-39994035D01*
X53509242Y-39982034D01*
X53443387Y-39867968D01*
X53435475Y-39857657D01*
X53342342Y-39764524D01*
X53332031Y-39756612D01*
X53217965Y-39690757D01*
X53205964Y-39685786D01*
X53078739Y-39651696D01*
X53065853Y-39650000D01*
X52934147Y-39650000D01*
X52921257Y-39651696D01*
X52875881Y-39663855D01*
X52814163Y-39660620D01*
X52766133Y-39621725D01*
X52750000Y-39567262D01*
X52750000Y-39434146D01*
X52748303Y-39421260D01*
X52714213Y-39294035D01*
X52709242Y-39282034D01*
X52643387Y-39167968D01*
X52635475Y-39157657D01*
X52579289Y-39101471D01*
X52551231Y-39046403D01*
X52550000Y-39030760D01*
X52550000Y-38369240D01*
X52569098Y-38310461D01*
X52579289Y-38298529D01*
X52635475Y-38242342D01*
X52643387Y-38232031D01*
X52709242Y-38117965D01*
X52714213Y-38105964D01*
X52748303Y-37978739D01*
X52750000Y-37965853D01*
X52750000Y-37834146D01*
X52748303Y-37821260D01*
X52714213Y-37694035D01*
X52709242Y-37682034D01*
X52643387Y-37567968D01*
X52635475Y-37557657D01*
X52542342Y-37464524D01*
X52532031Y-37456612D01*
X52417965Y-37390757D01*
X52405964Y-37385786D01*
X52278739Y-37351696D01*
X52265853Y-37350000D01*
X52134147Y-37350000D01*
X52121260Y-37351696D01*
X51994035Y-37385786D01*
X51982034Y-37390757D01*
X51867968Y-37456612D01*
X51857657Y-37464524D01*
X51764524Y-37557657D01*
X51756612Y-37567968D01*
X51690757Y-37682034D01*
X51685786Y-37694035D01*
X51651696Y-37821260D01*
X51650000Y-37834146D01*
X51650000Y-37965853D01*
X51651696Y-37978739D01*
X51685786Y-38105964D01*
X51690757Y-38117965D01*
X51756612Y-38232031D01*
X51764524Y-38242342D01*
X51820711Y-38298529D01*
X51848769Y-38353597D01*
X51850000Y-38369240D01*
X51850000Y-39030760D01*
X51830902Y-39089539D01*
X51820711Y-39101471D01*
X51764524Y-39157657D01*
X51756612Y-39167968D01*
X51690757Y-39282034D01*
X51685786Y-39294035D01*
X51651696Y-39421260D01*
X51650000Y-39434146D01*
X51650000Y-39567262D01*
X51630902Y-39626041D01*
X51580902Y-39662368D01*
X51524119Y-39663855D01*
X51478742Y-39651696D01*
X51465853Y-39650000D01*
X51334147Y-39650000D01*
X51321260Y-39651696D01*
X51194035Y-39685786D01*
X51182034Y-39690757D01*
X51067968Y-39756612D01*
X51057657Y-39764524D01*
X50964524Y-39857657D01*
X50956612Y-39867968D01*
X50890757Y-39982034D01*
X50885786Y-39994035D01*
X50851696Y-40121260D01*
X50850000Y-40134146D01*
X47324961Y-40134146D01*
X47314213Y-40094035D01*
X47309242Y-40082034D01*
X47243387Y-39967968D01*
X47235475Y-39957657D01*
X47142342Y-39864524D01*
X47132031Y-39856612D01*
X47017965Y-39790757D01*
X47005964Y-39785786D01*
X46878739Y-39751696D01*
X46865853Y-39750000D01*
X46734147Y-39750000D01*
X46721260Y-39751696D01*
X46594035Y-39785786D01*
X46582034Y-39790757D01*
X46467968Y-39856612D01*
X46457657Y-39864524D01*
X46364524Y-39957657D01*
X46356612Y-39967968D01*
X46290757Y-40082034D01*
X46285786Y-40094035D01*
X46251696Y-40221260D01*
X46250000Y-40234146D01*
X46250000Y-40313604D01*
X46230902Y-40372383D01*
X46220711Y-40384315D01*
X45784315Y-40820711D01*
X45729247Y-40848769D01*
X45713604Y-40850000D01*
X45634147Y-40850000D01*
X45621260Y-40851696D01*
X45494035Y-40885786D01*
X45482034Y-40890757D01*
X45367968Y-40956612D01*
X45357657Y-40964524D01*
X45264524Y-41057657D01*
X45256608Y-41067973D01*
X45236602Y-41102626D01*
X45190673Y-41143981D01*
X45129209Y-41150441D01*
X45075685Y-41119539D01*
X45063398Y-41102626D01*
X45043391Y-41067973D01*
X45035475Y-41057657D01*
X44942342Y-40964524D01*
X44932031Y-40956612D01*
X44817965Y-40890757D01*
X44805964Y-40885786D01*
X44678739Y-40851696D01*
X44665853Y-40850000D01*
X44534147Y-40850000D01*
X44521260Y-40851696D01*
X44394035Y-40885786D01*
X44382034Y-40890757D01*
X44267968Y-40956612D01*
X44257657Y-40964524D01*
X44164524Y-41057657D01*
X44156612Y-41067968D01*
X44090757Y-41182034D01*
X44085786Y-41194035D01*
X44051696Y-41321260D01*
X44050000Y-41334146D01*
X21433457Y-41334146D01*
X21448303Y-41278739D01*
X21450000Y-41265853D01*
X21450000Y-41134146D01*
X21448303Y-41121260D01*
X21414213Y-40994035D01*
X21409242Y-40982034D01*
X21343387Y-40867968D01*
X21335475Y-40857657D01*
X21242342Y-40764524D01*
X21232031Y-40756612D01*
X21117965Y-40690757D01*
X21105964Y-40685786D01*
X20978739Y-40651696D01*
X20965853Y-40650000D01*
X20834147Y-40650000D01*
X20821260Y-40651696D01*
X20694035Y-40685786D01*
X20682034Y-40690757D01*
X20567968Y-40756612D01*
X20557657Y-40764524D01*
X20464524Y-40857657D01*
X20456612Y-40867968D01*
X20390757Y-40982034D01*
X20385786Y-40994035D01*
X20351696Y-41121260D01*
X20350000Y-41134146D01*
X20350000Y-41213603D01*
X20330902Y-41272382D01*
X20320711Y-41284314D01*
X19578390Y-42026634D01*
X19523322Y-42054692D01*
X19481802Y-42052517D01*
X19478739Y-42051696D01*
X19465855Y-42050000D01*
X19334147Y-42050000D01*
X19321260Y-42051696D01*
X19194035Y-42085786D01*
X19182034Y-42090757D01*
X19067968Y-42156612D01*
X19057657Y-42164524D01*
X18964524Y-42257657D01*
X18956612Y-42267968D01*
X18890757Y-42382034D01*
X18885786Y-42394035D01*
X18851696Y-42521260D01*
X18850000Y-42534146D01*
X7447391Y-42534146D01*
X7499518Y-42004893D01*
X7499518Y-41995106D01*
X7433230Y-41322078D01*
X7431320Y-41312477D01*
X7235003Y-40665305D01*
X7231264Y-40656278D01*
X6912457Y-40059834D01*
X6907027Y-40051707D01*
X6477994Y-39528929D01*
X6471069Y-39522004D01*
X5948291Y-39092971D01*
X5940164Y-39087541D01*
X5343720Y-38768734D01*
X5334693Y-38764995D01*
X4687521Y-38568678D01*
X4677920Y-38566768D01*
X4004893Y-38500482D01*
X3995105Y-38500482D01*
X3322078Y-38566768D01*
X3312477Y-38568678D01*
X2665305Y-38764995D01*
X2656278Y-38768734D01*
X2059834Y-39087541D01*
X2051707Y-39092971D01*
X1528929Y-39522004D01*
X1522004Y-39528929D01*
X1092971Y-40051707D01*
X1087541Y-40059834D01*
X788192Y-40619876D01*
X743641Y-40662711D01*
X682420Y-40671179D01*
X627915Y-40642045D01*
X600943Y-40586437D01*
X600000Y-40572736D01*
X600000Y-37634146D01*
X24450000Y-37634146D01*
X24450000Y-37765853D01*
X24451696Y-37778739D01*
X24485786Y-37905964D01*
X24490757Y-37917965D01*
X24556612Y-38032031D01*
X24564524Y-38042342D01*
X24657657Y-38135475D01*
X24667968Y-38143387D01*
X24782034Y-38209242D01*
X24794035Y-38214213D01*
X24921260Y-38248303D01*
X24934147Y-38250000D01*
X25065853Y-38250000D01*
X25078744Y-38248303D01*
X25124117Y-38236145D01*
X25185836Y-38239379D01*
X25233866Y-38278272D01*
X25250000Y-38332737D01*
X25250000Y-38465853D01*
X25251696Y-38478739D01*
X25285786Y-38605964D01*
X25290757Y-38617965D01*
X25356612Y-38732031D01*
X25364524Y-38742342D01*
X25457657Y-38835475D01*
X25467968Y-38843387D01*
X25582034Y-38909242D01*
X25594035Y-38914213D01*
X25721260Y-38948303D01*
X25734147Y-38950000D01*
X25813604Y-38950000D01*
X25872383Y-38969098D01*
X25884315Y-38979289D01*
X26320711Y-39415685D01*
X26348769Y-39470753D01*
X26350000Y-39486396D01*
X26350000Y-39565853D01*
X26351696Y-39578739D01*
X26385786Y-39705964D01*
X26390757Y-39717965D01*
X26456612Y-39832031D01*
X26464524Y-39842342D01*
X26557657Y-39935475D01*
X26567968Y-39943387D01*
X26682034Y-40009242D01*
X26694035Y-40014213D01*
X26821260Y-40048303D01*
X26834147Y-40050000D01*
X26965853Y-40050000D01*
X26978739Y-40048303D01*
X27105964Y-40014213D01*
X27117965Y-40009242D01*
X27232031Y-39943387D01*
X27242342Y-39935475D01*
X27335475Y-39842342D01*
X27343387Y-39832031D01*
X27409242Y-39717965D01*
X27414213Y-39705964D01*
X27448303Y-39578739D01*
X27450000Y-39565853D01*
X27450000Y-39434146D01*
X27448303Y-39421260D01*
X27414213Y-39294035D01*
X27409242Y-39282034D01*
X27343387Y-39167968D01*
X27335475Y-39157657D01*
X27242342Y-39064524D01*
X27232031Y-39056612D01*
X27117965Y-38990757D01*
X27105964Y-38985786D01*
X26978739Y-38951696D01*
X26965853Y-38950000D01*
X26886396Y-38950000D01*
X26827617Y-38930902D01*
X26815685Y-38920711D01*
X26379289Y-38484315D01*
X26351231Y-38429247D01*
X26350000Y-38413604D01*
X26350000Y-38334146D01*
X26348303Y-38321260D01*
X26314212Y-38194032D01*
X26311824Y-38188265D01*
X26306977Y-38126652D01*
X26339271Y-38073957D01*
X26396371Y-38050308D01*
X26404213Y-38050000D01*
X27895787Y-38050000D01*
X27954566Y-38069098D01*
X27990893Y-38119098D01*
X27990893Y-38180902D01*
X27988176Y-38188265D01*
X27985787Y-38194032D01*
X27951696Y-38321260D01*
X27950000Y-38334146D01*
X27950000Y-38465853D01*
X27951696Y-38478739D01*
X27985786Y-38605964D01*
X27990757Y-38617965D01*
X28056612Y-38732031D01*
X28064524Y-38742342D01*
X28157657Y-38835475D01*
X28167968Y-38843387D01*
X28282034Y-38909242D01*
X28294035Y-38914213D01*
X28421260Y-38948303D01*
X28434147Y-38950000D01*
X28565853Y-38950000D01*
X28578739Y-38948303D01*
X28705964Y-38914213D01*
X28717965Y-38909242D01*
X28832031Y-38843387D01*
X28842342Y-38835475D01*
X28935475Y-38742342D01*
X28943387Y-38732031D01*
X29009242Y-38617965D01*
X29014213Y-38605964D01*
X29048303Y-38478739D01*
X29050000Y-38465853D01*
X29050000Y-38334146D01*
X29048303Y-38321260D01*
X29014213Y-38194035D01*
X29009242Y-38182034D01*
X28943387Y-38067968D01*
X28935475Y-38057657D01*
X28879289Y-38001471D01*
X28851231Y-37946403D01*
X28850000Y-37930760D01*
X28850000Y-37034146D01*
X30450000Y-37034146D01*
X30450000Y-37165853D01*
X30451696Y-37178739D01*
X30485786Y-37305964D01*
X30490757Y-37317965D01*
X30556612Y-37432031D01*
X30564524Y-37442342D01*
X30620711Y-37498529D01*
X30648769Y-37553597D01*
X30650000Y-37569240D01*
X30650000Y-38230760D01*
X30630902Y-38289539D01*
X30620711Y-38301471D01*
X30564524Y-38357657D01*
X30556612Y-38367968D01*
X30490757Y-38482034D01*
X30485786Y-38494035D01*
X30451696Y-38621260D01*
X30450000Y-38634146D01*
X30450000Y-38765853D01*
X30451696Y-38778739D01*
X30485786Y-38905964D01*
X30490757Y-38917965D01*
X30556612Y-39032031D01*
X30564524Y-39042342D01*
X30657657Y-39135475D01*
X30667968Y-39143387D01*
X30782034Y-39209242D01*
X30794035Y-39214213D01*
X30921260Y-39248303D01*
X30934147Y-39250000D01*
X31065853Y-39250000D01*
X31078739Y-39248303D01*
X31205964Y-39214213D01*
X31217965Y-39209242D01*
X31332031Y-39143387D01*
X31342342Y-39135475D01*
X31435475Y-39042342D01*
X31443387Y-39032031D01*
X31509242Y-38917965D01*
X31514213Y-38905964D01*
X31548303Y-38778739D01*
X31550000Y-38765853D01*
X31550000Y-38634146D01*
X31548303Y-38621260D01*
X31514213Y-38494035D01*
X31509242Y-38482034D01*
X31443387Y-38367968D01*
X31435475Y-38357657D01*
X31379289Y-38301471D01*
X31351231Y-38246403D01*
X31350000Y-38230760D01*
X31350000Y-37569240D01*
X31369098Y-37510461D01*
X31379289Y-37498529D01*
X31435475Y-37442342D01*
X31443387Y-37432031D01*
X31509242Y-37317965D01*
X31514213Y-37305964D01*
X31548303Y-37178739D01*
X31550000Y-37165853D01*
X31550000Y-37034146D01*
X31548303Y-37021260D01*
X31514213Y-36894035D01*
X31509242Y-36882034D01*
X31443387Y-36767968D01*
X31435475Y-36757657D01*
X31342342Y-36664524D01*
X31332031Y-36656612D01*
X31217965Y-36590757D01*
X31205964Y-36585786D01*
X31078739Y-36551696D01*
X31065853Y-36550000D01*
X30934147Y-36550000D01*
X30921260Y-36551696D01*
X30794035Y-36585786D01*
X30782034Y-36590757D01*
X30667968Y-36656612D01*
X30657657Y-36664524D01*
X30564524Y-36757657D01*
X30556612Y-36767968D01*
X30490757Y-36882034D01*
X30485786Y-36894035D01*
X30451696Y-37021260D01*
X30450000Y-37034146D01*
X28850000Y-37034146D01*
X28850000Y-33960477D01*
X28848303Y-33947591D01*
X28827843Y-33871232D01*
X28822872Y-33859232D01*
X28783347Y-33790771D01*
X28775435Y-33780460D01*
X27179289Y-32184314D01*
X27151231Y-32129246D01*
X27150000Y-32113603D01*
X27150000Y-32034146D01*
X27148303Y-32021260D01*
X27114213Y-31894035D01*
X27109242Y-31882034D01*
X27043387Y-31767968D01*
X27035475Y-31757657D01*
X26942342Y-31664524D01*
X26932031Y-31656612D01*
X26817965Y-31590757D01*
X26805964Y-31585786D01*
X26678739Y-31551696D01*
X26665853Y-31550000D01*
X26534147Y-31550000D01*
X26521260Y-31551696D01*
X26394035Y-31585786D01*
X26382034Y-31590757D01*
X26267968Y-31656612D01*
X26257657Y-31664524D01*
X26164524Y-31757657D01*
X26156612Y-31767968D01*
X26090757Y-31882034D01*
X26085786Y-31894035D01*
X26051696Y-32021260D01*
X26050000Y-32034146D01*
X26050000Y-32165853D01*
X26051696Y-32178739D01*
X26085786Y-32305964D01*
X26090757Y-32317965D01*
X26156612Y-32432031D01*
X26164524Y-32442342D01*
X26257657Y-32535475D01*
X26267968Y-32543387D01*
X26382034Y-32609242D01*
X26394035Y-32614213D01*
X26521260Y-32648303D01*
X26534147Y-32650000D01*
X26613604Y-32650000D01*
X26672383Y-32669098D01*
X26684315Y-32679289D01*
X28120711Y-34115685D01*
X28148769Y-34170753D01*
X28150000Y-34186396D01*
X28150000Y-37250000D01*
X28130902Y-37308779D01*
X28080902Y-37345106D01*
X28050000Y-37350000D01*
X25469240Y-37350000D01*
X25410461Y-37330902D01*
X25398529Y-37320711D01*
X25342342Y-37264524D01*
X25332031Y-37256612D01*
X25217965Y-37190757D01*
X25205964Y-37185786D01*
X25078739Y-37151696D01*
X25065853Y-37150000D01*
X24934147Y-37150000D01*
X24921260Y-37151696D01*
X24794035Y-37185786D01*
X24782034Y-37190757D01*
X24667968Y-37256612D01*
X24657657Y-37264524D01*
X24564524Y-37357657D01*
X24556612Y-37367968D01*
X24490757Y-37482034D01*
X24485786Y-37494035D01*
X24451696Y-37621260D01*
X24450000Y-37634146D01*
X600000Y-37634146D01*
X600000Y-29334146D01*
X28650000Y-29334146D01*
X28650000Y-29465853D01*
X28651696Y-29478739D01*
X28685786Y-29605964D01*
X28690757Y-29617965D01*
X28756612Y-29732031D01*
X28764524Y-29742342D01*
X28857657Y-29835475D01*
X28867968Y-29843387D01*
X28982034Y-29909242D01*
X28994035Y-29914213D01*
X29121260Y-29948303D01*
X29134147Y-29950000D01*
X29265853Y-29950000D01*
X29278739Y-29948303D01*
X29405964Y-29914213D01*
X29417965Y-29909242D01*
X29532031Y-29843387D01*
X29542342Y-29835475D01*
X29635475Y-29742342D01*
X29643387Y-29732031D01*
X29709242Y-29617965D01*
X29714213Y-29605964D01*
X29748303Y-29478739D01*
X29750000Y-29465853D01*
X29750000Y-29386396D01*
X29766977Y-29334146D01*
X36050000Y-29334146D01*
X36050000Y-29465853D01*
X36051696Y-29478739D01*
X36085786Y-29605964D01*
X36090757Y-29617965D01*
X36156612Y-29732031D01*
X36164524Y-29742342D01*
X36257657Y-29835475D01*
X36267968Y-29843387D01*
X36382034Y-29909242D01*
X36394035Y-29914213D01*
X36521260Y-29948303D01*
X36534147Y-29950000D01*
X36613604Y-29950000D01*
X36672383Y-29969098D01*
X36684315Y-29979289D01*
X37120711Y-30415685D01*
X37148769Y-30470753D01*
X37150000Y-30486396D01*
X37150000Y-30565853D01*
X37151696Y-30578739D01*
X37185786Y-30705964D01*
X37190757Y-30717965D01*
X37256612Y-30832031D01*
X37264524Y-30842342D01*
X37357657Y-30935475D01*
X37367968Y-30943387D01*
X37482034Y-31009242D01*
X37494035Y-31014213D01*
X37621260Y-31048303D01*
X37634147Y-31050000D01*
X37765853Y-31050000D01*
X37778739Y-31048303D01*
X37905964Y-31014213D01*
X37917965Y-31009242D01*
X38032031Y-30943387D01*
X38042342Y-30935475D01*
X38135475Y-30842342D01*
X38143387Y-30832031D01*
X38209242Y-30717965D01*
X38214213Y-30705964D01*
X38248303Y-30578739D01*
X38250000Y-30565853D01*
X38250000Y-30434146D01*
X38248303Y-30421260D01*
X38214213Y-30294035D01*
X38209242Y-30282034D01*
X38143387Y-30167968D01*
X38135475Y-30157657D01*
X38042342Y-30064524D01*
X38032031Y-30056612D01*
X37917965Y-29990757D01*
X37905964Y-29985786D01*
X37778739Y-29951696D01*
X37765853Y-29950000D01*
X37686396Y-29950000D01*
X37627617Y-29930902D01*
X37615685Y-29920711D01*
X37179289Y-29484315D01*
X37151231Y-29429247D01*
X37150000Y-29413604D01*
X37150000Y-29334146D01*
X37148303Y-29321260D01*
X37114213Y-29194035D01*
X37109242Y-29182034D01*
X37043387Y-29067968D01*
X37035475Y-29057657D01*
X36942342Y-28964524D01*
X36932031Y-28956612D01*
X36817965Y-28890757D01*
X36805964Y-28885786D01*
X36678739Y-28851696D01*
X36665853Y-28850000D01*
X36534147Y-28850000D01*
X36521260Y-28851696D01*
X36394035Y-28885786D01*
X36382034Y-28890757D01*
X36267968Y-28956612D01*
X36257657Y-28964524D01*
X36164524Y-29057657D01*
X36156612Y-29067968D01*
X36090757Y-29182034D01*
X36085786Y-29194035D01*
X36051696Y-29321260D01*
X36050000Y-29334146D01*
X29766977Y-29334146D01*
X29769098Y-29327617D01*
X29779289Y-29315685D01*
X30317805Y-28777168D01*
X30372872Y-28749110D01*
X30375472Y-28748733D01*
X30378743Y-28748302D01*
X30505964Y-28714213D01*
X30517965Y-28709242D01*
X30632031Y-28643387D01*
X30642342Y-28635475D01*
X30735475Y-28542342D01*
X30743387Y-28532031D01*
X30799900Y-28434146D01*
X42550000Y-28434146D01*
X42550000Y-28565853D01*
X42551696Y-28578739D01*
X42585786Y-28705964D01*
X42590757Y-28717964D01*
X42636603Y-28797372D01*
X42650000Y-28847372D01*
X42650000Y-29152688D01*
X42651696Y-29165574D01*
X42678971Y-29267366D01*
X42683942Y-29279366D01*
X42719012Y-29340110D01*
X42736634Y-29370632D01*
X42744540Y-29380936D01*
X43520711Y-30157107D01*
X43548769Y-30212175D01*
X43550000Y-30227818D01*
X43550000Y-34352627D01*
X43536603Y-34402626D01*
X43490757Y-34482033D01*
X43485786Y-34494034D01*
X43451696Y-34621260D01*
X43450000Y-34634146D01*
X43450000Y-34765853D01*
X43451696Y-34778739D01*
X43485786Y-34905964D01*
X43490757Y-34917965D01*
X43556612Y-35032031D01*
X43564524Y-35042342D01*
X43657657Y-35135475D01*
X43667968Y-35143387D01*
X43782034Y-35209242D01*
X43794035Y-35214213D01*
X43921260Y-35248303D01*
X43934147Y-35250000D01*
X44065853Y-35250000D01*
X44078739Y-35248303D01*
X44205964Y-35214213D01*
X44217965Y-35209242D01*
X44332031Y-35143387D01*
X44342342Y-35135475D01*
X44435475Y-35042342D01*
X44443387Y-35032031D01*
X44509242Y-34917965D01*
X44514213Y-34905964D01*
X44548303Y-34778739D01*
X44550000Y-34765853D01*
X44550000Y-34634146D01*
X44548303Y-34621260D01*
X44514213Y-34494034D01*
X44509242Y-34482033D01*
X44463397Y-34402626D01*
X44450000Y-34352627D01*
X44450000Y-29947311D01*
X44448303Y-29934425D01*
X44421028Y-29832633D01*
X44416057Y-29820633D01*
X44366124Y-29734146D01*
X51650000Y-29734146D01*
X51650000Y-29865853D01*
X51651696Y-29878739D01*
X51685786Y-30005964D01*
X51690757Y-30017965D01*
X51756612Y-30132031D01*
X51764524Y-30142342D01*
X51820711Y-30198529D01*
X51848769Y-30253597D01*
X51850000Y-30269240D01*
X51850000Y-32730760D01*
X51830902Y-32789539D01*
X51820711Y-32801471D01*
X51764524Y-32857657D01*
X51756612Y-32867968D01*
X51690757Y-32982034D01*
X51685786Y-32994035D01*
X51651696Y-33121260D01*
X51650000Y-33134146D01*
X51650000Y-33265853D01*
X51651696Y-33278739D01*
X51685786Y-33405964D01*
X51690757Y-33417965D01*
X51756612Y-33532031D01*
X51764524Y-33542342D01*
X51857657Y-33635475D01*
X51867968Y-33643387D01*
X51982034Y-33709242D01*
X51994035Y-33714213D01*
X52121260Y-33748303D01*
X52134147Y-33750000D01*
X52265853Y-33750000D01*
X52278739Y-33748303D01*
X52405964Y-33714213D01*
X52417965Y-33709242D01*
X52532031Y-33643387D01*
X52542342Y-33635475D01*
X52635475Y-33542342D01*
X52643387Y-33532031D01*
X52709242Y-33417965D01*
X52714213Y-33405964D01*
X52748303Y-33278739D01*
X52750000Y-33265853D01*
X52750000Y-33134146D01*
X52748303Y-33121260D01*
X52714213Y-32994035D01*
X52709242Y-32982034D01*
X52643387Y-32867968D01*
X52635475Y-32857657D01*
X52579289Y-32801471D01*
X52551231Y-32746403D01*
X52550000Y-32730760D01*
X52550000Y-30269240D01*
X52569098Y-30210461D01*
X52579289Y-30198529D01*
X52635475Y-30142342D01*
X52643387Y-30132031D01*
X52709242Y-30017965D01*
X52714213Y-30005964D01*
X52748303Y-29878739D01*
X52750000Y-29865853D01*
X52750000Y-29734146D01*
X52748303Y-29721260D01*
X52714213Y-29594035D01*
X52709242Y-29582034D01*
X52643387Y-29467968D01*
X52635475Y-29457657D01*
X52542342Y-29364524D01*
X52532031Y-29356612D01*
X52417965Y-29290757D01*
X52405964Y-29285786D01*
X52278739Y-29251696D01*
X52265853Y-29250000D01*
X52134147Y-29250000D01*
X52121260Y-29251696D01*
X51994035Y-29285786D01*
X51982034Y-29290757D01*
X51867968Y-29356612D01*
X51857657Y-29364524D01*
X51764524Y-29457657D01*
X51756612Y-29467968D01*
X51690757Y-29582034D01*
X51685786Y-29594035D01*
X51651696Y-29721260D01*
X51650000Y-29734146D01*
X44366124Y-29734146D01*
X44363367Y-29729370D01*
X44355455Y-29719059D01*
X44200866Y-29564470D01*
X44172808Y-29509402D01*
X44182476Y-29448360D01*
X44221578Y-29407156D01*
X44332028Y-29343389D01*
X44342342Y-29335475D01*
X44435475Y-29242342D01*
X44443387Y-29232031D01*
X44509242Y-29117965D01*
X44514213Y-29105964D01*
X44548303Y-28978739D01*
X44550000Y-28965853D01*
X44550000Y-28886396D01*
X44569098Y-28827617D01*
X44579289Y-28815685D01*
X44775435Y-28619539D01*
X44783347Y-28609228D01*
X44822872Y-28540767D01*
X44827843Y-28528767D01*
X44848303Y-28452408D01*
X44850000Y-28439522D01*
X44850000Y-27669240D01*
X44869098Y-27610461D01*
X44879289Y-27598529D01*
X44935475Y-27542342D01*
X44943387Y-27532031D01*
X45009242Y-27417965D01*
X45014213Y-27405964D01*
X45048303Y-27278739D01*
X45050000Y-27265853D01*
X45050000Y-27134146D01*
X45048303Y-27121260D01*
X45014213Y-26994035D01*
X45009242Y-26982034D01*
X44943387Y-26867968D01*
X44935475Y-26857657D01*
X44842342Y-26764524D01*
X44832031Y-26756612D01*
X44793118Y-26734146D01*
X49250000Y-26734146D01*
X49250000Y-26865853D01*
X49251696Y-26878739D01*
X49285786Y-27005964D01*
X49290757Y-27017965D01*
X49356612Y-27132031D01*
X49364524Y-27142342D01*
X49457657Y-27235475D01*
X49467968Y-27243387D01*
X49582034Y-27309242D01*
X49594035Y-27314213D01*
X49721260Y-27348303D01*
X49734147Y-27350000D01*
X49813604Y-27350000D01*
X49872383Y-27369098D01*
X49884315Y-27379289D01*
X50320711Y-27815685D01*
X50348769Y-27870753D01*
X50350000Y-27886396D01*
X50350000Y-27965853D01*
X50351696Y-27978739D01*
X50385786Y-28105964D01*
X50390757Y-28117965D01*
X50456612Y-28232031D01*
X50464524Y-28242342D01*
X50557657Y-28335475D01*
X50567968Y-28343387D01*
X50682034Y-28409242D01*
X50694035Y-28414213D01*
X50821260Y-28448303D01*
X50834147Y-28450000D01*
X50965853Y-28450000D01*
X50978739Y-28448303D01*
X51105964Y-28414213D01*
X51117965Y-28409242D01*
X51232031Y-28343387D01*
X51242342Y-28335475D01*
X51335475Y-28242342D01*
X51343387Y-28232031D01*
X51399900Y-28134146D01*
X54150000Y-28134146D01*
X54150000Y-28265853D01*
X54151696Y-28278739D01*
X54185786Y-28405964D01*
X54190757Y-28417965D01*
X54256612Y-28532031D01*
X54264524Y-28542342D01*
X54357657Y-28635475D01*
X54367968Y-28643387D01*
X54482034Y-28709242D01*
X54494035Y-28714213D01*
X54621260Y-28748303D01*
X54634147Y-28750000D01*
X54713604Y-28750000D01*
X54772383Y-28769098D01*
X54784315Y-28779289D01*
X55419929Y-29414904D01*
X55480460Y-29475435D01*
X55490771Y-29483347D01*
X55559232Y-29522872D01*
X55571232Y-29527843D01*
X55647591Y-29548303D01*
X55660478Y-29550000D01*
X56830760Y-29550000D01*
X56889539Y-29569098D01*
X56901471Y-29579289D01*
X56957657Y-29635475D01*
X56967968Y-29643387D01*
X57082034Y-29709242D01*
X57094035Y-29714213D01*
X57221260Y-29748303D01*
X57234147Y-29750000D01*
X57365853Y-29750000D01*
X57378739Y-29748303D01*
X57505964Y-29714213D01*
X57517965Y-29709242D01*
X57632031Y-29643387D01*
X57642342Y-29635475D01*
X57735475Y-29542342D01*
X57743387Y-29532031D01*
X57809242Y-29417965D01*
X57814213Y-29405964D01*
X57848303Y-29278739D01*
X57850000Y-29265853D01*
X57850000Y-29134146D01*
X57848303Y-29121260D01*
X57814213Y-28994035D01*
X57809242Y-28982034D01*
X57743387Y-28867968D01*
X57735475Y-28857657D01*
X57642342Y-28764524D01*
X57632031Y-28756612D01*
X57517965Y-28690757D01*
X57505964Y-28685786D01*
X57378739Y-28651696D01*
X57365853Y-28650000D01*
X57234147Y-28650000D01*
X57221260Y-28651696D01*
X57094035Y-28685786D01*
X57082034Y-28690757D01*
X56967968Y-28756612D01*
X56957657Y-28764524D01*
X56901471Y-28820711D01*
X56846403Y-28848769D01*
X56830760Y-28850000D01*
X55886397Y-28850000D01*
X55827618Y-28830902D01*
X55815686Y-28820711D01*
X55279289Y-28284314D01*
X55251231Y-28229246D01*
X55250000Y-28213603D01*
X55250000Y-28134146D01*
X55248303Y-28121260D01*
X55214213Y-27994035D01*
X55209242Y-27982034D01*
X55143387Y-27867968D01*
X55135475Y-27857657D01*
X55042342Y-27764524D01*
X55032031Y-27756612D01*
X54917965Y-27690757D01*
X54905964Y-27685786D01*
X54778739Y-27651696D01*
X54765853Y-27650000D01*
X54634147Y-27650000D01*
X54621260Y-27651696D01*
X54494035Y-27685786D01*
X54482034Y-27690757D01*
X54367968Y-27756612D01*
X54357657Y-27764524D01*
X54264524Y-27857657D01*
X54256612Y-27867968D01*
X54190757Y-27982034D01*
X54185786Y-27994035D01*
X54151696Y-28121260D01*
X54150000Y-28134146D01*
X51399900Y-28134146D01*
X51409242Y-28117965D01*
X51414213Y-28105964D01*
X51448303Y-27978739D01*
X51450000Y-27965853D01*
X51450000Y-27834146D01*
X51448303Y-27821260D01*
X51414213Y-27694035D01*
X51409242Y-27682034D01*
X51343387Y-27567968D01*
X51335475Y-27557657D01*
X51242342Y-27464524D01*
X51232031Y-27456612D01*
X51117965Y-27390757D01*
X51105964Y-27385786D01*
X50978739Y-27351696D01*
X50965853Y-27350000D01*
X50886396Y-27350000D01*
X50827617Y-27330902D01*
X50815685Y-27320711D01*
X50629120Y-27134146D01*
X56550000Y-27134146D01*
X56550000Y-27265853D01*
X56551696Y-27278739D01*
X56585786Y-27405964D01*
X56590757Y-27417965D01*
X56656612Y-27532031D01*
X56664524Y-27542342D01*
X56757657Y-27635475D01*
X56767968Y-27643387D01*
X56882034Y-27709242D01*
X56894035Y-27714213D01*
X57021260Y-27748303D01*
X57034147Y-27750000D01*
X57113604Y-27750000D01*
X57172383Y-27769098D01*
X57184315Y-27779289D01*
X61884315Y-32479289D01*
X61912373Y-32534357D01*
X61902705Y-32595399D01*
X61859003Y-32639101D01*
X61813604Y-32650000D01*
X61734147Y-32650000D01*
X61721260Y-32651696D01*
X61594035Y-32685786D01*
X61582034Y-32690757D01*
X61467968Y-32756612D01*
X61457657Y-32764524D01*
X61401471Y-32820711D01*
X61346403Y-32848769D01*
X61330760Y-32850000D01*
X60669240Y-32850000D01*
X60610461Y-32830902D01*
X60598529Y-32820711D01*
X60542342Y-32764524D01*
X60532031Y-32756612D01*
X60412292Y-32687482D01*
X60413800Y-32684868D01*
X60376271Y-32652797D01*
X60361859Y-32592698D01*
X60374947Y-32550570D01*
X60416058Y-32479365D01*
X60421030Y-32467362D01*
X60448303Y-32365574D01*
X60450000Y-32352686D01*
X60450000Y-32247372D01*
X60463397Y-32197372D01*
X60509242Y-32117964D01*
X60514213Y-32105964D01*
X60548303Y-31978739D01*
X60550000Y-31965853D01*
X60550000Y-31834146D01*
X60548303Y-31821260D01*
X60514213Y-31694035D01*
X60509242Y-31682034D01*
X60443387Y-31567968D01*
X60435475Y-31557657D01*
X60342342Y-31464524D01*
X60332031Y-31456612D01*
X60217965Y-31390757D01*
X60205964Y-31385786D01*
X60078739Y-31351696D01*
X60065853Y-31350000D01*
X59934147Y-31350000D01*
X59921260Y-31351696D01*
X59794035Y-31385786D01*
X59782034Y-31390757D01*
X59667968Y-31456612D01*
X59657657Y-31464524D01*
X59564524Y-31557657D01*
X59556612Y-31567968D01*
X59490757Y-31682034D01*
X59485786Y-31694035D01*
X59451696Y-31821260D01*
X59450000Y-31834146D01*
X59450000Y-31965853D01*
X59451696Y-31978739D01*
X59486027Y-32106863D01*
X59482792Y-32168582D01*
X59460145Y-32203455D01*
X59044543Y-32619059D01*
X59036634Y-32629367D01*
X58983943Y-32720630D01*
X58978970Y-32732635D01*
X58974318Y-32749999D01*
X58951696Y-32834425D01*
X58950000Y-32847311D01*
X58950000Y-41152627D01*
X58936603Y-41202626D01*
X58890757Y-41282033D01*
X58885786Y-41294034D01*
X58851696Y-41421260D01*
X58850000Y-41434146D01*
X58850000Y-41565853D01*
X58851696Y-41578739D01*
X58885786Y-41705964D01*
X58890757Y-41717965D01*
X58956612Y-41832031D01*
X58964524Y-41842342D01*
X59057657Y-41935475D01*
X59067968Y-41943387D01*
X59182034Y-42009242D01*
X59194035Y-42014213D01*
X59321260Y-42048303D01*
X59334147Y-42050000D01*
X59465853Y-42050000D01*
X59478739Y-42048303D01*
X59605964Y-42014213D01*
X59617965Y-42009242D01*
X59732031Y-41943387D01*
X59742342Y-41935475D01*
X59835475Y-41842342D01*
X59843387Y-41832031D01*
X59909242Y-41717965D01*
X59914213Y-41705964D01*
X59948303Y-41578739D01*
X59950000Y-41565853D01*
X59950000Y-41434146D01*
X59948303Y-41421260D01*
X59914213Y-41294034D01*
X59909242Y-41282033D01*
X59881595Y-41234146D01*
X63250000Y-41234146D01*
X63250000Y-41365853D01*
X63251696Y-41378739D01*
X63285786Y-41505964D01*
X63290757Y-41517965D01*
X63356612Y-41632031D01*
X63364524Y-41642342D01*
X63457657Y-41735475D01*
X63467968Y-41743387D01*
X63582034Y-41809242D01*
X63594035Y-41814213D01*
X63721260Y-41848303D01*
X63734147Y-41850000D01*
X63865853Y-41850000D01*
X63878739Y-41848303D01*
X64005965Y-41814213D01*
X64017962Y-41809243D01*
X64097372Y-41763397D01*
X64147372Y-41750000D01*
X65052628Y-41750000D01*
X65102628Y-41763397D01*
X65182037Y-41809243D01*
X65194034Y-41814213D01*
X65321260Y-41848303D01*
X65334147Y-41850000D01*
X65465853Y-41850000D01*
X65478739Y-41848303D01*
X65605964Y-41814213D01*
X65617965Y-41809242D01*
X65732031Y-41743387D01*
X65742342Y-41735475D01*
X65835475Y-41642342D01*
X65843387Y-41632031D01*
X65909242Y-41517965D01*
X65914213Y-41505964D01*
X65948303Y-41378739D01*
X65950000Y-41365853D01*
X65950000Y-41234146D01*
X72150000Y-41234146D01*
X72150000Y-41365853D01*
X72151696Y-41378739D01*
X72185786Y-41505964D01*
X72190757Y-41517965D01*
X72256612Y-41632031D01*
X72264524Y-41642342D01*
X72357657Y-41735475D01*
X72367968Y-41743387D01*
X72482034Y-41809242D01*
X72494036Y-41814214D01*
X72582600Y-41837944D01*
X72627430Y-41863826D01*
X73236173Y-42472569D01*
X73262054Y-42517397D01*
X73285785Y-42605960D01*
X73290758Y-42617967D01*
X73356612Y-42732031D01*
X73364524Y-42742342D01*
X73457657Y-42835475D01*
X73467968Y-42843387D01*
X73582034Y-42909242D01*
X73594035Y-42914213D01*
X73721260Y-42948303D01*
X73734147Y-42950000D01*
X73865853Y-42950000D01*
X73878739Y-42948303D01*
X74005964Y-42914213D01*
X74017965Y-42909242D01*
X74132031Y-42843387D01*
X74142342Y-42835475D01*
X74235475Y-42742342D01*
X74243387Y-42732031D01*
X74309242Y-42617965D01*
X74314213Y-42605964D01*
X74348303Y-42478739D01*
X74350000Y-42465853D01*
X74350000Y-42334146D01*
X74348303Y-42321260D01*
X74314213Y-42194035D01*
X74309242Y-42182034D01*
X74243387Y-42067968D01*
X74235475Y-42057657D01*
X74142342Y-41964524D01*
X74132031Y-41956612D01*
X74017967Y-41890758D01*
X74005960Y-41885785D01*
X73917397Y-41862054D01*
X73872569Y-41836173D01*
X73263826Y-41227430D01*
X73237944Y-41182600D01*
X73214214Y-41094036D01*
X73209242Y-41082034D01*
X73143387Y-40967968D01*
X73135475Y-40957657D01*
X73042342Y-40864524D01*
X73032031Y-40856612D01*
X72917965Y-40790757D01*
X72905964Y-40785786D01*
X72778739Y-40751696D01*
X72765853Y-40750000D01*
X72634147Y-40750000D01*
X72621260Y-40751696D01*
X72494035Y-40785786D01*
X72482034Y-40790757D01*
X72367968Y-40856612D01*
X72357657Y-40864524D01*
X72264524Y-40957657D01*
X72256612Y-40967968D01*
X72190757Y-41082034D01*
X72185786Y-41094035D01*
X72151696Y-41221260D01*
X72150000Y-41234146D01*
X65950000Y-41234146D01*
X65948303Y-41221260D01*
X65914213Y-41094035D01*
X65909242Y-41082034D01*
X65843387Y-40967968D01*
X65835475Y-40957657D01*
X65742342Y-40864524D01*
X65732031Y-40856612D01*
X65617965Y-40790757D01*
X65605964Y-40785786D01*
X65478739Y-40751696D01*
X65465853Y-40750000D01*
X65334147Y-40750000D01*
X65321260Y-40751696D01*
X65194034Y-40785786D01*
X65182037Y-40790756D01*
X65102628Y-40836603D01*
X65052628Y-40850000D01*
X64147372Y-40850000D01*
X64097372Y-40836603D01*
X64017962Y-40790756D01*
X64005965Y-40785786D01*
X63878739Y-40751696D01*
X63865853Y-40750000D01*
X63734147Y-40750000D01*
X63721260Y-40751696D01*
X63594035Y-40785786D01*
X63582034Y-40790757D01*
X63467968Y-40856612D01*
X63457657Y-40864524D01*
X63364524Y-40957657D01*
X63356612Y-40967968D01*
X63290757Y-41082034D01*
X63285786Y-41094035D01*
X63251696Y-41221260D01*
X63250000Y-41234146D01*
X59881595Y-41234146D01*
X59863397Y-41202626D01*
X59850000Y-41152627D01*
X59850000Y-34934146D01*
X70850000Y-34934146D01*
X70850000Y-35065853D01*
X70851696Y-35078739D01*
X70885786Y-35205964D01*
X70890757Y-35217965D01*
X70956612Y-35332031D01*
X70964524Y-35342342D01*
X71020711Y-35398529D01*
X71048769Y-35453597D01*
X71050000Y-35469240D01*
X71050000Y-37130760D01*
X71030902Y-37189539D01*
X71020711Y-37201471D01*
X70964524Y-37257657D01*
X70956612Y-37267968D01*
X70890757Y-37382034D01*
X70885786Y-37394035D01*
X70851696Y-37521260D01*
X70850000Y-37534146D01*
X70850000Y-37665853D01*
X70851696Y-37678739D01*
X70885786Y-37805964D01*
X70890757Y-37817965D01*
X70956612Y-37932031D01*
X70964524Y-37942342D01*
X71057657Y-38035475D01*
X71067968Y-38043387D01*
X71182034Y-38109242D01*
X71194035Y-38114213D01*
X71321260Y-38148303D01*
X71334147Y-38150000D01*
X71465853Y-38150000D01*
X71478739Y-38148303D01*
X71605964Y-38114213D01*
X71617965Y-38109242D01*
X71732031Y-38043387D01*
X71742342Y-38035475D01*
X71835475Y-37942342D01*
X71843387Y-37932031D01*
X71909242Y-37817965D01*
X71914213Y-37805964D01*
X71948303Y-37678739D01*
X71950000Y-37665853D01*
X71950000Y-37534146D01*
X71948303Y-37521260D01*
X71924961Y-37434146D01*
X75850000Y-37434146D01*
X75850000Y-37565853D01*
X75851696Y-37578739D01*
X75885786Y-37705964D01*
X75890757Y-37717965D01*
X75956612Y-37832031D01*
X75964524Y-37842342D01*
X76057657Y-37935475D01*
X76067968Y-37943387D01*
X76182034Y-38009242D01*
X76194035Y-38014213D01*
X76321260Y-38048303D01*
X76334147Y-38050000D01*
X76465853Y-38050000D01*
X76478739Y-38048303D01*
X76605964Y-38014213D01*
X76617965Y-38009242D01*
X76732031Y-37943387D01*
X76742342Y-37935475D01*
X76798529Y-37879289D01*
X76853597Y-37851231D01*
X76869240Y-37850000D01*
X79030760Y-37850000D01*
X79089539Y-37869098D01*
X79101471Y-37879289D01*
X79157657Y-37935475D01*
X79167968Y-37943387D01*
X79282034Y-38009242D01*
X79294035Y-38014213D01*
X79421260Y-38048303D01*
X79434147Y-38050000D01*
X79565853Y-38050000D01*
X79578739Y-38048303D01*
X79705964Y-38014213D01*
X79717965Y-38009242D01*
X79832031Y-37943387D01*
X79842342Y-37935475D01*
X79843671Y-37934146D01*
X83850000Y-37934146D01*
X83850000Y-38065853D01*
X83851696Y-38078739D01*
X83885786Y-38205964D01*
X83890757Y-38217965D01*
X83956612Y-38332031D01*
X83964524Y-38342342D01*
X84057657Y-38435475D01*
X84067968Y-38443387D01*
X84182034Y-38509242D01*
X84194035Y-38514213D01*
X84321260Y-38548303D01*
X84334147Y-38550000D01*
X84465853Y-38550000D01*
X84478739Y-38548303D01*
X84605964Y-38514213D01*
X84617965Y-38509242D01*
X84732031Y-38443387D01*
X84742342Y-38435475D01*
X84798529Y-38379289D01*
X84853597Y-38351231D01*
X84869240Y-38350000D01*
X87630760Y-38350000D01*
X87689539Y-38369098D01*
X87701471Y-38379289D01*
X87757657Y-38435475D01*
X87767968Y-38443387D01*
X87882034Y-38509242D01*
X87894035Y-38514213D01*
X88021260Y-38548303D01*
X88034147Y-38550000D01*
X88165853Y-38550000D01*
X88178739Y-38548303D01*
X88305964Y-38514213D01*
X88317965Y-38509242D01*
X88432031Y-38443387D01*
X88442342Y-38435475D01*
X88535475Y-38342342D01*
X88543387Y-38332031D01*
X88609242Y-38217965D01*
X88614213Y-38205964D01*
X88648303Y-38078739D01*
X88650000Y-38065853D01*
X88650000Y-37934146D01*
X88648303Y-37921260D01*
X88614213Y-37794035D01*
X88609242Y-37782034D01*
X88543387Y-37667968D01*
X88535475Y-37657657D01*
X88442342Y-37564524D01*
X88432031Y-37556612D01*
X88317965Y-37490757D01*
X88305964Y-37485786D01*
X88178739Y-37451696D01*
X88165853Y-37450000D01*
X88034147Y-37450000D01*
X88021260Y-37451696D01*
X87894035Y-37485786D01*
X87882034Y-37490757D01*
X87767968Y-37556612D01*
X87757657Y-37564524D01*
X87701471Y-37620711D01*
X87646403Y-37648769D01*
X87630760Y-37650000D01*
X84869240Y-37650000D01*
X84810461Y-37630902D01*
X84798529Y-37620711D01*
X84742342Y-37564524D01*
X84732031Y-37556612D01*
X84617965Y-37490757D01*
X84605964Y-37485786D01*
X84478739Y-37451696D01*
X84465853Y-37450000D01*
X84334147Y-37450000D01*
X84321260Y-37451696D01*
X84194035Y-37485786D01*
X84182034Y-37490757D01*
X84067968Y-37556612D01*
X84057657Y-37564524D01*
X83964524Y-37657657D01*
X83956612Y-37667968D01*
X83890757Y-37782034D01*
X83885786Y-37794035D01*
X83851696Y-37921260D01*
X83850000Y-37934146D01*
X79843671Y-37934146D01*
X79935475Y-37842342D01*
X79943387Y-37832031D01*
X80009242Y-37717965D01*
X80014213Y-37705964D01*
X80048303Y-37578739D01*
X80050000Y-37565853D01*
X80050000Y-37434146D01*
X80048303Y-37421260D01*
X80014213Y-37294035D01*
X80009242Y-37282034D01*
X79943387Y-37167968D01*
X79935475Y-37157657D01*
X79842342Y-37064524D01*
X79832031Y-37056612D01*
X79717965Y-36990757D01*
X79705964Y-36985786D01*
X79578739Y-36951696D01*
X79565853Y-36950000D01*
X79434147Y-36950000D01*
X79421260Y-36951696D01*
X79294035Y-36985786D01*
X79282034Y-36990757D01*
X79167968Y-37056612D01*
X79157657Y-37064524D01*
X79101471Y-37120711D01*
X79046403Y-37148769D01*
X79030760Y-37150000D01*
X77169240Y-37150000D01*
X77110461Y-37130902D01*
X77074134Y-37080902D01*
X77074134Y-37019098D01*
X77098529Y-36979289D01*
X77135475Y-36942342D01*
X77143387Y-36932031D01*
X77209242Y-36817965D01*
X77214213Y-36805964D01*
X77248303Y-36678739D01*
X77250000Y-36665853D01*
X77250000Y-36534146D01*
X77248303Y-36521260D01*
X77214213Y-36394035D01*
X77209242Y-36382034D01*
X77143387Y-36267968D01*
X77135475Y-36257657D01*
X77079289Y-36201471D01*
X77051231Y-36146403D01*
X77050000Y-36130760D01*
X77050000Y-35469240D01*
X77069098Y-35410461D01*
X77079289Y-35398529D01*
X77135475Y-35342342D01*
X77143387Y-35332031D01*
X77209242Y-35217965D01*
X77214213Y-35205964D01*
X77248303Y-35078739D01*
X77250000Y-35065853D01*
X77250000Y-34934146D01*
X84650000Y-34934146D01*
X84650000Y-35065853D01*
X84651696Y-35078739D01*
X84685786Y-35205964D01*
X84690757Y-35217965D01*
X84756612Y-35332031D01*
X84764524Y-35342342D01*
X84820711Y-35398529D01*
X84848769Y-35453597D01*
X84850000Y-35469240D01*
X84850000Y-36130760D01*
X84830902Y-36189539D01*
X84820711Y-36201471D01*
X84764524Y-36257657D01*
X84756612Y-36267968D01*
X84690757Y-36382034D01*
X84685786Y-36394035D01*
X84651696Y-36521260D01*
X84650000Y-36534146D01*
X84650000Y-36665853D01*
X84651696Y-36678739D01*
X84685786Y-36805964D01*
X84690757Y-36817965D01*
X84756612Y-36932031D01*
X84764524Y-36942342D01*
X84857657Y-37035475D01*
X84867968Y-37043387D01*
X84982034Y-37109242D01*
X84994035Y-37114213D01*
X85121260Y-37148303D01*
X85134147Y-37150000D01*
X85265853Y-37150000D01*
X85278739Y-37148303D01*
X85405964Y-37114213D01*
X85417965Y-37109242D01*
X85532031Y-37043387D01*
X85542342Y-37035475D01*
X85635475Y-36942342D01*
X85643387Y-36932031D01*
X85709242Y-36817965D01*
X85714213Y-36805964D01*
X85748303Y-36678739D01*
X85750000Y-36665853D01*
X85750000Y-36534146D01*
X85748303Y-36521260D01*
X85714213Y-36394035D01*
X85709242Y-36382034D01*
X85643387Y-36267968D01*
X85635475Y-36257657D01*
X85579289Y-36201471D01*
X85551231Y-36146403D01*
X85550000Y-36130760D01*
X85550000Y-35469240D01*
X85569098Y-35410461D01*
X85579289Y-35398529D01*
X85635475Y-35342342D01*
X85643387Y-35332031D01*
X85709242Y-35217965D01*
X85714213Y-35205964D01*
X85748303Y-35078739D01*
X85750000Y-35065853D01*
X85750000Y-34934146D01*
X87850000Y-34934146D01*
X87850000Y-35065853D01*
X87851696Y-35078739D01*
X87885786Y-35205964D01*
X87890757Y-35217965D01*
X87956612Y-35332031D01*
X87964524Y-35342342D01*
X88020711Y-35398529D01*
X88048769Y-35453597D01*
X88050000Y-35469240D01*
X88050000Y-36130760D01*
X88030902Y-36189539D01*
X88020711Y-36201471D01*
X87964524Y-36257657D01*
X87956612Y-36267968D01*
X87890757Y-36382034D01*
X87885786Y-36394035D01*
X87851696Y-36521260D01*
X87850000Y-36534146D01*
X87850000Y-36665853D01*
X87851696Y-36678739D01*
X87885786Y-36805964D01*
X87890757Y-36817965D01*
X87956612Y-36932031D01*
X87964524Y-36942342D01*
X88057657Y-37035475D01*
X88067968Y-37043387D01*
X88182034Y-37109242D01*
X88194035Y-37114213D01*
X88321260Y-37148303D01*
X88334147Y-37150000D01*
X88465853Y-37150000D01*
X88478739Y-37148303D01*
X88605964Y-37114213D01*
X88617965Y-37109242D01*
X88732031Y-37043387D01*
X88742342Y-37035475D01*
X88835475Y-36942342D01*
X88843387Y-36932031D01*
X88909242Y-36817965D01*
X88914213Y-36805964D01*
X88948303Y-36678739D01*
X88950000Y-36665853D01*
X88950000Y-36534146D01*
X88948303Y-36521260D01*
X88914213Y-36394035D01*
X88909242Y-36382034D01*
X88843387Y-36267968D01*
X88835475Y-36257657D01*
X88779289Y-36201471D01*
X88751231Y-36146403D01*
X88750000Y-36130760D01*
X88750000Y-35469240D01*
X88769098Y-35410461D01*
X88779289Y-35398529D01*
X88835475Y-35342342D01*
X88843387Y-35332031D01*
X88909242Y-35217965D01*
X88914213Y-35205964D01*
X88948303Y-35078739D01*
X88950000Y-35065853D01*
X88950000Y-34934146D01*
X88948303Y-34921260D01*
X88914213Y-34794035D01*
X88909242Y-34782034D01*
X88843387Y-34667968D01*
X88835475Y-34657657D01*
X88742342Y-34564524D01*
X88732031Y-34556612D01*
X88617965Y-34490757D01*
X88605964Y-34485786D01*
X88478739Y-34451696D01*
X88465853Y-34450000D01*
X88334147Y-34450000D01*
X88321260Y-34451696D01*
X88194035Y-34485786D01*
X88182034Y-34490757D01*
X88067968Y-34556612D01*
X88057657Y-34564524D01*
X87964524Y-34657657D01*
X87956612Y-34667968D01*
X87890757Y-34782034D01*
X87885786Y-34794035D01*
X87851696Y-34921260D01*
X87850000Y-34934146D01*
X85750000Y-34934146D01*
X85748303Y-34921260D01*
X85714213Y-34794035D01*
X85709242Y-34782034D01*
X85643387Y-34667968D01*
X85635475Y-34657657D01*
X85542342Y-34564524D01*
X85532031Y-34556612D01*
X85417965Y-34490757D01*
X85405964Y-34485786D01*
X85278739Y-34451696D01*
X85265853Y-34450000D01*
X85134147Y-34450000D01*
X85121260Y-34451696D01*
X84994035Y-34485786D01*
X84982034Y-34490757D01*
X84867968Y-34556612D01*
X84857657Y-34564524D01*
X84764524Y-34657657D01*
X84756612Y-34667968D01*
X84690757Y-34782034D01*
X84685786Y-34794035D01*
X84651696Y-34921260D01*
X84650000Y-34934146D01*
X77250000Y-34934146D01*
X77248303Y-34921260D01*
X77214213Y-34794035D01*
X77209242Y-34782034D01*
X77143387Y-34667968D01*
X77135475Y-34657657D01*
X77042342Y-34564524D01*
X77032031Y-34556612D01*
X76917965Y-34490757D01*
X76905964Y-34485786D01*
X76778739Y-34451696D01*
X76765853Y-34450000D01*
X76634147Y-34450000D01*
X76621260Y-34451696D01*
X76494035Y-34485786D01*
X76482034Y-34490757D01*
X76367968Y-34556612D01*
X76357657Y-34564524D01*
X76264524Y-34657657D01*
X76256612Y-34667968D01*
X76190757Y-34782034D01*
X76185786Y-34794035D01*
X76151696Y-34921260D01*
X76150000Y-34934146D01*
X76150000Y-35065853D01*
X76151696Y-35078739D01*
X76185786Y-35205964D01*
X76190757Y-35217965D01*
X76256612Y-35332031D01*
X76264524Y-35342342D01*
X76320711Y-35398529D01*
X76348769Y-35453597D01*
X76350000Y-35469240D01*
X76350000Y-36130760D01*
X76330902Y-36189539D01*
X76320711Y-36201471D01*
X76264524Y-36257657D01*
X76256612Y-36267968D01*
X76190757Y-36382034D01*
X76185786Y-36394035D01*
X76151696Y-36521260D01*
X76150000Y-36534146D01*
X76150000Y-36665853D01*
X76151696Y-36678739D01*
X76185786Y-36805964D01*
X76190758Y-36817968D01*
X76213397Y-36857180D01*
X76226246Y-36917633D01*
X76201108Y-36974093D01*
X76176794Y-36993781D01*
X76067973Y-37056608D01*
X76057657Y-37064524D01*
X75964524Y-37157657D01*
X75956612Y-37167968D01*
X75890757Y-37282034D01*
X75885786Y-37294035D01*
X75851696Y-37421260D01*
X75850000Y-37434146D01*
X71924961Y-37434146D01*
X71914213Y-37394035D01*
X71909242Y-37382034D01*
X71843387Y-37267968D01*
X71835475Y-37257657D01*
X71779289Y-37201471D01*
X71751231Y-37146403D01*
X71750000Y-37130760D01*
X71750000Y-35469240D01*
X71769098Y-35410461D01*
X71779289Y-35398529D01*
X71835475Y-35342342D01*
X71843387Y-35332031D01*
X71909242Y-35217965D01*
X71914213Y-35205964D01*
X71948303Y-35078739D01*
X71950000Y-35065853D01*
X71950000Y-34934146D01*
X71948303Y-34921260D01*
X71914213Y-34794035D01*
X71909242Y-34782034D01*
X71843387Y-34667968D01*
X71835475Y-34657657D01*
X71742342Y-34564524D01*
X71732031Y-34556612D01*
X71617965Y-34490757D01*
X71605964Y-34485786D01*
X71478739Y-34451696D01*
X71465853Y-34450000D01*
X71334147Y-34450000D01*
X71321260Y-34451696D01*
X71194035Y-34485786D01*
X71182034Y-34490757D01*
X71067968Y-34556612D01*
X71057657Y-34564524D01*
X70964524Y-34657657D01*
X70956612Y-34667968D01*
X70890757Y-34782034D01*
X70885786Y-34794035D01*
X70851696Y-34921260D01*
X70850000Y-34934146D01*
X59850000Y-34934146D01*
X59850000Y-33804212D01*
X59869098Y-33745433D01*
X59919098Y-33709106D01*
X59980902Y-33709106D01*
X59988272Y-33711825D01*
X59994041Y-33714215D01*
X60121260Y-33748303D01*
X60134147Y-33750000D01*
X60265853Y-33750000D01*
X60278739Y-33748303D01*
X60405964Y-33714213D01*
X60417965Y-33709242D01*
X60532031Y-33643387D01*
X60542342Y-33635475D01*
X60598529Y-33579289D01*
X60653597Y-33551231D01*
X60669240Y-33550000D01*
X61330760Y-33550000D01*
X61389539Y-33569098D01*
X61401471Y-33579289D01*
X61457657Y-33635475D01*
X61467968Y-33643387D01*
X61582034Y-33709242D01*
X61594035Y-33714213D01*
X61721260Y-33748303D01*
X61734147Y-33750000D01*
X61867263Y-33750000D01*
X61926042Y-33769098D01*
X61962369Y-33819098D01*
X61963855Y-33875883D01*
X61951696Y-33921255D01*
X61950000Y-33934146D01*
X61950000Y-34065853D01*
X61951696Y-34078739D01*
X61985786Y-34205964D01*
X61990757Y-34217965D01*
X62056612Y-34332031D01*
X62064524Y-34342342D01*
X62157657Y-34435475D01*
X62167968Y-34443387D01*
X62282034Y-34509242D01*
X62294035Y-34514213D01*
X62421260Y-34548303D01*
X62434147Y-34550000D01*
X62565853Y-34550000D01*
X62578739Y-34548303D01*
X62705964Y-34514213D01*
X62717965Y-34509242D01*
X62832031Y-34443387D01*
X62842342Y-34435475D01*
X62935475Y-34342342D01*
X62943387Y-34332031D01*
X63009242Y-34217965D01*
X63014213Y-34205964D01*
X63048303Y-34078739D01*
X63050000Y-34065853D01*
X63050000Y-33934146D01*
X63048303Y-33921260D01*
X63014213Y-33794035D01*
X63009242Y-33782034D01*
X62943387Y-33667968D01*
X62935475Y-33657657D01*
X62879289Y-33601471D01*
X62851231Y-33546403D01*
X62850000Y-33530760D01*
X62850000Y-32560477D01*
X62848303Y-32547591D01*
X62827843Y-32471232D01*
X62822872Y-32459232D01*
X62783347Y-32390771D01*
X62775435Y-32380460D01*
X62714910Y-32319935D01*
X62714899Y-32319925D01*
X60615685Y-30220711D01*
X60587627Y-30165643D01*
X60597295Y-30104601D01*
X60640997Y-30060899D01*
X60686396Y-30050000D01*
X60765853Y-30050000D01*
X60778739Y-30048303D01*
X60905964Y-30014213D01*
X60917965Y-30009242D01*
X61032031Y-29943387D01*
X61042342Y-29935475D01*
X61135475Y-29842342D01*
X61143387Y-29832031D01*
X61209242Y-29717965D01*
X61214213Y-29705964D01*
X61248303Y-29578739D01*
X61250000Y-29565853D01*
X61250000Y-29434146D01*
X61248303Y-29421260D01*
X61214213Y-29294035D01*
X61209242Y-29282034D01*
X61143387Y-29167968D01*
X61135475Y-29157657D01*
X61042342Y-29064524D01*
X61032031Y-29056612D01*
X60917967Y-28990758D01*
X60905960Y-28985785D01*
X60817397Y-28962054D01*
X60772569Y-28936173D01*
X60163826Y-28327430D01*
X60137944Y-28282600D01*
X60114214Y-28194036D01*
X60109242Y-28182034D01*
X60043387Y-28067968D01*
X60035475Y-28057657D01*
X59942342Y-27964524D01*
X59932031Y-27956612D01*
X59817967Y-27890758D01*
X59805960Y-27885785D01*
X59717397Y-27862054D01*
X59672569Y-27836173D01*
X58970542Y-27134146D01*
X89650000Y-27134146D01*
X89650000Y-27265853D01*
X89651696Y-27278739D01*
X89685786Y-27405964D01*
X89690757Y-27417965D01*
X89756612Y-27532031D01*
X89764524Y-27542342D01*
X89820711Y-27598529D01*
X89848769Y-27653597D01*
X89850000Y-27669240D01*
X89850000Y-36130760D01*
X89830902Y-36189539D01*
X89820711Y-36201471D01*
X89764524Y-36257657D01*
X89756612Y-36267968D01*
X89690757Y-36382034D01*
X89685786Y-36394035D01*
X89651696Y-36521260D01*
X89650000Y-36534146D01*
X89650000Y-36665853D01*
X89651696Y-36678739D01*
X89685786Y-36805964D01*
X89690757Y-36817965D01*
X89756612Y-36932031D01*
X89764524Y-36942342D01*
X89857657Y-37035475D01*
X89867968Y-37043387D01*
X89982034Y-37109242D01*
X89994035Y-37114213D01*
X90121260Y-37148303D01*
X90134147Y-37150000D01*
X90265853Y-37150000D01*
X90278739Y-37148303D01*
X90405964Y-37114213D01*
X90417965Y-37109242D01*
X90532031Y-37043387D01*
X90542342Y-37035475D01*
X90635475Y-36942342D01*
X90643387Y-36932031D01*
X90709242Y-36817965D01*
X90714213Y-36805964D01*
X90748303Y-36678739D01*
X90750000Y-36665853D01*
X90750000Y-36534146D01*
X90748303Y-36521260D01*
X90714213Y-36394035D01*
X90709242Y-36382034D01*
X90643387Y-36267968D01*
X90635475Y-36257657D01*
X90579289Y-36201471D01*
X90551231Y-36146403D01*
X90550000Y-36130760D01*
X90550000Y-33930058D01*
X104180000Y-33930058D01*
X104180000Y-34069941D01*
X104180958Y-34079672D01*
X104208247Y-34216859D01*
X104211088Y-34226226D01*
X104264618Y-34355459D01*
X104269223Y-34364076D01*
X104346941Y-34480389D01*
X104353140Y-34487942D01*
X104452057Y-34586859D01*
X104459610Y-34593058D01*
X104575923Y-34670776D01*
X104584540Y-34675381D01*
X104713773Y-34728911D01*
X104723140Y-34731752D01*
X104860327Y-34759041D01*
X104870059Y-34760000D01*
X105009941Y-34760000D01*
X105019672Y-34759041D01*
X105156859Y-34731752D01*
X105166226Y-34728911D01*
X105295459Y-34675381D01*
X105304076Y-34670776D01*
X105420389Y-34593058D01*
X105427942Y-34586859D01*
X105526859Y-34487942D01*
X105533058Y-34480389D01*
X105610776Y-34364076D01*
X105615381Y-34355459D01*
X105668911Y-34226226D01*
X105671752Y-34216859D01*
X105699041Y-34079672D01*
X105700000Y-34069941D01*
X105700000Y-33930058D01*
X105699041Y-33920327D01*
X105671752Y-33783140D01*
X105668911Y-33773773D01*
X105615381Y-33644540D01*
X105610776Y-33635923D01*
X105533058Y-33519610D01*
X105526859Y-33512057D01*
X105427942Y-33413140D01*
X105420389Y-33406941D01*
X105304076Y-33329223D01*
X105295459Y-33324618D01*
X105166226Y-33271088D01*
X105156859Y-33268247D01*
X105019672Y-33240958D01*
X105009941Y-33240000D01*
X104870059Y-33240000D01*
X104860327Y-33240958D01*
X104723140Y-33268247D01*
X104713773Y-33271088D01*
X104584540Y-33324618D01*
X104575923Y-33329223D01*
X104459610Y-33406941D01*
X104452057Y-33413140D01*
X104353140Y-33512057D01*
X104346941Y-33519610D01*
X104269223Y-33635923D01*
X104264618Y-33644540D01*
X104211088Y-33773773D01*
X104208247Y-33783140D01*
X104180958Y-33920327D01*
X104180000Y-33930058D01*
X90550000Y-33930058D01*
X90550000Y-30454858D01*
X100000000Y-30454858D01*
X100000000Y-31545140D01*
X100000288Y-31550498D01*
X100005733Y-31601156D01*
X100008587Y-31613234D01*
X100054149Y-31735389D01*
X100060932Y-31747811D01*
X100138523Y-31851461D01*
X100148538Y-31861476D01*
X100252188Y-31939067D01*
X100264610Y-31945850D01*
X100386764Y-31991412D01*
X100398845Y-31994266D01*
X100449502Y-31999712D01*
X100454858Y-31999999D01*
X101545140Y-31999999D01*
X101550498Y-31999711D01*
X101601156Y-31994266D01*
X101613234Y-31991412D01*
X101735389Y-31945850D01*
X101747811Y-31939067D01*
X101851461Y-31861476D01*
X101861476Y-31851461D01*
X101939067Y-31747811D01*
X101945850Y-31735389D01*
X101991412Y-31613235D01*
X101994266Y-31601154D01*
X101999712Y-31550497D01*
X101999999Y-31545141D01*
X101999999Y-30454859D01*
X101999711Y-30449501D01*
X101994266Y-30398843D01*
X101991412Y-30386765D01*
X101945850Y-30264610D01*
X101939067Y-30252188D01*
X101861476Y-30148538D01*
X101851461Y-30138523D01*
X101747811Y-30060932D01*
X101735389Y-30054149D01*
X101613235Y-30008587D01*
X101601154Y-30005733D01*
X101550497Y-30000287D01*
X101545141Y-30000000D01*
X100454859Y-30000000D01*
X100449501Y-30000288D01*
X100398843Y-30005733D01*
X100386765Y-30008587D01*
X100264610Y-30054149D01*
X100252188Y-30060932D01*
X100148538Y-30138523D01*
X100138523Y-30148538D01*
X100060932Y-30252188D01*
X100054149Y-30264610D01*
X100008587Y-30386764D01*
X100005733Y-30398845D01*
X100000287Y-30449502D01*
X100000000Y-30454858D01*
X90550000Y-30454858D01*
X90550000Y-29347373D01*
X90569098Y-29288594D01*
X90619098Y-29252267D01*
X90680902Y-29252267D01*
X90730902Y-29288594D01*
X90736603Y-29297374D01*
X90756610Y-29332028D01*
X90764524Y-29342342D01*
X90857657Y-29435475D01*
X90867968Y-29443387D01*
X90982034Y-29509242D01*
X90994035Y-29514213D01*
X91121260Y-29548303D01*
X91134147Y-29550000D01*
X91265853Y-29550000D01*
X91278739Y-29548303D01*
X91405964Y-29514213D01*
X91417965Y-29509242D01*
X91532031Y-29443387D01*
X91542342Y-29435475D01*
X91635475Y-29342342D01*
X91643387Y-29332031D01*
X91709242Y-29217965D01*
X91714213Y-29205964D01*
X91748303Y-29078739D01*
X91750000Y-29065853D01*
X91750000Y-28934146D01*
X91748303Y-28921260D01*
X91714213Y-28794035D01*
X91709242Y-28782034D01*
X91643387Y-28667968D01*
X91635475Y-28657657D01*
X91579289Y-28601471D01*
X91551231Y-28546403D01*
X91550000Y-28530760D01*
X91550000Y-27906423D01*
X100000000Y-27906423D01*
X100000000Y-28093576D01*
X100000958Y-28103308D01*
X100037471Y-28286876D01*
X100040307Y-28296224D01*
X100111932Y-28469142D01*
X100116537Y-28477759D01*
X100220520Y-28633380D01*
X100226719Y-28640933D01*
X100359066Y-28773280D01*
X100366619Y-28779479D01*
X100522240Y-28883462D01*
X100530857Y-28888067D01*
X100703775Y-28959692D01*
X100713123Y-28962528D01*
X100896691Y-28999041D01*
X100906423Y-29000000D01*
X101093577Y-29000000D01*
X101103308Y-28999041D01*
X101286876Y-28962528D01*
X101296224Y-28959692D01*
X101469142Y-28888067D01*
X101477759Y-28883462D01*
X101633380Y-28779479D01*
X101640933Y-28773280D01*
X101773280Y-28640933D01*
X101779479Y-28633380D01*
X101883462Y-28477759D01*
X101888067Y-28469142D01*
X101959692Y-28296224D01*
X101962528Y-28286876D01*
X101999041Y-28103308D01*
X102000000Y-28093576D01*
X102000000Y-27906423D01*
X103000000Y-27906423D01*
X103000000Y-28093576D01*
X103000958Y-28103308D01*
X103037471Y-28286876D01*
X103040307Y-28296224D01*
X103111932Y-28469142D01*
X103116537Y-28477759D01*
X103220520Y-28633380D01*
X103226719Y-28640933D01*
X103359066Y-28773280D01*
X103366619Y-28779479D01*
X103522240Y-28883462D01*
X103530857Y-28888067D01*
X103703775Y-28959692D01*
X103713123Y-28962528D01*
X103896691Y-28999041D01*
X103906423Y-29000000D01*
X104093577Y-29000000D01*
X104103308Y-28999041D01*
X104286876Y-28962528D01*
X104296224Y-28959692D01*
X104469142Y-28888067D01*
X104477759Y-28883462D01*
X104633380Y-28779479D01*
X104640933Y-28773280D01*
X104773280Y-28640933D01*
X104779479Y-28633380D01*
X104883462Y-28477759D01*
X104888067Y-28469142D01*
X104959692Y-28296224D01*
X104962528Y-28286876D01*
X104999041Y-28103308D01*
X105000000Y-28093576D01*
X105000000Y-27906423D01*
X104999041Y-27896691D01*
X104962528Y-27713123D01*
X104959692Y-27703775D01*
X104888067Y-27530857D01*
X104883462Y-27522240D01*
X104779479Y-27366619D01*
X104773280Y-27359066D01*
X104640933Y-27226719D01*
X104633380Y-27220520D01*
X104477759Y-27116537D01*
X104469142Y-27111932D01*
X104296224Y-27040307D01*
X104286876Y-27037471D01*
X104103308Y-27000958D01*
X104093577Y-27000000D01*
X103906423Y-27000000D01*
X103896691Y-27000958D01*
X103713123Y-27037471D01*
X103703775Y-27040307D01*
X103530857Y-27111932D01*
X103522240Y-27116537D01*
X103366619Y-27220520D01*
X103359066Y-27226719D01*
X103226719Y-27359066D01*
X103220520Y-27366619D01*
X103116537Y-27522240D01*
X103111932Y-27530857D01*
X103040307Y-27703775D01*
X103037471Y-27713123D01*
X103000958Y-27896691D01*
X103000000Y-27906423D01*
X102000000Y-27906423D01*
X101999041Y-27896691D01*
X101962528Y-27713123D01*
X101959692Y-27703775D01*
X101888067Y-27530857D01*
X101883462Y-27522240D01*
X101779479Y-27366619D01*
X101773280Y-27359066D01*
X101640933Y-27226719D01*
X101633380Y-27220520D01*
X101477759Y-27116537D01*
X101469142Y-27111932D01*
X101296224Y-27040307D01*
X101286876Y-27037471D01*
X101103308Y-27000958D01*
X101093577Y-27000000D01*
X100906423Y-27000000D01*
X100896691Y-27000958D01*
X100713123Y-27037471D01*
X100703775Y-27040307D01*
X100530857Y-27111932D01*
X100522240Y-27116537D01*
X100366619Y-27220520D01*
X100359066Y-27226719D01*
X100226719Y-27359066D01*
X100220520Y-27366619D01*
X100116537Y-27522240D01*
X100111932Y-27530857D01*
X100040307Y-27703775D01*
X100037471Y-27713123D01*
X100000958Y-27896691D01*
X100000000Y-27906423D01*
X91550000Y-27906423D01*
X91550000Y-27869240D01*
X91569098Y-27810461D01*
X91579289Y-27798529D01*
X91635475Y-27742342D01*
X91643387Y-27732031D01*
X91709242Y-27617965D01*
X91714213Y-27605964D01*
X91748303Y-27478739D01*
X91750000Y-27465853D01*
X91750000Y-27334146D01*
X91748303Y-27321260D01*
X91714213Y-27194035D01*
X91709242Y-27182034D01*
X91643387Y-27067968D01*
X91635475Y-27057657D01*
X91542342Y-26964524D01*
X91532031Y-26956612D01*
X91417965Y-26890757D01*
X91405964Y-26885786D01*
X91278739Y-26851696D01*
X91265853Y-26850000D01*
X91134147Y-26850000D01*
X91121260Y-26851696D01*
X90994035Y-26885786D01*
X90982034Y-26890757D01*
X90867968Y-26956612D01*
X90857651Y-26964529D01*
X90849306Y-26972874D01*
X90794238Y-27000930D01*
X90733196Y-26991260D01*
X90691995Y-26952160D01*
X90643389Y-26867971D01*
X90635475Y-26857657D01*
X90542342Y-26764524D01*
X90532031Y-26756612D01*
X90417965Y-26690757D01*
X90405964Y-26685786D01*
X90278739Y-26651696D01*
X90265853Y-26650000D01*
X90134147Y-26650000D01*
X90121260Y-26651696D01*
X89994035Y-26685786D01*
X89982034Y-26690757D01*
X89867968Y-26756612D01*
X89857657Y-26764524D01*
X89764524Y-26857657D01*
X89756612Y-26867968D01*
X89690757Y-26982034D01*
X89685786Y-26994035D01*
X89651696Y-27121260D01*
X89650000Y-27134146D01*
X58970542Y-27134146D01*
X58460985Y-26624589D01*
X58432927Y-26569521D01*
X58435104Y-26527993D01*
X58448304Y-26478734D01*
X58450000Y-26465856D01*
X58450000Y-26334146D01*
X58448303Y-26321260D01*
X58414213Y-26194035D01*
X58409242Y-26182034D01*
X58381594Y-26134146D01*
X79650000Y-26134146D01*
X79650000Y-26265853D01*
X79651696Y-26278739D01*
X79685786Y-26405964D01*
X79690757Y-26417965D01*
X79756612Y-26532031D01*
X79764524Y-26542342D01*
X79857657Y-26635475D01*
X79867968Y-26643387D01*
X79982034Y-26709242D01*
X79994035Y-26714213D01*
X80121260Y-26748303D01*
X80134147Y-26750000D01*
X80265853Y-26750000D01*
X80278739Y-26748303D01*
X80405964Y-26714213D01*
X80417965Y-26709242D01*
X80532031Y-26643387D01*
X80542342Y-26635475D01*
X80635475Y-26542342D01*
X80643387Y-26532031D01*
X80709242Y-26417965D01*
X80714213Y-26405964D01*
X80748303Y-26278739D01*
X80750000Y-26265853D01*
X80750000Y-26186396D01*
X80769098Y-26127617D01*
X80779289Y-26115685D01*
X81215685Y-25679289D01*
X81270753Y-25651231D01*
X81286396Y-25650000D01*
X81365853Y-25650000D01*
X81378739Y-25648303D01*
X81505964Y-25614213D01*
X81517965Y-25609242D01*
X81632031Y-25543387D01*
X81642342Y-25535475D01*
X81735475Y-25442342D01*
X81743387Y-25432031D01*
X81809242Y-25317965D01*
X81814213Y-25305964D01*
X81848303Y-25178739D01*
X81850000Y-25165853D01*
X81850000Y-25034146D01*
X81848303Y-25021260D01*
X81817532Y-24906423D01*
X100000000Y-24906423D01*
X100000000Y-25093576D01*
X100000958Y-25103308D01*
X100037471Y-25286876D01*
X100040307Y-25296224D01*
X100111932Y-25469142D01*
X100116537Y-25477759D01*
X100220520Y-25633380D01*
X100226719Y-25640933D01*
X100359066Y-25773280D01*
X100366619Y-25779479D01*
X100522240Y-25883462D01*
X100530857Y-25888067D01*
X100703775Y-25959692D01*
X100713123Y-25962528D01*
X100896691Y-25999041D01*
X100906423Y-26000000D01*
X101093577Y-26000000D01*
X101103308Y-25999041D01*
X101286876Y-25962528D01*
X101296224Y-25959692D01*
X101469142Y-25888067D01*
X101477759Y-25883462D01*
X101633380Y-25779479D01*
X101640933Y-25773280D01*
X101773280Y-25640933D01*
X101779479Y-25633380D01*
X101883462Y-25477759D01*
X101888067Y-25469142D01*
X101959692Y-25296224D01*
X101962528Y-25286876D01*
X101999041Y-25103308D01*
X102000000Y-25093576D01*
X102000000Y-24906423D01*
X103000000Y-24906423D01*
X103000000Y-25093576D01*
X103000958Y-25103308D01*
X103037471Y-25286876D01*
X103040307Y-25296224D01*
X103111932Y-25469142D01*
X103116537Y-25477759D01*
X103220520Y-25633380D01*
X103226719Y-25640933D01*
X103359066Y-25773280D01*
X103366619Y-25779479D01*
X103522240Y-25883462D01*
X103530857Y-25888067D01*
X103703775Y-25959692D01*
X103713123Y-25962528D01*
X103896691Y-25999041D01*
X103906423Y-26000000D01*
X104093577Y-26000000D01*
X104103308Y-25999041D01*
X104286876Y-25962528D01*
X104296224Y-25959692D01*
X104469142Y-25888067D01*
X104477759Y-25883462D01*
X104633380Y-25779479D01*
X104640933Y-25773280D01*
X104773280Y-25640933D01*
X104779479Y-25633380D01*
X104883462Y-25477759D01*
X104888067Y-25469142D01*
X104959692Y-25296224D01*
X104962528Y-25286876D01*
X104999041Y-25103308D01*
X105000000Y-25093576D01*
X105000000Y-24906423D01*
X104999041Y-24896691D01*
X104962528Y-24713123D01*
X104959692Y-24703775D01*
X104888067Y-24530857D01*
X104883462Y-24522240D01*
X104779479Y-24366619D01*
X104773280Y-24359066D01*
X104640933Y-24226719D01*
X104633380Y-24220520D01*
X104477759Y-24116537D01*
X104469142Y-24111932D01*
X104296224Y-24040307D01*
X104286876Y-24037471D01*
X104103308Y-24000958D01*
X104093577Y-24000000D01*
X103906423Y-24000000D01*
X103896691Y-24000958D01*
X103713123Y-24037471D01*
X103703775Y-24040307D01*
X103530857Y-24111932D01*
X103522240Y-24116537D01*
X103366619Y-24220520D01*
X103359066Y-24226719D01*
X103226719Y-24359066D01*
X103220520Y-24366619D01*
X103116537Y-24522240D01*
X103111932Y-24530857D01*
X103040307Y-24703775D01*
X103037471Y-24713123D01*
X103000958Y-24896691D01*
X103000000Y-24906423D01*
X102000000Y-24906423D01*
X101999041Y-24896691D01*
X101962528Y-24713123D01*
X101959692Y-24703775D01*
X101888067Y-24530857D01*
X101883462Y-24522240D01*
X101779479Y-24366619D01*
X101773280Y-24359066D01*
X101640933Y-24226719D01*
X101633380Y-24220520D01*
X101477759Y-24116537D01*
X101469142Y-24111932D01*
X101296224Y-24040307D01*
X101286876Y-24037471D01*
X101103308Y-24000958D01*
X101093577Y-24000000D01*
X100906423Y-24000000D01*
X100896691Y-24000958D01*
X100713123Y-24037471D01*
X100703775Y-24040307D01*
X100530857Y-24111932D01*
X100522240Y-24116537D01*
X100366619Y-24220520D01*
X100359066Y-24226719D01*
X100226719Y-24359066D01*
X100220520Y-24366619D01*
X100116537Y-24522240D01*
X100111932Y-24530857D01*
X100040307Y-24703775D01*
X100037471Y-24713123D01*
X100000958Y-24896691D01*
X100000000Y-24906423D01*
X81817532Y-24906423D01*
X81814213Y-24894035D01*
X81809242Y-24882034D01*
X81743387Y-24767968D01*
X81735475Y-24757657D01*
X81642342Y-24664524D01*
X81632031Y-24656612D01*
X81517965Y-24590757D01*
X81505964Y-24585786D01*
X81378739Y-24551696D01*
X81365853Y-24550000D01*
X81234147Y-24550000D01*
X81221260Y-24551696D01*
X81094035Y-24585786D01*
X81082034Y-24590757D01*
X80967968Y-24656612D01*
X80957657Y-24664524D01*
X80864524Y-24757657D01*
X80856612Y-24767968D01*
X80790757Y-24882034D01*
X80785786Y-24894035D01*
X80751696Y-25021260D01*
X80750000Y-25034146D01*
X80750000Y-25113604D01*
X80730902Y-25172383D01*
X80720711Y-25184315D01*
X80284315Y-25620711D01*
X80229247Y-25648769D01*
X80213604Y-25650000D01*
X80134147Y-25650000D01*
X80121260Y-25651696D01*
X79994035Y-25685786D01*
X79982034Y-25690757D01*
X79867968Y-25756612D01*
X79857657Y-25764524D01*
X79764524Y-25857657D01*
X79756612Y-25867968D01*
X79690757Y-25982034D01*
X79685786Y-25994035D01*
X79651696Y-26121260D01*
X79650000Y-26134146D01*
X58381594Y-26134146D01*
X58343387Y-26067968D01*
X58335475Y-26057657D01*
X58242342Y-25964524D01*
X58232031Y-25956612D01*
X58117965Y-25890757D01*
X58105964Y-25885786D01*
X57978739Y-25851696D01*
X57965853Y-25850000D01*
X57834147Y-25850000D01*
X57821260Y-25851696D01*
X57694035Y-25885786D01*
X57682034Y-25890757D01*
X57567968Y-25956612D01*
X57557657Y-25964524D01*
X57464524Y-26057657D01*
X57456612Y-26067968D01*
X57390757Y-26182034D01*
X57385786Y-26194035D01*
X57351696Y-26321260D01*
X57350000Y-26334146D01*
X57350000Y-26465853D01*
X57351696Y-26478739D01*
X57370174Y-26547699D01*
X57366939Y-26609418D01*
X57328045Y-26657448D01*
X57268348Y-26673444D01*
X57247699Y-26670174D01*
X57178739Y-26651696D01*
X57165853Y-26650000D01*
X57034147Y-26650000D01*
X57021260Y-26651696D01*
X56894035Y-26685786D01*
X56882034Y-26690757D01*
X56767968Y-26756612D01*
X56757657Y-26764524D01*
X56664524Y-26857657D01*
X56656612Y-26867968D01*
X56590757Y-26982034D01*
X56585786Y-26994035D01*
X56551696Y-27121260D01*
X56550000Y-27134146D01*
X50629120Y-27134146D01*
X50379289Y-26884315D01*
X50351231Y-26829247D01*
X50350000Y-26813604D01*
X50350000Y-26734146D01*
X50348303Y-26721260D01*
X50314213Y-26594035D01*
X50309242Y-26582034D01*
X50243387Y-26467968D01*
X50235475Y-26457657D01*
X50142342Y-26364524D01*
X50132031Y-26356612D01*
X50017965Y-26290757D01*
X50005964Y-26285786D01*
X49878739Y-26251696D01*
X49865853Y-26250000D01*
X49734147Y-26250000D01*
X49721260Y-26251696D01*
X49594035Y-26285786D01*
X49582034Y-26290757D01*
X49467968Y-26356612D01*
X49457657Y-26364524D01*
X49364524Y-26457657D01*
X49356612Y-26467968D01*
X49290757Y-26582034D01*
X49285786Y-26594035D01*
X49251696Y-26721260D01*
X49250000Y-26734146D01*
X44793118Y-26734146D01*
X44717965Y-26690757D01*
X44705964Y-26685786D01*
X44578739Y-26651696D01*
X44565853Y-26650000D01*
X44434147Y-26650000D01*
X44421260Y-26651696D01*
X44294035Y-26685786D01*
X44282034Y-26690757D01*
X44167968Y-26756612D01*
X44157657Y-26764524D01*
X44064524Y-26857657D01*
X44056612Y-26867968D01*
X43990757Y-26982034D01*
X43985786Y-26994035D01*
X43951696Y-27121260D01*
X43950000Y-27134146D01*
X43950000Y-27265853D01*
X43951696Y-27278739D01*
X43985786Y-27405964D01*
X43990757Y-27417965D01*
X44056612Y-27532031D01*
X44064524Y-27542342D01*
X44120711Y-27598529D01*
X44148769Y-27653597D01*
X44150000Y-27669240D01*
X44150000Y-28213603D01*
X44130902Y-28272382D01*
X44120711Y-28284314D01*
X44084314Y-28320711D01*
X44029246Y-28348769D01*
X44013603Y-28350000D01*
X43934147Y-28350000D01*
X43921260Y-28351696D01*
X43794035Y-28385786D01*
X43782029Y-28390759D01*
X43772001Y-28396549D01*
X43711548Y-28409397D01*
X43655088Y-28384257D01*
X43625411Y-28335826D01*
X43614213Y-28294036D01*
X43609242Y-28282034D01*
X43543387Y-28167968D01*
X43535475Y-28157657D01*
X43442342Y-28064524D01*
X43432031Y-28056612D01*
X43317965Y-27990757D01*
X43305964Y-27985786D01*
X43178739Y-27951696D01*
X43165853Y-27950000D01*
X43034147Y-27950000D01*
X43021260Y-27951696D01*
X42894035Y-27985786D01*
X42882034Y-27990757D01*
X42767968Y-28056612D01*
X42757657Y-28064524D01*
X42664524Y-28157657D01*
X42656612Y-28167968D01*
X42590757Y-28282034D01*
X42585786Y-28294035D01*
X42551696Y-28421260D01*
X42550000Y-28434146D01*
X30799900Y-28434146D01*
X30809242Y-28417965D01*
X30814213Y-28405964D01*
X30848303Y-28278739D01*
X30850000Y-28265853D01*
X30850000Y-28134146D01*
X30848303Y-28121260D01*
X30814213Y-27994035D01*
X30809242Y-27982034D01*
X30743387Y-27867968D01*
X30735475Y-27857657D01*
X30642342Y-27764524D01*
X30632031Y-27756612D01*
X30517965Y-27690757D01*
X30505964Y-27685786D01*
X30378739Y-27651696D01*
X30365853Y-27650000D01*
X30234147Y-27650000D01*
X30221260Y-27651696D01*
X30094035Y-27685786D01*
X30082034Y-27690757D01*
X29967968Y-27756612D01*
X29957657Y-27764524D01*
X29864524Y-27857657D01*
X29856612Y-27867968D01*
X29790757Y-27982034D01*
X29785786Y-27994035D01*
X29751696Y-28121260D01*
X29750000Y-28134146D01*
X29750000Y-28265854D01*
X29751696Y-28278739D01*
X29752517Y-28281802D01*
X29752398Y-28284067D01*
X29752552Y-28285236D01*
X29752335Y-28285264D01*
X29749279Y-28343520D01*
X29726634Y-28378390D01*
X29284315Y-28820711D01*
X29229248Y-28848769D01*
X29213604Y-28850000D01*
X29134147Y-28850000D01*
X29121260Y-28851696D01*
X28994035Y-28885786D01*
X28982034Y-28890757D01*
X28867968Y-28956612D01*
X28857657Y-28964524D01*
X28764524Y-29057657D01*
X28756612Y-29067968D01*
X28690757Y-29182034D01*
X28685786Y-29194035D01*
X28651696Y-29321260D01*
X28650000Y-29334146D01*
X600000Y-29334146D01*
X600000Y-26434146D01*
X28150000Y-26434146D01*
X28150000Y-26565853D01*
X28151696Y-26578739D01*
X28185786Y-26705964D01*
X28190757Y-26717965D01*
X28256612Y-26832031D01*
X28264524Y-26842342D01*
X28357657Y-26935475D01*
X28367968Y-26943387D01*
X28482034Y-27009242D01*
X28494035Y-27014213D01*
X28621260Y-27048303D01*
X28634147Y-27050000D01*
X28765853Y-27050000D01*
X28778739Y-27048303D01*
X28905964Y-27014213D01*
X28917965Y-27009242D01*
X29032031Y-26943387D01*
X29042342Y-26935475D01*
X29098529Y-26879289D01*
X29153597Y-26851231D01*
X29169240Y-26850000D01*
X31630760Y-26850000D01*
X31689539Y-26869098D01*
X31725866Y-26919098D01*
X31725866Y-26980902D01*
X31701471Y-27020711D01*
X31664524Y-27057657D01*
X31656612Y-27067968D01*
X31590757Y-27182034D01*
X31585786Y-27194035D01*
X31551696Y-27321260D01*
X31550000Y-27334146D01*
X31550000Y-27465853D01*
X31551696Y-27478739D01*
X31585786Y-27605964D01*
X31590757Y-27617965D01*
X31656612Y-27732031D01*
X31664524Y-27742342D01*
X31757657Y-27835475D01*
X31767968Y-27843387D01*
X31882034Y-27909242D01*
X31894035Y-27914213D01*
X32021260Y-27948303D01*
X32034147Y-27950000D01*
X32165853Y-27950000D01*
X32178739Y-27948303D01*
X32305964Y-27914213D01*
X32317965Y-27909242D01*
X32432031Y-27843387D01*
X32442342Y-27835475D01*
X32498529Y-27779289D01*
X32553597Y-27751231D01*
X32569240Y-27750000D01*
X34352628Y-27750000D01*
X34402628Y-27763397D01*
X34482037Y-27809243D01*
X34494034Y-27814213D01*
X34621260Y-27848303D01*
X34634147Y-27850000D01*
X34765853Y-27850000D01*
X34778739Y-27848303D01*
X34905964Y-27814213D01*
X34917965Y-27809242D01*
X35032031Y-27743387D01*
X35042342Y-27735475D01*
X35098529Y-27679289D01*
X35153597Y-27651231D01*
X35169240Y-27650000D01*
X35339523Y-27650000D01*
X35352409Y-27648303D01*
X35428767Y-27627843D01*
X35440767Y-27622872D01*
X35509228Y-27583347D01*
X35519539Y-27575435D01*
X35580070Y-27514905D01*
X35580074Y-27514899D01*
X36015687Y-27079289D01*
X36070754Y-27051231D01*
X36086397Y-27050000D01*
X36165853Y-27050000D01*
X36178739Y-27048303D01*
X36305964Y-27014213D01*
X36317965Y-27009242D01*
X36432031Y-26943387D01*
X36442342Y-26935475D01*
X36535475Y-26842342D01*
X36543387Y-26832031D01*
X36609242Y-26717965D01*
X36614213Y-26705964D01*
X36648303Y-26578739D01*
X36650000Y-26565853D01*
X36650000Y-26434146D01*
X36648303Y-26421260D01*
X36614213Y-26294035D01*
X36609242Y-26282034D01*
X36543387Y-26167968D01*
X36535475Y-26157657D01*
X36442342Y-26064524D01*
X36432031Y-26056612D01*
X36317965Y-25990757D01*
X36305964Y-25985786D01*
X36178739Y-25951696D01*
X36165853Y-25950000D01*
X36034147Y-25950000D01*
X36021260Y-25951696D01*
X35894035Y-25985786D01*
X35882034Y-25990757D01*
X35767968Y-26056612D01*
X35757657Y-26064524D01*
X35664524Y-26157657D01*
X35656612Y-26167968D01*
X35590757Y-26282034D01*
X35585786Y-26294035D01*
X35551696Y-26421260D01*
X35550000Y-26434146D01*
X35550000Y-26513603D01*
X35530902Y-26572382D01*
X35520711Y-26584314D01*
X35212132Y-26892892D01*
X35157064Y-26920950D01*
X35096022Y-26911282D01*
X35070710Y-26892892D01*
X35042342Y-26864524D01*
X35032031Y-26856612D01*
X34917965Y-26790757D01*
X34905964Y-26785786D01*
X34778739Y-26751696D01*
X34765853Y-26750000D01*
X34634147Y-26750000D01*
X34621260Y-26751696D01*
X34494035Y-26785786D01*
X34475976Y-26793267D01*
X34475443Y-26791982D01*
X34422058Y-26803324D01*
X34365600Y-26778181D01*
X34334704Y-26724654D01*
X34341171Y-26663190D01*
X34361810Y-26633162D01*
X35360826Y-25634146D01*
X40250000Y-25634146D01*
X40250000Y-25765853D01*
X40251696Y-25778739D01*
X40285786Y-25905964D01*
X40290757Y-25917965D01*
X40356612Y-26032031D01*
X40364524Y-26042342D01*
X40420711Y-26098529D01*
X40448769Y-26153597D01*
X40450000Y-26169240D01*
X40450000Y-26952627D01*
X40436603Y-27002626D01*
X40390757Y-27082033D01*
X40385786Y-27094034D01*
X40351696Y-27221260D01*
X40350000Y-27234146D01*
X40350000Y-27365853D01*
X40351696Y-27378739D01*
X40385786Y-27505964D01*
X40390757Y-27517965D01*
X40456612Y-27632031D01*
X40464524Y-27642342D01*
X40557657Y-27735475D01*
X40567968Y-27743387D01*
X40682034Y-27809242D01*
X40694035Y-27814213D01*
X40821260Y-27848303D01*
X40834147Y-27850000D01*
X40965853Y-27850000D01*
X40978739Y-27848303D01*
X41105964Y-27814213D01*
X41117965Y-27809242D01*
X41232031Y-27743387D01*
X41242342Y-27735475D01*
X41335475Y-27642342D01*
X41343387Y-27632031D01*
X41409242Y-27517965D01*
X41414213Y-27505964D01*
X41448303Y-27378739D01*
X41450000Y-27365853D01*
X41450000Y-27234146D01*
X41448303Y-27221260D01*
X41414213Y-27094034D01*
X41409242Y-27082033D01*
X41363397Y-27002626D01*
X41350000Y-26952627D01*
X41350000Y-25634146D01*
X41348303Y-25621260D01*
X41314213Y-25494035D01*
X41309242Y-25482034D01*
X41243387Y-25367968D01*
X41235475Y-25357657D01*
X41142342Y-25264524D01*
X41132031Y-25256612D01*
X41017965Y-25190757D01*
X41005964Y-25185786D01*
X40878739Y-25151696D01*
X40865853Y-25150000D01*
X40734147Y-25150000D01*
X40721260Y-25151696D01*
X40594035Y-25185786D01*
X40582034Y-25190757D01*
X40467968Y-25256612D01*
X40457657Y-25264524D01*
X40364524Y-25357657D01*
X40356612Y-25367968D01*
X40290757Y-25482034D01*
X40285786Y-25494035D01*
X40251696Y-25621260D01*
X40250000Y-25634146D01*
X35360826Y-25634146D01*
X36521607Y-24473365D01*
X36576675Y-24445307D01*
X36618199Y-24447483D01*
X36621263Y-24448303D01*
X36634144Y-24450000D01*
X36765853Y-24450000D01*
X36778739Y-24448303D01*
X36905964Y-24414213D01*
X36917965Y-24409242D01*
X37032031Y-24343387D01*
X37042342Y-24335475D01*
X37135475Y-24242342D01*
X37143389Y-24232028D01*
X37163397Y-24197374D01*
X37209326Y-24156019D01*
X37270790Y-24149558D01*
X37324314Y-24180459D01*
X37336603Y-24197374D01*
X37356610Y-24232028D01*
X37364524Y-24242342D01*
X37457657Y-24335475D01*
X37467968Y-24343387D01*
X37582034Y-24409242D01*
X37594035Y-24414213D01*
X37721260Y-24448303D01*
X37734147Y-24450000D01*
X37865853Y-24450000D01*
X37878739Y-24448303D01*
X38005964Y-24414213D01*
X38017965Y-24409242D01*
X38132031Y-24343387D01*
X38142342Y-24335475D01*
X38235475Y-24242342D01*
X38243387Y-24232031D01*
X38309242Y-24117965D01*
X38314213Y-24105964D01*
X38348303Y-23978739D01*
X38350000Y-23965853D01*
X38350000Y-23834146D01*
X38348303Y-23821260D01*
X38314213Y-23694035D01*
X38309242Y-23682034D01*
X38243387Y-23567968D01*
X38235475Y-23557657D01*
X38142342Y-23464524D01*
X38132031Y-23456612D01*
X38017967Y-23390758D01*
X38005960Y-23385785D01*
X37917397Y-23362054D01*
X37872569Y-23336173D01*
X37280940Y-22744544D01*
X37270629Y-22736632D01*
X37238904Y-22718316D01*
X37179366Y-22683942D01*
X37167366Y-22678971D01*
X37065574Y-22651696D01*
X37052688Y-22650000D01*
X32447372Y-22650000D01*
X32397372Y-22636603D01*
X32317962Y-22590756D01*
X32305965Y-22585786D01*
X32178739Y-22551696D01*
X32165853Y-22550000D01*
X32034147Y-22550000D01*
X32021260Y-22551696D01*
X31894035Y-22585786D01*
X31882034Y-22590757D01*
X31767968Y-22656612D01*
X31757657Y-22664524D01*
X31664524Y-22757657D01*
X31656612Y-22767968D01*
X31590757Y-22882034D01*
X31585786Y-22894035D01*
X31551696Y-23021260D01*
X31550000Y-23034146D01*
X31550000Y-23165853D01*
X31551696Y-23178739D01*
X31585786Y-23305964D01*
X31590757Y-23317965D01*
X31656612Y-23432031D01*
X31664524Y-23442342D01*
X31757657Y-23535475D01*
X31767968Y-23543387D01*
X31882034Y-23609242D01*
X31894035Y-23614213D01*
X32021260Y-23648303D01*
X32034147Y-23650000D01*
X32165853Y-23650000D01*
X32178739Y-23648303D01*
X32305965Y-23614213D01*
X32317962Y-23609243D01*
X32397372Y-23563397D01*
X32447372Y-23550000D01*
X36095787Y-23550000D01*
X36154566Y-23569098D01*
X36190893Y-23619098D01*
X36190893Y-23680902D01*
X36188176Y-23688265D01*
X36185787Y-23694032D01*
X36151694Y-23821265D01*
X36151264Y-23824538D01*
X36150246Y-23826671D01*
X36150000Y-23827591D01*
X36149829Y-23827545D01*
X36124656Y-23880320D01*
X36122831Y-23882194D01*
X33884315Y-26120711D01*
X33829247Y-26148769D01*
X33813604Y-26150000D01*
X29169240Y-26150000D01*
X29110461Y-26130902D01*
X29098529Y-26120711D01*
X29042342Y-26064524D01*
X29032031Y-26056612D01*
X28917965Y-25990757D01*
X28905964Y-25985786D01*
X28778739Y-25951696D01*
X28765853Y-25950000D01*
X28634147Y-25950000D01*
X28621260Y-25951696D01*
X28494035Y-25985786D01*
X28482034Y-25990757D01*
X28367968Y-26056612D01*
X28357657Y-26064524D01*
X28264524Y-26157657D01*
X28256612Y-26167968D01*
X28190757Y-26282034D01*
X28185786Y-26294035D01*
X28151696Y-26421260D01*
X28150000Y-26434146D01*
X600000Y-26434146D01*
X600000Y-22870058D01*
X1740000Y-22870058D01*
X1740000Y-23009941D01*
X1740958Y-23019672D01*
X1768247Y-23156859D01*
X1771088Y-23166226D01*
X1824618Y-23295459D01*
X1829223Y-23304076D01*
X1906941Y-23420389D01*
X1913140Y-23427942D01*
X2012057Y-23526859D01*
X2019610Y-23533058D01*
X2135923Y-23610776D01*
X2144540Y-23615381D01*
X2273773Y-23668911D01*
X2283140Y-23671752D01*
X2420327Y-23699041D01*
X2430059Y-23700000D01*
X2569941Y-23700000D01*
X2579672Y-23699041D01*
X2716859Y-23671752D01*
X2726226Y-23668911D01*
X2855459Y-23615381D01*
X2864076Y-23610776D01*
X2980389Y-23533058D01*
X2987942Y-23526859D01*
X3086859Y-23427942D01*
X3093058Y-23420389D01*
X3170776Y-23304076D01*
X3175381Y-23295459D01*
X3228911Y-23166226D01*
X3231752Y-23156859D01*
X3259041Y-23019672D01*
X3260000Y-23009941D01*
X3260000Y-22870058D01*
X3259041Y-22860327D01*
X3231752Y-22723140D01*
X3228911Y-22713773D01*
X3175381Y-22584540D01*
X3170776Y-22575923D01*
X3093058Y-22459610D01*
X3086859Y-22452057D01*
X2987942Y-22353140D01*
X2980389Y-22346941D01*
X2864076Y-22269223D01*
X2855459Y-22264618D01*
X2726226Y-22211088D01*
X2716859Y-22208247D01*
X2579672Y-22180958D01*
X2569941Y-22180000D01*
X2430059Y-22180000D01*
X2420327Y-22180958D01*
X2283140Y-22208247D01*
X2273773Y-22211088D01*
X2144540Y-22264618D01*
X2135923Y-22269223D01*
X2019610Y-22346941D01*
X2012057Y-22353140D01*
X1913140Y-22452057D01*
X1906941Y-22459610D01*
X1829223Y-22575923D01*
X1824618Y-22584540D01*
X1771088Y-22713773D01*
X1768247Y-22723140D01*
X1740958Y-22860327D01*
X1740000Y-22870058D01*
X600000Y-22870058D01*
X600000Y-21906423D01*
X4500000Y-21906423D01*
X4500000Y-22093576D01*
X4500958Y-22103308D01*
X4537471Y-22286876D01*
X4540307Y-22296224D01*
X4611932Y-22469142D01*
X4616537Y-22477759D01*
X4720520Y-22633380D01*
X4726719Y-22640933D01*
X4859066Y-22773280D01*
X4866619Y-22779479D01*
X5022240Y-22883462D01*
X5030857Y-22888067D01*
X5203775Y-22959692D01*
X5213123Y-22962528D01*
X5396691Y-22999041D01*
X5406423Y-23000000D01*
X5593577Y-23000000D01*
X5603308Y-22999041D01*
X5786876Y-22962528D01*
X5796224Y-22959692D01*
X5969142Y-22888067D01*
X5977759Y-22883462D01*
X5997819Y-22870058D01*
X7740000Y-22870058D01*
X7740000Y-23009941D01*
X7740958Y-23019672D01*
X7768247Y-23156859D01*
X7771088Y-23166226D01*
X7824618Y-23295459D01*
X7829223Y-23304076D01*
X7906941Y-23420389D01*
X7913140Y-23427942D01*
X8012057Y-23526859D01*
X8019610Y-23533058D01*
X8135923Y-23610776D01*
X8144540Y-23615381D01*
X8273773Y-23668911D01*
X8283140Y-23671752D01*
X8420327Y-23699041D01*
X8430059Y-23700000D01*
X8569941Y-23700000D01*
X8579672Y-23699041D01*
X8716859Y-23671752D01*
X8726226Y-23668911D01*
X8855459Y-23615381D01*
X8864076Y-23610776D01*
X8980389Y-23533058D01*
X8987942Y-23526859D01*
X9086859Y-23427942D01*
X9093058Y-23420389D01*
X9170776Y-23304076D01*
X9175381Y-23295459D01*
X9228911Y-23166226D01*
X9231752Y-23156859D01*
X9259041Y-23019672D01*
X9260000Y-23009941D01*
X9260000Y-22870058D01*
X9259041Y-22860327D01*
X9231752Y-22723140D01*
X9228911Y-22713773D01*
X9175381Y-22584540D01*
X9170776Y-22575923D01*
X9093058Y-22459610D01*
X9086859Y-22452057D01*
X8987942Y-22353140D01*
X8980389Y-22346941D01*
X8864076Y-22269223D01*
X8855459Y-22264618D01*
X8726226Y-22211088D01*
X8716859Y-22208247D01*
X8579672Y-22180958D01*
X8569941Y-22180000D01*
X8430059Y-22180000D01*
X8420327Y-22180958D01*
X8283140Y-22208247D01*
X8273773Y-22211088D01*
X8144540Y-22264618D01*
X8135923Y-22269223D01*
X8019610Y-22346941D01*
X8012057Y-22353140D01*
X7913140Y-22452057D01*
X7906941Y-22459610D01*
X7829223Y-22575923D01*
X7824618Y-22584540D01*
X7771088Y-22713773D01*
X7768247Y-22723140D01*
X7740958Y-22860327D01*
X7740000Y-22870058D01*
X5997819Y-22870058D01*
X6133380Y-22779479D01*
X6140933Y-22773280D01*
X6273280Y-22640933D01*
X6279479Y-22633380D01*
X6383462Y-22477759D01*
X6388067Y-22469142D01*
X6459692Y-22296224D01*
X6462528Y-22286876D01*
X6499041Y-22103308D01*
X6500000Y-22093576D01*
X6500000Y-21906423D01*
X6499041Y-21896691D01*
X6462528Y-21713123D01*
X6459692Y-21703775D01*
X6388067Y-21530857D01*
X6383462Y-21522240D01*
X6279479Y-21366619D01*
X6273280Y-21359066D01*
X6148360Y-21234146D01*
X21050000Y-21234146D01*
X21050000Y-21365853D01*
X21051696Y-21378739D01*
X21085786Y-21505964D01*
X21090757Y-21517965D01*
X21156612Y-21632031D01*
X21164524Y-21642342D01*
X21257657Y-21735475D01*
X21267968Y-21743387D01*
X21382034Y-21809242D01*
X21394035Y-21814213D01*
X21521260Y-21848303D01*
X21534147Y-21850000D01*
X21665853Y-21850000D01*
X21678739Y-21848303D01*
X21805965Y-21814213D01*
X21817962Y-21809243D01*
X21897372Y-21763397D01*
X21947372Y-21750000D01*
X26252628Y-21750000D01*
X26302628Y-21763397D01*
X26382037Y-21809243D01*
X26394034Y-21814213D01*
X26521260Y-21848303D01*
X26534147Y-21850000D01*
X26665853Y-21850000D01*
X26678739Y-21848303D01*
X26805964Y-21814213D01*
X26817965Y-21809242D01*
X26932031Y-21743387D01*
X26942342Y-21735475D01*
X27035475Y-21642342D01*
X27043387Y-21632031D01*
X27109242Y-21517965D01*
X27114213Y-21505964D01*
X27148303Y-21378739D01*
X27150000Y-21365853D01*
X27150000Y-21234146D01*
X27148303Y-21221260D01*
X27114213Y-21094035D01*
X27109242Y-21082034D01*
X27043387Y-20967968D01*
X27035475Y-20957657D01*
X26942342Y-20864524D01*
X26932031Y-20856612D01*
X26817965Y-20790757D01*
X26805964Y-20785786D01*
X26678739Y-20751696D01*
X26665853Y-20750000D01*
X26534147Y-20750000D01*
X26521260Y-20751696D01*
X26394034Y-20785786D01*
X26382037Y-20790756D01*
X26302628Y-20836603D01*
X26252628Y-20850000D01*
X21947372Y-20850000D01*
X21897372Y-20836603D01*
X21817962Y-20790756D01*
X21805965Y-20785786D01*
X21678739Y-20751696D01*
X21665853Y-20750000D01*
X21534147Y-20750000D01*
X21521260Y-20751696D01*
X21394035Y-20785786D01*
X21382034Y-20790757D01*
X21267968Y-20856612D01*
X21257657Y-20864524D01*
X21164524Y-20957657D01*
X21156612Y-20967968D01*
X21090757Y-21082034D01*
X21085786Y-21094035D01*
X21051696Y-21221260D01*
X21050000Y-21234146D01*
X6148360Y-21234146D01*
X6140933Y-21226719D01*
X6133380Y-21220520D01*
X5977759Y-21116537D01*
X5969142Y-21111932D01*
X5796224Y-21040307D01*
X5786876Y-21037471D01*
X5603308Y-21000958D01*
X5593577Y-21000000D01*
X5406423Y-21000000D01*
X5396691Y-21000958D01*
X5213123Y-21037471D01*
X5203775Y-21040307D01*
X5030857Y-21111932D01*
X5022240Y-21116537D01*
X4866619Y-21220520D01*
X4859066Y-21226719D01*
X4726719Y-21359066D01*
X4720520Y-21366619D01*
X4616537Y-21522240D01*
X4611932Y-21530857D01*
X4540307Y-21703775D01*
X4537471Y-21713123D01*
X4500958Y-21896691D01*
X4500000Y-21906423D01*
X600000Y-21906423D01*
X600000Y-18454858D01*
X4500000Y-18454858D01*
X4500000Y-19545140D01*
X4500288Y-19550498D01*
X4505733Y-19601156D01*
X4508587Y-19613234D01*
X4554149Y-19735389D01*
X4560932Y-19747811D01*
X4638523Y-19851461D01*
X4648538Y-19861476D01*
X4752188Y-19939067D01*
X4764610Y-19945850D01*
X4886764Y-19991412D01*
X4898845Y-19994266D01*
X4949502Y-19999712D01*
X4954858Y-19999999D01*
X6045140Y-19999999D01*
X6050498Y-19999711D01*
X6101156Y-19994266D01*
X6113234Y-19991412D01*
X6235389Y-19945850D01*
X6247811Y-19939067D01*
X6351461Y-19861476D01*
X6361476Y-19851461D01*
X6374438Y-19834146D01*
X64950000Y-19834146D01*
X64950000Y-19965853D01*
X64951696Y-19978739D01*
X64985786Y-20105964D01*
X64990757Y-20117965D01*
X65056612Y-20232031D01*
X65064524Y-20242342D01*
X65157657Y-20335475D01*
X65167968Y-20343387D01*
X65282034Y-20409242D01*
X65294035Y-20414213D01*
X65421260Y-20448303D01*
X65434147Y-20450000D01*
X65513604Y-20450000D01*
X65572383Y-20469098D01*
X65584315Y-20479289D01*
X70020711Y-24915685D01*
X70048769Y-24970753D01*
X70050000Y-24986396D01*
X70050000Y-25065853D01*
X70051696Y-25078739D01*
X70085786Y-25205964D01*
X70090757Y-25217965D01*
X70156612Y-25332031D01*
X70164524Y-25342342D01*
X70257657Y-25435475D01*
X70267968Y-25443387D01*
X70382034Y-25509242D01*
X70394035Y-25514213D01*
X70521260Y-25548303D01*
X70534147Y-25550000D01*
X70665853Y-25550000D01*
X70678739Y-25548303D01*
X70805964Y-25514213D01*
X70817965Y-25509242D01*
X70932031Y-25443387D01*
X70942342Y-25435475D01*
X71035475Y-25342342D01*
X71043387Y-25332031D01*
X71109242Y-25217965D01*
X71114213Y-25205964D01*
X71148303Y-25078739D01*
X71150000Y-25065853D01*
X71150000Y-24934146D01*
X71148303Y-24921260D01*
X71114213Y-24794035D01*
X71109242Y-24782034D01*
X71043387Y-24667968D01*
X71035475Y-24657657D01*
X70942342Y-24564524D01*
X70932031Y-24556612D01*
X70817965Y-24490757D01*
X70805964Y-24485786D01*
X70678739Y-24451696D01*
X70665853Y-24450000D01*
X70586396Y-24450000D01*
X70527617Y-24430902D01*
X70515685Y-24420711D01*
X67229120Y-21134146D01*
X71950000Y-21134146D01*
X71950000Y-21265853D01*
X71951696Y-21278739D01*
X71985786Y-21405964D01*
X71990757Y-21417965D01*
X72056612Y-21532031D01*
X72064524Y-21542342D01*
X72095711Y-21573529D01*
X72123769Y-21628597D01*
X72125000Y-21644240D01*
X72125000Y-24355760D01*
X72105902Y-24414539D01*
X72095711Y-24426471D01*
X72064524Y-24457657D01*
X72056612Y-24467968D01*
X71990757Y-24582034D01*
X71985786Y-24594035D01*
X71951696Y-24721260D01*
X71950000Y-24734146D01*
X71950000Y-24865853D01*
X71951696Y-24878739D01*
X71985786Y-25005964D01*
X71990757Y-25017965D01*
X72056612Y-25132031D01*
X72064524Y-25142342D01*
X72157657Y-25235475D01*
X72167968Y-25243387D01*
X72282034Y-25309242D01*
X72294035Y-25314213D01*
X72421260Y-25348303D01*
X72434147Y-25350000D01*
X72565853Y-25350000D01*
X72578739Y-25348303D01*
X72705964Y-25314213D01*
X72717965Y-25309242D01*
X72832031Y-25243387D01*
X72842342Y-25235475D01*
X72935475Y-25142342D01*
X72943387Y-25132031D01*
X73009242Y-25017965D01*
X73014213Y-25005964D01*
X73048303Y-24878739D01*
X73050000Y-24865853D01*
X73050000Y-24734146D01*
X73048303Y-24721260D01*
X73014213Y-24594035D01*
X73009242Y-24582034D01*
X72943387Y-24467968D01*
X72935475Y-24457657D01*
X72904289Y-24426471D01*
X72876231Y-24371403D01*
X72875000Y-24355760D01*
X72875000Y-22134146D01*
X78150000Y-22134146D01*
X78150000Y-22265853D01*
X78151696Y-22278739D01*
X78185786Y-22405964D01*
X78190757Y-22417965D01*
X78256612Y-22532031D01*
X78264524Y-22542342D01*
X78357657Y-22635475D01*
X78367968Y-22643387D01*
X78482034Y-22709242D01*
X78494035Y-22714213D01*
X78621260Y-22748303D01*
X78634147Y-22750000D01*
X78765853Y-22750000D01*
X78778739Y-22748303D01*
X78905964Y-22714213D01*
X78917965Y-22709242D01*
X79032031Y-22643387D01*
X79042342Y-22635475D01*
X79135475Y-22542342D01*
X79143387Y-22532031D01*
X79209242Y-22417965D01*
X79214213Y-22405963D01*
X79237944Y-22317398D01*
X79263826Y-22272568D01*
X79629971Y-21906423D01*
X100000000Y-21906423D01*
X100000000Y-22093576D01*
X100000958Y-22103308D01*
X100037471Y-22286876D01*
X100040307Y-22296224D01*
X100111932Y-22469142D01*
X100116537Y-22477759D01*
X100220520Y-22633380D01*
X100226719Y-22640933D01*
X100359066Y-22773280D01*
X100366619Y-22779479D01*
X100522240Y-22883462D01*
X100530857Y-22888067D01*
X100703775Y-22959692D01*
X100713123Y-22962528D01*
X100896691Y-22999041D01*
X100906423Y-23000000D01*
X101093577Y-23000000D01*
X101103308Y-22999041D01*
X101286876Y-22962528D01*
X101296224Y-22959692D01*
X101469142Y-22888067D01*
X101477759Y-22883462D01*
X101633380Y-22779479D01*
X101640933Y-22773280D01*
X101773280Y-22640933D01*
X101779479Y-22633380D01*
X101883462Y-22477759D01*
X101888067Y-22469142D01*
X101959692Y-22296224D01*
X101962528Y-22286876D01*
X101999041Y-22103308D01*
X102000000Y-22093576D01*
X102000000Y-21906423D01*
X103000000Y-21906423D01*
X103000000Y-22093576D01*
X103000958Y-22103308D01*
X103037471Y-22286876D01*
X103040307Y-22296224D01*
X103111932Y-22469142D01*
X103116537Y-22477759D01*
X103220520Y-22633380D01*
X103226719Y-22640933D01*
X103359066Y-22773280D01*
X103366619Y-22779479D01*
X103522240Y-22883462D01*
X103530857Y-22888067D01*
X103703775Y-22959692D01*
X103713123Y-22962528D01*
X103896691Y-22999041D01*
X103906423Y-23000000D01*
X104093577Y-23000000D01*
X104103308Y-22999041D01*
X104286876Y-22962528D01*
X104296224Y-22959692D01*
X104469142Y-22888067D01*
X104477759Y-22883462D01*
X104633380Y-22779479D01*
X104640933Y-22773280D01*
X104773280Y-22640933D01*
X104779479Y-22633380D01*
X104883462Y-22477759D01*
X104888067Y-22469142D01*
X104959692Y-22296224D01*
X104962528Y-22286876D01*
X104999041Y-22103308D01*
X105000000Y-22093576D01*
X105000000Y-21906423D01*
X104999041Y-21896691D01*
X104962528Y-21713123D01*
X104959692Y-21703775D01*
X104888067Y-21530857D01*
X104883462Y-21522240D01*
X104779479Y-21366619D01*
X104773280Y-21359066D01*
X104640933Y-21226719D01*
X104633380Y-21220520D01*
X104477759Y-21116537D01*
X104469142Y-21111932D01*
X104296224Y-21040307D01*
X104286876Y-21037471D01*
X104103308Y-21000958D01*
X104093577Y-21000000D01*
X103906423Y-21000000D01*
X103896691Y-21000958D01*
X103713123Y-21037471D01*
X103703775Y-21040307D01*
X103530857Y-21111932D01*
X103522240Y-21116537D01*
X103366619Y-21220520D01*
X103359066Y-21226719D01*
X103226719Y-21359066D01*
X103220520Y-21366619D01*
X103116537Y-21522240D01*
X103111932Y-21530857D01*
X103040307Y-21703775D01*
X103037471Y-21713123D01*
X103000958Y-21896691D01*
X103000000Y-21906423D01*
X102000000Y-21906423D01*
X101999041Y-21896691D01*
X101962528Y-21713123D01*
X101959692Y-21703775D01*
X101888067Y-21530857D01*
X101883462Y-21522240D01*
X101779479Y-21366619D01*
X101773280Y-21359066D01*
X101640933Y-21226719D01*
X101633380Y-21220520D01*
X101477759Y-21116537D01*
X101469142Y-21111932D01*
X101296231Y-21040310D01*
X101286867Y-21037470D01*
X101230489Y-21026255D01*
X101176567Y-20996056D01*
X101150693Y-20939929D01*
X101150000Y-20928177D01*
X101150000Y-20569240D01*
X101169098Y-20510461D01*
X101179289Y-20498529D01*
X101235475Y-20442342D01*
X101243387Y-20432031D01*
X101309242Y-20317965D01*
X101314213Y-20305964D01*
X101348303Y-20178739D01*
X101350000Y-20165853D01*
X101350000Y-20034146D01*
X101348303Y-20021260D01*
X101314213Y-19894035D01*
X101309242Y-19882034D01*
X101243387Y-19767968D01*
X101235475Y-19757657D01*
X101142342Y-19664524D01*
X101132031Y-19656612D01*
X101017965Y-19590757D01*
X101005964Y-19585786D01*
X100878739Y-19551696D01*
X100865853Y-19550000D01*
X100734147Y-19550000D01*
X100721260Y-19551696D01*
X100594035Y-19585786D01*
X100582034Y-19590757D01*
X100467968Y-19656612D01*
X100457657Y-19664524D01*
X100364524Y-19757657D01*
X100356612Y-19767968D01*
X100290757Y-19882034D01*
X100285786Y-19894035D01*
X100251696Y-20021260D01*
X100250000Y-20034146D01*
X100250000Y-20165853D01*
X100251696Y-20178739D01*
X100285786Y-20305964D01*
X100290757Y-20317965D01*
X100356612Y-20432031D01*
X100364524Y-20442342D01*
X100420711Y-20498529D01*
X100448769Y-20553597D01*
X100450000Y-20569240D01*
X100450000Y-21111356D01*
X100430902Y-21170135D01*
X100405559Y-21194502D01*
X100366618Y-21220522D01*
X100359065Y-21226720D01*
X100226719Y-21359066D01*
X100220520Y-21366619D01*
X100116537Y-21522240D01*
X100111932Y-21530857D01*
X100040307Y-21703775D01*
X100037471Y-21713123D01*
X100000958Y-21896691D01*
X100000000Y-21906423D01*
X79629971Y-21906423D01*
X82472568Y-19063826D01*
X82517398Y-19037944D01*
X82605963Y-19014213D01*
X82617965Y-19009242D01*
X82732031Y-18943387D01*
X82742342Y-18935475D01*
X82747759Y-18930058D01*
X104180000Y-18930058D01*
X104180000Y-19069941D01*
X104180958Y-19079672D01*
X104208247Y-19216859D01*
X104211088Y-19226226D01*
X104264618Y-19355459D01*
X104269223Y-19364076D01*
X104346941Y-19480389D01*
X104353140Y-19487942D01*
X104452057Y-19586859D01*
X104459610Y-19593058D01*
X104575923Y-19670776D01*
X104584540Y-19675381D01*
X104713773Y-19728911D01*
X104723140Y-19731752D01*
X104860327Y-19759041D01*
X104870059Y-19760000D01*
X105009941Y-19760000D01*
X105019672Y-19759041D01*
X105156859Y-19731752D01*
X105166226Y-19728911D01*
X105295459Y-19675381D01*
X105304076Y-19670776D01*
X105420389Y-19593058D01*
X105427942Y-19586859D01*
X105526859Y-19487942D01*
X105533058Y-19480389D01*
X105610776Y-19364076D01*
X105615381Y-19355459D01*
X105668911Y-19226226D01*
X105671752Y-19216859D01*
X105699041Y-19079672D01*
X105700000Y-19069941D01*
X105700000Y-18930058D01*
X105699041Y-18920327D01*
X105671752Y-18783140D01*
X105668911Y-18773773D01*
X105615381Y-18644540D01*
X105610776Y-18635923D01*
X105533058Y-18519610D01*
X105526859Y-18512057D01*
X105427942Y-18413140D01*
X105420389Y-18406941D01*
X105304076Y-18329223D01*
X105295459Y-18324618D01*
X105166226Y-18271088D01*
X105156859Y-18268247D01*
X105019672Y-18240958D01*
X105009941Y-18240000D01*
X104870059Y-18240000D01*
X104860327Y-18240958D01*
X104723140Y-18268247D01*
X104713773Y-18271088D01*
X104584540Y-18324618D01*
X104575923Y-18329223D01*
X104459610Y-18406941D01*
X104452057Y-18413140D01*
X104353140Y-18512057D01*
X104346941Y-18519610D01*
X104269223Y-18635923D01*
X104264618Y-18644540D01*
X104211088Y-18773773D01*
X104208247Y-18783140D01*
X104180958Y-18920327D01*
X104180000Y-18930058D01*
X82747759Y-18930058D01*
X82835475Y-18842342D01*
X82843387Y-18832031D01*
X82909242Y-18717965D01*
X82914213Y-18705964D01*
X82948303Y-18578739D01*
X82950000Y-18565853D01*
X82950000Y-18434146D01*
X82948303Y-18421260D01*
X82914213Y-18294035D01*
X82909242Y-18282034D01*
X82843387Y-18167968D01*
X82835475Y-18157657D01*
X82742342Y-18064524D01*
X82732031Y-18056612D01*
X82617965Y-17990757D01*
X82605964Y-17985786D01*
X82478739Y-17951696D01*
X82465853Y-17950000D01*
X82334147Y-17950000D01*
X82321260Y-17951696D01*
X82194035Y-17985786D01*
X82182034Y-17990757D01*
X82067968Y-18056612D01*
X82057657Y-18064524D01*
X81964524Y-18157657D01*
X81956612Y-18167968D01*
X81890758Y-18282032D01*
X81885785Y-18294040D01*
X81862054Y-18382601D01*
X81836173Y-18427429D01*
X78627429Y-21636173D01*
X78582601Y-21662054D01*
X78494040Y-21685785D01*
X78482032Y-21690758D01*
X78367968Y-21756612D01*
X78357657Y-21764524D01*
X78264524Y-21857657D01*
X78256612Y-21867968D01*
X78190757Y-21982034D01*
X78185786Y-21994035D01*
X78151696Y-22121260D01*
X78150000Y-22134146D01*
X72875000Y-22134146D01*
X72875000Y-21644240D01*
X72894098Y-21585461D01*
X72904289Y-21573529D01*
X72935475Y-21542342D01*
X72943387Y-21532031D01*
X73009242Y-21417965D01*
X73014213Y-21405964D01*
X73048303Y-21278739D01*
X73050000Y-21265853D01*
X73050000Y-21134146D01*
X73048303Y-21121260D01*
X73014213Y-20994035D01*
X73009242Y-20982034D01*
X72943387Y-20867968D01*
X72935475Y-20857657D01*
X72842342Y-20764524D01*
X72832031Y-20756612D01*
X72717965Y-20690757D01*
X72705964Y-20685786D01*
X72578739Y-20651696D01*
X72565853Y-20650000D01*
X72434147Y-20650000D01*
X72421260Y-20651696D01*
X72294035Y-20685786D01*
X72282034Y-20690757D01*
X72167968Y-20756612D01*
X72157657Y-20764524D01*
X72064524Y-20857657D01*
X72056612Y-20867968D01*
X71990757Y-20982034D01*
X71985786Y-20994035D01*
X71951696Y-21121260D01*
X71950000Y-21134146D01*
X67229120Y-21134146D01*
X66079289Y-19984315D01*
X66051231Y-19929247D01*
X66050000Y-19913604D01*
X66050000Y-19834146D01*
X66048303Y-19821260D01*
X66014213Y-19694035D01*
X66009242Y-19682034D01*
X65943387Y-19567968D01*
X65935475Y-19557657D01*
X65842342Y-19464524D01*
X65832031Y-19456612D01*
X65717965Y-19390757D01*
X65705964Y-19385786D01*
X65578739Y-19351696D01*
X65565853Y-19350000D01*
X65434147Y-19350000D01*
X65421260Y-19351696D01*
X65294035Y-19385786D01*
X65282034Y-19390757D01*
X65167968Y-19456612D01*
X65157657Y-19464524D01*
X65064524Y-19557657D01*
X65056612Y-19567968D01*
X64990757Y-19682034D01*
X64985786Y-19694035D01*
X64951696Y-19821260D01*
X64950000Y-19834146D01*
X6374438Y-19834146D01*
X6439067Y-19747811D01*
X6445850Y-19735389D01*
X6491412Y-19613235D01*
X6494266Y-19601154D01*
X6499712Y-19550497D01*
X6499999Y-19545141D01*
X6499999Y-18454859D01*
X6499711Y-18449501D01*
X6494266Y-18398843D01*
X6491412Y-18386765D01*
X6445850Y-18264610D01*
X6439067Y-18252188D01*
X6361476Y-18148538D01*
X6351461Y-18138523D01*
X6247811Y-18060932D01*
X6235389Y-18054149D01*
X6113235Y-18008587D01*
X6101154Y-18005733D01*
X6050497Y-18000287D01*
X6045141Y-18000000D01*
X4954859Y-18000000D01*
X4949501Y-18000288D01*
X4898843Y-18005733D01*
X4886765Y-18008587D01*
X4764610Y-18054149D01*
X4752188Y-18060932D01*
X4648538Y-18138523D01*
X4638523Y-18148538D01*
X4560932Y-18252188D01*
X4554149Y-18264610D01*
X4508587Y-18386764D01*
X4505733Y-18398845D01*
X4500287Y-18449502D01*
X4500000Y-18454858D01*
X600000Y-18454858D01*
X600000Y-17634146D01*
X49450000Y-17634146D01*
X49450000Y-17765853D01*
X49451696Y-17778739D01*
X49485786Y-17905964D01*
X49490757Y-17917965D01*
X49556612Y-18032031D01*
X49564524Y-18042342D01*
X49657657Y-18135475D01*
X49667968Y-18143387D01*
X49782034Y-18209242D01*
X49794035Y-18214213D01*
X49921260Y-18248303D01*
X49934147Y-18250000D01*
X50013604Y-18250000D01*
X50072383Y-18269098D01*
X50084315Y-18279289D01*
X50819928Y-19014902D01*
X50819930Y-19014905D01*
X50880460Y-19075435D01*
X50890771Y-19083347D01*
X50959232Y-19122872D01*
X50971232Y-19127843D01*
X51047590Y-19148303D01*
X51060477Y-19150000D01*
X57430760Y-19150000D01*
X57489539Y-19169098D01*
X57501471Y-19179289D01*
X57557657Y-19235475D01*
X57567968Y-19243387D01*
X57682034Y-19309242D01*
X57694035Y-19314213D01*
X57821260Y-19348303D01*
X57834147Y-19350000D01*
X57965853Y-19350000D01*
X57978739Y-19348303D01*
X58105964Y-19314213D01*
X58117965Y-19309242D01*
X58232031Y-19243387D01*
X58242342Y-19235475D01*
X58335475Y-19142342D01*
X58343387Y-19132031D01*
X58409242Y-19017965D01*
X58414213Y-19005964D01*
X58448303Y-18878739D01*
X58450000Y-18865853D01*
X58450000Y-18734146D01*
X58448303Y-18721260D01*
X58414213Y-18594035D01*
X58409242Y-18582034D01*
X58343387Y-18467968D01*
X58335475Y-18457657D01*
X58242342Y-18364524D01*
X58232031Y-18356612D01*
X58117965Y-18290757D01*
X58105964Y-18285786D01*
X57978739Y-18251696D01*
X57965853Y-18250000D01*
X57834147Y-18250000D01*
X57821260Y-18251696D01*
X57694035Y-18285786D01*
X57682034Y-18290757D01*
X57567968Y-18356612D01*
X57557657Y-18364524D01*
X57501471Y-18420711D01*
X57446403Y-18448769D01*
X57430760Y-18450000D01*
X52004213Y-18450000D01*
X51945434Y-18430902D01*
X51909107Y-18380902D01*
X51909107Y-18319098D01*
X51911824Y-18311735D01*
X51914212Y-18305967D01*
X51933457Y-18234146D01*
X62250000Y-18234146D01*
X62250000Y-18365853D01*
X62251696Y-18378739D01*
X62285786Y-18505964D01*
X62290757Y-18517965D01*
X62356612Y-18632031D01*
X62364524Y-18642342D01*
X62457657Y-18735475D01*
X62467968Y-18743387D01*
X62582034Y-18809242D01*
X62594035Y-18814213D01*
X62721260Y-18848303D01*
X62734147Y-18850000D01*
X62865853Y-18850000D01*
X62878739Y-18848303D01*
X63005964Y-18814213D01*
X63017965Y-18809242D01*
X63132031Y-18743387D01*
X63142342Y-18735475D01*
X63235475Y-18642342D01*
X63243387Y-18632031D01*
X63309242Y-18517965D01*
X63314213Y-18505963D01*
X63333456Y-18434146D01*
X67750000Y-18434146D01*
X67750000Y-18565853D01*
X67751696Y-18578739D01*
X67785786Y-18705964D01*
X67790757Y-18717965D01*
X67856612Y-18832031D01*
X67864524Y-18842342D01*
X67957657Y-18935475D01*
X67967968Y-18943387D01*
X68082034Y-19009242D01*
X68094031Y-19014211D01*
X68182599Y-19037943D01*
X68227428Y-19063825D01*
X68520711Y-19357107D01*
X68548769Y-19412174D01*
X68550000Y-19427818D01*
X68550000Y-19752627D01*
X68536603Y-19802626D01*
X68490757Y-19882033D01*
X68485786Y-19894034D01*
X68451696Y-20021260D01*
X68450000Y-20034146D01*
X68450000Y-20165853D01*
X68451696Y-20178739D01*
X68485786Y-20305964D01*
X68490757Y-20317965D01*
X68556612Y-20432031D01*
X68564524Y-20442342D01*
X68657657Y-20535475D01*
X68667968Y-20543387D01*
X68782034Y-20609242D01*
X68794035Y-20614213D01*
X68921260Y-20648303D01*
X68934147Y-20650000D01*
X69065853Y-20650000D01*
X69078739Y-20648303D01*
X69205964Y-20614213D01*
X69217965Y-20609242D01*
X69332031Y-20543387D01*
X69342342Y-20535475D01*
X69435475Y-20442342D01*
X69443387Y-20432031D01*
X69509242Y-20317965D01*
X69514213Y-20305964D01*
X69548303Y-20178739D01*
X69550000Y-20165853D01*
X69550000Y-20034146D01*
X69548303Y-20021260D01*
X69514213Y-19894034D01*
X69509242Y-19882033D01*
X69463397Y-19802626D01*
X69450000Y-19752627D01*
X69450000Y-19147314D01*
X69448301Y-19134417D01*
X69424906Y-19047106D01*
X69416041Y-19027185D01*
X69412751Y-19014905D01*
X69369568Y-18940110D01*
X69369568Y-18940109D01*
X69369566Y-18940107D01*
X69363367Y-18929369D01*
X69355456Y-18919059D01*
X68863825Y-18427428D01*
X68837943Y-18382599D01*
X68814211Y-18294031D01*
X68809242Y-18282034D01*
X68743387Y-18167968D01*
X68735475Y-18157657D01*
X68642342Y-18064524D01*
X68632031Y-18056612D01*
X68517965Y-17990757D01*
X68505964Y-17985786D01*
X68378739Y-17951696D01*
X68365853Y-17950000D01*
X68234147Y-17950000D01*
X68221260Y-17951696D01*
X68094035Y-17985786D01*
X68082034Y-17990757D01*
X67967968Y-18056612D01*
X67957657Y-18064524D01*
X67864524Y-18157657D01*
X67856612Y-18167968D01*
X67790757Y-18282034D01*
X67785786Y-18294035D01*
X67751696Y-18421260D01*
X67750000Y-18434146D01*
X63333456Y-18434146D01*
X63337944Y-18417398D01*
X63363826Y-18372568D01*
X63972568Y-17763826D01*
X64017398Y-17737944D01*
X64105963Y-17714213D01*
X64117965Y-17709242D01*
X64232031Y-17643387D01*
X64242342Y-17635475D01*
X64335475Y-17542342D01*
X64343387Y-17532031D01*
X64409242Y-17417965D01*
X64414213Y-17405964D01*
X64448303Y-17278739D01*
X64450000Y-17265853D01*
X64450000Y-17134146D01*
X64448303Y-17121260D01*
X64414213Y-16994035D01*
X64409242Y-16982034D01*
X64343387Y-16867968D01*
X64335475Y-16857657D01*
X64242342Y-16764524D01*
X64232031Y-16756612D01*
X64117965Y-16690757D01*
X64105964Y-16685786D01*
X63978739Y-16651696D01*
X63965853Y-16650000D01*
X63834147Y-16650000D01*
X63821260Y-16651696D01*
X63694035Y-16685786D01*
X63682034Y-16690757D01*
X63567968Y-16756612D01*
X63557657Y-16764524D01*
X63464524Y-16857657D01*
X63456612Y-16867968D01*
X63390758Y-16982032D01*
X63385785Y-16994040D01*
X63362054Y-17082601D01*
X63336173Y-17127429D01*
X62727429Y-17736173D01*
X62682601Y-17762054D01*
X62594040Y-17785785D01*
X62582032Y-17790758D01*
X62467968Y-17856612D01*
X62457657Y-17864524D01*
X62364524Y-17957657D01*
X62356612Y-17967968D01*
X62290757Y-18082034D01*
X62285786Y-18094035D01*
X62251696Y-18221260D01*
X62250000Y-18234146D01*
X51933457Y-18234146D01*
X51948303Y-18178739D01*
X51950000Y-18165853D01*
X51950000Y-18086396D01*
X51969098Y-18027617D01*
X51979289Y-18015685D01*
X52615686Y-17379289D01*
X52670754Y-17351231D01*
X52686397Y-17350000D01*
X52765853Y-17350000D01*
X52778739Y-17348303D01*
X52905964Y-17314213D01*
X52917965Y-17309242D01*
X53032031Y-17243387D01*
X53042342Y-17235475D01*
X53135475Y-17142342D01*
X53143387Y-17132031D01*
X53209242Y-17017965D01*
X53214213Y-17005964D01*
X53248303Y-16878739D01*
X53250000Y-16865853D01*
X53250000Y-16734146D01*
X53248303Y-16721260D01*
X53214213Y-16594035D01*
X53209242Y-16582034D01*
X53143387Y-16467968D01*
X53135475Y-16457657D01*
X53042342Y-16364524D01*
X53032031Y-16356612D01*
X52917965Y-16290757D01*
X52905964Y-16285786D01*
X52778739Y-16251696D01*
X52765853Y-16250000D01*
X52634147Y-16250000D01*
X52621260Y-16251696D01*
X52494035Y-16285786D01*
X52482034Y-16290757D01*
X52367968Y-16356612D01*
X52357657Y-16364524D01*
X52264524Y-16457657D01*
X52256612Y-16467968D01*
X52190757Y-16582034D01*
X52185786Y-16594035D01*
X52151696Y-16721260D01*
X52150000Y-16734146D01*
X52150000Y-16813603D01*
X52130902Y-16872382D01*
X52120711Y-16884314D01*
X51484315Y-17520711D01*
X51429248Y-17548769D01*
X51413604Y-17550000D01*
X51334147Y-17550000D01*
X51321260Y-17551696D01*
X51194035Y-17585786D01*
X51182034Y-17590757D01*
X51067968Y-17656612D01*
X51057657Y-17664524D01*
X50964524Y-17757657D01*
X50956612Y-17767968D01*
X50890756Y-17882036D01*
X50885422Y-17894913D01*
X50845282Y-17941907D01*
X50785185Y-17956331D01*
X50728087Y-17932677D01*
X50722325Y-17927351D01*
X50579289Y-17784315D01*
X50551231Y-17729247D01*
X50550000Y-17713604D01*
X50550000Y-17634146D01*
X50548303Y-17621260D01*
X50514213Y-17494035D01*
X50509242Y-17482034D01*
X50443387Y-17367968D01*
X50435475Y-17357657D01*
X50342342Y-17264524D01*
X50332031Y-17256612D01*
X50217965Y-17190757D01*
X50205964Y-17185786D01*
X50078739Y-17151696D01*
X50065853Y-17150000D01*
X49934147Y-17150000D01*
X49921260Y-17151696D01*
X49794035Y-17185786D01*
X49782034Y-17190757D01*
X49667968Y-17256612D01*
X49657657Y-17264524D01*
X49564524Y-17357657D01*
X49556612Y-17367968D01*
X49490757Y-17482034D01*
X49485786Y-17494035D01*
X49451696Y-17621260D01*
X49450000Y-17634146D01*
X600000Y-17634146D01*
X600000Y-5427262D01*
X619098Y-5368483D01*
X669098Y-5332156D01*
X730902Y-5332156D01*
X780902Y-5368483D01*
X788192Y-5380122D01*
X1087541Y-5940164D01*
X1092971Y-5948291D01*
X1522004Y-6471069D01*
X1528929Y-6477994D01*
X2051707Y-6907027D01*
X2059834Y-6912457D01*
X2656278Y-7231264D01*
X2665305Y-7235003D01*
X3312477Y-7431320D01*
X3322078Y-7433230D01*
X3995106Y-7499518D01*
X4004894Y-7499518D01*
X4677920Y-7433230D01*
X4687521Y-7431320D01*
X5334693Y-7235003D01*
X5343720Y-7231264D01*
X5940164Y-6912457D01*
X5948291Y-6907027D01*
X6471069Y-6477994D01*
X6477994Y-6471069D01*
X6907027Y-5948291D01*
X6912457Y-5940164D01*
X7076028Y-5634146D01*
X27250000Y-5634146D01*
X27250000Y-5765853D01*
X27251696Y-5778739D01*
X27285786Y-5905964D01*
X27290757Y-5917965D01*
X27356612Y-6032031D01*
X27364524Y-6042342D01*
X27420711Y-6098529D01*
X27448769Y-6153597D01*
X27450000Y-6169240D01*
X27450000Y-7830760D01*
X27430902Y-7889539D01*
X27420711Y-7901471D01*
X27364524Y-7957657D01*
X27356612Y-7967968D01*
X27290757Y-8082034D01*
X27285786Y-8094035D01*
X27251696Y-8221260D01*
X27250000Y-8234146D01*
X27250000Y-8365853D01*
X27251696Y-8378739D01*
X27285786Y-8505964D01*
X27290757Y-8517965D01*
X27356612Y-8632031D01*
X27364524Y-8642342D01*
X27457657Y-8735475D01*
X27467968Y-8743387D01*
X27582034Y-8809242D01*
X27594035Y-8814213D01*
X27721260Y-8848303D01*
X27734147Y-8850000D01*
X27865853Y-8850000D01*
X27878739Y-8848303D01*
X28005964Y-8814213D01*
X28017965Y-8809242D01*
X28132031Y-8743387D01*
X28142342Y-8735475D01*
X28235475Y-8642342D01*
X28243387Y-8632031D01*
X28309242Y-8517965D01*
X28314213Y-8505964D01*
X28348303Y-8378739D01*
X28350000Y-8365853D01*
X28350000Y-8234146D01*
X28348303Y-8221260D01*
X28314213Y-8094035D01*
X28309242Y-8082034D01*
X28243387Y-7967968D01*
X28235475Y-7957657D01*
X28179289Y-7901471D01*
X28151231Y-7846403D01*
X28150000Y-7830760D01*
X28150000Y-7070058D01*
X34240000Y-7070058D01*
X34240000Y-7209941D01*
X34240958Y-7219672D01*
X34268247Y-7356859D01*
X34271088Y-7366226D01*
X34324618Y-7495459D01*
X34329223Y-7504076D01*
X34406941Y-7620389D01*
X34413140Y-7627942D01*
X34512057Y-7726859D01*
X34519610Y-7733058D01*
X34635923Y-7810776D01*
X34644540Y-7815381D01*
X34773773Y-7868911D01*
X34783140Y-7871752D01*
X34920327Y-7899041D01*
X34930059Y-7900000D01*
X35069941Y-7900000D01*
X35079672Y-7899041D01*
X35216859Y-7871752D01*
X35226226Y-7868911D01*
X35355459Y-7815381D01*
X35364076Y-7810776D01*
X35480389Y-7733058D01*
X35487942Y-7726859D01*
X35586859Y-7627942D01*
X35593058Y-7620389D01*
X35670776Y-7504076D01*
X35675381Y-7495459D01*
X35728911Y-7366226D01*
X35731752Y-7356859D01*
X35759041Y-7219672D01*
X35760000Y-7209941D01*
X35760000Y-7070058D01*
X35759041Y-7060327D01*
X35731752Y-6923140D01*
X35728911Y-6913773D01*
X35675381Y-6784540D01*
X35670776Y-6775923D01*
X35593058Y-6659610D01*
X35586859Y-6652057D01*
X35487942Y-6553140D01*
X35480389Y-6546941D01*
X35364076Y-6469223D01*
X35355459Y-6464618D01*
X35226226Y-6411088D01*
X35216859Y-6408247D01*
X35079672Y-6380958D01*
X35069941Y-6380000D01*
X34930059Y-6380000D01*
X34920327Y-6380958D01*
X34783140Y-6408247D01*
X34773773Y-6411088D01*
X34644540Y-6464618D01*
X34635923Y-6469223D01*
X34519610Y-6546941D01*
X34512057Y-6553140D01*
X34413140Y-6652057D01*
X34406941Y-6659610D01*
X34329223Y-6775923D01*
X34324618Y-6784540D01*
X34271088Y-6913773D01*
X34268247Y-6923140D01*
X34240958Y-7060327D01*
X34240000Y-7070058D01*
X28150000Y-7070058D01*
X28150000Y-6169240D01*
X28169098Y-6110461D01*
X28176753Y-6101498D01*
X36950000Y-6101498D01*
X36950000Y-6298501D01*
X36950958Y-6308233D01*
X36989392Y-6501458D01*
X36992229Y-6510811D01*
X37067624Y-6692829D01*
X37072228Y-6701442D01*
X37181683Y-6865253D01*
X37187881Y-6872806D01*
X37327193Y-7012118D01*
X37334746Y-7018316D01*
X37498557Y-7127771D01*
X37507170Y-7132375D01*
X37689188Y-7207770D01*
X37698541Y-7210607D01*
X37891766Y-7249041D01*
X37901498Y-7250000D01*
X38098502Y-7250000D01*
X38108233Y-7249041D01*
X38301458Y-7210607D01*
X38310811Y-7207770D01*
X38492829Y-7132375D01*
X38501442Y-7127771D01*
X38665253Y-7018316D01*
X38672806Y-7012118D01*
X38812118Y-6872806D01*
X38818316Y-6865253D01*
X38927771Y-6701442D01*
X38932375Y-6692829D01*
X39007770Y-6510811D01*
X39010607Y-6501458D01*
X39049041Y-6308233D01*
X39050000Y-6298501D01*
X39050000Y-6101498D01*
X39950000Y-6101498D01*
X39950000Y-6298501D01*
X39950958Y-6308233D01*
X39989392Y-6501458D01*
X39992229Y-6510811D01*
X40067624Y-6692829D01*
X40072228Y-6701442D01*
X40181683Y-6865253D01*
X40187881Y-6872806D01*
X40327193Y-7012118D01*
X40334746Y-7018316D01*
X40498557Y-7127771D01*
X40507170Y-7132375D01*
X40689188Y-7207770D01*
X40698541Y-7210607D01*
X40891766Y-7249041D01*
X40901498Y-7250000D01*
X41098502Y-7250000D01*
X41108233Y-7249041D01*
X41301458Y-7210607D01*
X41310811Y-7207770D01*
X41492829Y-7132375D01*
X41501442Y-7127771D01*
X41665253Y-7018316D01*
X41672806Y-7012118D01*
X41812118Y-6872806D01*
X41818316Y-6865253D01*
X41927771Y-6701442D01*
X41932375Y-6692829D01*
X42007770Y-6510811D01*
X42010607Y-6501458D01*
X42049041Y-6308233D01*
X42050000Y-6298501D01*
X42050000Y-6101498D01*
X42950000Y-6101498D01*
X42950000Y-6298501D01*
X42950958Y-6308233D01*
X42989392Y-6501458D01*
X42992229Y-6510811D01*
X43067624Y-6692829D01*
X43072228Y-6701442D01*
X43181683Y-6865253D01*
X43187881Y-6872806D01*
X43327193Y-7012118D01*
X43334746Y-7018316D01*
X43498557Y-7127771D01*
X43507170Y-7132375D01*
X43689188Y-7207770D01*
X43698541Y-7210607D01*
X43891766Y-7249041D01*
X43901498Y-7250000D01*
X44098502Y-7250000D01*
X44108233Y-7249041D01*
X44301458Y-7210607D01*
X44310811Y-7207770D01*
X44492829Y-7132375D01*
X44501442Y-7127771D01*
X44665253Y-7018316D01*
X44672806Y-7012118D01*
X44812118Y-6872806D01*
X44818316Y-6865253D01*
X44927771Y-6701442D01*
X44932375Y-6692829D01*
X45007770Y-6510811D01*
X45010607Y-6501458D01*
X45049041Y-6308233D01*
X45050000Y-6298501D01*
X45050000Y-6101498D01*
X45950000Y-6101498D01*
X45950000Y-6298501D01*
X45950958Y-6308233D01*
X45989392Y-6501458D01*
X45992229Y-6510811D01*
X46067624Y-6692829D01*
X46072228Y-6701442D01*
X46181683Y-6865253D01*
X46187881Y-6872806D01*
X46327193Y-7012118D01*
X46334746Y-7018316D01*
X46498557Y-7127771D01*
X46507170Y-7132375D01*
X46689188Y-7207770D01*
X46698541Y-7210607D01*
X46891766Y-7249041D01*
X46901498Y-7250000D01*
X47098502Y-7250000D01*
X47108233Y-7249041D01*
X47301458Y-7210607D01*
X47310811Y-7207770D01*
X47492829Y-7132375D01*
X47501442Y-7127771D01*
X47665253Y-7018316D01*
X47672806Y-7012118D01*
X47812118Y-6872806D01*
X47818316Y-6865253D01*
X47927771Y-6701442D01*
X47932375Y-6692829D01*
X48007770Y-6510811D01*
X48010607Y-6501458D01*
X48049041Y-6308233D01*
X48050000Y-6298501D01*
X48050000Y-6101498D01*
X48950000Y-6101498D01*
X48950000Y-6298501D01*
X48950958Y-6308233D01*
X48989392Y-6501458D01*
X48992229Y-6510811D01*
X49067624Y-6692829D01*
X49072228Y-6701442D01*
X49181683Y-6865253D01*
X49187881Y-6872806D01*
X49327193Y-7012118D01*
X49334746Y-7018316D01*
X49498557Y-7127771D01*
X49507170Y-7132375D01*
X49689188Y-7207770D01*
X49698541Y-7210607D01*
X49891766Y-7249041D01*
X49901498Y-7250000D01*
X50098502Y-7250000D01*
X50108233Y-7249041D01*
X50301458Y-7210607D01*
X50310811Y-7207770D01*
X50492829Y-7132375D01*
X50501442Y-7127771D01*
X50644443Y-7032221D01*
X50703926Y-7015445D01*
X50761909Y-7036836D01*
X50796245Y-7088224D01*
X50800000Y-7115368D01*
X50800000Y-10273878D01*
X50800958Y-10283610D01*
X50829785Y-10428538D01*
X50832621Y-10437886D01*
X50889170Y-10574406D01*
X50893775Y-10583023D01*
X50975870Y-10705887D01*
X50982069Y-10713440D01*
X51086559Y-10817930D01*
X51094112Y-10824129D01*
X51216976Y-10906224D01*
X51225593Y-10910829D01*
X51362113Y-10967378D01*
X51371461Y-10970214D01*
X51516389Y-10999041D01*
X51526121Y-11000000D01*
X51673879Y-11000000D01*
X51683610Y-10999041D01*
X51828538Y-10970214D01*
X51837886Y-10967378D01*
X51974406Y-10910829D01*
X51983023Y-10906224D01*
X52105887Y-10824129D01*
X52113440Y-10817930D01*
X52217930Y-10713440D01*
X52224129Y-10705887D01*
X52306224Y-10583023D01*
X52310829Y-10574406D01*
X52367378Y-10437886D01*
X52370214Y-10428538D01*
X52399041Y-10283610D01*
X52400000Y-10273878D01*
X52400000Y-7840223D01*
X52419098Y-7781444D01*
X52469098Y-7745117D01*
X52530902Y-7745117D01*
X52555557Y-7757076D01*
X52635924Y-7810776D01*
X52644540Y-7815381D01*
X52773773Y-7868911D01*
X52783140Y-7871752D01*
X52920327Y-7899041D01*
X52930059Y-7900000D01*
X53069941Y-7900000D01*
X53079672Y-7899041D01*
X53216859Y-7871752D01*
X53226226Y-7868911D01*
X53355459Y-7815381D01*
X53364076Y-7810776D01*
X53480389Y-7733058D01*
X53487942Y-7726859D01*
X53586859Y-7627942D01*
X53593058Y-7620389D01*
X53670776Y-7504076D01*
X53675381Y-7495459D01*
X53728911Y-7366226D01*
X53731752Y-7356859D01*
X53759041Y-7219672D01*
X53760000Y-7209941D01*
X53760000Y-7070058D01*
X53759041Y-7060327D01*
X53732345Y-6926120D01*
X57900000Y-6926120D01*
X57900000Y-7073879D01*
X57900958Y-7083611D01*
X57929785Y-7228539D01*
X57932621Y-7237887D01*
X57989167Y-7374400D01*
X57993778Y-7383027D01*
X58075875Y-7505893D01*
X58082067Y-7513437D01*
X59686558Y-9117929D01*
X59694111Y-9124128D01*
X59816975Y-9206224D01*
X59825586Y-9210826D01*
X59881361Y-9233928D01*
X59881363Y-9233930D01*
X59962114Y-9267378D01*
X59971463Y-9270214D01*
X60090463Y-9293884D01*
X60090469Y-9293884D01*
X60116395Y-9299042D01*
X60126116Y-9300000D01*
X60373879Y-9300000D01*
X60383610Y-9299041D01*
X60528538Y-9270214D01*
X60537886Y-9267378D01*
X60674406Y-9210829D01*
X60683023Y-9206224D01*
X60805887Y-9124129D01*
X60813440Y-9117930D01*
X60917930Y-9013440D01*
X60924129Y-9005887D01*
X61006224Y-8883023D01*
X61010829Y-8874406D01*
X61067378Y-8737886D01*
X61070214Y-8728538D01*
X61099041Y-8583610D01*
X61100000Y-8573878D01*
X61100000Y-8426121D01*
X61099041Y-8416389D01*
X61070214Y-8271461D01*
X61067378Y-8262113D01*
X61010829Y-8125593D01*
X61006224Y-8116976D01*
X60924129Y-7994112D01*
X60917930Y-7986559D01*
X60813440Y-7882069D01*
X60805887Y-7875870D01*
X60683022Y-7793775D01*
X60674409Y-7789171D01*
X60600829Y-7758693D01*
X60568387Y-7737016D01*
X59213437Y-6382067D01*
X59205893Y-6375875D01*
X59083027Y-6293778D01*
X59074400Y-6289167D01*
X58937887Y-6232621D01*
X58928539Y-6229785D01*
X58783611Y-6200958D01*
X58773880Y-6200000D01*
X58626120Y-6200000D01*
X58616388Y-6200958D01*
X58471460Y-6229785D01*
X58462112Y-6232621D01*
X58325599Y-6289167D01*
X58316972Y-6293778D01*
X58194106Y-6375875D01*
X58186562Y-6382067D01*
X58082067Y-6486562D01*
X58075875Y-6494106D01*
X57993778Y-6616972D01*
X57989167Y-6625599D01*
X57932621Y-6762112D01*
X57929785Y-6771460D01*
X57900958Y-6916388D01*
X57900000Y-6926120D01*
X53732345Y-6926120D01*
X53731752Y-6923140D01*
X53728911Y-6913773D01*
X53675381Y-6784540D01*
X53670776Y-6775923D01*
X53593058Y-6659610D01*
X53586859Y-6652057D01*
X53487942Y-6553140D01*
X53480389Y-6546941D01*
X53364076Y-6469223D01*
X53355459Y-6464618D01*
X53226226Y-6411088D01*
X53216859Y-6408247D01*
X53079672Y-6380958D01*
X53069941Y-6380000D01*
X52930059Y-6380000D01*
X52920327Y-6380958D01*
X52783140Y-6408247D01*
X52773773Y-6411088D01*
X52640005Y-6466497D01*
X52639237Y-6464645D01*
X52586279Y-6474091D01*
X52530677Y-6447109D01*
X52501554Y-6392597D01*
X52500000Y-6375037D01*
X52500000Y-5327564D01*
X67100000Y-5327564D01*
X67100000Y-5472435D01*
X67101696Y-5485321D01*
X67139191Y-5625257D01*
X67144169Y-5637272D01*
X67216605Y-5762734D01*
X67224511Y-5773038D01*
X67326961Y-5875488D01*
X67337265Y-5883394D01*
X67462727Y-5955830D01*
X67474742Y-5960808D01*
X67614678Y-5998303D01*
X67627565Y-6000000D01*
X67772435Y-6000000D01*
X67785321Y-5998303D01*
X67925257Y-5960808D01*
X67937272Y-5955830D01*
X68062734Y-5883394D01*
X68073038Y-5875488D01*
X68175488Y-5773038D01*
X68183394Y-5762734D01*
X68255830Y-5637272D01*
X68260808Y-5625257D01*
X68298303Y-5485321D01*
X68300000Y-5472435D01*
X68300000Y-5407108D01*
X68319098Y-5348329D01*
X68329289Y-5336397D01*
X69036397Y-4629289D01*
X69091465Y-4601231D01*
X69107108Y-4600000D01*
X69172435Y-4600000D01*
X69185321Y-4598303D01*
X69325257Y-4560808D01*
X69337272Y-4555830D01*
X69462734Y-4483394D01*
X69473038Y-4475488D01*
X69575488Y-4373038D01*
X69583394Y-4362734D01*
X69655830Y-4237272D01*
X69660808Y-4225257D01*
X69698303Y-4085321D01*
X69700000Y-4072435D01*
X69700000Y-3927564D01*
X69698303Y-3914678D01*
X69660808Y-3774742D01*
X69655830Y-3762727D01*
X69583394Y-3637265D01*
X69575488Y-3626961D01*
X69473038Y-3524511D01*
X69462734Y-3516605D01*
X69337272Y-3444169D01*
X69325257Y-3439191D01*
X69185321Y-3401696D01*
X69172435Y-3400000D01*
X69027565Y-3400000D01*
X69014678Y-3401696D01*
X68874742Y-3439191D01*
X68862727Y-3444169D01*
X68737265Y-3516605D01*
X68726961Y-3524511D01*
X68624511Y-3626961D01*
X68616605Y-3637265D01*
X68544169Y-3762727D01*
X68539191Y-3774742D01*
X68501696Y-3914678D01*
X68500000Y-3927564D01*
X68500000Y-3992892D01*
X68480902Y-4051671D01*
X68470711Y-4063603D01*
X67763603Y-4770711D01*
X67708535Y-4798769D01*
X67692892Y-4800000D01*
X67627565Y-4800000D01*
X67614678Y-4801696D01*
X67474742Y-4839191D01*
X67462727Y-4844169D01*
X67337265Y-4916605D01*
X67326961Y-4924511D01*
X67224511Y-5026961D01*
X67216605Y-5037265D01*
X67144169Y-5162727D01*
X67139191Y-5174742D01*
X67101696Y-5314678D01*
X67100000Y-5327564D01*
X52500000Y-5327564D01*
X52500000Y-4126121D01*
X52499041Y-4116389D01*
X52470214Y-3971461D01*
X52467378Y-3962113D01*
X52410829Y-3825593D01*
X52406224Y-3816976D01*
X52324129Y-3694112D01*
X52317930Y-3686559D01*
X52213440Y-3582069D01*
X52205887Y-3575870D01*
X52083023Y-3493775D01*
X52074406Y-3489170D01*
X51937886Y-3432621D01*
X51928538Y-3429785D01*
X51783610Y-3400958D01*
X51773879Y-3400000D01*
X51626121Y-3400000D01*
X51616389Y-3400958D01*
X51471461Y-3429785D01*
X51462113Y-3432621D01*
X51325593Y-3489170D01*
X51316976Y-3493775D01*
X51194112Y-3575870D01*
X51186559Y-3582069D01*
X51082069Y-3686559D01*
X51075870Y-3694112D01*
X50993775Y-3816976D01*
X50989170Y-3825593D01*
X50932621Y-3962113D01*
X50929785Y-3971461D01*
X50900958Y-4116389D01*
X50900000Y-4126121D01*
X50900000Y-5373653D01*
X50880902Y-5432432D01*
X50830902Y-5468759D01*
X50769098Y-5468759D01*
X50729289Y-5444364D01*
X50672806Y-5387881D01*
X50665253Y-5381683D01*
X50501442Y-5272228D01*
X50492829Y-5267624D01*
X50310811Y-5192229D01*
X50301458Y-5189392D01*
X50108233Y-5150958D01*
X50098502Y-5150000D01*
X49901498Y-5150000D01*
X49891766Y-5150958D01*
X49698541Y-5189392D01*
X49689188Y-5192229D01*
X49507170Y-5267624D01*
X49498557Y-5272228D01*
X49334746Y-5381683D01*
X49327193Y-5387881D01*
X49187881Y-5527193D01*
X49181683Y-5534746D01*
X49072228Y-5698557D01*
X49067624Y-5707170D01*
X48992229Y-5889188D01*
X48989392Y-5898541D01*
X48950958Y-6091766D01*
X48950000Y-6101498D01*
X48050000Y-6101498D01*
X48049041Y-6091766D01*
X48010607Y-5898541D01*
X48007770Y-5889188D01*
X47932375Y-5707170D01*
X47927771Y-5698557D01*
X47818316Y-5534746D01*
X47812118Y-5527193D01*
X47672806Y-5387881D01*
X47665253Y-5381683D01*
X47501442Y-5272228D01*
X47492829Y-5267624D01*
X47310811Y-5192229D01*
X47301458Y-5189392D01*
X47108233Y-5150958D01*
X47098502Y-5150000D01*
X46901498Y-5150000D01*
X46891766Y-5150958D01*
X46698541Y-5189392D01*
X46689188Y-5192229D01*
X46507170Y-5267624D01*
X46498557Y-5272228D01*
X46334746Y-5381683D01*
X46327193Y-5387881D01*
X46187881Y-5527193D01*
X46181683Y-5534746D01*
X46072228Y-5698557D01*
X46067624Y-5707170D01*
X45992229Y-5889188D01*
X45989392Y-5898541D01*
X45950958Y-6091766D01*
X45950000Y-6101498D01*
X45050000Y-6101498D01*
X45049041Y-6091766D01*
X45010607Y-5898541D01*
X45007770Y-5889188D01*
X44932375Y-5707170D01*
X44927771Y-5698557D01*
X44818316Y-5534746D01*
X44812118Y-5527193D01*
X44672806Y-5387881D01*
X44665253Y-5381683D01*
X44501442Y-5272228D01*
X44492829Y-5267624D01*
X44310811Y-5192229D01*
X44301458Y-5189392D01*
X44108233Y-5150958D01*
X44098502Y-5150000D01*
X43901498Y-5150000D01*
X43891766Y-5150958D01*
X43698541Y-5189392D01*
X43689188Y-5192229D01*
X43507170Y-5267624D01*
X43498557Y-5272228D01*
X43334746Y-5381683D01*
X43327193Y-5387881D01*
X43187881Y-5527193D01*
X43181683Y-5534746D01*
X43072228Y-5698557D01*
X43067624Y-5707170D01*
X42992229Y-5889188D01*
X42989392Y-5898541D01*
X42950958Y-6091766D01*
X42950000Y-6101498D01*
X42050000Y-6101498D01*
X42049041Y-6091766D01*
X42010607Y-5898541D01*
X42007770Y-5889188D01*
X41932375Y-5707170D01*
X41927771Y-5698557D01*
X41818316Y-5534746D01*
X41812118Y-5527193D01*
X41672806Y-5387881D01*
X41665253Y-5381683D01*
X41501442Y-5272228D01*
X41492829Y-5267624D01*
X41310811Y-5192229D01*
X41301458Y-5189392D01*
X41108233Y-5150958D01*
X41098502Y-5150000D01*
X40901498Y-5150000D01*
X40891766Y-5150958D01*
X40698541Y-5189392D01*
X40689188Y-5192229D01*
X40507170Y-5267624D01*
X40498557Y-5272228D01*
X40334746Y-5381683D01*
X40327193Y-5387881D01*
X40187881Y-5527193D01*
X40181683Y-5534746D01*
X40072228Y-5698557D01*
X40067624Y-5707170D01*
X39992229Y-5889188D01*
X39989392Y-5898541D01*
X39950958Y-6091766D01*
X39950000Y-6101498D01*
X39050000Y-6101498D01*
X39049041Y-6091766D01*
X39010607Y-5898541D01*
X39007770Y-5889188D01*
X38932375Y-5707170D01*
X38927771Y-5698557D01*
X38818316Y-5534746D01*
X38812118Y-5527193D01*
X38672806Y-5387881D01*
X38665253Y-5381683D01*
X38501442Y-5272228D01*
X38492829Y-5267624D01*
X38310811Y-5192229D01*
X38301458Y-5189392D01*
X38108233Y-5150958D01*
X38098502Y-5150000D01*
X37901498Y-5150000D01*
X37891766Y-5150958D01*
X37698541Y-5189392D01*
X37689188Y-5192229D01*
X37507170Y-5267624D01*
X37498557Y-5272228D01*
X37334746Y-5381683D01*
X37327193Y-5387881D01*
X37187881Y-5527193D01*
X37181683Y-5534746D01*
X37072228Y-5698557D01*
X37067624Y-5707170D01*
X36992229Y-5889188D01*
X36989392Y-5898541D01*
X36950958Y-6091766D01*
X36950000Y-6101498D01*
X28176753Y-6101498D01*
X28179289Y-6098529D01*
X28235475Y-6042342D01*
X28243387Y-6032031D01*
X28309242Y-5917965D01*
X28314213Y-5905964D01*
X28348303Y-5778739D01*
X28350000Y-5765853D01*
X28350000Y-5634146D01*
X28348303Y-5621260D01*
X28314213Y-5494035D01*
X28309242Y-5482034D01*
X28243387Y-5367968D01*
X28235475Y-5357657D01*
X28142342Y-5264524D01*
X28132031Y-5256612D01*
X28017965Y-5190757D01*
X28005964Y-5185786D01*
X27878739Y-5151696D01*
X27865853Y-5150000D01*
X27734147Y-5150000D01*
X27721260Y-5151696D01*
X27594035Y-5185786D01*
X27582034Y-5190757D01*
X27467968Y-5256612D01*
X27457657Y-5264524D01*
X27364524Y-5357657D01*
X27356612Y-5367968D01*
X27290757Y-5482034D01*
X27285786Y-5494035D01*
X27251696Y-5621260D01*
X27250000Y-5634146D01*
X7076028Y-5634146D01*
X7231264Y-5343720D01*
X7235003Y-5334693D01*
X7431320Y-4687521D01*
X7433230Y-4677920D01*
X7499518Y-4004893D01*
X7499518Y-3995106D01*
X7433230Y-3322078D01*
X7431320Y-3312477D01*
X7367320Y-3101498D01*
X42950000Y-3101498D01*
X42950000Y-3298501D01*
X42950958Y-3308233D01*
X42989392Y-3501458D01*
X42992229Y-3510811D01*
X43067624Y-3692829D01*
X43072228Y-3701442D01*
X43181683Y-3865253D01*
X43187881Y-3872806D01*
X43327193Y-4012118D01*
X43334746Y-4018316D01*
X43498557Y-4127771D01*
X43507170Y-4132375D01*
X43689188Y-4207770D01*
X43698541Y-4210607D01*
X43891766Y-4249041D01*
X43901498Y-4250000D01*
X44098502Y-4250000D01*
X44108233Y-4249041D01*
X44301458Y-4210607D01*
X44310811Y-4207770D01*
X44492829Y-4132375D01*
X44501442Y-4127771D01*
X44665253Y-4018316D01*
X44672806Y-4012118D01*
X44812118Y-3872806D01*
X44818316Y-3865253D01*
X44927771Y-3701442D01*
X44932375Y-3692829D01*
X45007770Y-3510811D01*
X45010607Y-3501458D01*
X45049041Y-3308233D01*
X45050000Y-3298501D01*
X45050000Y-3101498D01*
X45950000Y-3101498D01*
X45950000Y-3298501D01*
X45950958Y-3308233D01*
X45989392Y-3501458D01*
X45992229Y-3510811D01*
X46067624Y-3692829D01*
X46072228Y-3701442D01*
X46181683Y-3865253D01*
X46187881Y-3872806D01*
X46327193Y-4012118D01*
X46334746Y-4018316D01*
X46498557Y-4127771D01*
X46507170Y-4132375D01*
X46689188Y-4207770D01*
X46698541Y-4210607D01*
X46891766Y-4249041D01*
X46901498Y-4250000D01*
X47098502Y-4250000D01*
X47108233Y-4249041D01*
X47301458Y-4210607D01*
X47310811Y-4207770D01*
X47492829Y-4132375D01*
X47501442Y-4127771D01*
X47665253Y-4018316D01*
X47672806Y-4012118D01*
X47812118Y-3872806D01*
X47818316Y-3865253D01*
X47927771Y-3701442D01*
X47932375Y-3692829D01*
X48007770Y-3510811D01*
X48010607Y-3501458D01*
X48049041Y-3308233D01*
X48050000Y-3298501D01*
X48050000Y-3101498D01*
X48049041Y-3091766D01*
X48010607Y-2898541D01*
X48007770Y-2889188D01*
X47932375Y-2707170D01*
X47927771Y-2698557D01*
X47880335Y-2627564D01*
X62500000Y-2627564D01*
X62500000Y-2772435D01*
X62501696Y-2785321D01*
X62539191Y-2925257D01*
X62544169Y-2937272D01*
X62616605Y-3062734D01*
X62624511Y-3073038D01*
X62726961Y-3175488D01*
X62737265Y-3183394D01*
X62862727Y-3255830D01*
X62874742Y-3260808D01*
X63014678Y-3298303D01*
X63027565Y-3300000D01*
X63092892Y-3300000D01*
X63151671Y-3319098D01*
X63163603Y-3329289D01*
X64370711Y-4536397D01*
X64398769Y-4591465D01*
X64400000Y-4607108D01*
X64400000Y-4672435D01*
X64401696Y-4685321D01*
X64439191Y-4825257D01*
X64444169Y-4837272D01*
X64516605Y-4962734D01*
X64524511Y-4973038D01*
X64626961Y-5075488D01*
X64637265Y-5083394D01*
X64762727Y-5155830D01*
X64774742Y-5160808D01*
X64914678Y-5198303D01*
X64927565Y-5200000D01*
X65072435Y-5200000D01*
X65085321Y-5198303D01*
X65225257Y-5160808D01*
X65237272Y-5155830D01*
X65362734Y-5083394D01*
X65373038Y-5075488D01*
X65475488Y-4973038D01*
X65483394Y-4962734D01*
X65555830Y-4837272D01*
X65560808Y-4825257D01*
X65598303Y-4685321D01*
X65600000Y-4672435D01*
X65600000Y-4527564D01*
X65598303Y-4514678D01*
X65560808Y-4374742D01*
X65555830Y-4362727D01*
X65483394Y-4237265D01*
X65475488Y-4226961D01*
X65373038Y-4124511D01*
X65362734Y-4116605D01*
X65237272Y-4044169D01*
X65225257Y-4039191D01*
X65085321Y-4001696D01*
X65072435Y-4000000D01*
X65007108Y-4000000D01*
X64948329Y-3980902D01*
X64936397Y-3970711D01*
X63729289Y-2763603D01*
X63701231Y-2708535D01*
X63700000Y-2692892D01*
X63700000Y-2627564D01*
X63698303Y-2614678D01*
X63660808Y-2474742D01*
X63655830Y-2462727D01*
X63583394Y-2337265D01*
X63575488Y-2326961D01*
X63473038Y-2224511D01*
X63462734Y-2216605D01*
X63337272Y-2144169D01*
X63325257Y-2139191D01*
X63185321Y-2101696D01*
X63172435Y-2100000D01*
X63027565Y-2100000D01*
X63014678Y-2101696D01*
X62874742Y-2139191D01*
X62862727Y-2144169D01*
X62737265Y-2216605D01*
X62726961Y-2224511D01*
X62624511Y-2326961D01*
X62616605Y-2337265D01*
X62544169Y-2462727D01*
X62539191Y-2474742D01*
X62501696Y-2614678D01*
X62500000Y-2627564D01*
X47880335Y-2627564D01*
X47818316Y-2534746D01*
X47812118Y-2527193D01*
X47672806Y-2387881D01*
X47665253Y-2381683D01*
X47501442Y-2272228D01*
X47492829Y-2267624D01*
X47310811Y-2192229D01*
X47301458Y-2189392D01*
X47108233Y-2150958D01*
X47098502Y-2150000D01*
X46901498Y-2150000D01*
X46891766Y-2150958D01*
X46698541Y-2189392D01*
X46689188Y-2192229D01*
X46507170Y-2267624D01*
X46498557Y-2272228D01*
X46334746Y-2381683D01*
X46327193Y-2387881D01*
X46187881Y-2527193D01*
X46181683Y-2534746D01*
X46072228Y-2698557D01*
X46067624Y-2707170D01*
X45992229Y-2889188D01*
X45989392Y-2898541D01*
X45950958Y-3091766D01*
X45950000Y-3101498D01*
X45050000Y-3101498D01*
X45049041Y-3091766D01*
X45010607Y-2898541D01*
X45007770Y-2889188D01*
X44932375Y-2707170D01*
X44927771Y-2698557D01*
X44818316Y-2534746D01*
X44812118Y-2527193D01*
X44672806Y-2387881D01*
X44665253Y-2381683D01*
X44501442Y-2272228D01*
X44492829Y-2267624D01*
X44310811Y-2192229D01*
X44301458Y-2189392D01*
X44108233Y-2150958D01*
X44098502Y-2150000D01*
X43901498Y-2150000D01*
X43891766Y-2150958D01*
X43698541Y-2189392D01*
X43689188Y-2192229D01*
X43507170Y-2267624D01*
X43498557Y-2272228D01*
X43334746Y-2381683D01*
X43327193Y-2387881D01*
X43187881Y-2527193D01*
X43181683Y-2534746D01*
X43072228Y-2698557D01*
X43067624Y-2707170D01*
X42992229Y-2889188D01*
X42989392Y-2898541D01*
X42950958Y-3091766D01*
X42950000Y-3101498D01*
X7367320Y-3101498D01*
X7235003Y-2665305D01*
X7231264Y-2656278D01*
X6912457Y-2059834D01*
X6907027Y-2051707D01*
X6477994Y-1528929D01*
X6471069Y-1522004D01*
X5948291Y-1092971D01*
X5940164Y-1087541D01*
X5380123Y-788192D01*
X5337288Y-743641D01*
X5328820Y-682420D01*
X5357954Y-627915D01*
X5413562Y-600943D01*
X5427263Y-600000D01*
X104572736Y-600000D01*
X104631515Y-619098D01*
G37*
%TD.AperFunction*%
%TD*%
M02*
