%TF.GenerationSoftware,KiCad,Pcbnew,9.0.5*%
%TF.CreationDate,2026-09-14T21:20:41-05:00*%
%TF.ProjectId,rover-panel-supervisor,726f7665-722d-4706-916e-656c2d737570,rev?*%
%TF.SameCoordinates,Original*%
%TF.FileFunction,Other,User*%
%FSLAX46Y46*%
G04 Gerber Fmt 4.6, Leading zero omitted, Abs format (unit mm)*
G04 Created by KiCad (PCBNEW 9.0.5) date 2026-09-14 21:20:41*
%MOMM*%
%LPD*%
G01*
G04 APERTURE LIST*
%ADD10C,0.050000*%
G04 APERTURE END LIST*
D10*
%TO.C,H3*%
X7450000Y-42000000D02*
G75*
G02*
X550000Y-42000000I-3450000J0D01*
G01*
X550000Y-42000000D02*
G75*
G02*
X7450000Y-42000000I3450000J0D01*
G01*
%TO.C,R11*%
X27820000Y-21350000D02*
X31180000Y-21350000D01*
X27820000Y-23250000D02*
X27820000Y-21350000D01*
X31180000Y-21350000D02*
X31180000Y-23250000D01*
X31180000Y-23250000D02*
X27820000Y-23250000D01*
%TO.C,C11*%
X27200000Y-32550000D02*
X31800000Y-32550000D01*
X27200000Y-34850000D02*
X27200000Y-32550000D01*
X31800000Y-32550000D02*
X31800000Y-34850000D01*
X31800000Y-34850000D02*
X27200000Y-34850000D01*
%TO.C,C8*%
X27800000Y-24120000D02*
X31200000Y-24120000D01*
X27800000Y-26080000D02*
X27800000Y-24120000D01*
X31200000Y-24120000D02*
X31200000Y-26080000D01*
X31200000Y-26080000D02*
X27800000Y-26080000D01*
%TO.C,R13*%
X33320000Y-21350000D02*
X36680000Y-21350000D01*
X33320000Y-23250000D02*
X33320000Y-21350000D01*
X36680000Y-21350000D02*
X36680000Y-23250000D01*
X36680000Y-23250000D02*
X33320000Y-23250000D01*
%TO.C,C3*%
X102350000Y-8500000D02*
X104650000Y-8500000D01*
X102350000Y-13100000D02*
X102350000Y-8500000D01*
X104650000Y-8500000D02*
X104650000Y-13100000D01*
X104650000Y-13100000D02*
X102350000Y-13100000D01*
%TO.C,D1*%
X37350000Y-11950000D02*
X44650000Y-11950000D01*
X37350000Y-16450000D02*
X37350000Y-11950000D01*
X44650000Y-11950000D02*
X44650000Y-16450000D01*
X44650000Y-16450000D02*
X37350000Y-16450000D01*
%TO.C,D15*%
X92400000Y-19050000D02*
X92400000Y-20950000D01*
X92400000Y-19050000D02*
X95600000Y-19050000D01*
X92400000Y-20950000D02*
X95600000Y-20950000D01*
X95600000Y-19050000D02*
X95600000Y-20950000D01*
%TO.C,C6*%
X20100000Y-19820000D02*
X23500000Y-19820000D01*
X20100000Y-21780000D02*
X20100000Y-19820000D01*
X23500000Y-19820000D02*
X23500000Y-21780000D01*
X23500000Y-21780000D02*
X20100000Y-21780000D01*
%TO.C,C16*%
X74300000Y-20220000D02*
X77700000Y-20220000D01*
X74300000Y-22180000D02*
X74300000Y-20220000D01*
X77700000Y-20220000D02*
X77700000Y-22180000D01*
X77700000Y-22180000D02*
X74300000Y-22180000D01*
%TO.C,D8*%
X63820000Y-41550000D02*
X67180000Y-41550000D01*
X63820000Y-43450000D02*
X63820000Y-41550000D01*
X67180000Y-41550000D02*
X67180000Y-43450000D01*
X67180000Y-43450000D02*
X63820000Y-43450000D01*
%TO.C,R14*%
X33320000Y-29750000D02*
X36680000Y-29750000D01*
X33320000Y-31650000D02*
X33320000Y-29750000D01*
X36680000Y-29750000D02*
X36680000Y-31650000D01*
X36680000Y-31650000D02*
X33320000Y-31650000D01*
%TO.C,R12*%
X33320000Y-18550000D02*
X36680000Y-18550000D01*
X33320000Y-20450000D02*
X33320000Y-18550000D01*
X36680000Y-18550000D02*
X36680000Y-20450000D01*
X36680000Y-20450000D02*
X33320000Y-20450000D01*
%TO.C,Q2*%
X68570000Y-31500000D02*
X69600000Y-31500000D01*
X68570000Y-34500000D02*
X68570000Y-31500000D01*
X69600000Y-31300000D02*
X71400000Y-31300000D01*
X69600000Y-31500000D02*
X69600000Y-31300000D01*
X69600000Y-34500000D02*
X68570000Y-34500000D01*
X69600000Y-34700000D02*
X69600000Y-34500000D01*
X71400000Y-31300000D02*
X71400000Y-32450000D01*
X71400000Y-32450000D02*
X72430000Y-32450000D01*
X71400000Y-33550000D02*
X71400000Y-34700000D01*
X71400000Y-34700000D02*
X69600000Y-34700000D01*
X72430000Y-32450000D02*
X72430000Y-33550000D01*
X72430000Y-33550000D02*
X71400000Y-33550000D01*
%TO.C,R32*%
X60820000Y-14650000D02*
X64180000Y-14650000D01*
X60820000Y-16550000D02*
X60820000Y-14650000D01*
X64180000Y-14650000D02*
X64180000Y-16550000D01*
X64180000Y-16550000D02*
X60820000Y-16550000D01*
%TO.C,R8*%
X58820000Y-18550000D02*
X62180000Y-18550000D01*
X58820000Y-20450000D02*
X58820000Y-18550000D01*
X62180000Y-18550000D02*
X62180000Y-20450000D01*
X62180000Y-20450000D02*
X58820000Y-20450000D01*
%TO.C,H2*%
X109450000Y-4000000D02*
G75*
G02*
X102550000Y-4000000I-3450000J0D01*
G01*
X102550000Y-4000000D02*
G75*
G02*
X109450000Y-4000000I3450000J0D01*
G01*
%TO.C,R1*%
X92820000Y-12050000D02*
X96180000Y-12050000D01*
X92820000Y-13950000D02*
X92820000Y-12050000D01*
X96180000Y-12050000D02*
X96180000Y-13950000D01*
X96180000Y-13950000D02*
X92820000Y-13950000D01*
%TO.C,R10*%
X27820000Y-18550000D02*
X31180000Y-18550000D01*
X27820000Y-20450000D02*
X27820000Y-18550000D01*
X31180000Y-18550000D02*
X31180000Y-20450000D01*
X31180000Y-20450000D02*
X27820000Y-20450000D01*
%TO.C,TP3*%
X18250000Y-42800000D02*
G75*
G02*
X15750000Y-42800000I-1250000J0D01*
G01*
X15750000Y-42800000D02*
G75*
G02*
X18250000Y-42800000I1250000J0D01*
G01*
%TO.C,Q5*%
X66300000Y-11900000D02*
X67450000Y-11900000D01*
X66300000Y-13700000D02*
X66300000Y-11900000D01*
X66500000Y-13700000D02*
X66300000Y-13700000D01*
X66500000Y-14730000D02*
X66500000Y-13700000D01*
X67450000Y-10870000D02*
X68550000Y-10870000D01*
X67450000Y-11900000D02*
X67450000Y-10870000D01*
X68550000Y-10870000D02*
X68550000Y-11900000D01*
X68550000Y-11900000D02*
X69700000Y-11900000D01*
X69500000Y-13700000D02*
X69500000Y-14730000D01*
X69500000Y-14730000D02*
X66500000Y-14730000D01*
X69700000Y-11900000D02*
X69700000Y-13700000D01*
X69700000Y-13700000D02*
X69500000Y-13700000D01*
%TO.C,L1*%
X93990000Y-2400000D02*
X95200000Y-1190000D01*
X93990000Y-6000000D02*
X93990000Y-2400000D01*
X95200000Y-1190000D02*
X98800000Y-1190000D01*
X95200000Y-7210000D02*
X93990000Y-6000000D01*
X98800000Y-1190000D02*
X100010000Y-2400000D01*
X98800000Y-7210000D02*
X95200000Y-7210000D01*
X100010000Y-2400000D02*
X100010000Y-6000000D01*
X100010000Y-6000000D02*
X98800000Y-7210000D01*
%TO.C,D11*%
X50320000Y-41850000D02*
X53680000Y-41850000D01*
X50320000Y-43750000D02*
X50320000Y-41850000D01*
X53680000Y-41850000D02*
X53680000Y-43750000D01*
X53680000Y-43750000D02*
X50320000Y-43750000D01*
%TO.C,R19*%
X53320000Y-21350000D02*
X56680000Y-21350000D01*
X53320000Y-23250000D02*
X53320000Y-21350000D01*
X56680000Y-21350000D02*
X56680000Y-23250000D01*
X56680000Y-23250000D02*
X53320000Y-23250000D01*
%TO.C,U2*%
X17250000Y-24250000D02*
X17600000Y-24250000D01*
X17250000Y-27750000D02*
X17250000Y-24250000D01*
X17600000Y-22820000D02*
X20400000Y-22820000D01*
X17600000Y-24250000D02*
X17600000Y-22820000D01*
X17600000Y-27750000D02*
X17250000Y-27750000D01*
X17600000Y-29180000D02*
X17600000Y-27750000D01*
X20400000Y-22820000D02*
X20400000Y-24250000D01*
X20400000Y-24250000D02*
X20750000Y-24250000D01*
X20400000Y-27750000D02*
X20400000Y-29180000D01*
X20400000Y-29180000D02*
X17600000Y-29180000D01*
X20750000Y-24250000D02*
X20750000Y-27750000D01*
X20750000Y-27750000D02*
X20400000Y-27750000D01*
%TO.C,D2*%
X73000000Y-11450000D02*
X80000000Y-11450000D01*
X73000000Y-14950000D02*
X73000000Y-11450000D01*
X80000000Y-11450000D02*
X80000000Y-14950000D01*
X80000000Y-14950000D02*
X73000000Y-14950000D01*
%TO.C,R24*%
X58820000Y-26950000D02*
X62180000Y-26950000D01*
X58820000Y-28850000D02*
X58820000Y-26950000D01*
X62180000Y-26950000D02*
X62180000Y-28850000D01*
X62180000Y-28850000D02*
X58820000Y-28850000D01*
%TO.C,U5*%
X73250000Y-23350000D02*
X78750000Y-23350000D01*
X73250000Y-26650000D02*
X73250000Y-23350000D01*
X78750000Y-23350000D02*
X78750000Y-26650000D01*
X78750000Y-26650000D02*
X73250000Y-26650000D01*
%TO.C,TP2*%
X12250000Y-42800000D02*
G75*
G02*
X9750000Y-42800000I-1250000J0D01*
G01*
X9750000Y-42800000D02*
G75*
G02*
X12250000Y-42800000I1250000J0D01*
G01*
%TO.C,Q3*%
X68570000Y-36000000D02*
X69600000Y-36000000D01*
X68570000Y-39000000D02*
X68570000Y-36000000D01*
X69600000Y-35800000D02*
X71400000Y-35800000D01*
X69600000Y-36000000D02*
X69600000Y-35800000D01*
X69600000Y-39000000D02*
X68570000Y-39000000D01*
X69600000Y-39200000D02*
X69600000Y-39000000D01*
X71400000Y-35800000D02*
X71400000Y-36950000D01*
X71400000Y-36950000D02*
X72430000Y-36950000D01*
X71400000Y-38050000D02*
X71400000Y-39200000D01*
X71400000Y-39200000D02*
X69600000Y-39200000D01*
X72430000Y-36950000D02*
X72430000Y-38050000D01*
X72430000Y-38050000D02*
X71400000Y-38050000D01*
%TO.C,C9*%
X33300000Y-24120000D02*
X36700000Y-24120000D01*
X33300000Y-26080000D02*
X33300000Y-24120000D01*
X36700000Y-24120000D02*
X36700000Y-26080000D01*
X36700000Y-26080000D02*
X33300000Y-26080000D01*
%TO.C,R9*%
X58820000Y-21350000D02*
X62180000Y-21350000D01*
X58820000Y-23250000D02*
X58820000Y-21350000D01*
X62180000Y-21350000D02*
X62180000Y-23250000D01*
X62180000Y-23250000D02*
X58820000Y-23250000D01*
%TO.C,R6*%
X10520000Y-17550000D02*
X13880000Y-17550000D01*
X10520000Y-19450000D02*
X10520000Y-17550000D01*
X13880000Y-17550000D02*
X13880000Y-19450000D01*
X13880000Y-19450000D02*
X10520000Y-19450000D01*
%TO.C,H1*%
X7450000Y-4000000D02*
G75*
G02*
X550000Y-4000000I-3450000J0D01*
G01*
X550000Y-4000000D02*
G75*
G02*
X7450000Y-4000000I3450000J0D01*
G01*
%TO.C,R2*%
X92820000Y-14650000D02*
X96180000Y-14650000D01*
X92820000Y-16550000D02*
X92820000Y-14650000D01*
X96180000Y-14650000D02*
X96180000Y-16550000D01*
X96180000Y-16550000D02*
X92820000Y-16550000D01*
%TO.C,R31*%
X24320000Y-11650000D02*
X27680000Y-11650000D01*
X24320000Y-13550000D02*
X24320000Y-11650000D01*
X27680000Y-11650000D02*
X27680000Y-13550000D01*
X27680000Y-13550000D02*
X24320000Y-13550000D01*
%TO.C,R36*%
X73820000Y-41550000D02*
X77180000Y-41550000D01*
X73820000Y-43450000D02*
X73820000Y-41550000D01*
X77180000Y-41550000D02*
X77180000Y-43450000D01*
X77180000Y-43450000D02*
X73820000Y-43450000D01*
%TO.C,D5*%
X11850000Y-4050000D02*
X19150000Y-4050000D01*
X11850000Y-8550000D02*
X11850000Y-4050000D01*
X19150000Y-4050000D02*
X19150000Y-8550000D01*
X19150000Y-8550000D02*
X11850000Y-8550000D01*
%TO.C,R4*%
X82520000Y-10050000D02*
X85880000Y-10050000D01*
X82520000Y-11950000D02*
X82520000Y-10050000D01*
X85880000Y-10050000D02*
X85880000Y-11950000D01*
X85880000Y-11950000D02*
X82520000Y-11950000D01*
%TO.C,R20*%
X53320000Y-26950000D02*
X56680000Y-26950000D01*
X53320000Y-28850000D02*
X53320000Y-26950000D01*
X56680000Y-26950000D02*
X56680000Y-28850000D01*
X56680000Y-28850000D02*
X53320000Y-28850000D01*
%TO.C,U3*%
X41300000Y-25140000D02*
X42800000Y-25140000D01*
X41300000Y-33860000D02*
X41300000Y-25140000D01*
X42800000Y-24920000D02*
X47200000Y-24920000D01*
X42800000Y-25140000D02*
X42800000Y-24920000D01*
X42800000Y-33860000D02*
X41300000Y-33860000D01*
X42800000Y-34080000D02*
X42800000Y-33860000D01*
X47200000Y-24920000D02*
X47200000Y-25140000D01*
X47200000Y-25140000D02*
X48700000Y-25140000D01*
X47200000Y-33860000D02*
X47200000Y-34080000D01*
X47200000Y-34080000D02*
X42800000Y-34080000D01*
X48700000Y-25140000D02*
X48700000Y-33860000D01*
X48700000Y-33860000D02*
X47200000Y-33860000D01*
%TO.C,Q12*%
X84570000Y-29500000D02*
X85600000Y-29500000D01*
X84570000Y-32500000D02*
X84570000Y-29500000D01*
X85600000Y-29300000D02*
X87400000Y-29300000D01*
X85600000Y-29500000D02*
X85600000Y-29300000D01*
X85600000Y-32500000D02*
X84570000Y-32500000D01*
X85600000Y-32700000D02*
X85600000Y-32500000D01*
X87400000Y-29300000D02*
X87400000Y-30450000D01*
X87400000Y-30450000D02*
X88430000Y-30450000D01*
X87400000Y-31550000D02*
X87400000Y-32700000D01*
X87400000Y-32700000D02*
X85600000Y-32700000D01*
X88430000Y-30450000D02*
X88430000Y-31550000D01*
X88430000Y-31550000D02*
X87400000Y-31550000D01*
%TO.C,D9*%
X78820000Y-41550000D02*
X82180000Y-41550000D01*
X78820000Y-43450000D02*
X78820000Y-41550000D01*
X82180000Y-41550000D02*
X82180000Y-43450000D01*
X82180000Y-43450000D02*
X78820000Y-43450000D01*
%TO.C,Q10*%
X84570000Y-19500000D02*
X85600000Y-19500000D01*
X84570000Y-22500000D02*
X84570000Y-19500000D01*
X85600000Y-19300000D02*
X87400000Y-19300000D01*
X85600000Y-19500000D02*
X85600000Y-19300000D01*
X85600000Y-22500000D02*
X84570000Y-22500000D01*
X85600000Y-22700000D02*
X85600000Y-22500000D01*
X87400000Y-19300000D02*
X87400000Y-20450000D01*
X87400000Y-20450000D02*
X88430000Y-20450000D01*
X87400000Y-21550000D02*
X87400000Y-22700000D01*
X87400000Y-22700000D02*
X85600000Y-22700000D01*
X88430000Y-20450000D02*
X88430000Y-21550000D01*
X88430000Y-21550000D02*
X87400000Y-21550000D01*
%TO.C,P3*%
X98030000Y-17920000D02*
X107810000Y-17920000D01*
X98030000Y-35080000D02*
X98030000Y-17920000D01*
X107810000Y-17920000D02*
X107810000Y-35080000D01*
X107810000Y-35080000D02*
X98030000Y-35080000D01*
%TO.C,Q8*%
X77070000Y-37000000D02*
X78100000Y-37000000D01*
X77070000Y-40000000D02*
X77070000Y-37000000D01*
X78100000Y-36800000D02*
X79900000Y-36800000D01*
X78100000Y-37000000D02*
X78100000Y-36800000D01*
X78100000Y-40000000D02*
X77070000Y-40000000D01*
X78100000Y-40200000D02*
X78100000Y-40000000D01*
X79900000Y-36800000D02*
X79900000Y-37950000D01*
X79900000Y-37950000D02*
X80930000Y-37950000D01*
X79900000Y-39050000D02*
X79900000Y-40200000D01*
X79900000Y-40200000D02*
X78100000Y-40200000D01*
X80930000Y-37950000D02*
X80930000Y-39050000D01*
X80930000Y-39050000D02*
X79900000Y-39050000D01*
%TO.C,R37*%
X84820000Y-41550000D02*
X88180000Y-41550000D01*
X84820000Y-43450000D02*
X84820000Y-41550000D01*
X88180000Y-41550000D02*
X88180000Y-43450000D01*
X88180000Y-43450000D02*
X84820000Y-43450000D01*
%TO.C,R30*%
X28820000Y-11650000D02*
X32180000Y-11650000D01*
X28820000Y-13550000D02*
X28820000Y-11650000D01*
X32180000Y-11650000D02*
X32180000Y-13550000D01*
X32180000Y-13550000D02*
X28820000Y-13550000D01*
%TO.C,Q7*%
X62070000Y-37000000D02*
X63100000Y-37000000D01*
X62070000Y-40000000D02*
X62070000Y-37000000D01*
X63100000Y-36800000D02*
X64900000Y-36800000D01*
X63100000Y-37000000D02*
X63100000Y-36800000D01*
X63100000Y-40000000D02*
X62070000Y-40000000D01*
X63100000Y-40200000D02*
X63100000Y-40000000D01*
X64900000Y-36800000D02*
X64900000Y-37950000D01*
X64900000Y-37950000D02*
X65930000Y-37950000D01*
X64900000Y-39050000D02*
X64900000Y-40200000D01*
X64900000Y-40200000D02*
X63100000Y-40200000D01*
X65930000Y-37950000D02*
X65930000Y-39050000D01*
X65930000Y-39050000D02*
X64900000Y-39050000D01*
%TO.C,U1*%
X87350000Y-6850000D02*
X87350000Y-11150000D01*
X87350000Y-6850000D02*
X91650000Y-6850000D01*
X87350000Y-11150000D02*
X91650000Y-11150000D01*
X91650000Y-6850000D02*
X91650000Y-11150000D01*
%TO.C,D4*%
X27150000Y-35550000D02*
X27150000Y-37850000D01*
X27150000Y-35550000D02*
X31850000Y-35550000D01*
X31850000Y-35550000D02*
X31850000Y-37850000D01*
X31850000Y-37850000D02*
X27150000Y-37850000D01*
%TO.C,C18*%
X74300000Y-31319999D02*
X77700000Y-31319999D01*
X74300000Y-33279999D02*
X74300000Y-31319999D01*
X77700000Y-31319999D02*
X77700000Y-33279999D01*
X77700000Y-33279999D02*
X74300000Y-33279999D01*
%TO.C,R21*%
X53320000Y-29750000D02*
X56680000Y-29750000D01*
X53320000Y-31650000D02*
X53320000Y-29750000D01*
X56680000Y-29750000D02*
X56680000Y-31650000D01*
X56680000Y-31650000D02*
X53320000Y-31650000D01*
%TO.C,P2*%
X1420000Y-16030000D02*
X9580000Y-16030000D01*
X1420000Y-25810000D02*
X1420000Y-16030000D01*
X9580000Y-16030000D02*
X9580000Y-25810000D01*
X9580000Y-25810000D02*
X1420000Y-25810000D01*
%TO.C,R29*%
X74320000Y-28550000D02*
X77680000Y-28550000D01*
X74320000Y-30450000D02*
X74320000Y-28550000D01*
X77680000Y-28550000D02*
X77680000Y-30450000D01*
X77680000Y-30450000D02*
X74320000Y-30450000D01*
%TO.C,R27*%
X27820000Y-38550000D02*
X31180000Y-38550000D01*
X27820000Y-40450000D02*
X27820000Y-38550000D01*
X31180000Y-38550000D02*
X31180000Y-40450000D01*
X31180000Y-40450000D02*
X27820000Y-40450000D01*
%TO.C,R3*%
X82520000Y-12650000D02*
X85880000Y-12650000D01*
X82520000Y-14550000D02*
X82520000Y-12650000D01*
X85880000Y-12650000D02*
X85880000Y-14550000D01*
X85880000Y-14550000D02*
X82520000Y-14550000D01*
%TO.C,C10*%
X33300000Y-35320000D02*
X36700000Y-35320000D01*
X33300000Y-37280000D02*
X33300000Y-35320000D01*
X36700000Y-35320000D02*
X36700000Y-37280000D01*
X36700000Y-37280000D02*
X33300000Y-37280000D01*
%TO.C,Q1*%
X22100000Y-3400000D02*
X22100000Y-10600000D01*
X22100000Y-10600000D02*
X30900000Y-10600000D01*
X30900000Y-3400000D02*
X22100000Y-3400000D01*
X30900000Y-10600000D02*
X30900000Y-3400000D01*
%TO.C,D14*%
X92400000Y-24650000D02*
X92400000Y-26550000D01*
X92400000Y-24650000D02*
X95600000Y-24650000D01*
X92400000Y-26550000D02*
X95600000Y-26550000D01*
X95600000Y-24650000D02*
X95600000Y-26550000D01*
%TO.C,R23*%
X53320000Y-38150000D02*
X56680000Y-38150000D01*
X53320000Y-40050000D02*
X53320000Y-38150000D01*
X56680000Y-38150000D02*
X56680000Y-40050000D01*
X56680000Y-40050000D02*
X53320000Y-40050000D01*
%TO.C,R7*%
X10520000Y-21550000D02*
X13880000Y-21550000D01*
X10520000Y-23450000D02*
X10520000Y-21550000D01*
X13880000Y-21550000D02*
X13880000Y-23450000D01*
X13880000Y-23450000D02*
X10520000Y-23450000D01*
%TO.C,R22*%
X53320000Y-32550000D02*
X56680000Y-32550000D01*
X53320000Y-34450000D02*
X53320000Y-32550000D01*
X56680000Y-32550000D02*
X56680000Y-34450000D01*
X56680000Y-34450000D02*
X53320000Y-34450000D01*
%TO.C,C14*%
X38300000Y-23020000D02*
X41700000Y-23020000D01*
X38300000Y-24980000D02*
X38300000Y-23020000D01*
X41700000Y-23020000D02*
X41700000Y-24980000D01*
X41700000Y-24980000D02*
X38300000Y-24980000D01*
%TO.C,Q6*%
X56100000Y-3400000D02*
X56100000Y-10600000D01*
X56100000Y-10600000D02*
X64900000Y-10600000D01*
X64900000Y-3400000D02*
X56100000Y-3400000D01*
X64900000Y-10600000D02*
X64900000Y-3400000D01*
%TO.C,C4*%
X99320000Y-8500000D02*
X101280000Y-8500000D01*
X99320000Y-11900000D02*
X99320000Y-8500000D01*
X101280000Y-8500000D02*
X101280000Y-11900000D01*
X101280000Y-11900000D02*
X99320000Y-11900000D01*
%TO.C,R17*%
X27820000Y-29750000D02*
X31180000Y-29750000D01*
X27820000Y-31650000D02*
X27820000Y-29750000D01*
X31180000Y-29750000D02*
X31180000Y-31650000D01*
X31180000Y-31650000D02*
X27820000Y-31650000D01*
%TO.C,C1*%
X76900000Y-6900000D02*
X81500000Y-6900000D01*
X76900000Y-10100000D02*
X76900000Y-6900000D01*
X81500000Y-6900000D02*
X81500000Y-10100000D01*
X81500000Y-10100000D02*
X76900000Y-10100000D01*
%TO.C,R25*%
X58820000Y-29750000D02*
X62180000Y-29750000D01*
X58820000Y-31650000D02*
X58820000Y-29750000D01*
X62180000Y-29750000D02*
X62180000Y-31650000D01*
X62180000Y-31650000D02*
X58820000Y-31650000D01*
%TO.C,TP5*%
X30250000Y-42800000D02*
G75*
G02*
X27750000Y-42800000I-1250000J0D01*
G01*
X27750000Y-42800000D02*
G75*
G02*
X30250000Y-42800000I1250000J0D01*
G01*
%TO.C,R18*%
X53320000Y-18550000D02*
X56680000Y-18550000D01*
X53320000Y-20450000D02*
X53320000Y-18550000D01*
X56680000Y-18550000D02*
X56680000Y-20450000D01*
X56680000Y-20450000D02*
X53320000Y-20450000D01*
%TO.C,D3*%
X96820000Y-13850000D02*
X100180000Y-13850000D01*
X96820000Y-15750000D02*
X96820000Y-13850000D01*
X100180000Y-13850000D02*
X100180000Y-15750000D01*
X100180000Y-15750000D02*
X96820000Y-15750000D01*
%TO.C,D17*%
X92400000Y-27450000D02*
X92400000Y-29350000D01*
X92400000Y-27450000D02*
X95600000Y-27450000D01*
X92400000Y-29350000D02*
X95600000Y-29350000D01*
X95600000Y-27450000D02*
X95600000Y-29350000D01*
%TO.C,D13*%
X92400000Y-30250000D02*
X92400000Y-32150000D01*
X92400000Y-30250000D02*
X95600000Y-30250000D01*
X92400000Y-32150000D02*
X95600000Y-32150000D01*
X95600000Y-30250000D02*
X95600000Y-32150000D01*
%TO.C,H4*%
X109450000Y-42000000D02*
G75*
G02*
X102550000Y-42000000I-3450000J0D01*
G01*
X102550000Y-42000000D02*
G75*
G02*
X109450000Y-42000000I3450000J0D01*
G01*
%TO.C,P1*%
X33920000Y-230000D02*
X54080000Y-230000D01*
X33920000Y-10010000D02*
X33920000Y-230000D01*
X54080000Y-230000D02*
X54080000Y-10010000D01*
X54080000Y-10010000D02*
X33920000Y-10010000D01*
%TO.C,U4*%
X66450000Y-19500000D02*
X67450000Y-19500000D01*
X66450000Y-22500000D02*
X66450000Y-19500000D01*
X67450000Y-19300000D02*
X69550000Y-19300000D01*
X67450000Y-19500000D02*
X67450000Y-19300000D01*
X67450000Y-22500000D02*
X66450000Y-22500000D01*
X67450000Y-22700000D02*
X67450000Y-22500000D01*
X69550000Y-19300000D02*
X69550000Y-19500000D01*
X69550000Y-19500000D02*
X70550000Y-19500000D01*
X69550000Y-22500000D02*
X69550000Y-22700000D01*
X69550000Y-22700000D02*
X67450000Y-22700000D01*
X70550000Y-19500000D02*
X70550000Y-22500000D01*
X70550000Y-22500000D02*
X69550000Y-22500000D01*
%TO.C,Q9*%
X88070000Y-37000000D02*
X89100000Y-37000000D01*
X88070000Y-40000000D02*
X88070000Y-37000000D01*
X89100000Y-36800000D02*
X90900000Y-36800000D01*
X89100000Y-37000000D02*
X89100000Y-36800000D01*
X89100000Y-40000000D02*
X88070000Y-40000000D01*
X89100000Y-40200000D02*
X89100000Y-40000000D01*
X90900000Y-36800000D02*
X90900000Y-37950000D01*
X90900000Y-37950000D02*
X91930000Y-37950000D01*
X90900000Y-39050000D02*
X90900000Y-40200000D01*
X90900000Y-40200000D02*
X89100000Y-40200000D01*
X91930000Y-37950000D02*
X91930000Y-39050000D01*
X91930000Y-39050000D02*
X90900000Y-39050000D01*
%TO.C,C13*%
X53300000Y-35320000D02*
X56700000Y-35320000D01*
X53300000Y-37280000D02*
X53300000Y-35320000D01*
X56700000Y-35320000D02*
X56700000Y-37280000D01*
X56700000Y-37280000D02*
X53300000Y-37280000D01*
%TO.C,TP7*%
X42250000Y-42800000D02*
G75*
G02*
X39750000Y-42800000I-1250000J0D01*
G01*
X39750000Y-42800000D02*
G75*
G02*
X42250000Y-42800000I1250000J0D01*
G01*
%TO.C,R33*%
X66820000Y-7650000D02*
X70180000Y-7650000D01*
X66820000Y-9550000D02*
X66820000Y-7650000D01*
X70180000Y-7650000D02*
X70180000Y-9550000D01*
X70180000Y-9550000D02*
X66820000Y-9550000D01*
%TO.C,R16*%
X33320000Y-26950000D02*
X36680000Y-26950000D01*
X33320000Y-28850000D02*
X33320000Y-26950000D01*
X36680000Y-26950000D02*
X36680000Y-28850000D01*
X36680000Y-28850000D02*
X33320000Y-28850000D01*
%TO.C,D18*%
X92400000Y-21850000D02*
X92400000Y-23750000D01*
X92400000Y-21850000D02*
X95600000Y-21850000D01*
X92400000Y-23750000D02*
X95600000Y-23750000D01*
X95600000Y-21850000D02*
X95600000Y-23750000D01*
%TO.C,TP4*%
X24250000Y-42800000D02*
G75*
G02*
X21750000Y-42800000I-1250000J0D01*
G01*
X21750000Y-42800000D02*
G75*
G02*
X24250000Y-42800000I1250000J0D01*
G01*
%TO.C,C7*%
X58800000Y-24120000D02*
X62200000Y-24120000D01*
X58800000Y-26080000D02*
X58800000Y-24120000D01*
X62200000Y-24120000D02*
X62200000Y-26080000D01*
X62200000Y-26080000D02*
X58800000Y-26080000D01*
%TO.C,C5*%
X14020000Y-18800000D02*
X15980000Y-18800000D01*
X14020000Y-22200000D02*
X14020000Y-18800000D01*
X15980000Y-18800000D02*
X15980000Y-22200000D01*
X15980000Y-22200000D02*
X14020000Y-22200000D01*
%TO.C,C17*%
X66800000Y-26820000D02*
X70200000Y-26820000D01*
X66800000Y-28780000D02*
X66800000Y-26820000D01*
X70200000Y-26820000D02*
X70200000Y-28780000D01*
X70200000Y-28780000D02*
X66800000Y-28780000D01*
%TO.C,R15*%
X33320000Y-32550000D02*
X36680000Y-32550000D01*
X33320000Y-34450000D02*
X33320000Y-32550000D01*
X36680000Y-32550000D02*
X36680000Y-34450000D01*
X36680000Y-34450000D02*
X33320000Y-34450000D01*
%TO.C,D6*%
X45350000Y-11950000D02*
X52650000Y-11950000D01*
X45350000Y-16450000D02*
X45350000Y-11950000D01*
X52650000Y-11950000D02*
X52650000Y-16450000D01*
X52650000Y-16450000D02*
X45350000Y-16450000D01*
%TO.C,C12*%
X53300000Y-24120000D02*
X56700000Y-24120000D01*
X53300000Y-26080000D02*
X53300000Y-24120000D01*
X56700000Y-24120000D02*
X56700000Y-26080000D01*
X56700000Y-26080000D02*
X53300000Y-26080000D01*
%TO.C,C15*%
X66800000Y-16820000D02*
X70200000Y-16820000D01*
X66800000Y-18780000D02*
X66800000Y-16820000D01*
X70200000Y-16820000D02*
X70200000Y-18780000D01*
X70200000Y-18780000D02*
X66800000Y-18780000D01*
%TO.C,R35*%
X58820000Y-41550000D02*
X62180000Y-41550000D01*
X58820000Y-43450000D02*
X58820000Y-41550000D01*
X62180000Y-41550000D02*
X62180000Y-43450000D01*
X62180000Y-43450000D02*
X58820000Y-43450000D01*
%TO.C,R28*%
X66820000Y-24050000D02*
X70180000Y-24050000D01*
X66820000Y-25950000D02*
X66820000Y-24050000D01*
X70180000Y-24050000D02*
X70180000Y-25950000D01*
X70180000Y-25950000D02*
X66820000Y-25950000D01*
%TO.C,C2*%
X81900000Y-7520000D02*
X85300000Y-7520000D01*
X81900000Y-9480000D02*
X81900000Y-7520000D01*
X85300000Y-7520000D02*
X85300000Y-9480000D01*
X85300000Y-9480000D02*
X81900000Y-9480000D01*
%TO.C,D7*%
X66900000Y-6750000D02*
X66900000Y-4850000D01*
X70100000Y-4850000D02*
X66900000Y-4850000D01*
X70100000Y-6750000D02*
X66900000Y-6750000D01*
X70100000Y-6750000D02*
X70100000Y-4850000D01*
%TO.C,D10*%
X89820000Y-41550000D02*
X93180000Y-41550000D01*
X89820000Y-43450000D02*
X89820000Y-41550000D01*
X93180000Y-41550000D02*
X93180000Y-43450000D01*
X93180000Y-43450000D02*
X89820000Y-43450000D01*
%TO.C,Q11*%
X84570000Y-24500000D02*
X85600000Y-24500000D01*
X84570000Y-27500000D02*
X84570000Y-24500000D01*
X85600000Y-24300000D02*
X87400000Y-24300000D01*
X85600000Y-24500000D02*
X85600000Y-24300000D01*
X85600000Y-27500000D02*
X84570000Y-27500000D01*
X85600000Y-27700000D02*
X85600000Y-27500000D01*
X87400000Y-24300000D02*
X87400000Y-25450000D01*
X87400000Y-25450000D02*
X88430000Y-25450000D01*
X87400000Y-26550000D02*
X87400000Y-27700000D01*
X87400000Y-27700000D02*
X85600000Y-27700000D01*
X88430000Y-25450000D02*
X88430000Y-26550000D01*
X88430000Y-26550000D02*
X87400000Y-26550000D01*
%TO.C,R26*%
X27820000Y-26950000D02*
X31180000Y-26950000D01*
X27820000Y-28850000D02*
X27820000Y-26950000D01*
X31180000Y-26950000D02*
X31180000Y-28850000D01*
X31180000Y-28850000D02*
X27820000Y-28850000D01*
%TO.C,TP6*%
X36250000Y-42800000D02*
G75*
G02*
X33750000Y-42800000I-1250000J0D01*
G01*
X33750000Y-42800000D02*
G75*
G02*
X36250000Y-42800000I1250000J0D01*
G01*
%TO.C,D12*%
X92400000Y-35850000D02*
X92400000Y-37750000D01*
X92400000Y-35850000D02*
X95600000Y-35850000D01*
X92400000Y-37750000D02*
X95600000Y-37750000D01*
X95600000Y-35850000D02*
X95600000Y-37750000D01*
%TO.C,D16*%
X92400000Y-33050000D02*
X92400000Y-34950000D01*
X92400000Y-33050000D02*
X95600000Y-33050000D01*
X92400000Y-34950000D02*
X95600000Y-34950000D01*
X95600000Y-33050000D02*
X95600000Y-34950000D01*
%TO.C,Q4*%
X55800000Y-14300000D02*
X56950000Y-14300000D01*
X55800000Y-16100000D02*
X55800000Y-14300000D01*
X56000000Y-16100000D02*
X55800000Y-16100000D01*
X56000000Y-17130000D02*
X56000000Y-16100000D01*
X56950000Y-13270000D02*
X58050000Y-13270000D01*
X56950000Y-14300000D02*
X56950000Y-13270000D01*
X58050000Y-13270000D02*
X58050000Y-14300000D01*
X58050000Y-14300000D02*
X59200000Y-14300000D01*
X59000000Y-16100000D02*
X59000000Y-17130000D01*
X59000000Y-17130000D02*
X56000000Y-17130000D01*
X59200000Y-14300000D02*
X59200000Y-16100000D01*
X59200000Y-16100000D02*
X59000000Y-16100000D01*
%TO.C,R34*%
X66820000Y-2050000D02*
X70180000Y-2050000D01*
X66820000Y-3950000D02*
X66820000Y-2050000D01*
X70180000Y-2050000D02*
X70180000Y-3950000D01*
X70180000Y-3950000D02*
X66820000Y-3950000D01*
%TO.C,R38*%
X45820000Y-41850000D02*
X49180000Y-41850000D01*
X45820000Y-43750000D02*
X45820000Y-41850000D01*
X49180000Y-41850000D02*
X49180000Y-43750000D01*
X49180000Y-43750000D02*
X45820000Y-43750000D01*
%TO.C,TP1*%
X98750000Y-38800000D02*
G75*
G02*
X96250000Y-38800000I-1250000J0D01*
G01*
X96250000Y-38800000D02*
G75*
G02*
X98750000Y-38800000I1250000J0D01*
G01*
%TO.C,R5*%
X88820000Y-16850000D02*
X92180000Y-16850000D01*
X88820000Y-18750000D02*
X88820000Y-16850000D01*
X92180000Y-16850000D02*
X92180000Y-18750000D01*
X92180000Y-18750000D02*
X88820000Y-18750000D01*
%TD*%
M02*
