M48
; DRILL file {KiCad 9.0.5} date 2026-09-14T21:20:42-0500
; FORMAT={-:-/ absolute / metric / decimal}
; #@! TF.CreationDate,2026-09-14T21:20:42-05:00
; #@! TF.GenerationSoftware,Kicad,Pcbnew,9.0.5
; #@! TF.FileFunction,Plated,1,2,PTH
FMAT,2
METRIC
; #@! TA.AperFunction,Plated,PTH,ViaDrill
T1C0.300
; #@! TA.AperFunction,Plated,PTH,ComponentDrill
T2C0.300
; #@! TA.AperFunction,Plated,PTH,ComponentDrill
T3C1.020
%
G90
G05
T1
X2.0Y-10.0
X2.0Y-14.0
X2.0Y-18.0
X2.0Y-26.0
X2.0Y-30.0
X2.0Y-34.0
X6.0Y-10.0
X6.0Y-14.0
X6.0Y-26.0
X6.0Y-30.0
X6.0Y-34.0
X10.0Y-2.0
X10.0Y-10.0
X10.0Y-14.0
X10.0Y-26.0
X10.0Y-30.0
X10.0Y-34.0
X10.0Y-38.0
X10.8Y-41.6
X11.7Y-5.4
X14.0Y-2.0
X14.0Y-6.0
X14.0Y-10.0
X14.0Y-14.0
X14.0Y-26.0
X14.0Y-30.0
X14.0Y-34.0
X14.0Y-38.0
X14.0Y-42.0
X18.0Y-2.0
X18.0Y-10.0
X18.0Y-14.0
X18.0Y-18.0
X18.2Y-29.5
X19.4Y-42.6
X19.5Y-21.6
X20.9Y-41.2
X21.6Y-21.3
X22.0Y-2.0
X22.0Y-14.0
X22.0Y-30.0
X22.0Y-34.0
X22.4Y-19.6
X25.0Y-37.7
X25.8Y-38.4
X26.0Y-2.0
X26.6Y-21.3
X26.6Y-32.1
X26.7Y-11.4
X26.9Y-39.5
X27.8Y-5.7
X27.8Y-8.3
X28.5Y-38.4
X28.7Y-26.5
X29.2Y-29.4
X30.1Y-23.9
X30.2Y-21.1
X30.3Y-28.2
X30.7Y-32.3
X31.0Y-37.1
X31.0Y-38.7
X31.1Y-4.2
X32.1Y-23.1
X32.1Y-27.4
X34.7Y-27.3
X35.6Y-23.9
X35.6Y-35.1
X35.7Y-21.1
X35.7Y-32.3
X36.1Y-26.5
X36.6Y-29.4
X36.7Y-23.9
X37.7Y-30.5
X37.8Y-23.9
X40.5Y-13.2
X40.6Y-22.8
X40.8Y-25.7
X40.9Y-27.3
X43.1Y-28.5
X44.0Y-28.9
X44.0Y-34.7
X44.5Y-27.2
X44.6Y-41.4
X45.7Y-41.4
X45.7Y-42.5
X46.0Y-28.1
X46.7Y-42.8
X46.8Y-40.3
X49.8Y-26.8
X50.0Y-17.7
X50.9Y-27.9
X51.4Y-18.1
X51.4Y-40.2
X51.6Y-10.2
X51.7Y-4.2
X52.2Y-29.8
X52.2Y-33.2
X52.2Y-37.9
X52.2Y-39.5
X52.7Y-16.8
X52.8Y-13.2
X53.0Y-40.2
X54.6Y-42.8
X54.7Y-28.2
X55.6Y-23.9
X55.6Y-35.1
X55.7Y-21.1
X55.7Y-32.3
X57.1Y-27.2
X57.3Y-29.2
X57.9Y-18.8
X57.9Y-26.4
X58.5Y-14.9
X58.7Y-7.0
X59.4Y-41.5
X59.6Y-28.4
X60.0Y-31.9
X60.2Y-33.2
X60.3Y-8.5
X60.7Y-29.5
X61.1Y-23.9
X61.2Y-21.1
X61.8Y-33.2
X61.9Y-39.2
X62.5Y-34.0
X62.8Y-18.3
X63.1Y-2.7
X63.8Y-41.3
X63.9Y-17.2
X65.0Y-4.6
X65.4Y-41.3
X65.5Y-19.9
X66.2Y-21.8
X67.7Y-5.4
X68.3Y-18.5
X68.4Y-33.7
X68.4Y-38.2
X68.7Y-14.9
X69.0Y-20.1
X69.1Y-4.0
X69.1Y-16.6
X69.1Y-26.6
X70.6Y-25.0
X71.4Y-35.0
X71.4Y-37.6
X72.5Y-21.2
X72.5Y-24.8
X72.6Y-25.9
X72.7Y-41.3
X73.8Y-42.4
X74.0Y-2.0
X76.4Y-37.5
X76.6Y-20.0
X76.6Y-31.1
X76.7Y-35.0
X76.7Y-36.6
X76.9Y-39.2
X77.3Y-6.7
X78.0Y-2.0
X78.5Y-44.1
X78.7Y-22.2
X79.5Y-37.5
X80.2Y-26.2
X81.3Y-25.1
X82.0Y-2.0
X82.1Y-45.2
X82.3Y-7.3
X82.4Y-18.5
X83.1Y-9.8
X83.1Y-12.4
X84.4Y-21.7
X84.4Y-26.7
X84.4Y-31.7
X84.4Y-38.0
X85.2Y-35.0
X85.2Y-36.6
X86.0Y-2.0
X87.9Y-39.2
X88.1Y-38.0
X88.4Y-35.0
X88.4Y-36.6
X90.0Y-2.0
X90.2Y-27.2
X90.2Y-36.6
X91.2Y-7.4
X91.2Y-27.4
X91.2Y-29.0
X91.9Y-7.9
X95.2Y-14.4
X95.8Y-19.8
X95.8Y-22.6
X95.8Y-25.4
X95.8Y-28.2
X95.8Y-31.0
X95.8Y-33.8
X95.8Y-36.6
X97.4Y-13.6
X98.0Y-42.0
X99.1Y-8.9
X100.8Y-20.1
X102.0Y-18.0
X102.0Y-34.0
X102.0Y-38.0
X102.1Y-9.0
X106.0Y-10.0
T2
X89.0Y-8.25
X89.0Y-9.75
X89.5Y-9.0
X90.0Y-8.25
X90.0Y-9.75
T3
X5.5Y-19.0
X5.5Y-22.0
X38.0Y-3.2
X38.0Y-6.2
X41.0Y-3.2
X41.0Y-6.2
X44.0Y-3.2
X44.0Y-6.2
X47.0Y-3.2
X47.0Y-6.2
X50.0Y-3.2
X50.0Y-6.2
X101.0Y-22.0
X101.0Y-25.0
X101.0Y-28.0
X101.0Y-31.0
X104.0Y-22.0
X104.0Y-25.0
X104.0Y-28.0
X104.0Y-31.0
M30
