%TF.GenerationSoftware,KiCad,Pcbnew,9.0.5*%
%TF.CreationDate,2026-09-14T21:20:41-05:00*%
%TF.ProjectId,rover-panel-supervisor,726f7665-722d-4706-916e-656c2d737570,rev?*%
%TF.SameCoordinates,Original*%
%TF.FileFunction,Soldermask,Top*%
%TF.FilePolarity,Negative*%
%FSLAX46Y46*%
G04 Gerber Fmt 4.6, Leading zero omitted, Abs format (unit mm)*
G04 Created by KiCad (PCBNEW 9.0.5) date 2026-09-14 21:20:41*
%MOMM*%
%LPD*%
G01*
G04 APERTURE LIST*
G04 Aperture macros list*
%AMRoundRect*
0 Rectangle with rounded corners*
0 $1 Rounding radius*
0 $2 $3 $4 $5 $6 $7 $8 $9 X,Y pos of 4 corners*
0 Add a 4 corners polygon primitive as box body*
4,1,4,$2,$3,$4,$5,$6,$7,$8,$9,$2,$3,0*
0 Add four circle primitives for the rounded corners*
1,1,$1+$1,$2,$3*
1,1,$1+$1,$4,$5*
1,1,$1+$1,$6,$7*
1,1,$1+$1,$8,$9*
0 Add four rect primitives between the rounded corners*
20,1,$1+$1,$2,$3,$4,$5,0*
20,1,$1+$1,$4,$5,$6,$7,0*
20,1,$1+$1,$6,$7,$8,$9,0*
20,1,$1+$1,$8,$9,$2,$3,0*%
%AMFreePoly0*
4,1,11,1.467500,1.700000,0.527500,0.844500,0.527500,-0.844500,1.467500,-1.700000,1.467500,-2.755000,0.527500,-2.755000,-0.527500,-1.700000,-0.527500,1.700000,0.527500,2.755000,1.467500,2.755000,1.467500,1.700000,1.467500,1.700000,$1*%
%AMFreePoly1*
4,1,11,0.527500,1.700000,0.527500,-1.700000,-0.527500,-2.755000,-1.467500,-2.755000,-1.467500,-1.700000,-0.527500,-0.844500,-0.527500,0.844500,-1.467500,1.700000,-1.467500,2.755000,-0.527500,2.755000,0.527500,1.700000,0.527500,1.700000,$1*%
G04 Aperture macros list end*
%ADD10C,3.200000*%
%ADD11RoundRect,0.250000X-0.262500X-0.450000X0.262500X-0.450000X0.262500X0.450000X-0.262500X0.450000X0*%
%ADD12RoundRect,0.250000X-0.325000X-0.650000X0.325000X-0.650000X0.325000X0.650000X-0.325000X0.650000X0*%
%ADD13RoundRect,0.250000X-0.250000X-0.475000X0.250000X-0.475000X0.250000X0.475000X-0.250000X0.475000X0*%
%ADD14RoundRect,0.250000X0.650000X-0.325000X0.650000X0.325000X-0.650000X0.325000X-0.650000X-0.325000X0*%
%ADD15RoundRect,0.250000X1.000000X0.900000X-1.000000X0.900000X-1.000000X-0.900000X1.000000X-0.900000X0*%
%ADD16RoundRect,0.112500X-0.187500X-0.112500X0.187500X-0.112500X0.187500X0.112500X-0.187500X0.112500X0*%
%ADD17RoundRect,0.243750X-0.243750X-0.456250X0.243750X-0.456250X0.243750X0.456250X-0.243750X0.456250X0*%
%ADD18RoundRect,0.150000X-0.587500X-0.150000X0.587500X-0.150000X0.587500X0.150000X-0.587500X0.150000X0*%
%ADD19C,1.500000*%
%ADD20RoundRect,0.150000X0.150000X-0.587500X0.150000X0.587500X-0.150000X0.587500X-0.150000X-0.587500X0*%
%ADD21FreePoly0,0.000000*%
%ADD22FreePoly1,0.000000*%
%ADD23RoundRect,0.075000X0.075000X-0.650000X0.075000X0.650000X-0.075000X0.650000X-0.075000X-0.650000X0*%
%ADD24RoundRect,0.250000X1.000000X0.650000X-1.000000X0.650000X-1.000000X-0.650000X1.000000X-0.650000X0*%
%ADD25R,1.600000X0.300000*%
%ADD26RoundRect,0.250000X0.262500X0.450000X-0.262500X0.450000X-0.262500X-0.450000X0.262500X-0.450000X0*%
%ADD27RoundRect,0.150000X-0.825000X-0.150000X0.825000X-0.150000X0.825000X0.150000X-0.825000X0.150000X0*%
%ADD28C,1.020000*%
%ADD29RoundRect,0.250001X0.499999X-0.499999X0.499999X0.499999X-0.499999X0.499999X-0.499999X-0.499999X0*%
%ADD30R,0.280000X0.280000*%
%ADD31O,0.850000X0.280000*%
%ADD32C,0.600000*%
%ADD33R,0.680000X1.050000*%
%ADD34R,0.260000X0.500000*%
%ADD35R,0.280000X0.700000*%
%ADD36R,1.650000X2.400000*%
%ADD37RoundRect,0.225000X-0.225000X-0.375000X0.225000X-0.375000X0.225000X0.375000X-0.225000X0.375000X0*%
%ADD38RoundRect,0.250001X-0.499999X-0.499999X0.499999X-0.499999X0.499999X0.499999X-0.499999X0.499999X0*%
%ADD39RoundRect,0.375000X0.625000X0.375000X-0.625000X0.375000X-0.625000X-0.375000X0.625000X-0.375000X0*%
%ADD40RoundRect,0.500000X0.500000X1.400000X-0.500000X1.400000X-0.500000X-1.400000X0.500000X-1.400000X0*%
%ADD41RoundRect,0.375000X-0.625000X-0.375000X0.625000X-0.375000X0.625000X0.375000X-0.625000X0.375000X0*%
%ADD42RoundRect,0.500000X-0.500000X-1.400000X0.500000X-1.400000X0.500000X1.400000X-0.500000X1.400000X0*%
%ADD43RoundRect,0.250000X0.475000X-0.250000X0.475000X0.250000X-0.475000X0.250000X-0.475000X-0.250000X0*%
%ADD44RoundRect,0.250000X0.325000X1.100000X-0.325000X1.100000X-0.325000X-1.100000X0.325000X-1.100000X0*%
%ADD45RoundRect,0.150000X-0.512500X-0.150000X0.512500X-0.150000X0.512500X0.150000X-0.512500X0.150000X0*%
%ADD46RoundRect,0.250000X-1.000000X-0.900000X1.000000X-0.900000X1.000000X0.900000X-1.000000X0.900000X0*%
%ADD47RoundRect,0.250000X0.250000X0.475000X-0.250000X0.475000X-0.250000X-0.475000X0.250000X-0.475000X0*%
%ADD48RoundRect,0.112500X0.187500X0.112500X-0.187500X0.112500X-0.187500X-0.112500X0.187500X-0.112500X0*%
G04 APERTURE END LIST*
D10*
%TO.C,H3*%
X4000000Y-42000000D03*
%TD*%
D11*
%TO.C,R11*%
X28587500Y-22300000D03*
X30412500Y-22300000D03*
%TD*%
D12*
%TO.C,C11*%
X28025000Y-33700000D03*
X30975000Y-33700000D03*
%TD*%
D13*
%TO.C,C8*%
X28550000Y-25100000D03*
X30450000Y-25100000D03*
%TD*%
D11*
%TO.C,R13*%
X34087500Y-22300000D03*
X35912500Y-22300000D03*
%TD*%
D14*
%TO.C,C3*%
X103500000Y-12275000D03*
X103500000Y-9325000D03*
%TD*%
D15*
%TO.C,D1*%
X43150000Y-14200000D03*
X38850000Y-14200000D03*
%TD*%
D16*
%TO.C,D15*%
X92950000Y-20000000D03*
X95050000Y-20000000D03*
%TD*%
D13*
%TO.C,C6*%
X20850000Y-20800000D03*
X22750000Y-20800000D03*
%TD*%
%TO.C,C16*%
X75050000Y-21200000D03*
X76950000Y-21200000D03*
%TD*%
D17*
%TO.C,D8*%
X64562500Y-42500000D03*
X66437500Y-42500000D03*
%TD*%
D11*
%TO.C,R14*%
X34087500Y-30700000D03*
X35912500Y-30700000D03*
%TD*%
%TO.C,R12*%
X34087500Y-19500000D03*
X35912500Y-19500000D03*
%TD*%
D18*
%TO.C,Q2*%
X69562500Y-32050000D03*
X69562500Y-33950000D03*
X71437500Y-33000000D03*
%TD*%
D11*
%TO.C,R32*%
X61587500Y-15600000D03*
X63412500Y-15600000D03*
%TD*%
%TO.C,R8*%
X59587500Y-19500000D03*
X61412500Y-19500000D03*
%TD*%
D10*
%TO.C,H2*%
X106000000Y-4000000D03*
%TD*%
D11*
%TO.C,R1*%
X93587500Y-13000000D03*
X95412500Y-13000000D03*
%TD*%
%TO.C,R10*%
X28587500Y-19500000D03*
X30412500Y-19500000D03*
%TD*%
D19*
%TO.C,TP3*%
X17000000Y-42800000D03*
%TD*%
D20*
%TO.C,Q5*%
X67050000Y-13737500D03*
X68950000Y-13737500D03*
X68000000Y-11862500D03*
%TD*%
D21*
%TO.C,L1*%
X94772500Y-4200000D03*
D22*
X99227500Y-4200000D03*
%TD*%
D17*
%TO.C,D11*%
X51062500Y-42800000D03*
X52937500Y-42800000D03*
%TD*%
D11*
%TO.C,R19*%
X54087500Y-22300000D03*
X55912500Y-22300000D03*
%TD*%
D23*
%TO.C,U2*%
X18000000Y-28200000D03*
X18500000Y-28200000D03*
X19000000Y-28200000D03*
X19500000Y-28200000D03*
X20000000Y-28200000D03*
X20000000Y-23800000D03*
X19500000Y-23800000D03*
X19000000Y-23800000D03*
X18500000Y-23800000D03*
X18000000Y-23800000D03*
%TD*%
D24*
%TO.C,D2*%
X78500000Y-13200000D03*
X74500000Y-13200000D03*
%TD*%
D11*
%TO.C,R24*%
X59587500Y-27900000D03*
X61412500Y-27900000D03*
%TD*%
D25*
%TO.C,U5*%
X74300000Y-24025000D03*
X74300000Y-24675000D03*
X74300000Y-25325000D03*
X74300000Y-25975000D03*
X77700000Y-25975000D03*
X77700000Y-25325000D03*
X77700000Y-24675000D03*
X77700000Y-24025000D03*
%TD*%
D19*
%TO.C,TP2*%
X11000000Y-42800000D03*
%TD*%
D18*
%TO.C,Q3*%
X69562500Y-36550000D03*
X69562500Y-38450000D03*
X71437500Y-37500000D03*
%TD*%
D13*
%TO.C,C9*%
X34050000Y-25100000D03*
X35950000Y-25100000D03*
%TD*%
D11*
%TO.C,R9*%
X59587500Y-22300000D03*
X61412500Y-22300000D03*
%TD*%
%TO.C,R6*%
X11287500Y-18500000D03*
X13112500Y-18500000D03*
%TD*%
D10*
%TO.C,H1*%
X4000000Y-4000000D03*
%TD*%
D11*
%TO.C,R2*%
X93587500Y-15600000D03*
X95412500Y-15600000D03*
%TD*%
%TO.C,R31*%
X25087500Y-12600000D03*
X26912500Y-12600000D03*
%TD*%
%TO.C,R36*%
X74587500Y-42500000D03*
X76412500Y-42500000D03*
%TD*%
D15*
%TO.C,D5*%
X17650000Y-6300000D03*
X13350000Y-6300000D03*
%TD*%
D26*
%TO.C,R4*%
X85112500Y-11000000D03*
X83287500Y-11000000D03*
%TD*%
D11*
%TO.C,R20*%
X54087500Y-27900000D03*
X55912500Y-27900000D03*
%TD*%
D27*
%TO.C,U3*%
X42525000Y-25690000D03*
X42525000Y-26960000D03*
X42525000Y-28230000D03*
X42525000Y-29500000D03*
X42525000Y-30770000D03*
X42525000Y-32040000D03*
X42525000Y-33310000D03*
X47475000Y-33310000D03*
X47475000Y-32040000D03*
X47475000Y-30770000D03*
X47475000Y-29500000D03*
X47475000Y-28230000D03*
X47475000Y-26960000D03*
X47475000Y-25690000D03*
%TD*%
D18*
%TO.C,Q12*%
X85562500Y-30050000D03*
X85562500Y-31950000D03*
X87437500Y-31000000D03*
%TD*%
D17*
%TO.C,D9*%
X79562500Y-42500000D03*
X81437500Y-42500000D03*
%TD*%
D18*
%TO.C,Q10*%
X85562500Y-20050000D03*
X85562500Y-21950000D03*
X87437500Y-21000000D03*
%TD*%
D28*
%TO.C,P3*%
X104940000Y-34000000D03*
X104940000Y-19000000D03*
D29*
X101000000Y-31000000D03*
D19*
X101000000Y-28000000D03*
X101000000Y-25000000D03*
X101000000Y-22000000D03*
X104000000Y-31000000D03*
X104000000Y-28000000D03*
X104000000Y-25000000D03*
X104000000Y-22000000D03*
%TD*%
D18*
%TO.C,Q8*%
X78062500Y-37550000D03*
X78062500Y-39450000D03*
X79937500Y-38500000D03*
%TD*%
D11*
%TO.C,R37*%
X85587500Y-42500000D03*
X87412500Y-42500000D03*
%TD*%
%TO.C,R30*%
X29587500Y-12600000D03*
X31412500Y-12600000D03*
%TD*%
D18*
%TO.C,Q7*%
X63062500Y-37550000D03*
X63062500Y-39450000D03*
X64937500Y-38500000D03*
%TD*%
D30*
%TO.C,U1*%
X87740000Y-8000000D03*
D31*
X88025000Y-8000000D03*
D30*
X87740000Y-8500000D03*
D31*
X88025000Y-8500000D03*
D30*
X87740000Y-9000000D03*
D31*
X88025000Y-9000000D03*
D30*
X87740000Y-9500000D03*
D31*
X88025000Y-9500000D03*
D30*
X87740000Y-10000000D03*
D31*
X88025000Y-10000000D03*
X90975000Y-10000000D03*
D30*
X91260000Y-10000000D03*
D31*
X90975000Y-9500000D03*
D30*
X91260000Y-9500000D03*
D31*
X90975000Y-9000000D03*
D30*
X91260000Y-9000000D03*
D31*
X90975000Y-8500000D03*
D30*
X91260000Y-8500000D03*
D31*
X90975000Y-8000000D03*
D30*
X91260000Y-8000000D03*
D32*
X89000000Y-8250000D03*
X89000000Y-9750000D03*
D33*
X89050000Y-8365000D03*
X89050000Y-9635000D03*
D34*
X89250000Y-7370000D03*
D35*
X89250000Y-7450000D03*
X89250000Y-10550000D03*
D34*
X89250000Y-10630000D03*
D32*
X89500000Y-9000000D03*
D36*
X89500000Y-9000000D03*
D34*
X89750000Y-7370000D03*
D35*
X89750000Y-7450000D03*
X89750000Y-10550000D03*
D34*
X89750000Y-10630000D03*
D33*
X89950000Y-8365000D03*
X89950000Y-9635000D03*
D32*
X90000000Y-8250000D03*
X90000000Y-9750000D03*
%TD*%
D37*
%TO.C,D4*%
X27850000Y-36700000D03*
X31150000Y-36700000D03*
%TD*%
D13*
%TO.C,C18*%
X75050000Y-32299999D03*
X76950000Y-32299999D03*
%TD*%
D11*
%TO.C,R21*%
X54087500Y-30700000D03*
X55912500Y-30700000D03*
%TD*%
D28*
%TO.C,P2*%
X2500000Y-22940000D03*
X8500000Y-22940000D03*
D38*
X5500000Y-19000000D03*
D19*
X5500000Y-22000000D03*
%TD*%
D11*
%TO.C,R29*%
X75087500Y-29500000D03*
X76912500Y-29500000D03*
%TD*%
%TO.C,R27*%
X28587500Y-39500000D03*
X30412500Y-39500000D03*
%TD*%
D26*
%TO.C,R3*%
X85112500Y-13600000D03*
X83287500Y-13600000D03*
%TD*%
D13*
%TO.C,C10*%
X34050000Y-36300000D03*
X35950000Y-36300000D03*
%TD*%
D39*
%TO.C,Q1*%
X29650000Y-9300000D03*
X29650000Y-7000000D03*
D40*
X23350000Y-7000000D03*
D39*
X29650000Y-4700000D03*
%TD*%
D16*
%TO.C,D14*%
X92950000Y-25600000D03*
X95050000Y-25600000D03*
%TD*%
D11*
%TO.C,R23*%
X54087500Y-39100000D03*
X55912500Y-39100000D03*
%TD*%
%TO.C,R7*%
X11287500Y-22500000D03*
X13112500Y-22500000D03*
%TD*%
%TO.C,R22*%
X54087500Y-33500000D03*
X55912500Y-33500000D03*
%TD*%
D13*
%TO.C,C14*%
X39050000Y-24000000D03*
X40950000Y-24000000D03*
%TD*%
D41*
%TO.C,Q6*%
X57350000Y-4700000D03*
X57350000Y-7000000D03*
D42*
X63650000Y-7000000D03*
D41*
X57350000Y-9300000D03*
%TD*%
D43*
%TO.C,C4*%
X100300000Y-11150000D03*
X100300000Y-9250000D03*
%TD*%
D11*
%TO.C,R17*%
X28587500Y-30700000D03*
X30412500Y-30700000D03*
%TD*%
D44*
%TO.C,C1*%
X80675000Y-8500000D03*
X77725000Y-8500000D03*
%TD*%
D11*
%TO.C,R25*%
X59587500Y-30700000D03*
X61412500Y-30700000D03*
%TD*%
D19*
%TO.C,TP5*%
X29000000Y-42800000D03*
%TD*%
D11*
%TO.C,R18*%
X54087500Y-19500000D03*
X55912500Y-19500000D03*
%TD*%
D17*
%TO.C,D3*%
X97562500Y-14800000D03*
X99437500Y-14800000D03*
%TD*%
D16*
%TO.C,D17*%
X92950000Y-28400000D03*
X95050000Y-28400000D03*
%TD*%
%TO.C,D13*%
X92950000Y-31200000D03*
X95050000Y-31200000D03*
%TD*%
D10*
%TO.C,H4*%
X106000000Y-42000000D03*
%TD*%
D28*
%TO.C,P1*%
X35000000Y-7140000D03*
X53000000Y-7140000D03*
D38*
X38000000Y-3200000D03*
D19*
X41000000Y-3200000D03*
X44000000Y-3200000D03*
X47000000Y-3200000D03*
X50000000Y-3200000D03*
X38000000Y-6200000D03*
X41000000Y-6200000D03*
X44000000Y-6200000D03*
X47000000Y-6200000D03*
X50000000Y-6200000D03*
%TD*%
D45*
%TO.C,U4*%
X67362500Y-20050000D03*
X67362500Y-21000000D03*
X67362500Y-21950000D03*
X69637500Y-21950000D03*
X69637500Y-20050000D03*
%TD*%
D18*
%TO.C,Q9*%
X89062500Y-37550000D03*
X89062500Y-39450000D03*
X90937500Y-38500000D03*
%TD*%
D13*
%TO.C,C13*%
X54050000Y-36300000D03*
X55950000Y-36300000D03*
%TD*%
D19*
%TO.C,TP7*%
X41000000Y-42800000D03*
%TD*%
D11*
%TO.C,R33*%
X67587500Y-8600000D03*
X69412500Y-8600000D03*
%TD*%
%TO.C,R16*%
X34087500Y-27900000D03*
X35912500Y-27900000D03*
%TD*%
D16*
%TO.C,D18*%
X92950000Y-22800000D03*
X95050000Y-22800000D03*
%TD*%
D19*
%TO.C,TP4*%
X23000000Y-42800000D03*
%TD*%
D13*
%TO.C,C7*%
X59550000Y-25100000D03*
X61450000Y-25100000D03*
%TD*%
D43*
%TO.C,C5*%
X15000000Y-21450000D03*
X15000000Y-19550000D03*
%TD*%
D13*
%TO.C,C17*%
X67550000Y-27800000D03*
X69450000Y-27800000D03*
%TD*%
D11*
%TO.C,R15*%
X34087500Y-33500000D03*
X35912500Y-33500000D03*
%TD*%
D46*
%TO.C,D6*%
X46850000Y-14200000D03*
X51150000Y-14200000D03*
%TD*%
D13*
%TO.C,C12*%
X54050000Y-25100000D03*
X55950000Y-25100000D03*
%TD*%
%TO.C,C15*%
X67550000Y-17800000D03*
X69450000Y-17800000D03*
%TD*%
D11*
%TO.C,R35*%
X59587500Y-42500000D03*
X61412500Y-42500000D03*
%TD*%
%TO.C,R28*%
X67587500Y-25000000D03*
X69412500Y-25000000D03*
%TD*%
D47*
%TO.C,C2*%
X84550000Y-8500000D03*
X82650000Y-8500000D03*
%TD*%
D48*
%TO.C,D7*%
X69550000Y-5800000D03*
X67450000Y-5800000D03*
%TD*%
D17*
%TO.C,D10*%
X90562500Y-42500000D03*
X92437500Y-42500000D03*
%TD*%
D18*
%TO.C,Q11*%
X85562500Y-25050000D03*
X85562500Y-26950000D03*
X87437500Y-26000000D03*
%TD*%
D11*
%TO.C,R26*%
X28587500Y-27900000D03*
X30412500Y-27900000D03*
%TD*%
D19*
%TO.C,TP6*%
X35000000Y-42800000D03*
%TD*%
D16*
%TO.C,D12*%
X92950000Y-36800000D03*
X95050000Y-36800000D03*
%TD*%
%TO.C,D16*%
X92950000Y-34000000D03*
X95050000Y-34000000D03*
%TD*%
D20*
%TO.C,Q4*%
X56550000Y-16137500D03*
X58450000Y-16137500D03*
X57500000Y-14262500D03*
%TD*%
D11*
%TO.C,R34*%
X67587500Y-3000000D03*
X69412500Y-3000000D03*
%TD*%
%TO.C,R38*%
X46587500Y-42800000D03*
X48412500Y-42800000D03*
%TD*%
D19*
%TO.C,TP1*%
X97500000Y-38800000D03*
%TD*%
D11*
%TO.C,R5*%
X89587500Y-17800000D03*
X91412500Y-17800000D03*
%TD*%
M02*
