%TF.GenerationSoftware,KiCad,Pcbnew,9.0.5*%
%TF.CreationDate,2026-09-14T21:20:41-05:00*%
%TF.ProjectId,rover-panel-supervisor,726f7665-722d-4706-916e-656c2d737570,rev?*%
%TF.SameCoordinates,Original*%
%TF.FileFunction,AssemblyDrawing,Top*%
%FSLAX46Y46*%
G04 Gerber Fmt 4.6, Leading zero omitted, Abs format (unit mm)*
G04 Created by KiCad (PCBNEW 9.0.5) date 2026-09-14 21:20:41*
%MOMM*%
%LPD*%
G01*
G04 APERTURE LIST*
%ADD10C,0.150000*%
%ADD11C,0.080000*%
%ADD12C,0.120000*%
%ADD13C,0.110000*%
%ADD14C,0.100000*%
G04 APERTURE END LIST*
D10*
X3238095Y-42454819D02*
X3238095Y-41454819D01*
X3238095Y-41931009D02*
X3809523Y-41931009D01*
X3809523Y-42454819D02*
X3809523Y-41454819D01*
X4190476Y-41454819D02*
X4809523Y-41454819D01*
X4809523Y-41454819D02*
X4476190Y-41835771D01*
X4476190Y-41835771D02*
X4619047Y-41835771D01*
X4619047Y-41835771D02*
X4714285Y-41883390D01*
X4714285Y-41883390D02*
X4761904Y-41931009D01*
X4761904Y-41931009D02*
X4809523Y-42026247D01*
X4809523Y-42026247D02*
X4809523Y-42264342D01*
X4809523Y-42264342D02*
X4761904Y-42359580D01*
X4761904Y-42359580D02*
X4714285Y-42407200D01*
X4714285Y-42407200D02*
X4619047Y-42454819D01*
X4619047Y-42454819D02*
X4333333Y-42454819D01*
X4333333Y-42454819D02*
X4238095Y-42407200D01*
X4238095Y-42407200D02*
X4190476Y-42359580D01*
D11*
X29178571Y-22527149D02*
X29011905Y-22289054D01*
X28892857Y-22527149D02*
X28892857Y-22027149D01*
X28892857Y-22027149D02*
X29083333Y-22027149D01*
X29083333Y-22027149D02*
X29130952Y-22050959D01*
X29130952Y-22050959D02*
X29154762Y-22074768D01*
X29154762Y-22074768D02*
X29178571Y-22122387D01*
X29178571Y-22122387D02*
X29178571Y-22193816D01*
X29178571Y-22193816D02*
X29154762Y-22241435D01*
X29154762Y-22241435D02*
X29130952Y-22265244D01*
X29130952Y-22265244D02*
X29083333Y-22289054D01*
X29083333Y-22289054D02*
X28892857Y-22289054D01*
X29654762Y-22527149D02*
X29369048Y-22527149D01*
X29511905Y-22527149D02*
X29511905Y-22027149D01*
X29511905Y-22027149D02*
X29464286Y-22098578D01*
X29464286Y-22098578D02*
X29416667Y-22146197D01*
X29416667Y-22146197D02*
X29369048Y-22170006D01*
X30130952Y-22527149D02*
X29845238Y-22527149D01*
X29988095Y-22527149D02*
X29988095Y-22027149D01*
X29988095Y-22027149D02*
X29940476Y-22098578D01*
X29940476Y-22098578D02*
X29892857Y-22146197D01*
X29892857Y-22146197D02*
X29845238Y-22170006D01*
D12*
X28985714Y-33987664D02*
X28947618Y-34025760D01*
X28947618Y-34025760D02*
X28833333Y-34063855D01*
X28833333Y-34063855D02*
X28757142Y-34063855D01*
X28757142Y-34063855D02*
X28642856Y-34025760D01*
X28642856Y-34025760D02*
X28566666Y-33949569D01*
X28566666Y-33949569D02*
X28528571Y-33873379D01*
X28528571Y-33873379D02*
X28490475Y-33720998D01*
X28490475Y-33720998D02*
X28490475Y-33606712D01*
X28490475Y-33606712D02*
X28528571Y-33454331D01*
X28528571Y-33454331D02*
X28566666Y-33378140D01*
X28566666Y-33378140D02*
X28642856Y-33301950D01*
X28642856Y-33301950D02*
X28757142Y-33263855D01*
X28757142Y-33263855D02*
X28833333Y-33263855D01*
X28833333Y-33263855D02*
X28947618Y-33301950D01*
X28947618Y-33301950D02*
X28985714Y-33340045D01*
X29747618Y-34063855D02*
X29290475Y-34063855D01*
X29519047Y-34063855D02*
X29519047Y-33263855D01*
X29519047Y-33263855D02*
X29442856Y-33378140D01*
X29442856Y-33378140D02*
X29366666Y-33454331D01*
X29366666Y-33454331D02*
X29290475Y-33492426D01*
X30509523Y-34063855D02*
X30052380Y-34063855D01*
X30280952Y-34063855D02*
X30280952Y-33263855D01*
X30280952Y-33263855D02*
X30204761Y-33378140D01*
X30204761Y-33378140D02*
X30128571Y-33454331D01*
X30128571Y-33454331D02*
X30052380Y-33492426D01*
D11*
X29416666Y-25279530D02*
X29392857Y-25303340D01*
X29392857Y-25303340D02*
X29321428Y-25327149D01*
X29321428Y-25327149D02*
X29273809Y-25327149D01*
X29273809Y-25327149D02*
X29202381Y-25303340D01*
X29202381Y-25303340D02*
X29154762Y-25255720D01*
X29154762Y-25255720D02*
X29130952Y-25208101D01*
X29130952Y-25208101D02*
X29107143Y-25112863D01*
X29107143Y-25112863D02*
X29107143Y-25041435D01*
X29107143Y-25041435D02*
X29130952Y-24946197D01*
X29130952Y-24946197D02*
X29154762Y-24898578D01*
X29154762Y-24898578D02*
X29202381Y-24850959D01*
X29202381Y-24850959D02*
X29273809Y-24827149D01*
X29273809Y-24827149D02*
X29321428Y-24827149D01*
X29321428Y-24827149D02*
X29392857Y-24850959D01*
X29392857Y-24850959D02*
X29416666Y-24874768D01*
X29702381Y-25041435D02*
X29654762Y-25017625D01*
X29654762Y-25017625D02*
X29630952Y-24993816D01*
X29630952Y-24993816D02*
X29607143Y-24946197D01*
X29607143Y-24946197D02*
X29607143Y-24922387D01*
X29607143Y-24922387D02*
X29630952Y-24874768D01*
X29630952Y-24874768D02*
X29654762Y-24850959D01*
X29654762Y-24850959D02*
X29702381Y-24827149D01*
X29702381Y-24827149D02*
X29797619Y-24827149D01*
X29797619Y-24827149D02*
X29845238Y-24850959D01*
X29845238Y-24850959D02*
X29869047Y-24874768D01*
X29869047Y-24874768D02*
X29892857Y-24922387D01*
X29892857Y-24922387D02*
X29892857Y-24946197D01*
X29892857Y-24946197D02*
X29869047Y-24993816D01*
X29869047Y-24993816D02*
X29845238Y-25017625D01*
X29845238Y-25017625D02*
X29797619Y-25041435D01*
X29797619Y-25041435D02*
X29702381Y-25041435D01*
X29702381Y-25041435D02*
X29654762Y-25065244D01*
X29654762Y-25065244D02*
X29630952Y-25089054D01*
X29630952Y-25089054D02*
X29607143Y-25136673D01*
X29607143Y-25136673D02*
X29607143Y-25231911D01*
X29607143Y-25231911D02*
X29630952Y-25279530D01*
X29630952Y-25279530D02*
X29654762Y-25303340D01*
X29654762Y-25303340D02*
X29702381Y-25327149D01*
X29702381Y-25327149D02*
X29797619Y-25327149D01*
X29797619Y-25327149D02*
X29845238Y-25303340D01*
X29845238Y-25303340D02*
X29869047Y-25279530D01*
X29869047Y-25279530D02*
X29892857Y-25231911D01*
X29892857Y-25231911D02*
X29892857Y-25136673D01*
X29892857Y-25136673D02*
X29869047Y-25089054D01*
X29869047Y-25089054D02*
X29845238Y-25065244D01*
X29845238Y-25065244D02*
X29797619Y-25041435D01*
X34678571Y-22527149D02*
X34511905Y-22289054D01*
X34392857Y-22527149D02*
X34392857Y-22027149D01*
X34392857Y-22027149D02*
X34583333Y-22027149D01*
X34583333Y-22027149D02*
X34630952Y-22050959D01*
X34630952Y-22050959D02*
X34654762Y-22074768D01*
X34654762Y-22074768D02*
X34678571Y-22122387D01*
X34678571Y-22122387D02*
X34678571Y-22193816D01*
X34678571Y-22193816D02*
X34654762Y-22241435D01*
X34654762Y-22241435D02*
X34630952Y-22265244D01*
X34630952Y-22265244D02*
X34583333Y-22289054D01*
X34583333Y-22289054D02*
X34392857Y-22289054D01*
X35154762Y-22527149D02*
X34869048Y-22527149D01*
X35011905Y-22527149D02*
X35011905Y-22027149D01*
X35011905Y-22027149D02*
X34964286Y-22098578D01*
X34964286Y-22098578D02*
X34916667Y-22146197D01*
X34916667Y-22146197D02*
X34869048Y-22170006D01*
X35321428Y-22027149D02*
X35630952Y-22027149D01*
X35630952Y-22027149D02*
X35464285Y-22217625D01*
X35464285Y-22217625D02*
X35535714Y-22217625D01*
X35535714Y-22217625D02*
X35583333Y-22241435D01*
X35583333Y-22241435D02*
X35607142Y-22265244D01*
X35607142Y-22265244D02*
X35630952Y-22312863D01*
X35630952Y-22312863D02*
X35630952Y-22431911D01*
X35630952Y-22431911D02*
X35607142Y-22479530D01*
X35607142Y-22479530D02*
X35583333Y-22503340D01*
X35583333Y-22503340D02*
X35535714Y-22527149D01*
X35535714Y-22527149D02*
X35392857Y-22527149D01*
X35392857Y-22527149D02*
X35345238Y-22503340D01*
X35345238Y-22503340D02*
X35321428Y-22479530D01*
D12*
X103787664Y-10933332D02*
X103825760Y-10971428D01*
X103825760Y-10971428D02*
X103863855Y-11085713D01*
X103863855Y-11085713D02*
X103863855Y-11161904D01*
X103863855Y-11161904D02*
X103825760Y-11276190D01*
X103825760Y-11276190D02*
X103749569Y-11352380D01*
X103749569Y-11352380D02*
X103673379Y-11390475D01*
X103673379Y-11390475D02*
X103520998Y-11428571D01*
X103520998Y-11428571D02*
X103406712Y-11428571D01*
X103406712Y-11428571D02*
X103254331Y-11390475D01*
X103254331Y-11390475D02*
X103178140Y-11352380D01*
X103178140Y-11352380D02*
X103101950Y-11276190D01*
X103101950Y-11276190D02*
X103063855Y-11161904D01*
X103063855Y-11161904D02*
X103063855Y-11085713D01*
X103063855Y-11085713D02*
X103101950Y-10971428D01*
X103101950Y-10971428D02*
X103140045Y-10933332D01*
X103063855Y-10666666D02*
X103063855Y-10171428D01*
X103063855Y-10171428D02*
X103368617Y-10438094D01*
X103368617Y-10438094D02*
X103368617Y-10323809D01*
X103368617Y-10323809D02*
X103406712Y-10247618D01*
X103406712Y-10247618D02*
X103444807Y-10209523D01*
X103444807Y-10209523D02*
X103520998Y-10171428D01*
X103520998Y-10171428D02*
X103711474Y-10171428D01*
X103711474Y-10171428D02*
X103787664Y-10209523D01*
X103787664Y-10209523D02*
X103825760Y-10247618D01*
X103825760Y-10247618D02*
X103863855Y-10323809D01*
X103863855Y-10323809D02*
X103863855Y-10552380D01*
X103863855Y-10552380D02*
X103825760Y-10628571D01*
X103825760Y-10628571D02*
X103787664Y-10666666D01*
D10*
X40261905Y-17654819D02*
X40261905Y-16654819D01*
X40261905Y-16654819D02*
X40500000Y-16654819D01*
X40500000Y-16654819D02*
X40642857Y-16702438D01*
X40642857Y-16702438D02*
X40738095Y-16797676D01*
X40738095Y-16797676D02*
X40785714Y-16892914D01*
X40785714Y-16892914D02*
X40833333Y-17083390D01*
X40833333Y-17083390D02*
X40833333Y-17226247D01*
X40833333Y-17226247D02*
X40785714Y-17416723D01*
X40785714Y-17416723D02*
X40738095Y-17511961D01*
X40738095Y-17511961D02*
X40642857Y-17607200D01*
X40642857Y-17607200D02*
X40500000Y-17654819D01*
X40500000Y-17654819D02*
X40261905Y-17654819D01*
X41785714Y-17654819D02*
X41214286Y-17654819D01*
X41500000Y-17654819D02*
X41500000Y-16654819D01*
X41500000Y-16654819D02*
X41404762Y-16797676D01*
X41404762Y-16797676D02*
X41309524Y-16892914D01*
X41309524Y-16892914D02*
X41214286Y-16940533D01*
X92785714Y-18604819D02*
X92785714Y-17604819D01*
X92785714Y-17604819D02*
X93023809Y-17604819D01*
X93023809Y-17604819D02*
X93166666Y-17652438D01*
X93166666Y-17652438D02*
X93261904Y-17747676D01*
X93261904Y-17747676D02*
X93309523Y-17842914D01*
X93309523Y-17842914D02*
X93357142Y-18033390D01*
X93357142Y-18033390D02*
X93357142Y-18176247D01*
X93357142Y-18176247D02*
X93309523Y-18366723D01*
X93309523Y-18366723D02*
X93261904Y-18461961D01*
X93261904Y-18461961D02*
X93166666Y-18557200D01*
X93166666Y-18557200D02*
X93023809Y-18604819D01*
X93023809Y-18604819D02*
X92785714Y-18604819D01*
X94309523Y-18604819D02*
X93738095Y-18604819D01*
X94023809Y-18604819D02*
X94023809Y-17604819D01*
X94023809Y-17604819D02*
X93928571Y-17747676D01*
X93928571Y-17747676D02*
X93833333Y-17842914D01*
X93833333Y-17842914D02*
X93738095Y-17890533D01*
X95214285Y-17604819D02*
X94738095Y-17604819D01*
X94738095Y-17604819D02*
X94690476Y-18081009D01*
X94690476Y-18081009D02*
X94738095Y-18033390D01*
X94738095Y-18033390D02*
X94833333Y-17985771D01*
X94833333Y-17985771D02*
X95071428Y-17985771D01*
X95071428Y-17985771D02*
X95166666Y-18033390D01*
X95166666Y-18033390D02*
X95214285Y-18081009D01*
X95214285Y-18081009D02*
X95261904Y-18176247D01*
X95261904Y-18176247D02*
X95261904Y-18414342D01*
X95261904Y-18414342D02*
X95214285Y-18509580D01*
X95214285Y-18509580D02*
X95166666Y-18557200D01*
X95166666Y-18557200D02*
X95071428Y-18604819D01*
X95071428Y-18604819D02*
X94833333Y-18604819D01*
X94833333Y-18604819D02*
X94738095Y-18557200D01*
X94738095Y-18557200D02*
X94690476Y-18509580D01*
D11*
X21716666Y-20979530D02*
X21692857Y-21003340D01*
X21692857Y-21003340D02*
X21621428Y-21027149D01*
X21621428Y-21027149D02*
X21573809Y-21027149D01*
X21573809Y-21027149D02*
X21502381Y-21003340D01*
X21502381Y-21003340D02*
X21454762Y-20955720D01*
X21454762Y-20955720D02*
X21430952Y-20908101D01*
X21430952Y-20908101D02*
X21407143Y-20812863D01*
X21407143Y-20812863D02*
X21407143Y-20741435D01*
X21407143Y-20741435D02*
X21430952Y-20646197D01*
X21430952Y-20646197D02*
X21454762Y-20598578D01*
X21454762Y-20598578D02*
X21502381Y-20550959D01*
X21502381Y-20550959D02*
X21573809Y-20527149D01*
X21573809Y-20527149D02*
X21621428Y-20527149D01*
X21621428Y-20527149D02*
X21692857Y-20550959D01*
X21692857Y-20550959D02*
X21716666Y-20574768D01*
X22145238Y-20527149D02*
X22050000Y-20527149D01*
X22050000Y-20527149D02*
X22002381Y-20550959D01*
X22002381Y-20550959D02*
X21978571Y-20574768D01*
X21978571Y-20574768D02*
X21930952Y-20646197D01*
X21930952Y-20646197D02*
X21907143Y-20741435D01*
X21907143Y-20741435D02*
X21907143Y-20931911D01*
X21907143Y-20931911D02*
X21930952Y-20979530D01*
X21930952Y-20979530D02*
X21954762Y-21003340D01*
X21954762Y-21003340D02*
X22002381Y-21027149D01*
X22002381Y-21027149D02*
X22097619Y-21027149D01*
X22097619Y-21027149D02*
X22145238Y-21003340D01*
X22145238Y-21003340D02*
X22169047Y-20979530D01*
X22169047Y-20979530D02*
X22192857Y-20931911D01*
X22192857Y-20931911D02*
X22192857Y-20812863D01*
X22192857Y-20812863D02*
X22169047Y-20765244D01*
X22169047Y-20765244D02*
X22145238Y-20741435D01*
X22145238Y-20741435D02*
X22097619Y-20717625D01*
X22097619Y-20717625D02*
X22002381Y-20717625D01*
X22002381Y-20717625D02*
X21954762Y-20741435D01*
X21954762Y-20741435D02*
X21930952Y-20765244D01*
X21930952Y-20765244D02*
X21907143Y-20812863D01*
X75678571Y-21379530D02*
X75654762Y-21403340D01*
X75654762Y-21403340D02*
X75583333Y-21427149D01*
X75583333Y-21427149D02*
X75535714Y-21427149D01*
X75535714Y-21427149D02*
X75464286Y-21403340D01*
X75464286Y-21403340D02*
X75416667Y-21355720D01*
X75416667Y-21355720D02*
X75392857Y-21308101D01*
X75392857Y-21308101D02*
X75369048Y-21212863D01*
X75369048Y-21212863D02*
X75369048Y-21141435D01*
X75369048Y-21141435D02*
X75392857Y-21046197D01*
X75392857Y-21046197D02*
X75416667Y-20998578D01*
X75416667Y-20998578D02*
X75464286Y-20950959D01*
X75464286Y-20950959D02*
X75535714Y-20927149D01*
X75535714Y-20927149D02*
X75583333Y-20927149D01*
X75583333Y-20927149D02*
X75654762Y-20950959D01*
X75654762Y-20950959D02*
X75678571Y-20974768D01*
X76154762Y-21427149D02*
X75869048Y-21427149D01*
X76011905Y-21427149D02*
X76011905Y-20927149D01*
X76011905Y-20927149D02*
X75964286Y-20998578D01*
X75964286Y-20998578D02*
X75916667Y-21046197D01*
X75916667Y-21046197D02*
X75869048Y-21070006D01*
X76583333Y-20927149D02*
X76488095Y-20927149D01*
X76488095Y-20927149D02*
X76440476Y-20950959D01*
X76440476Y-20950959D02*
X76416666Y-20974768D01*
X76416666Y-20974768D02*
X76369047Y-21046197D01*
X76369047Y-21046197D02*
X76345238Y-21141435D01*
X76345238Y-21141435D02*
X76345238Y-21331911D01*
X76345238Y-21331911D02*
X76369047Y-21379530D01*
X76369047Y-21379530D02*
X76392857Y-21403340D01*
X76392857Y-21403340D02*
X76440476Y-21427149D01*
X76440476Y-21427149D02*
X76535714Y-21427149D01*
X76535714Y-21427149D02*
X76583333Y-21403340D01*
X76583333Y-21403340D02*
X76607142Y-21379530D01*
X76607142Y-21379530D02*
X76630952Y-21331911D01*
X76630952Y-21331911D02*
X76630952Y-21212863D01*
X76630952Y-21212863D02*
X76607142Y-21165244D01*
X76607142Y-21165244D02*
X76583333Y-21141435D01*
X76583333Y-21141435D02*
X76535714Y-21117625D01*
X76535714Y-21117625D02*
X76440476Y-21117625D01*
X76440476Y-21117625D02*
X76392857Y-21141435D01*
X76392857Y-21141435D02*
X76369047Y-21165244D01*
X76369047Y-21165244D02*
X76345238Y-21212863D01*
X65130952Y-42727149D02*
X65130952Y-42227149D01*
X65130952Y-42227149D02*
X65250000Y-42227149D01*
X65250000Y-42227149D02*
X65321428Y-42250959D01*
X65321428Y-42250959D02*
X65369047Y-42298578D01*
X65369047Y-42298578D02*
X65392857Y-42346197D01*
X65392857Y-42346197D02*
X65416666Y-42441435D01*
X65416666Y-42441435D02*
X65416666Y-42512863D01*
X65416666Y-42512863D02*
X65392857Y-42608101D01*
X65392857Y-42608101D02*
X65369047Y-42655720D01*
X65369047Y-42655720D02*
X65321428Y-42703340D01*
X65321428Y-42703340D02*
X65250000Y-42727149D01*
X65250000Y-42727149D02*
X65130952Y-42727149D01*
X65702381Y-42441435D02*
X65654762Y-42417625D01*
X65654762Y-42417625D02*
X65630952Y-42393816D01*
X65630952Y-42393816D02*
X65607143Y-42346197D01*
X65607143Y-42346197D02*
X65607143Y-42322387D01*
X65607143Y-42322387D02*
X65630952Y-42274768D01*
X65630952Y-42274768D02*
X65654762Y-42250959D01*
X65654762Y-42250959D02*
X65702381Y-42227149D01*
X65702381Y-42227149D02*
X65797619Y-42227149D01*
X65797619Y-42227149D02*
X65845238Y-42250959D01*
X65845238Y-42250959D02*
X65869047Y-42274768D01*
X65869047Y-42274768D02*
X65892857Y-42322387D01*
X65892857Y-42322387D02*
X65892857Y-42346197D01*
X65892857Y-42346197D02*
X65869047Y-42393816D01*
X65869047Y-42393816D02*
X65845238Y-42417625D01*
X65845238Y-42417625D02*
X65797619Y-42441435D01*
X65797619Y-42441435D02*
X65702381Y-42441435D01*
X65702381Y-42441435D02*
X65654762Y-42465244D01*
X65654762Y-42465244D02*
X65630952Y-42489054D01*
X65630952Y-42489054D02*
X65607143Y-42536673D01*
X65607143Y-42536673D02*
X65607143Y-42631911D01*
X65607143Y-42631911D02*
X65630952Y-42679530D01*
X65630952Y-42679530D02*
X65654762Y-42703340D01*
X65654762Y-42703340D02*
X65702381Y-42727149D01*
X65702381Y-42727149D02*
X65797619Y-42727149D01*
X65797619Y-42727149D02*
X65845238Y-42703340D01*
X65845238Y-42703340D02*
X65869047Y-42679530D01*
X65869047Y-42679530D02*
X65892857Y-42631911D01*
X65892857Y-42631911D02*
X65892857Y-42536673D01*
X65892857Y-42536673D02*
X65869047Y-42489054D01*
X65869047Y-42489054D02*
X65845238Y-42465244D01*
X65845238Y-42465244D02*
X65797619Y-42441435D01*
X34678571Y-30927149D02*
X34511905Y-30689054D01*
X34392857Y-30927149D02*
X34392857Y-30427149D01*
X34392857Y-30427149D02*
X34583333Y-30427149D01*
X34583333Y-30427149D02*
X34630952Y-30450959D01*
X34630952Y-30450959D02*
X34654762Y-30474768D01*
X34654762Y-30474768D02*
X34678571Y-30522387D01*
X34678571Y-30522387D02*
X34678571Y-30593816D01*
X34678571Y-30593816D02*
X34654762Y-30641435D01*
X34654762Y-30641435D02*
X34630952Y-30665244D01*
X34630952Y-30665244D02*
X34583333Y-30689054D01*
X34583333Y-30689054D02*
X34392857Y-30689054D01*
X35154762Y-30927149D02*
X34869048Y-30927149D01*
X35011905Y-30927149D02*
X35011905Y-30427149D01*
X35011905Y-30427149D02*
X34964286Y-30498578D01*
X34964286Y-30498578D02*
X34916667Y-30546197D01*
X34916667Y-30546197D02*
X34869048Y-30570006D01*
X35583333Y-30593816D02*
X35583333Y-30927149D01*
X35464285Y-30403340D02*
X35345238Y-30760482D01*
X35345238Y-30760482D02*
X35654761Y-30760482D01*
X34678571Y-19727149D02*
X34511905Y-19489054D01*
X34392857Y-19727149D02*
X34392857Y-19227149D01*
X34392857Y-19227149D02*
X34583333Y-19227149D01*
X34583333Y-19227149D02*
X34630952Y-19250959D01*
X34630952Y-19250959D02*
X34654762Y-19274768D01*
X34654762Y-19274768D02*
X34678571Y-19322387D01*
X34678571Y-19322387D02*
X34678571Y-19393816D01*
X34678571Y-19393816D02*
X34654762Y-19441435D01*
X34654762Y-19441435D02*
X34630952Y-19465244D01*
X34630952Y-19465244D02*
X34583333Y-19489054D01*
X34583333Y-19489054D02*
X34392857Y-19489054D01*
X35154762Y-19727149D02*
X34869048Y-19727149D01*
X35011905Y-19727149D02*
X35011905Y-19227149D01*
X35011905Y-19227149D02*
X34964286Y-19298578D01*
X34964286Y-19298578D02*
X34916667Y-19346197D01*
X34916667Y-19346197D02*
X34869048Y-19370006D01*
X35345238Y-19274768D02*
X35369047Y-19250959D01*
X35369047Y-19250959D02*
X35416666Y-19227149D01*
X35416666Y-19227149D02*
X35535714Y-19227149D01*
X35535714Y-19227149D02*
X35583333Y-19250959D01*
X35583333Y-19250959D02*
X35607142Y-19274768D01*
X35607142Y-19274768D02*
X35630952Y-19322387D01*
X35630952Y-19322387D02*
X35630952Y-19370006D01*
X35630952Y-19370006D02*
X35607142Y-19441435D01*
X35607142Y-19441435D02*
X35321428Y-19727149D01*
X35321428Y-19727149D02*
X35630952Y-19727149D01*
D13*
X70895937Y-33068571D02*
X70861651Y-33137142D01*
X70861651Y-33137142D02*
X70793080Y-33205714D01*
X70793080Y-33205714D02*
X70690222Y-33308571D01*
X70690222Y-33308571D02*
X70655937Y-33377142D01*
X70655937Y-33377142D02*
X70655937Y-33445714D01*
X70827365Y-33411428D02*
X70793080Y-33480000D01*
X70793080Y-33480000D02*
X70724508Y-33548571D01*
X70724508Y-33548571D02*
X70587365Y-33582857D01*
X70587365Y-33582857D02*
X70347365Y-33582857D01*
X70347365Y-33582857D02*
X70210222Y-33548571D01*
X70210222Y-33548571D02*
X70141651Y-33480000D01*
X70141651Y-33480000D02*
X70107365Y-33411428D01*
X70107365Y-33411428D02*
X70107365Y-33274285D01*
X70107365Y-33274285D02*
X70141651Y-33205714D01*
X70141651Y-33205714D02*
X70210222Y-33137142D01*
X70210222Y-33137142D02*
X70347365Y-33102857D01*
X70347365Y-33102857D02*
X70587365Y-33102857D01*
X70587365Y-33102857D02*
X70724508Y-33137142D01*
X70724508Y-33137142D02*
X70793080Y-33205714D01*
X70793080Y-33205714D02*
X70827365Y-33274285D01*
X70827365Y-33274285D02*
X70827365Y-33411428D01*
X70175937Y-32828571D02*
X70141651Y-32794285D01*
X70141651Y-32794285D02*
X70107365Y-32725714D01*
X70107365Y-32725714D02*
X70107365Y-32554285D01*
X70107365Y-32554285D02*
X70141651Y-32485714D01*
X70141651Y-32485714D02*
X70175937Y-32451428D01*
X70175937Y-32451428D02*
X70244508Y-32417142D01*
X70244508Y-32417142D02*
X70313080Y-32417142D01*
X70313080Y-32417142D02*
X70415937Y-32451428D01*
X70415937Y-32451428D02*
X70827365Y-32862856D01*
X70827365Y-32862856D02*
X70827365Y-32417142D01*
D11*
X62178571Y-15827149D02*
X62011905Y-15589054D01*
X61892857Y-15827149D02*
X61892857Y-15327149D01*
X61892857Y-15327149D02*
X62083333Y-15327149D01*
X62083333Y-15327149D02*
X62130952Y-15350959D01*
X62130952Y-15350959D02*
X62154762Y-15374768D01*
X62154762Y-15374768D02*
X62178571Y-15422387D01*
X62178571Y-15422387D02*
X62178571Y-15493816D01*
X62178571Y-15493816D02*
X62154762Y-15541435D01*
X62154762Y-15541435D02*
X62130952Y-15565244D01*
X62130952Y-15565244D02*
X62083333Y-15589054D01*
X62083333Y-15589054D02*
X61892857Y-15589054D01*
X62345238Y-15327149D02*
X62654762Y-15327149D01*
X62654762Y-15327149D02*
X62488095Y-15517625D01*
X62488095Y-15517625D02*
X62559524Y-15517625D01*
X62559524Y-15517625D02*
X62607143Y-15541435D01*
X62607143Y-15541435D02*
X62630952Y-15565244D01*
X62630952Y-15565244D02*
X62654762Y-15612863D01*
X62654762Y-15612863D02*
X62654762Y-15731911D01*
X62654762Y-15731911D02*
X62630952Y-15779530D01*
X62630952Y-15779530D02*
X62607143Y-15803340D01*
X62607143Y-15803340D02*
X62559524Y-15827149D01*
X62559524Y-15827149D02*
X62416667Y-15827149D01*
X62416667Y-15827149D02*
X62369048Y-15803340D01*
X62369048Y-15803340D02*
X62345238Y-15779530D01*
X62845238Y-15374768D02*
X62869047Y-15350959D01*
X62869047Y-15350959D02*
X62916666Y-15327149D01*
X62916666Y-15327149D02*
X63035714Y-15327149D01*
X63035714Y-15327149D02*
X63083333Y-15350959D01*
X63083333Y-15350959D02*
X63107142Y-15374768D01*
X63107142Y-15374768D02*
X63130952Y-15422387D01*
X63130952Y-15422387D02*
X63130952Y-15470006D01*
X63130952Y-15470006D02*
X63107142Y-15541435D01*
X63107142Y-15541435D02*
X62821428Y-15827149D01*
X62821428Y-15827149D02*
X63130952Y-15827149D01*
X60416666Y-19727149D02*
X60250000Y-19489054D01*
X60130952Y-19727149D02*
X60130952Y-19227149D01*
X60130952Y-19227149D02*
X60321428Y-19227149D01*
X60321428Y-19227149D02*
X60369047Y-19250959D01*
X60369047Y-19250959D02*
X60392857Y-19274768D01*
X60392857Y-19274768D02*
X60416666Y-19322387D01*
X60416666Y-19322387D02*
X60416666Y-19393816D01*
X60416666Y-19393816D02*
X60392857Y-19441435D01*
X60392857Y-19441435D02*
X60369047Y-19465244D01*
X60369047Y-19465244D02*
X60321428Y-19489054D01*
X60321428Y-19489054D02*
X60130952Y-19489054D01*
X60702381Y-19441435D02*
X60654762Y-19417625D01*
X60654762Y-19417625D02*
X60630952Y-19393816D01*
X60630952Y-19393816D02*
X60607143Y-19346197D01*
X60607143Y-19346197D02*
X60607143Y-19322387D01*
X60607143Y-19322387D02*
X60630952Y-19274768D01*
X60630952Y-19274768D02*
X60654762Y-19250959D01*
X60654762Y-19250959D02*
X60702381Y-19227149D01*
X60702381Y-19227149D02*
X60797619Y-19227149D01*
X60797619Y-19227149D02*
X60845238Y-19250959D01*
X60845238Y-19250959D02*
X60869047Y-19274768D01*
X60869047Y-19274768D02*
X60892857Y-19322387D01*
X60892857Y-19322387D02*
X60892857Y-19346197D01*
X60892857Y-19346197D02*
X60869047Y-19393816D01*
X60869047Y-19393816D02*
X60845238Y-19417625D01*
X60845238Y-19417625D02*
X60797619Y-19441435D01*
X60797619Y-19441435D02*
X60702381Y-19441435D01*
X60702381Y-19441435D02*
X60654762Y-19465244D01*
X60654762Y-19465244D02*
X60630952Y-19489054D01*
X60630952Y-19489054D02*
X60607143Y-19536673D01*
X60607143Y-19536673D02*
X60607143Y-19631911D01*
X60607143Y-19631911D02*
X60630952Y-19679530D01*
X60630952Y-19679530D02*
X60654762Y-19703340D01*
X60654762Y-19703340D02*
X60702381Y-19727149D01*
X60702381Y-19727149D02*
X60797619Y-19727149D01*
X60797619Y-19727149D02*
X60845238Y-19703340D01*
X60845238Y-19703340D02*
X60869047Y-19679530D01*
X60869047Y-19679530D02*
X60892857Y-19631911D01*
X60892857Y-19631911D02*
X60892857Y-19536673D01*
X60892857Y-19536673D02*
X60869047Y-19489054D01*
X60869047Y-19489054D02*
X60845238Y-19465244D01*
X60845238Y-19465244D02*
X60797619Y-19441435D01*
D10*
X105238095Y-4454819D02*
X105238095Y-3454819D01*
X105238095Y-3931009D02*
X105809523Y-3931009D01*
X105809523Y-4454819D02*
X105809523Y-3454819D01*
X106238095Y-3550057D02*
X106285714Y-3502438D01*
X106285714Y-3502438D02*
X106380952Y-3454819D01*
X106380952Y-3454819D02*
X106619047Y-3454819D01*
X106619047Y-3454819D02*
X106714285Y-3502438D01*
X106714285Y-3502438D02*
X106761904Y-3550057D01*
X106761904Y-3550057D02*
X106809523Y-3645295D01*
X106809523Y-3645295D02*
X106809523Y-3740533D01*
X106809523Y-3740533D02*
X106761904Y-3883390D01*
X106761904Y-3883390D02*
X106190476Y-4454819D01*
X106190476Y-4454819D02*
X106809523Y-4454819D01*
D11*
X94416666Y-13227149D02*
X94250000Y-12989054D01*
X94130952Y-13227149D02*
X94130952Y-12727149D01*
X94130952Y-12727149D02*
X94321428Y-12727149D01*
X94321428Y-12727149D02*
X94369047Y-12750959D01*
X94369047Y-12750959D02*
X94392857Y-12774768D01*
X94392857Y-12774768D02*
X94416666Y-12822387D01*
X94416666Y-12822387D02*
X94416666Y-12893816D01*
X94416666Y-12893816D02*
X94392857Y-12941435D01*
X94392857Y-12941435D02*
X94369047Y-12965244D01*
X94369047Y-12965244D02*
X94321428Y-12989054D01*
X94321428Y-12989054D02*
X94130952Y-12989054D01*
X94892857Y-13227149D02*
X94607143Y-13227149D01*
X94750000Y-13227149D02*
X94750000Y-12727149D01*
X94750000Y-12727149D02*
X94702381Y-12798578D01*
X94702381Y-12798578D02*
X94654762Y-12846197D01*
X94654762Y-12846197D02*
X94607143Y-12870006D01*
X29178571Y-19727149D02*
X29011905Y-19489054D01*
X28892857Y-19727149D02*
X28892857Y-19227149D01*
X28892857Y-19227149D02*
X29083333Y-19227149D01*
X29083333Y-19227149D02*
X29130952Y-19250959D01*
X29130952Y-19250959D02*
X29154762Y-19274768D01*
X29154762Y-19274768D02*
X29178571Y-19322387D01*
X29178571Y-19322387D02*
X29178571Y-19393816D01*
X29178571Y-19393816D02*
X29154762Y-19441435D01*
X29154762Y-19441435D02*
X29130952Y-19465244D01*
X29130952Y-19465244D02*
X29083333Y-19489054D01*
X29083333Y-19489054D02*
X28892857Y-19489054D01*
X29654762Y-19727149D02*
X29369048Y-19727149D01*
X29511905Y-19727149D02*
X29511905Y-19227149D01*
X29511905Y-19227149D02*
X29464286Y-19298578D01*
X29464286Y-19298578D02*
X29416667Y-19346197D01*
X29416667Y-19346197D02*
X29369048Y-19370006D01*
X29964285Y-19227149D02*
X30011904Y-19227149D01*
X30011904Y-19227149D02*
X30059523Y-19250959D01*
X30059523Y-19250959D02*
X30083333Y-19274768D01*
X30083333Y-19274768D02*
X30107142Y-19322387D01*
X30107142Y-19322387D02*
X30130952Y-19417625D01*
X30130952Y-19417625D02*
X30130952Y-19536673D01*
X30130952Y-19536673D02*
X30107142Y-19631911D01*
X30107142Y-19631911D02*
X30083333Y-19679530D01*
X30083333Y-19679530D02*
X30059523Y-19703340D01*
X30059523Y-19703340D02*
X30011904Y-19727149D01*
X30011904Y-19727149D02*
X29964285Y-19727149D01*
X29964285Y-19727149D02*
X29916666Y-19703340D01*
X29916666Y-19703340D02*
X29892857Y-19679530D01*
X29892857Y-19679530D02*
X29869047Y-19631911D01*
X29869047Y-19631911D02*
X29845238Y-19536673D01*
X29845238Y-19536673D02*
X29845238Y-19417625D01*
X29845238Y-19417625D02*
X29869047Y-19322387D01*
X29869047Y-19322387D02*
X29892857Y-19274768D01*
X29892857Y-19274768D02*
X29916666Y-19250959D01*
X29916666Y-19250959D02*
X29964285Y-19227149D01*
D10*
X15738095Y-40604819D02*
X16309523Y-40604819D01*
X16023809Y-41604819D02*
X16023809Y-40604819D01*
X16642857Y-41604819D02*
X16642857Y-40604819D01*
X16642857Y-40604819D02*
X17023809Y-40604819D01*
X17023809Y-40604819D02*
X17119047Y-40652438D01*
X17119047Y-40652438D02*
X17166666Y-40700057D01*
X17166666Y-40700057D02*
X17214285Y-40795295D01*
X17214285Y-40795295D02*
X17214285Y-40938152D01*
X17214285Y-40938152D02*
X17166666Y-41033390D01*
X17166666Y-41033390D02*
X17119047Y-41081009D01*
X17119047Y-41081009D02*
X17023809Y-41128628D01*
X17023809Y-41128628D02*
X16642857Y-41128628D01*
X17547619Y-40604819D02*
X18166666Y-40604819D01*
X18166666Y-40604819D02*
X17833333Y-40985771D01*
X17833333Y-40985771D02*
X17976190Y-40985771D01*
X17976190Y-40985771D02*
X18071428Y-41033390D01*
X18071428Y-41033390D02*
X18119047Y-41081009D01*
X18119047Y-41081009D02*
X18166666Y-41176247D01*
X18166666Y-41176247D02*
X18166666Y-41414342D01*
X18166666Y-41414342D02*
X18119047Y-41509580D01*
X18119047Y-41509580D02*
X18071428Y-41557200D01*
X18071428Y-41557200D02*
X17976190Y-41604819D01*
X17976190Y-41604819D02*
X17690476Y-41604819D01*
X17690476Y-41604819D02*
X17595238Y-41557200D01*
X17595238Y-41557200D02*
X17547619Y-41509580D01*
D13*
X67931428Y-13195937D02*
X67862857Y-13161651D01*
X67862857Y-13161651D02*
X67794285Y-13093080D01*
X67794285Y-13093080D02*
X67691428Y-12990222D01*
X67691428Y-12990222D02*
X67622857Y-12955937D01*
X67622857Y-12955937D02*
X67554285Y-12955937D01*
X67588571Y-13127365D02*
X67520000Y-13093080D01*
X67520000Y-13093080D02*
X67451428Y-13024508D01*
X67451428Y-13024508D02*
X67417142Y-12887365D01*
X67417142Y-12887365D02*
X67417142Y-12647365D01*
X67417142Y-12647365D02*
X67451428Y-12510222D01*
X67451428Y-12510222D02*
X67520000Y-12441651D01*
X67520000Y-12441651D02*
X67588571Y-12407365D01*
X67588571Y-12407365D02*
X67725714Y-12407365D01*
X67725714Y-12407365D02*
X67794285Y-12441651D01*
X67794285Y-12441651D02*
X67862857Y-12510222D01*
X67862857Y-12510222D02*
X67897142Y-12647365D01*
X67897142Y-12647365D02*
X67897142Y-12887365D01*
X67897142Y-12887365D02*
X67862857Y-13024508D01*
X67862857Y-13024508D02*
X67794285Y-13093080D01*
X67794285Y-13093080D02*
X67725714Y-13127365D01*
X67725714Y-13127365D02*
X67588571Y-13127365D01*
X68548571Y-12407365D02*
X68205714Y-12407365D01*
X68205714Y-12407365D02*
X68171428Y-12750222D01*
X68171428Y-12750222D02*
X68205714Y-12715937D01*
X68205714Y-12715937D02*
X68274286Y-12681651D01*
X68274286Y-12681651D02*
X68445714Y-12681651D01*
X68445714Y-12681651D02*
X68514286Y-12715937D01*
X68514286Y-12715937D02*
X68548571Y-12750222D01*
X68548571Y-12750222D02*
X68582857Y-12818794D01*
X68582857Y-12818794D02*
X68582857Y-12990222D01*
X68582857Y-12990222D02*
X68548571Y-13058794D01*
X68548571Y-13058794D02*
X68514286Y-13093080D01*
X68514286Y-13093080D02*
X68445714Y-13127365D01*
X68445714Y-13127365D02*
X68274286Y-13127365D01*
X68274286Y-13127365D02*
X68205714Y-13093080D01*
X68205714Y-13093080D02*
X68171428Y-13058794D01*
D10*
X96833333Y-4654819D02*
X96357143Y-4654819D01*
X96357143Y-4654819D02*
X96357143Y-3654819D01*
X97690476Y-4654819D02*
X97119048Y-4654819D01*
X97404762Y-4654819D02*
X97404762Y-3654819D01*
X97404762Y-3654819D02*
X97309524Y-3797676D01*
X97309524Y-3797676D02*
X97214286Y-3892914D01*
X97214286Y-3892914D02*
X97119048Y-3940533D01*
D11*
X51392857Y-43027149D02*
X51392857Y-42527149D01*
X51392857Y-42527149D02*
X51511905Y-42527149D01*
X51511905Y-42527149D02*
X51583333Y-42550959D01*
X51583333Y-42550959D02*
X51630952Y-42598578D01*
X51630952Y-42598578D02*
X51654762Y-42646197D01*
X51654762Y-42646197D02*
X51678571Y-42741435D01*
X51678571Y-42741435D02*
X51678571Y-42812863D01*
X51678571Y-42812863D02*
X51654762Y-42908101D01*
X51654762Y-42908101D02*
X51630952Y-42955720D01*
X51630952Y-42955720D02*
X51583333Y-43003340D01*
X51583333Y-43003340D02*
X51511905Y-43027149D01*
X51511905Y-43027149D02*
X51392857Y-43027149D01*
X52154762Y-43027149D02*
X51869048Y-43027149D01*
X52011905Y-43027149D02*
X52011905Y-42527149D01*
X52011905Y-42527149D02*
X51964286Y-42598578D01*
X51964286Y-42598578D02*
X51916667Y-42646197D01*
X51916667Y-42646197D02*
X51869048Y-42670006D01*
X52630952Y-43027149D02*
X52345238Y-43027149D01*
X52488095Y-43027149D02*
X52488095Y-42527149D01*
X52488095Y-42527149D02*
X52440476Y-42598578D01*
X52440476Y-42598578D02*
X52392857Y-42646197D01*
X52392857Y-42646197D02*
X52345238Y-42670006D01*
X54678571Y-22527149D02*
X54511905Y-22289054D01*
X54392857Y-22527149D02*
X54392857Y-22027149D01*
X54392857Y-22027149D02*
X54583333Y-22027149D01*
X54583333Y-22027149D02*
X54630952Y-22050959D01*
X54630952Y-22050959D02*
X54654762Y-22074768D01*
X54654762Y-22074768D02*
X54678571Y-22122387D01*
X54678571Y-22122387D02*
X54678571Y-22193816D01*
X54678571Y-22193816D02*
X54654762Y-22241435D01*
X54654762Y-22241435D02*
X54630952Y-22265244D01*
X54630952Y-22265244D02*
X54583333Y-22289054D01*
X54583333Y-22289054D02*
X54392857Y-22289054D01*
X55154762Y-22527149D02*
X54869048Y-22527149D01*
X55011905Y-22527149D02*
X55011905Y-22027149D01*
X55011905Y-22027149D02*
X54964286Y-22098578D01*
X54964286Y-22098578D02*
X54916667Y-22146197D01*
X54916667Y-22146197D02*
X54869048Y-22170006D01*
X55392857Y-22527149D02*
X55488095Y-22527149D01*
X55488095Y-22527149D02*
X55535714Y-22503340D01*
X55535714Y-22503340D02*
X55559523Y-22479530D01*
X55559523Y-22479530D02*
X55607142Y-22408101D01*
X55607142Y-22408101D02*
X55630952Y-22312863D01*
X55630952Y-22312863D02*
X55630952Y-22122387D01*
X55630952Y-22122387D02*
X55607142Y-22074768D01*
X55607142Y-22074768D02*
X55583333Y-22050959D01*
X55583333Y-22050959D02*
X55535714Y-22027149D01*
X55535714Y-22027149D02*
X55440476Y-22027149D01*
X55440476Y-22027149D02*
X55392857Y-22050959D01*
X55392857Y-22050959D02*
X55369047Y-22074768D01*
X55369047Y-22074768D02*
X55345238Y-22122387D01*
X55345238Y-22122387D02*
X55345238Y-22241435D01*
X55345238Y-22241435D02*
X55369047Y-22289054D01*
X55369047Y-22289054D02*
X55392857Y-22312863D01*
X55392857Y-22312863D02*
X55440476Y-22336673D01*
X55440476Y-22336673D02*
X55535714Y-22336673D01*
X55535714Y-22336673D02*
X55583333Y-22312863D01*
X55583333Y-22312863D02*
X55607142Y-22289054D01*
X55607142Y-22289054D02*
X55630952Y-22241435D01*
D13*
X18591244Y-26571428D02*
X19198387Y-26571428D01*
X19198387Y-26571428D02*
X19269815Y-26535714D01*
X19269815Y-26535714D02*
X19305530Y-26500000D01*
X19305530Y-26500000D02*
X19341244Y-26428571D01*
X19341244Y-26428571D02*
X19341244Y-26285714D01*
X19341244Y-26285714D02*
X19305530Y-26214285D01*
X19305530Y-26214285D02*
X19269815Y-26178571D01*
X19269815Y-26178571D02*
X19198387Y-26142857D01*
X19198387Y-26142857D02*
X18591244Y-26142857D01*
X18662672Y-25821428D02*
X18626958Y-25785714D01*
X18626958Y-25785714D02*
X18591244Y-25714286D01*
X18591244Y-25714286D02*
X18591244Y-25535714D01*
X18591244Y-25535714D02*
X18626958Y-25464286D01*
X18626958Y-25464286D02*
X18662672Y-25428571D01*
X18662672Y-25428571D02*
X18734101Y-25392857D01*
X18734101Y-25392857D02*
X18805530Y-25392857D01*
X18805530Y-25392857D02*
X18912672Y-25428571D01*
X18912672Y-25428571D02*
X19341244Y-25857143D01*
X19341244Y-25857143D02*
X19341244Y-25392857D01*
D10*
X75761905Y-16154819D02*
X75761905Y-15154819D01*
X75761905Y-15154819D02*
X76000000Y-15154819D01*
X76000000Y-15154819D02*
X76142857Y-15202438D01*
X76142857Y-15202438D02*
X76238095Y-15297676D01*
X76238095Y-15297676D02*
X76285714Y-15392914D01*
X76285714Y-15392914D02*
X76333333Y-15583390D01*
X76333333Y-15583390D02*
X76333333Y-15726247D01*
X76333333Y-15726247D02*
X76285714Y-15916723D01*
X76285714Y-15916723D02*
X76238095Y-16011961D01*
X76238095Y-16011961D02*
X76142857Y-16107200D01*
X76142857Y-16107200D02*
X76000000Y-16154819D01*
X76000000Y-16154819D02*
X75761905Y-16154819D01*
X76714286Y-15250057D02*
X76761905Y-15202438D01*
X76761905Y-15202438D02*
X76857143Y-15154819D01*
X76857143Y-15154819D02*
X77095238Y-15154819D01*
X77095238Y-15154819D02*
X77190476Y-15202438D01*
X77190476Y-15202438D02*
X77238095Y-15250057D01*
X77238095Y-15250057D02*
X77285714Y-15345295D01*
X77285714Y-15345295D02*
X77285714Y-15440533D01*
X77285714Y-15440533D02*
X77238095Y-15583390D01*
X77238095Y-15583390D02*
X76666667Y-16154819D01*
X76666667Y-16154819D02*
X77285714Y-16154819D01*
D11*
X60178571Y-28127149D02*
X60011905Y-27889054D01*
X59892857Y-28127149D02*
X59892857Y-27627149D01*
X59892857Y-27627149D02*
X60083333Y-27627149D01*
X60083333Y-27627149D02*
X60130952Y-27650959D01*
X60130952Y-27650959D02*
X60154762Y-27674768D01*
X60154762Y-27674768D02*
X60178571Y-27722387D01*
X60178571Y-27722387D02*
X60178571Y-27793816D01*
X60178571Y-27793816D02*
X60154762Y-27841435D01*
X60154762Y-27841435D02*
X60130952Y-27865244D01*
X60130952Y-27865244D02*
X60083333Y-27889054D01*
X60083333Y-27889054D02*
X59892857Y-27889054D01*
X60369048Y-27674768D02*
X60392857Y-27650959D01*
X60392857Y-27650959D02*
X60440476Y-27627149D01*
X60440476Y-27627149D02*
X60559524Y-27627149D01*
X60559524Y-27627149D02*
X60607143Y-27650959D01*
X60607143Y-27650959D02*
X60630952Y-27674768D01*
X60630952Y-27674768D02*
X60654762Y-27722387D01*
X60654762Y-27722387D02*
X60654762Y-27770006D01*
X60654762Y-27770006D02*
X60630952Y-27841435D01*
X60630952Y-27841435D02*
X60345238Y-28127149D01*
X60345238Y-28127149D02*
X60654762Y-28127149D01*
X61083333Y-27793816D02*
X61083333Y-28127149D01*
X60964285Y-27603340D02*
X60845238Y-27960482D01*
X60845238Y-27960482D02*
X61154761Y-27960482D01*
D10*
X75542857Y-24669771D02*
X75542857Y-25155485D01*
X75542857Y-25155485D02*
X75571428Y-25212628D01*
X75571428Y-25212628D02*
X75600000Y-25241200D01*
X75600000Y-25241200D02*
X75657142Y-25269771D01*
X75657142Y-25269771D02*
X75771428Y-25269771D01*
X75771428Y-25269771D02*
X75828571Y-25241200D01*
X75828571Y-25241200D02*
X75857142Y-25212628D01*
X75857142Y-25212628D02*
X75885714Y-25155485D01*
X75885714Y-25155485D02*
X75885714Y-24669771D01*
X76457142Y-24669771D02*
X76171428Y-24669771D01*
X76171428Y-24669771D02*
X76142856Y-24955485D01*
X76142856Y-24955485D02*
X76171428Y-24926914D01*
X76171428Y-24926914D02*
X76228571Y-24898342D01*
X76228571Y-24898342D02*
X76371428Y-24898342D01*
X76371428Y-24898342D02*
X76428571Y-24926914D01*
X76428571Y-24926914D02*
X76457142Y-24955485D01*
X76457142Y-24955485D02*
X76485713Y-25012628D01*
X76485713Y-25012628D02*
X76485713Y-25155485D01*
X76485713Y-25155485D02*
X76457142Y-25212628D01*
X76457142Y-25212628D02*
X76428571Y-25241200D01*
X76428571Y-25241200D02*
X76371428Y-25269771D01*
X76371428Y-25269771D02*
X76228571Y-25269771D01*
X76228571Y-25269771D02*
X76171428Y-25241200D01*
X76171428Y-25241200D02*
X76142856Y-25212628D01*
X9738095Y-40604819D02*
X10309523Y-40604819D01*
X10023809Y-41604819D02*
X10023809Y-40604819D01*
X10642857Y-41604819D02*
X10642857Y-40604819D01*
X10642857Y-40604819D02*
X11023809Y-40604819D01*
X11023809Y-40604819D02*
X11119047Y-40652438D01*
X11119047Y-40652438D02*
X11166666Y-40700057D01*
X11166666Y-40700057D02*
X11214285Y-40795295D01*
X11214285Y-40795295D02*
X11214285Y-40938152D01*
X11214285Y-40938152D02*
X11166666Y-41033390D01*
X11166666Y-41033390D02*
X11119047Y-41081009D01*
X11119047Y-41081009D02*
X11023809Y-41128628D01*
X11023809Y-41128628D02*
X10642857Y-41128628D01*
X11595238Y-40700057D02*
X11642857Y-40652438D01*
X11642857Y-40652438D02*
X11738095Y-40604819D01*
X11738095Y-40604819D02*
X11976190Y-40604819D01*
X11976190Y-40604819D02*
X12071428Y-40652438D01*
X12071428Y-40652438D02*
X12119047Y-40700057D01*
X12119047Y-40700057D02*
X12166666Y-40795295D01*
X12166666Y-40795295D02*
X12166666Y-40890533D01*
X12166666Y-40890533D02*
X12119047Y-41033390D01*
X12119047Y-41033390D02*
X11547619Y-41604819D01*
X11547619Y-41604819D02*
X12166666Y-41604819D01*
D13*
X70895937Y-37568571D02*
X70861651Y-37637142D01*
X70861651Y-37637142D02*
X70793080Y-37705714D01*
X70793080Y-37705714D02*
X70690222Y-37808571D01*
X70690222Y-37808571D02*
X70655937Y-37877142D01*
X70655937Y-37877142D02*
X70655937Y-37945714D01*
X70827365Y-37911428D02*
X70793080Y-37980000D01*
X70793080Y-37980000D02*
X70724508Y-38048571D01*
X70724508Y-38048571D02*
X70587365Y-38082857D01*
X70587365Y-38082857D02*
X70347365Y-38082857D01*
X70347365Y-38082857D02*
X70210222Y-38048571D01*
X70210222Y-38048571D02*
X70141651Y-37980000D01*
X70141651Y-37980000D02*
X70107365Y-37911428D01*
X70107365Y-37911428D02*
X70107365Y-37774285D01*
X70107365Y-37774285D02*
X70141651Y-37705714D01*
X70141651Y-37705714D02*
X70210222Y-37637142D01*
X70210222Y-37637142D02*
X70347365Y-37602857D01*
X70347365Y-37602857D02*
X70587365Y-37602857D01*
X70587365Y-37602857D02*
X70724508Y-37637142D01*
X70724508Y-37637142D02*
X70793080Y-37705714D01*
X70793080Y-37705714D02*
X70827365Y-37774285D01*
X70827365Y-37774285D02*
X70827365Y-37911428D01*
X70107365Y-37362856D02*
X70107365Y-36917142D01*
X70107365Y-36917142D02*
X70381651Y-37157142D01*
X70381651Y-37157142D02*
X70381651Y-37054285D01*
X70381651Y-37054285D02*
X70415937Y-36985714D01*
X70415937Y-36985714D02*
X70450222Y-36951428D01*
X70450222Y-36951428D02*
X70518794Y-36917142D01*
X70518794Y-36917142D02*
X70690222Y-36917142D01*
X70690222Y-36917142D02*
X70758794Y-36951428D01*
X70758794Y-36951428D02*
X70793080Y-36985714D01*
X70793080Y-36985714D02*
X70827365Y-37054285D01*
X70827365Y-37054285D02*
X70827365Y-37259999D01*
X70827365Y-37259999D02*
X70793080Y-37328571D01*
X70793080Y-37328571D02*
X70758794Y-37362856D01*
D11*
X34916666Y-25279530D02*
X34892857Y-25303340D01*
X34892857Y-25303340D02*
X34821428Y-25327149D01*
X34821428Y-25327149D02*
X34773809Y-25327149D01*
X34773809Y-25327149D02*
X34702381Y-25303340D01*
X34702381Y-25303340D02*
X34654762Y-25255720D01*
X34654762Y-25255720D02*
X34630952Y-25208101D01*
X34630952Y-25208101D02*
X34607143Y-25112863D01*
X34607143Y-25112863D02*
X34607143Y-25041435D01*
X34607143Y-25041435D02*
X34630952Y-24946197D01*
X34630952Y-24946197D02*
X34654762Y-24898578D01*
X34654762Y-24898578D02*
X34702381Y-24850959D01*
X34702381Y-24850959D02*
X34773809Y-24827149D01*
X34773809Y-24827149D02*
X34821428Y-24827149D01*
X34821428Y-24827149D02*
X34892857Y-24850959D01*
X34892857Y-24850959D02*
X34916666Y-24874768D01*
X35154762Y-25327149D02*
X35250000Y-25327149D01*
X35250000Y-25327149D02*
X35297619Y-25303340D01*
X35297619Y-25303340D02*
X35321428Y-25279530D01*
X35321428Y-25279530D02*
X35369047Y-25208101D01*
X35369047Y-25208101D02*
X35392857Y-25112863D01*
X35392857Y-25112863D02*
X35392857Y-24922387D01*
X35392857Y-24922387D02*
X35369047Y-24874768D01*
X35369047Y-24874768D02*
X35345238Y-24850959D01*
X35345238Y-24850959D02*
X35297619Y-24827149D01*
X35297619Y-24827149D02*
X35202381Y-24827149D01*
X35202381Y-24827149D02*
X35154762Y-24850959D01*
X35154762Y-24850959D02*
X35130952Y-24874768D01*
X35130952Y-24874768D02*
X35107143Y-24922387D01*
X35107143Y-24922387D02*
X35107143Y-25041435D01*
X35107143Y-25041435D02*
X35130952Y-25089054D01*
X35130952Y-25089054D02*
X35154762Y-25112863D01*
X35154762Y-25112863D02*
X35202381Y-25136673D01*
X35202381Y-25136673D02*
X35297619Y-25136673D01*
X35297619Y-25136673D02*
X35345238Y-25112863D01*
X35345238Y-25112863D02*
X35369047Y-25089054D01*
X35369047Y-25089054D02*
X35392857Y-25041435D01*
X60416666Y-22527149D02*
X60250000Y-22289054D01*
X60130952Y-22527149D02*
X60130952Y-22027149D01*
X60130952Y-22027149D02*
X60321428Y-22027149D01*
X60321428Y-22027149D02*
X60369047Y-22050959D01*
X60369047Y-22050959D02*
X60392857Y-22074768D01*
X60392857Y-22074768D02*
X60416666Y-22122387D01*
X60416666Y-22122387D02*
X60416666Y-22193816D01*
X60416666Y-22193816D02*
X60392857Y-22241435D01*
X60392857Y-22241435D02*
X60369047Y-22265244D01*
X60369047Y-22265244D02*
X60321428Y-22289054D01*
X60321428Y-22289054D02*
X60130952Y-22289054D01*
X60654762Y-22527149D02*
X60750000Y-22527149D01*
X60750000Y-22527149D02*
X60797619Y-22503340D01*
X60797619Y-22503340D02*
X60821428Y-22479530D01*
X60821428Y-22479530D02*
X60869047Y-22408101D01*
X60869047Y-22408101D02*
X60892857Y-22312863D01*
X60892857Y-22312863D02*
X60892857Y-22122387D01*
X60892857Y-22122387D02*
X60869047Y-22074768D01*
X60869047Y-22074768D02*
X60845238Y-22050959D01*
X60845238Y-22050959D02*
X60797619Y-22027149D01*
X60797619Y-22027149D02*
X60702381Y-22027149D01*
X60702381Y-22027149D02*
X60654762Y-22050959D01*
X60654762Y-22050959D02*
X60630952Y-22074768D01*
X60630952Y-22074768D02*
X60607143Y-22122387D01*
X60607143Y-22122387D02*
X60607143Y-22241435D01*
X60607143Y-22241435D02*
X60630952Y-22289054D01*
X60630952Y-22289054D02*
X60654762Y-22312863D01*
X60654762Y-22312863D02*
X60702381Y-22336673D01*
X60702381Y-22336673D02*
X60797619Y-22336673D01*
X60797619Y-22336673D02*
X60845238Y-22312863D01*
X60845238Y-22312863D02*
X60869047Y-22289054D01*
X60869047Y-22289054D02*
X60892857Y-22241435D01*
X12116666Y-18727149D02*
X11950000Y-18489054D01*
X11830952Y-18727149D02*
X11830952Y-18227149D01*
X11830952Y-18227149D02*
X12021428Y-18227149D01*
X12021428Y-18227149D02*
X12069047Y-18250959D01*
X12069047Y-18250959D02*
X12092857Y-18274768D01*
X12092857Y-18274768D02*
X12116666Y-18322387D01*
X12116666Y-18322387D02*
X12116666Y-18393816D01*
X12116666Y-18393816D02*
X12092857Y-18441435D01*
X12092857Y-18441435D02*
X12069047Y-18465244D01*
X12069047Y-18465244D02*
X12021428Y-18489054D01*
X12021428Y-18489054D02*
X11830952Y-18489054D01*
X12545238Y-18227149D02*
X12450000Y-18227149D01*
X12450000Y-18227149D02*
X12402381Y-18250959D01*
X12402381Y-18250959D02*
X12378571Y-18274768D01*
X12378571Y-18274768D02*
X12330952Y-18346197D01*
X12330952Y-18346197D02*
X12307143Y-18441435D01*
X12307143Y-18441435D02*
X12307143Y-18631911D01*
X12307143Y-18631911D02*
X12330952Y-18679530D01*
X12330952Y-18679530D02*
X12354762Y-18703340D01*
X12354762Y-18703340D02*
X12402381Y-18727149D01*
X12402381Y-18727149D02*
X12497619Y-18727149D01*
X12497619Y-18727149D02*
X12545238Y-18703340D01*
X12545238Y-18703340D02*
X12569047Y-18679530D01*
X12569047Y-18679530D02*
X12592857Y-18631911D01*
X12592857Y-18631911D02*
X12592857Y-18512863D01*
X12592857Y-18512863D02*
X12569047Y-18465244D01*
X12569047Y-18465244D02*
X12545238Y-18441435D01*
X12545238Y-18441435D02*
X12497619Y-18417625D01*
X12497619Y-18417625D02*
X12402381Y-18417625D01*
X12402381Y-18417625D02*
X12354762Y-18441435D01*
X12354762Y-18441435D02*
X12330952Y-18465244D01*
X12330952Y-18465244D02*
X12307143Y-18512863D01*
D10*
X3238095Y-4454819D02*
X3238095Y-3454819D01*
X3238095Y-3931009D02*
X3809523Y-3931009D01*
X3809523Y-4454819D02*
X3809523Y-3454819D01*
X4809523Y-4454819D02*
X4238095Y-4454819D01*
X4523809Y-4454819D02*
X4523809Y-3454819D01*
X4523809Y-3454819D02*
X4428571Y-3597676D01*
X4428571Y-3597676D02*
X4333333Y-3692914D01*
X4333333Y-3692914D02*
X4238095Y-3740533D01*
D11*
X94416666Y-15827149D02*
X94250000Y-15589054D01*
X94130952Y-15827149D02*
X94130952Y-15327149D01*
X94130952Y-15327149D02*
X94321428Y-15327149D01*
X94321428Y-15327149D02*
X94369047Y-15350959D01*
X94369047Y-15350959D02*
X94392857Y-15374768D01*
X94392857Y-15374768D02*
X94416666Y-15422387D01*
X94416666Y-15422387D02*
X94416666Y-15493816D01*
X94416666Y-15493816D02*
X94392857Y-15541435D01*
X94392857Y-15541435D02*
X94369047Y-15565244D01*
X94369047Y-15565244D02*
X94321428Y-15589054D01*
X94321428Y-15589054D02*
X94130952Y-15589054D01*
X94607143Y-15374768D02*
X94630952Y-15350959D01*
X94630952Y-15350959D02*
X94678571Y-15327149D01*
X94678571Y-15327149D02*
X94797619Y-15327149D01*
X94797619Y-15327149D02*
X94845238Y-15350959D01*
X94845238Y-15350959D02*
X94869047Y-15374768D01*
X94869047Y-15374768D02*
X94892857Y-15422387D01*
X94892857Y-15422387D02*
X94892857Y-15470006D01*
X94892857Y-15470006D02*
X94869047Y-15541435D01*
X94869047Y-15541435D02*
X94583333Y-15827149D01*
X94583333Y-15827149D02*
X94892857Y-15827149D01*
X25678571Y-12827149D02*
X25511905Y-12589054D01*
X25392857Y-12827149D02*
X25392857Y-12327149D01*
X25392857Y-12327149D02*
X25583333Y-12327149D01*
X25583333Y-12327149D02*
X25630952Y-12350959D01*
X25630952Y-12350959D02*
X25654762Y-12374768D01*
X25654762Y-12374768D02*
X25678571Y-12422387D01*
X25678571Y-12422387D02*
X25678571Y-12493816D01*
X25678571Y-12493816D02*
X25654762Y-12541435D01*
X25654762Y-12541435D02*
X25630952Y-12565244D01*
X25630952Y-12565244D02*
X25583333Y-12589054D01*
X25583333Y-12589054D02*
X25392857Y-12589054D01*
X25845238Y-12327149D02*
X26154762Y-12327149D01*
X26154762Y-12327149D02*
X25988095Y-12517625D01*
X25988095Y-12517625D02*
X26059524Y-12517625D01*
X26059524Y-12517625D02*
X26107143Y-12541435D01*
X26107143Y-12541435D02*
X26130952Y-12565244D01*
X26130952Y-12565244D02*
X26154762Y-12612863D01*
X26154762Y-12612863D02*
X26154762Y-12731911D01*
X26154762Y-12731911D02*
X26130952Y-12779530D01*
X26130952Y-12779530D02*
X26107143Y-12803340D01*
X26107143Y-12803340D02*
X26059524Y-12827149D01*
X26059524Y-12827149D02*
X25916667Y-12827149D01*
X25916667Y-12827149D02*
X25869048Y-12803340D01*
X25869048Y-12803340D02*
X25845238Y-12779530D01*
X26630952Y-12827149D02*
X26345238Y-12827149D01*
X26488095Y-12827149D02*
X26488095Y-12327149D01*
X26488095Y-12327149D02*
X26440476Y-12398578D01*
X26440476Y-12398578D02*
X26392857Y-12446197D01*
X26392857Y-12446197D02*
X26345238Y-12470006D01*
X75178571Y-42727149D02*
X75011905Y-42489054D01*
X74892857Y-42727149D02*
X74892857Y-42227149D01*
X74892857Y-42227149D02*
X75083333Y-42227149D01*
X75083333Y-42227149D02*
X75130952Y-42250959D01*
X75130952Y-42250959D02*
X75154762Y-42274768D01*
X75154762Y-42274768D02*
X75178571Y-42322387D01*
X75178571Y-42322387D02*
X75178571Y-42393816D01*
X75178571Y-42393816D02*
X75154762Y-42441435D01*
X75154762Y-42441435D02*
X75130952Y-42465244D01*
X75130952Y-42465244D02*
X75083333Y-42489054D01*
X75083333Y-42489054D02*
X74892857Y-42489054D01*
X75345238Y-42227149D02*
X75654762Y-42227149D01*
X75654762Y-42227149D02*
X75488095Y-42417625D01*
X75488095Y-42417625D02*
X75559524Y-42417625D01*
X75559524Y-42417625D02*
X75607143Y-42441435D01*
X75607143Y-42441435D02*
X75630952Y-42465244D01*
X75630952Y-42465244D02*
X75654762Y-42512863D01*
X75654762Y-42512863D02*
X75654762Y-42631911D01*
X75654762Y-42631911D02*
X75630952Y-42679530D01*
X75630952Y-42679530D02*
X75607143Y-42703340D01*
X75607143Y-42703340D02*
X75559524Y-42727149D01*
X75559524Y-42727149D02*
X75416667Y-42727149D01*
X75416667Y-42727149D02*
X75369048Y-42703340D01*
X75369048Y-42703340D02*
X75345238Y-42679530D01*
X76083333Y-42227149D02*
X75988095Y-42227149D01*
X75988095Y-42227149D02*
X75940476Y-42250959D01*
X75940476Y-42250959D02*
X75916666Y-42274768D01*
X75916666Y-42274768D02*
X75869047Y-42346197D01*
X75869047Y-42346197D02*
X75845238Y-42441435D01*
X75845238Y-42441435D02*
X75845238Y-42631911D01*
X75845238Y-42631911D02*
X75869047Y-42679530D01*
X75869047Y-42679530D02*
X75892857Y-42703340D01*
X75892857Y-42703340D02*
X75940476Y-42727149D01*
X75940476Y-42727149D02*
X76035714Y-42727149D01*
X76035714Y-42727149D02*
X76083333Y-42703340D01*
X76083333Y-42703340D02*
X76107142Y-42679530D01*
X76107142Y-42679530D02*
X76130952Y-42631911D01*
X76130952Y-42631911D02*
X76130952Y-42512863D01*
X76130952Y-42512863D02*
X76107142Y-42465244D01*
X76107142Y-42465244D02*
X76083333Y-42441435D01*
X76083333Y-42441435D02*
X76035714Y-42417625D01*
X76035714Y-42417625D02*
X75940476Y-42417625D01*
X75940476Y-42417625D02*
X75892857Y-42441435D01*
X75892857Y-42441435D02*
X75869047Y-42465244D01*
X75869047Y-42465244D02*
X75845238Y-42512863D01*
D10*
X14761905Y-9754819D02*
X14761905Y-8754819D01*
X14761905Y-8754819D02*
X15000000Y-8754819D01*
X15000000Y-8754819D02*
X15142857Y-8802438D01*
X15142857Y-8802438D02*
X15238095Y-8897676D01*
X15238095Y-8897676D02*
X15285714Y-8992914D01*
X15285714Y-8992914D02*
X15333333Y-9183390D01*
X15333333Y-9183390D02*
X15333333Y-9326247D01*
X15333333Y-9326247D02*
X15285714Y-9516723D01*
X15285714Y-9516723D02*
X15238095Y-9611961D01*
X15238095Y-9611961D02*
X15142857Y-9707200D01*
X15142857Y-9707200D02*
X15000000Y-9754819D01*
X15000000Y-9754819D02*
X14761905Y-9754819D01*
X16238095Y-8754819D02*
X15761905Y-8754819D01*
X15761905Y-8754819D02*
X15714286Y-9231009D01*
X15714286Y-9231009D02*
X15761905Y-9183390D01*
X15761905Y-9183390D02*
X15857143Y-9135771D01*
X15857143Y-9135771D02*
X16095238Y-9135771D01*
X16095238Y-9135771D02*
X16190476Y-9183390D01*
X16190476Y-9183390D02*
X16238095Y-9231009D01*
X16238095Y-9231009D02*
X16285714Y-9326247D01*
X16285714Y-9326247D02*
X16285714Y-9564342D01*
X16285714Y-9564342D02*
X16238095Y-9659580D01*
X16238095Y-9659580D02*
X16190476Y-9707200D01*
X16190476Y-9707200D02*
X16095238Y-9754819D01*
X16095238Y-9754819D02*
X15857143Y-9754819D01*
X15857143Y-9754819D02*
X15761905Y-9707200D01*
X15761905Y-9707200D02*
X15714286Y-9659580D01*
D11*
X84116666Y-11227149D02*
X83950000Y-10989054D01*
X83830952Y-11227149D02*
X83830952Y-10727149D01*
X83830952Y-10727149D02*
X84021428Y-10727149D01*
X84021428Y-10727149D02*
X84069047Y-10750959D01*
X84069047Y-10750959D02*
X84092857Y-10774768D01*
X84092857Y-10774768D02*
X84116666Y-10822387D01*
X84116666Y-10822387D02*
X84116666Y-10893816D01*
X84116666Y-10893816D02*
X84092857Y-10941435D01*
X84092857Y-10941435D02*
X84069047Y-10965244D01*
X84069047Y-10965244D02*
X84021428Y-10989054D01*
X84021428Y-10989054D02*
X83830952Y-10989054D01*
X84545238Y-10893816D02*
X84545238Y-11227149D01*
X84426190Y-10703340D02*
X84307143Y-11060482D01*
X84307143Y-11060482D02*
X84616666Y-11060482D01*
X54678571Y-28127149D02*
X54511905Y-27889054D01*
X54392857Y-28127149D02*
X54392857Y-27627149D01*
X54392857Y-27627149D02*
X54583333Y-27627149D01*
X54583333Y-27627149D02*
X54630952Y-27650959D01*
X54630952Y-27650959D02*
X54654762Y-27674768D01*
X54654762Y-27674768D02*
X54678571Y-27722387D01*
X54678571Y-27722387D02*
X54678571Y-27793816D01*
X54678571Y-27793816D02*
X54654762Y-27841435D01*
X54654762Y-27841435D02*
X54630952Y-27865244D01*
X54630952Y-27865244D02*
X54583333Y-27889054D01*
X54583333Y-27889054D02*
X54392857Y-27889054D01*
X54869048Y-27674768D02*
X54892857Y-27650959D01*
X54892857Y-27650959D02*
X54940476Y-27627149D01*
X54940476Y-27627149D02*
X55059524Y-27627149D01*
X55059524Y-27627149D02*
X55107143Y-27650959D01*
X55107143Y-27650959D02*
X55130952Y-27674768D01*
X55130952Y-27674768D02*
X55154762Y-27722387D01*
X55154762Y-27722387D02*
X55154762Y-27770006D01*
X55154762Y-27770006D02*
X55130952Y-27841435D01*
X55130952Y-27841435D02*
X54845238Y-28127149D01*
X54845238Y-28127149D02*
X55154762Y-28127149D01*
X55464285Y-27627149D02*
X55511904Y-27627149D01*
X55511904Y-27627149D02*
X55559523Y-27650959D01*
X55559523Y-27650959D02*
X55583333Y-27674768D01*
X55583333Y-27674768D02*
X55607142Y-27722387D01*
X55607142Y-27722387D02*
X55630952Y-27817625D01*
X55630952Y-27817625D02*
X55630952Y-27936673D01*
X55630952Y-27936673D02*
X55607142Y-28031911D01*
X55607142Y-28031911D02*
X55583333Y-28079530D01*
X55583333Y-28079530D02*
X55559523Y-28103340D01*
X55559523Y-28103340D02*
X55511904Y-28127149D01*
X55511904Y-28127149D02*
X55464285Y-28127149D01*
X55464285Y-28127149D02*
X55416666Y-28103340D01*
X55416666Y-28103340D02*
X55392857Y-28079530D01*
X55392857Y-28079530D02*
X55369047Y-28031911D01*
X55369047Y-28031911D02*
X55345238Y-27936673D01*
X55345238Y-27936673D02*
X55345238Y-27817625D01*
X55345238Y-27817625D02*
X55369047Y-27722387D01*
X55369047Y-27722387D02*
X55392857Y-27674768D01*
X55392857Y-27674768D02*
X55416666Y-27650959D01*
X55416666Y-27650959D02*
X55464285Y-27627149D01*
D10*
X44454819Y-30261904D02*
X45264342Y-30261904D01*
X45264342Y-30261904D02*
X45359580Y-30214285D01*
X45359580Y-30214285D02*
X45407200Y-30166666D01*
X45407200Y-30166666D02*
X45454819Y-30071428D01*
X45454819Y-30071428D02*
X45454819Y-29880952D01*
X45454819Y-29880952D02*
X45407200Y-29785714D01*
X45407200Y-29785714D02*
X45359580Y-29738095D01*
X45359580Y-29738095D02*
X45264342Y-29690476D01*
X45264342Y-29690476D02*
X44454819Y-29690476D01*
X44454819Y-29309523D02*
X44454819Y-28690476D01*
X44454819Y-28690476D02*
X44835771Y-29023809D01*
X44835771Y-29023809D02*
X44835771Y-28880952D01*
X44835771Y-28880952D02*
X44883390Y-28785714D01*
X44883390Y-28785714D02*
X44931009Y-28738095D01*
X44931009Y-28738095D02*
X45026247Y-28690476D01*
X45026247Y-28690476D02*
X45264342Y-28690476D01*
X45264342Y-28690476D02*
X45359580Y-28738095D01*
X45359580Y-28738095D02*
X45407200Y-28785714D01*
X45407200Y-28785714D02*
X45454819Y-28880952D01*
X45454819Y-28880952D02*
X45454819Y-29166666D01*
X45454819Y-29166666D02*
X45407200Y-29261904D01*
X45407200Y-29261904D02*
X45359580Y-29309523D01*
D13*
X86895937Y-31411428D02*
X86861651Y-31479999D01*
X86861651Y-31479999D02*
X86793080Y-31548571D01*
X86793080Y-31548571D02*
X86690222Y-31651428D01*
X86690222Y-31651428D02*
X86655937Y-31719999D01*
X86655937Y-31719999D02*
X86655937Y-31788571D01*
X86827365Y-31754285D02*
X86793080Y-31822857D01*
X86793080Y-31822857D02*
X86724508Y-31891428D01*
X86724508Y-31891428D02*
X86587365Y-31925714D01*
X86587365Y-31925714D02*
X86347365Y-31925714D01*
X86347365Y-31925714D02*
X86210222Y-31891428D01*
X86210222Y-31891428D02*
X86141651Y-31822857D01*
X86141651Y-31822857D02*
X86107365Y-31754285D01*
X86107365Y-31754285D02*
X86107365Y-31617142D01*
X86107365Y-31617142D02*
X86141651Y-31548571D01*
X86141651Y-31548571D02*
X86210222Y-31479999D01*
X86210222Y-31479999D02*
X86347365Y-31445714D01*
X86347365Y-31445714D02*
X86587365Y-31445714D01*
X86587365Y-31445714D02*
X86724508Y-31479999D01*
X86724508Y-31479999D02*
X86793080Y-31548571D01*
X86793080Y-31548571D02*
X86827365Y-31617142D01*
X86827365Y-31617142D02*
X86827365Y-31754285D01*
X86827365Y-30759999D02*
X86827365Y-31171428D01*
X86827365Y-30965713D02*
X86107365Y-30965713D01*
X86107365Y-30965713D02*
X86210222Y-31034285D01*
X86210222Y-31034285D02*
X86278794Y-31102856D01*
X86278794Y-31102856D02*
X86313080Y-31171428D01*
X86175937Y-30485714D02*
X86141651Y-30451428D01*
X86141651Y-30451428D02*
X86107365Y-30382857D01*
X86107365Y-30382857D02*
X86107365Y-30211428D01*
X86107365Y-30211428D02*
X86141651Y-30142857D01*
X86141651Y-30142857D02*
X86175937Y-30108571D01*
X86175937Y-30108571D02*
X86244508Y-30074285D01*
X86244508Y-30074285D02*
X86313080Y-30074285D01*
X86313080Y-30074285D02*
X86415937Y-30108571D01*
X86415937Y-30108571D02*
X86827365Y-30519999D01*
X86827365Y-30519999D02*
X86827365Y-30074285D01*
D11*
X80130952Y-42727149D02*
X80130952Y-42227149D01*
X80130952Y-42227149D02*
X80250000Y-42227149D01*
X80250000Y-42227149D02*
X80321428Y-42250959D01*
X80321428Y-42250959D02*
X80369047Y-42298578D01*
X80369047Y-42298578D02*
X80392857Y-42346197D01*
X80392857Y-42346197D02*
X80416666Y-42441435D01*
X80416666Y-42441435D02*
X80416666Y-42512863D01*
X80416666Y-42512863D02*
X80392857Y-42608101D01*
X80392857Y-42608101D02*
X80369047Y-42655720D01*
X80369047Y-42655720D02*
X80321428Y-42703340D01*
X80321428Y-42703340D02*
X80250000Y-42727149D01*
X80250000Y-42727149D02*
X80130952Y-42727149D01*
X80654762Y-42727149D02*
X80750000Y-42727149D01*
X80750000Y-42727149D02*
X80797619Y-42703340D01*
X80797619Y-42703340D02*
X80821428Y-42679530D01*
X80821428Y-42679530D02*
X80869047Y-42608101D01*
X80869047Y-42608101D02*
X80892857Y-42512863D01*
X80892857Y-42512863D02*
X80892857Y-42322387D01*
X80892857Y-42322387D02*
X80869047Y-42274768D01*
X80869047Y-42274768D02*
X80845238Y-42250959D01*
X80845238Y-42250959D02*
X80797619Y-42227149D01*
X80797619Y-42227149D02*
X80702381Y-42227149D01*
X80702381Y-42227149D02*
X80654762Y-42250959D01*
X80654762Y-42250959D02*
X80630952Y-42274768D01*
X80630952Y-42274768D02*
X80607143Y-42322387D01*
X80607143Y-42322387D02*
X80607143Y-42441435D01*
X80607143Y-42441435D02*
X80630952Y-42489054D01*
X80630952Y-42489054D02*
X80654762Y-42512863D01*
X80654762Y-42512863D02*
X80702381Y-42536673D01*
X80702381Y-42536673D02*
X80797619Y-42536673D01*
X80797619Y-42536673D02*
X80845238Y-42512863D01*
X80845238Y-42512863D02*
X80869047Y-42489054D01*
X80869047Y-42489054D02*
X80892857Y-42441435D01*
D13*
X86895937Y-21411428D02*
X86861651Y-21479999D01*
X86861651Y-21479999D02*
X86793080Y-21548571D01*
X86793080Y-21548571D02*
X86690222Y-21651428D01*
X86690222Y-21651428D02*
X86655937Y-21719999D01*
X86655937Y-21719999D02*
X86655937Y-21788571D01*
X86827365Y-21754285D02*
X86793080Y-21822857D01*
X86793080Y-21822857D02*
X86724508Y-21891428D01*
X86724508Y-21891428D02*
X86587365Y-21925714D01*
X86587365Y-21925714D02*
X86347365Y-21925714D01*
X86347365Y-21925714D02*
X86210222Y-21891428D01*
X86210222Y-21891428D02*
X86141651Y-21822857D01*
X86141651Y-21822857D02*
X86107365Y-21754285D01*
X86107365Y-21754285D02*
X86107365Y-21617142D01*
X86107365Y-21617142D02*
X86141651Y-21548571D01*
X86141651Y-21548571D02*
X86210222Y-21479999D01*
X86210222Y-21479999D02*
X86347365Y-21445714D01*
X86347365Y-21445714D02*
X86587365Y-21445714D01*
X86587365Y-21445714D02*
X86724508Y-21479999D01*
X86724508Y-21479999D02*
X86793080Y-21548571D01*
X86793080Y-21548571D02*
X86827365Y-21617142D01*
X86827365Y-21617142D02*
X86827365Y-21754285D01*
X86827365Y-20759999D02*
X86827365Y-21171428D01*
X86827365Y-20965713D02*
X86107365Y-20965713D01*
X86107365Y-20965713D02*
X86210222Y-21034285D01*
X86210222Y-21034285D02*
X86278794Y-21102856D01*
X86278794Y-21102856D02*
X86313080Y-21171428D01*
X86107365Y-20314285D02*
X86107365Y-20245714D01*
X86107365Y-20245714D02*
X86141651Y-20177142D01*
X86141651Y-20177142D02*
X86175937Y-20142857D01*
X86175937Y-20142857D02*
X86244508Y-20108571D01*
X86244508Y-20108571D02*
X86381651Y-20074285D01*
X86381651Y-20074285D02*
X86553080Y-20074285D01*
X86553080Y-20074285D02*
X86690222Y-20108571D01*
X86690222Y-20108571D02*
X86758794Y-20142857D01*
X86758794Y-20142857D02*
X86793080Y-20177142D01*
X86793080Y-20177142D02*
X86827365Y-20245714D01*
X86827365Y-20245714D02*
X86827365Y-20314285D01*
X86827365Y-20314285D02*
X86793080Y-20382857D01*
X86793080Y-20382857D02*
X86758794Y-20417142D01*
X86758794Y-20417142D02*
X86690222Y-20451428D01*
X86690222Y-20451428D02*
X86553080Y-20485714D01*
X86553080Y-20485714D02*
X86381651Y-20485714D01*
X86381651Y-20485714D02*
X86244508Y-20451428D01*
X86244508Y-20451428D02*
X86175937Y-20417142D01*
X86175937Y-20417142D02*
X86141651Y-20382857D01*
X86141651Y-20382857D02*
X86107365Y-20314285D01*
D10*
X105654819Y-27238094D02*
X104654819Y-27238094D01*
X104654819Y-27238094D02*
X104654819Y-26857142D01*
X104654819Y-26857142D02*
X104702438Y-26761904D01*
X104702438Y-26761904D02*
X104750057Y-26714285D01*
X104750057Y-26714285D02*
X104845295Y-26666666D01*
X104845295Y-26666666D02*
X104988152Y-26666666D01*
X104988152Y-26666666D02*
X105083390Y-26714285D01*
X105083390Y-26714285D02*
X105131009Y-26761904D01*
X105131009Y-26761904D02*
X105178628Y-26857142D01*
X105178628Y-26857142D02*
X105178628Y-27238094D01*
X104654819Y-26333332D02*
X104654819Y-25714285D01*
X104654819Y-25714285D02*
X105035771Y-26047618D01*
X105035771Y-26047618D02*
X105035771Y-25904761D01*
X105035771Y-25904761D02*
X105083390Y-25809523D01*
X105083390Y-25809523D02*
X105131009Y-25761904D01*
X105131009Y-25761904D02*
X105226247Y-25714285D01*
X105226247Y-25714285D02*
X105464342Y-25714285D01*
X105464342Y-25714285D02*
X105559580Y-25761904D01*
X105559580Y-25761904D02*
X105607200Y-25809523D01*
X105607200Y-25809523D02*
X105654819Y-25904761D01*
X105654819Y-25904761D02*
X105654819Y-26190475D01*
X105654819Y-26190475D02*
X105607200Y-26285713D01*
X105607200Y-26285713D02*
X105559580Y-26333332D01*
D13*
X79395937Y-38568571D02*
X79361651Y-38637142D01*
X79361651Y-38637142D02*
X79293080Y-38705714D01*
X79293080Y-38705714D02*
X79190222Y-38808571D01*
X79190222Y-38808571D02*
X79155937Y-38877142D01*
X79155937Y-38877142D02*
X79155937Y-38945714D01*
X79327365Y-38911428D02*
X79293080Y-38980000D01*
X79293080Y-38980000D02*
X79224508Y-39048571D01*
X79224508Y-39048571D02*
X79087365Y-39082857D01*
X79087365Y-39082857D02*
X78847365Y-39082857D01*
X78847365Y-39082857D02*
X78710222Y-39048571D01*
X78710222Y-39048571D02*
X78641651Y-38980000D01*
X78641651Y-38980000D02*
X78607365Y-38911428D01*
X78607365Y-38911428D02*
X78607365Y-38774285D01*
X78607365Y-38774285D02*
X78641651Y-38705714D01*
X78641651Y-38705714D02*
X78710222Y-38637142D01*
X78710222Y-38637142D02*
X78847365Y-38602857D01*
X78847365Y-38602857D02*
X79087365Y-38602857D01*
X79087365Y-38602857D02*
X79224508Y-38637142D01*
X79224508Y-38637142D02*
X79293080Y-38705714D01*
X79293080Y-38705714D02*
X79327365Y-38774285D01*
X79327365Y-38774285D02*
X79327365Y-38911428D01*
X78915937Y-38191428D02*
X78881651Y-38259999D01*
X78881651Y-38259999D02*
X78847365Y-38294285D01*
X78847365Y-38294285D02*
X78778794Y-38328571D01*
X78778794Y-38328571D02*
X78744508Y-38328571D01*
X78744508Y-38328571D02*
X78675937Y-38294285D01*
X78675937Y-38294285D02*
X78641651Y-38259999D01*
X78641651Y-38259999D02*
X78607365Y-38191428D01*
X78607365Y-38191428D02*
X78607365Y-38054285D01*
X78607365Y-38054285D02*
X78641651Y-37985714D01*
X78641651Y-37985714D02*
X78675937Y-37951428D01*
X78675937Y-37951428D02*
X78744508Y-37917142D01*
X78744508Y-37917142D02*
X78778794Y-37917142D01*
X78778794Y-37917142D02*
X78847365Y-37951428D01*
X78847365Y-37951428D02*
X78881651Y-37985714D01*
X78881651Y-37985714D02*
X78915937Y-38054285D01*
X78915937Y-38054285D02*
X78915937Y-38191428D01*
X78915937Y-38191428D02*
X78950222Y-38259999D01*
X78950222Y-38259999D02*
X78984508Y-38294285D01*
X78984508Y-38294285D02*
X79053080Y-38328571D01*
X79053080Y-38328571D02*
X79190222Y-38328571D01*
X79190222Y-38328571D02*
X79258794Y-38294285D01*
X79258794Y-38294285D02*
X79293080Y-38259999D01*
X79293080Y-38259999D02*
X79327365Y-38191428D01*
X79327365Y-38191428D02*
X79327365Y-38054285D01*
X79327365Y-38054285D02*
X79293080Y-37985714D01*
X79293080Y-37985714D02*
X79258794Y-37951428D01*
X79258794Y-37951428D02*
X79190222Y-37917142D01*
X79190222Y-37917142D02*
X79053080Y-37917142D01*
X79053080Y-37917142D02*
X78984508Y-37951428D01*
X78984508Y-37951428D02*
X78950222Y-37985714D01*
X78950222Y-37985714D02*
X78915937Y-38054285D01*
D11*
X86178571Y-42727149D02*
X86011905Y-42489054D01*
X85892857Y-42727149D02*
X85892857Y-42227149D01*
X85892857Y-42227149D02*
X86083333Y-42227149D01*
X86083333Y-42227149D02*
X86130952Y-42250959D01*
X86130952Y-42250959D02*
X86154762Y-42274768D01*
X86154762Y-42274768D02*
X86178571Y-42322387D01*
X86178571Y-42322387D02*
X86178571Y-42393816D01*
X86178571Y-42393816D02*
X86154762Y-42441435D01*
X86154762Y-42441435D02*
X86130952Y-42465244D01*
X86130952Y-42465244D02*
X86083333Y-42489054D01*
X86083333Y-42489054D02*
X85892857Y-42489054D01*
X86345238Y-42227149D02*
X86654762Y-42227149D01*
X86654762Y-42227149D02*
X86488095Y-42417625D01*
X86488095Y-42417625D02*
X86559524Y-42417625D01*
X86559524Y-42417625D02*
X86607143Y-42441435D01*
X86607143Y-42441435D02*
X86630952Y-42465244D01*
X86630952Y-42465244D02*
X86654762Y-42512863D01*
X86654762Y-42512863D02*
X86654762Y-42631911D01*
X86654762Y-42631911D02*
X86630952Y-42679530D01*
X86630952Y-42679530D02*
X86607143Y-42703340D01*
X86607143Y-42703340D02*
X86559524Y-42727149D01*
X86559524Y-42727149D02*
X86416667Y-42727149D01*
X86416667Y-42727149D02*
X86369048Y-42703340D01*
X86369048Y-42703340D02*
X86345238Y-42679530D01*
X86821428Y-42227149D02*
X87154761Y-42227149D01*
X87154761Y-42227149D02*
X86940476Y-42727149D01*
X30178571Y-12827149D02*
X30011905Y-12589054D01*
X29892857Y-12827149D02*
X29892857Y-12327149D01*
X29892857Y-12327149D02*
X30083333Y-12327149D01*
X30083333Y-12327149D02*
X30130952Y-12350959D01*
X30130952Y-12350959D02*
X30154762Y-12374768D01*
X30154762Y-12374768D02*
X30178571Y-12422387D01*
X30178571Y-12422387D02*
X30178571Y-12493816D01*
X30178571Y-12493816D02*
X30154762Y-12541435D01*
X30154762Y-12541435D02*
X30130952Y-12565244D01*
X30130952Y-12565244D02*
X30083333Y-12589054D01*
X30083333Y-12589054D02*
X29892857Y-12589054D01*
X30345238Y-12327149D02*
X30654762Y-12327149D01*
X30654762Y-12327149D02*
X30488095Y-12517625D01*
X30488095Y-12517625D02*
X30559524Y-12517625D01*
X30559524Y-12517625D02*
X30607143Y-12541435D01*
X30607143Y-12541435D02*
X30630952Y-12565244D01*
X30630952Y-12565244D02*
X30654762Y-12612863D01*
X30654762Y-12612863D02*
X30654762Y-12731911D01*
X30654762Y-12731911D02*
X30630952Y-12779530D01*
X30630952Y-12779530D02*
X30607143Y-12803340D01*
X30607143Y-12803340D02*
X30559524Y-12827149D01*
X30559524Y-12827149D02*
X30416667Y-12827149D01*
X30416667Y-12827149D02*
X30369048Y-12803340D01*
X30369048Y-12803340D02*
X30345238Y-12779530D01*
X30964285Y-12327149D02*
X31011904Y-12327149D01*
X31011904Y-12327149D02*
X31059523Y-12350959D01*
X31059523Y-12350959D02*
X31083333Y-12374768D01*
X31083333Y-12374768D02*
X31107142Y-12422387D01*
X31107142Y-12422387D02*
X31130952Y-12517625D01*
X31130952Y-12517625D02*
X31130952Y-12636673D01*
X31130952Y-12636673D02*
X31107142Y-12731911D01*
X31107142Y-12731911D02*
X31083333Y-12779530D01*
X31083333Y-12779530D02*
X31059523Y-12803340D01*
X31059523Y-12803340D02*
X31011904Y-12827149D01*
X31011904Y-12827149D02*
X30964285Y-12827149D01*
X30964285Y-12827149D02*
X30916666Y-12803340D01*
X30916666Y-12803340D02*
X30892857Y-12779530D01*
X30892857Y-12779530D02*
X30869047Y-12731911D01*
X30869047Y-12731911D02*
X30845238Y-12636673D01*
X30845238Y-12636673D02*
X30845238Y-12517625D01*
X30845238Y-12517625D02*
X30869047Y-12422387D01*
X30869047Y-12422387D02*
X30892857Y-12374768D01*
X30892857Y-12374768D02*
X30916666Y-12350959D01*
X30916666Y-12350959D02*
X30964285Y-12327149D01*
D13*
X64395937Y-38568571D02*
X64361651Y-38637142D01*
X64361651Y-38637142D02*
X64293080Y-38705714D01*
X64293080Y-38705714D02*
X64190222Y-38808571D01*
X64190222Y-38808571D02*
X64155937Y-38877142D01*
X64155937Y-38877142D02*
X64155937Y-38945714D01*
X64327365Y-38911428D02*
X64293080Y-38980000D01*
X64293080Y-38980000D02*
X64224508Y-39048571D01*
X64224508Y-39048571D02*
X64087365Y-39082857D01*
X64087365Y-39082857D02*
X63847365Y-39082857D01*
X63847365Y-39082857D02*
X63710222Y-39048571D01*
X63710222Y-39048571D02*
X63641651Y-38980000D01*
X63641651Y-38980000D02*
X63607365Y-38911428D01*
X63607365Y-38911428D02*
X63607365Y-38774285D01*
X63607365Y-38774285D02*
X63641651Y-38705714D01*
X63641651Y-38705714D02*
X63710222Y-38637142D01*
X63710222Y-38637142D02*
X63847365Y-38602857D01*
X63847365Y-38602857D02*
X64087365Y-38602857D01*
X64087365Y-38602857D02*
X64224508Y-38637142D01*
X64224508Y-38637142D02*
X64293080Y-38705714D01*
X64293080Y-38705714D02*
X64327365Y-38774285D01*
X64327365Y-38774285D02*
X64327365Y-38911428D01*
X63607365Y-38362856D02*
X63607365Y-37882856D01*
X63607365Y-37882856D02*
X64327365Y-38191428D01*
D14*
X88966666Y-8618633D02*
X88966666Y-9185300D01*
X88966666Y-9185300D02*
X89000000Y-9251966D01*
X89000000Y-9251966D02*
X89033333Y-9285300D01*
X89033333Y-9285300D02*
X89100000Y-9318633D01*
X89100000Y-9318633D02*
X89233333Y-9318633D01*
X89233333Y-9318633D02*
X89300000Y-9285300D01*
X89300000Y-9285300D02*
X89333333Y-9251966D01*
X89333333Y-9251966D02*
X89366666Y-9185300D01*
X89366666Y-9185300D02*
X89366666Y-8618633D01*
X90066666Y-9318633D02*
X89666666Y-9318633D01*
X89866666Y-9318633D02*
X89866666Y-8618633D01*
X89866666Y-8618633D02*
X89799999Y-8718633D01*
X89799999Y-8718633D02*
X89733333Y-8785300D01*
X89733333Y-8785300D02*
X89666666Y-8818633D01*
D10*
X28761905Y-35154819D02*
X28761905Y-34154819D01*
X28761905Y-34154819D02*
X29000000Y-34154819D01*
X29000000Y-34154819D02*
X29142857Y-34202438D01*
X29142857Y-34202438D02*
X29238095Y-34297676D01*
X29238095Y-34297676D02*
X29285714Y-34392914D01*
X29285714Y-34392914D02*
X29333333Y-34583390D01*
X29333333Y-34583390D02*
X29333333Y-34726247D01*
X29333333Y-34726247D02*
X29285714Y-34916723D01*
X29285714Y-34916723D02*
X29238095Y-35011961D01*
X29238095Y-35011961D02*
X29142857Y-35107200D01*
X29142857Y-35107200D02*
X29000000Y-35154819D01*
X29000000Y-35154819D02*
X28761905Y-35154819D01*
X30190476Y-34488152D02*
X30190476Y-35154819D01*
X29952381Y-34107200D02*
X29714286Y-34821485D01*
X29714286Y-34821485D02*
X30333333Y-34821485D01*
D11*
X75678571Y-32479529D02*
X75654762Y-32503339D01*
X75654762Y-32503339D02*
X75583333Y-32527148D01*
X75583333Y-32527148D02*
X75535714Y-32527148D01*
X75535714Y-32527148D02*
X75464286Y-32503339D01*
X75464286Y-32503339D02*
X75416667Y-32455719D01*
X75416667Y-32455719D02*
X75392857Y-32408100D01*
X75392857Y-32408100D02*
X75369048Y-32312862D01*
X75369048Y-32312862D02*
X75369048Y-32241434D01*
X75369048Y-32241434D02*
X75392857Y-32146196D01*
X75392857Y-32146196D02*
X75416667Y-32098577D01*
X75416667Y-32098577D02*
X75464286Y-32050958D01*
X75464286Y-32050958D02*
X75535714Y-32027148D01*
X75535714Y-32027148D02*
X75583333Y-32027148D01*
X75583333Y-32027148D02*
X75654762Y-32050958D01*
X75654762Y-32050958D02*
X75678571Y-32074767D01*
X76154762Y-32527148D02*
X75869048Y-32527148D01*
X76011905Y-32527148D02*
X76011905Y-32027148D01*
X76011905Y-32027148D02*
X75964286Y-32098577D01*
X75964286Y-32098577D02*
X75916667Y-32146196D01*
X75916667Y-32146196D02*
X75869048Y-32170005D01*
X76440476Y-32241434D02*
X76392857Y-32217624D01*
X76392857Y-32217624D02*
X76369047Y-32193815D01*
X76369047Y-32193815D02*
X76345238Y-32146196D01*
X76345238Y-32146196D02*
X76345238Y-32122386D01*
X76345238Y-32122386D02*
X76369047Y-32074767D01*
X76369047Y-32074767D02*
X76392857Y-32050958D01*
X76392857Y-32050958D02*
X76440476Y-32027148D01*
X76440476Y-32027148D02*
X76535714Y-32027148D01*
X76535714Y-32027148D02*
X76583333Y-32050958D01*
X76583333Y-32050958D02*
X76607142Y-32074767D01*
X76607142Y-32074767D02*
X76630952Y-32122386D01*
X76630952Y-32122386D02*
X76630952Y-32146196D01*
X76630952Y-32146196D02*
X76607142Y-32193815D01*
X76607142Y-32193815D02*
X76583333Y-32217624D01*
X76583333Y-32217624D02*
X76535714Y-32241434D01*
X76535714Y-32241434D02*
X76440476Y-32241434D01*
X76440476Y-32241434D02*
X76392857Y-32265243D01*
X76392857Y-32265243D02*
X76369047Y-32289053D01*
X76369047Y-32289053D02*
X76345238Y-32336672D01*
X76345238Y-32336672D02*
X76345238Y-32431910D01*
X76345238Y-32431910D02*
X76369047Y-32479529D01*
X76369047Y-32479529D02*
X76392857Y-32503339D01*
X76392857Y-32503339D02*
X76440476Y-32527148D01*
X76440476Y-32527148D02*
X76535714Y-32527148D01*
X76535714Y-32527148D02*
X76583333Y-32503339D01*
X76583333Y-32503339D02*
X76607142Y-32479529D01*
X76607142Y-32479529D02*
X76630952Y-32431910D01*
X76630952Y-32431910D02*
X76630952Y-32336672D01*
X76630952Y-32336672D02*
X76607142Y-32289053D01*
X76607142Y-32289053D02*
X76583333Y-32265243D01*
X76583333Y-32265243D02*
X76535714Y-32241434D01*
X54678571Y-30927149D02*
X54511905Y-30689054D01*
X54392857Y-30927149D02*
X54392857Y-30427149D01*
X54392857Y-30427149D02*
X54583333Y-30427149D01*
X54583333Y-30427149D02*
X54630952Y-30450959D01*
X54630952Y-30450959D02*
X54654762Y-30474768D01*
X54654762Y-30474768D02*
X54678571Y-30522387D01*
X54678571Y-30522387D02*
X54678571Y-30593816D01*
X54678571Y-30593816D02*
X54654762Y-30641435D01*
X54654762Y-30641435D02*
X54630952Y-30665244D01*
X54630952Y-30665244D02*
X54583333Y-30689054D01*
X54583333Y-30689054D02*
X54392857Y-30689054D01*
X54869048Y-30474768D02*
X54892857Y-30450959D01*
X54892857Y-30450959D02*
X54940476Y-30427149D01*
X54940476Y-30427149D02*
X55059524Y-30427149D01*
X55059524Y-30427149D02*
X55107143Y-30450959D01*
X55107143Y-30450959D02*
X55130952Y-30474768D01*
X55130952Y-30474768D02*
X55154762Y-30522387D01*
X55154762Y-30522387D02*
X55154762Y-30570006D01*
X55154762Y-30570006D02*
X55130952Y-30641435D01*
X55130952Y-30641435D02*
X54845238Y-30927149D01*
X54845238Y-30927149D02*
X55154762Y-30927149D01*
X55630952Y-30927149D02*
X55345238Y-30927149D01*
X55488095Y-30927149D02*
X55488095Y-30427149D01*
X55488095Y-30427149D02*
X55440476Y-30498578D01*
X55440476Y-30498578D02*
X55392857Y-30546197D01*
X55392857Y-30546197D02*
X55345238Y-30570006D01*
D10*
X4761905Y-23654819D02*
X4761905Y-22654819D01*
X4761905Y-22654819D02*
X5142857Y-22654819D01*
X5142857Y-22654819D02*
X5238095Y-22702438D01*
X5238095Y-22702438D02*
X5285714Y-22750057D01*
X5285714Y-22750057D02*
X5333333Y-22845295D01*
X5333333Y-22845295D02*
X5333333Y-22988152D01*
X5333333Y-22988152D02*
X5285714Y-23083390D01*
X5285714Y-23083390D02*
X5238095Y-23131009D01*
X5238095Y-23131009D02*
X5142857Y-23178628D01*
X5142857Y-23178628D02*
X4761905Y-23178628D01*
X5714286Y-22750057D02*
X5761905Y-22702438D01*
X5761905Y-22702438D02*
X5857143Y-22654819D01*
X5857143Y-22654819D02*
X6095238Y-22654819D01*
X6095238Y-22654819D02*
X6190476Y-22702438D01*
X6190476Y-22702438D02*
X6238095Y-22750057D01*
X6238095Y-22750057D02*
X6285714Y-22845295D01*
X6285714Y-22845295D02*
X6285714Y-22940533D01*
X6285714Y-22940533D02*
X6238095Y-23083390D01*
X6238095Y-23083390D02*
X5666667Y-23654819D01*
X5666667Y-23654819D02*
X6285714Y-23654819D01*
D11*
X75678571Y-29727149D02*
X75511905Y-29489054D01*
X75392857Y-29727149D02*
X75392857Y-29227149D01*
X75392857Y-29227149D02*
X75583333Y-29227149D01*
X75583333Y-29227149D02*
X75630952Y-29250959D01*
X75630952Y-29250959D02*
X75654762Y-29274768D01*
X75654762Y-29274768D02*
X75678571Y-29322387D01*
X75678571Y-29322387D02*
X75678571Y-29393816D01*
X75678571Y-29393816D02*
X75654762Y-29441435D01*
X75654762Y-29441435D02*
X75630952Y-29465244D01*
X75630952Y-29465244D02*
X75583333Y-29489054D01*
X75583333Y-29489054D02*
X75392857Y-29489054D01*
X75869048Y-29274768D02*
X75892857Y-29250959D01*
X75892857Y-29250959D02*
X75940476Y-29227149D01*
X75940476Y-29227149D02*
X76059524Y-29227149D01*
X76059524Y-29227149D02*
X76107143Y-29250959D01*
X76107143Y-29250959D02*
X76130952Y-29274768D01*
X76130952Y-29274768D02*
X76154762Y-29322387D01*
X76154762Y-29322387D02*
X76154762Y-29370006D01*
X76154762Y-29370006D02*
X76130952Y-29441435D01*
X76130952Y-29441435D02*
X75845238Y-29727149D01*
X75845238Y-29727149D02*
X76154762Y-29727149D01*
X76392857Y-29727149D02*
X76488095Y-29727149D01*
X76488095Y-29727149D02*
X76535714Y-29703340D01*
X76535714Y-29703340D02*
X76559523Y-29679530D01*
X76559523Y-29679530D02*
X76607142Y-29608101D01*
X76607142Y-29608101D02*
X76630952Y-29512863D01*
X76630952Y-29512863D02*
X76630952Y-29322387D01*
X76630952Y-29322387D02*
X76607142Y-29274768D01*
X76607142Y-29274768D02*
X76583333Y-29250959D01*
X76583333Y-29250959D02*
X76535714Y-29227149D01*
X76535714Y-29227149D02*
X76440476Y-29227149D01*
X76440476Y-29227149D02*
X76392857Y-29250959D01*
X76392857Y-29250959D02*
X76369047Y-29274768D01*
X76369047Y-29274768D02*
X76345238Y-29322387D01*
X76345238Y-29322387D02*
X76345238Y-29441435D01*
X76345238Y-29441435D02*
X76369047Y-29489054D01*
X76369047Y-29489054D02*
X76392857Y-29512863D01*
X76392857Y-29512863D02*
X76440476Y-29536673D01*
X76440476Y-29536673D02*
X76535714Y-29536673D01*
X76535714Y-29536673D02*
X76583333Y-29512863D01*
X76583333Y-29512863D02*
X76607142Y-29489054D01*
X76607142Y-29489054D02*
X76630952Y-29441435D01*
X29178571Y-39727149D02*
X29011905Y-39489054D01*
X28892857Y-39727149D02*
X28892857Y-39227149D01*
X28892857Y-39227149D02*
X29083333Y-39227149D01*
X29083333Y-39227149D02*
X29130952Y-39250959D01*
X29130952Y-39250959D02*
X29154762Y-39274768D01*
X29154762Y-39274768D02*
X29178571Y-39322387D01*
X29178571Y-39322387D02*
X29178571Y-39393816D01*
X29178571Y-39393816D02*
X29154762Y-39441435D01*
X29154762Y-39441435D02*
X29130952Y-39465244D01*
X29130952Y-39465244D02*
X29083333Y-39489054D01*
X29083333Y-39489054D02*
X28892857Y-39489054D01*
X29369048Y-39274768D02*
X29392857Y-39250959D01*
X29392857Y-39250959D02*
X29440476Y-39227149D01*
X29440476Y-39227149D02*
X29559524Y-39227149D01*
X29559524Y-39227149D02*
X29607143Y-39250959D01*
X29607143Y-39250959D02*
X29630952Y-39274768D01*
X29630952Y-39274768D02*
X29654762Y-39322387D01*
X29654762Y-39322387D02*
X29654762Y-39370006D01*
X29654762Y-39370006D02*
X29630952Y-39441435D01*
X29630952Y-39441435D02*
X29345238Y-39727149D01*
X29345238Y-39727149D02*
X29654762Y-39727149D01*
X29821428Y-39227149D02*
X30154761Y-39227149D01*
X30154761Y-39227149D02*
X29940476Y-39727149D01*
X84116666Y-13827149D02*
X83950000Y-13589054D01*
X83830952Y-13827149D02*
X83830952Y-13327149D01*
X83830952Y-13327149D02*
X84021428Y-13327149D01*
X84021428Y-13327149D02*
X84069047Y-13350959D01*
X84069047Y-13350959D02*
X84092857Y-13374768D01*
X84092857Y-13374768D02*
X84116666Y-13422387D01*
X84116666Y-13422387D02*
X84116666Y-13493816D01*
X84116666Y-13493816D02*
X84092857Y-13541435D01*
X84092857Y-13541435D02*
X84069047Y-13565244D01*
X84069047Y-13565244D02*
X84021428Y-13589054D01*
X84021428Y-13589054D02*
X83830952Y-13589054D01*
X84283333Y-13327149D02*
X84592857Y-13327149D01*
X84592857Y-13327149D02*
X84426190Y-13517625D01*
X84426190Y-13517625D02*
X84497619Y-13517625D01*
X84497619Y-13517625D02*
X84545238Y-13541435D01*
X84545238Y-13541435D02*
X84569047Y-13565244D01*
X84569047Y-13565244D02*
X84592857Y-13612863D01*
X84592857Y-13612863D02*
X84592857Y-13731911D01*
X84592857Y-13731911D02*
X84569047Y-13779530D01*
X84569047Y-13779530D02*
X84545238Y-13803340D01*
X84545238Y-13803340D02*
X84497619Y-13827149D01*
X84497619Y-13827149D02*
X84354762Y-13827149D01*
X84354762Y-13827149D02*
X84307143Y-13803340D01*
X84307143Y-13803340D02*
X84283333Y-13779530D01*
X34678571Y-36479530D02*
X34654762Y-36503340D01*
X34654762Y-36503340D02*
X34583333Y-36527149D01*
X34583333Y-36527149D02*
X34535714Y-36527149D01*
X34535714Y-36527149D02*
X34464286Y-36503340D01*
X34464286Y-36503340D02*
X34416667Y-36455720D01*
X34416667Y-36455720D02*
X34392857Y-36408101D01*
X34392857Y-36408101D02*
X34369048Y-36312863D01*
X34369048Y-36312863D02*
X34369048Y-36241435D01*
X34369048Y-36241435D02*
X34392857Y-36146197D01*
X34392857Y-36146197D02*
X34416667Y-36098578D01*
X34416667Y-36098578D02*
X34464286Y-36050959D01*
X34464286Y-36050959D02*
X34535714Y-36027149D01*
X34535714Y-36027149D02*
X34583333Y-36027149D01*
X34583333Y-36027149D02*
X34654762Y-36050959D01*
X34654762Y-36050959D02*
X34678571Y-36074768D01*
X35154762Y-36527149D02*
X34869048Y-36527149D01*
X35011905Y-36527149D02*
X35011905Y-36027149D01*
X35011905Y-36027149D02*
X34964286Y-36098578D01*
X34964286Y-36098578D02*
X34916667Y-36146197D01*
X34916667Y-36146197D02*
X34869048Y-36170006D01*
X35464285Y-36027149D02*
X35511904Y-36027149D01*
X35511904Y-36027149D02*
X35559523Y-36050959D01*
X35559523Y-36050959D02*
X35583333Y-36074768D01*
X35583333Y-36074768D02*
X35607142Y-36122387D01*
X35607142Y-36122387D02*
X35630952Y-36217625D01*
X35630952Y-36217625D02*
X35630952Y-36336673D01*
X35630952Y-36336673D02*
X35607142Y-36431911D01*
X35607142Y-36431911D02*
X35583333Y-36479530D01*
X35583333Y-36479530D02*
X35559523Y-36503340D01*
X35559523Y-36503340D02*
X35511904Y-36527149D01*
X35511904Y-36527149D02*
X35464285Y-36527149D01*
X35464285Y-36527149D02*
X35416666Y-36503340D01*
X35416666Y-36503340D02*
X35392857Y-36479530D01*
X35392857Y-36479530D02*
X35369047Y-36431911D01*
X35369047Y-36431911D02*
X35345238Y-36336673D01*
X35345238Y-36336673D02*
X35345238Y-36217625D01*
X35345238Y-36217625D02*
X35369047Y-36122387D01*
X35369047Y-36122387D02*
X35392857Y-36074768D01*
X35392857Y-36074768D02*
X35416666Y-36050959D01*
X35416666Y-36050959D02*
X35464285Y-36027149D01*
D12*
X26940045Y-7076190D02*
X26901950Y-7152380D01*
X26901950Y-7152380D02*
X26825760Y-7228571D01*
X26825760Y-7228571D02*
X26711474Y-7342857D01*
X26711474Y-7342857D02*
X26673379Y-7419047D01*
X26673379Y-7419047D02*
X26673379Y-7495238D01*
X26863855Y-7457142D02*
X26825760Y-7533333D01*
X26825760Y-7533333D02*
X26749569Y-7609523D01*
X26749569Y-7609523D02*
X26597188Y-7647619D01*
X26597188Y-7647619D02*
X26330521Y-7647619D01*
X26330521Y-7647619D02*
X26178140Y-7609523D01*
X26178140Y-7609523D02*
X26101950Y-7533333D01*
X26101950Y-7533333D02*
X26063855Y-7457142D01*
X26063855Y-7457142D02*
X26063855Y-7304761D01*
X26063855Y-7304761D02*
X26101950Y-7228571D01*
X26101950Y-7228571D02*
X26178140Y-7152380D01*
X26178140Y-7152380D02*
X26330521Y-7114285D01*
X26330521Y-7114285D02*
X26597188Y-7114285D01*
X26597188Y-7114285D02*
X26749569Y-7152380D01*
X26749569Y-7152380D02*
X26825760Y-7228571D01*
X26825760Y-7228571D02*
X26863855Y-7304761D01*
X26863855Y-7304761D02*
X26863855Y-7457142D01*
X26863855Y-6352381D02*
X26863855Y-6809524D01*
X26863855Y-6580952D02*
X26063855Y-6580952D01*
X26063855Y-6580952D02*
X26178140Y-6657143D01*
X26178140Y-6657143D02*
X26254331Y-6733333D01*
X26254331Y-6733333D02*
X26292426Y-6809524D01*
D10*
X92785714Y-24204819D02*
X92785714Y-23204819D01*
X92785714Y-23204819D02*
X93023809Y-23204819D01*
X93023809Y-23204819D02*
X93166666Y-23252438D01*
X93166666Y-23252438D02*
X93261904Y-23347676D01*
X93261904Y-23347676D02*
X93309523Y-23442914D01*
X93309523Y-23442914D02*
X93357142Y-23633390D01*
X93357142Y-23633390D02*
X93357142Y-23776247D01*
X93357142Y-23776247D02*
X93309523Y-23966723D01*
X93309523Y-23966723D02*
X93261904Y-24061961D01*
X93261904Y-24061961D02*
X93166666Y-24157200D01*
X93166666Y-24157200D02*
X93023809Y-24204819D01*
X93023809Y-24204819D02*
X92785714Y-24204819D01*
X94309523Y-24204819D02*
X93738095Y-24204819D01*
X94023809Y-24204819D02*
X94023809Y-23204819D01*
X94023809Y-23204819D02*
X93928571Y-23347676D01*
X93928571Y-23347676D02*
X93833333Y-23442914D01*
X93833333Y-23442914D02*
X93738095Y-23490533D01*
X95166666Y-23538152D02*
X95166666Y-24204819D01*
X94928571Y-23157200D02*
X94690476Y-23871485D01*
X94690476Y-23871485D02*
X95309523Y-23871485D01*
D11*
X54678571Y-39327149D02*
X54511905Y-39089054D01*
X54392857Y-39327149D02*
X54392857Y-38827149D01*
X54392857Y-38827149D02*
X54583333Y-38827149D01*
X54583333Y-38827149D02*
X54630952Y-38850959D01*
X54630952Y-38850959D02*
X54654762Y-38874768D01*
X54654762Y-38874768D02*
X54678571Y-38922387D01*
X54678571Y-38922387D02*
X54678571Y-38993816D01*
X54678571Y-38993816D02*
X54654762Y-39041435D01*
X54654762Y-39041435D02*
X54630952Y-39065244D01*
X54630952Y-39065244D02*
X54583333Y-39089054D01*
X54583333Y-39089054D02*
X54392857Y-39089054D01*
X54869048Y-38874768D02*
X54892857Y-38850959D01*
X54892857Y-38850959D02*
X54940476Y-38827149D01*
X54940476Y-38827149D02*
X55059524Y-38827149D01*
X55059524Y-38827149D02*
X55107143Y-38850959D01*
X55107143Y-38850959D02*
X55130952Y-38874768D01*
X55130952Y-38874768D02*
X55154762Y-38922387D01*
X55154762Y-38922387D02*
X55154762Y-38970006D01*
X55154762Y-38970006D02*
X55130952Y-39041435D01*
X55130952Y-39041435D02*
X54845238Y-39327149D01*
X54845238Y-39327149D02*
X55154762Y-39327149D01*
X55321428Y-38827149D02*
X55630952Y-38827149D01*
X55630952Y-38827149D02*
X55464285Y-39017625D01*
X55464285Y-39017625D02*
X55535714Y-39017625D01*
X55535714Y-39017625D02*
X55583333Y-39041435D01*
X55583333Y-39041435D02*
X55607142Y-39065244D01*
X55607142Y-39065244D02*
X55630952Y-39112863D01*
X55630952Y-39112863D02*
X55630952Y-39231911D01*
X55630952Y-39231911D02*
X55607142Y-39279530D01*
X55607142Y-39279530D02*
X55583333Y-39303340D01*
X55583333Y-39303340D02*
X55535714Y-39327149D01*
X55535714Y-39327149D02*
X55392857Y-39327149D01*
X55392857Y-39327149D02*
X55345238Y-39303340D01*
X55345238Y-39303340D02*
X55321428Y-39279530D01*
X12116666Y-22727149D02*
X11950000Y-22489054D01*
X11830952Y-22727149D02*
X11830952Y-22227149D01*
X11830952Y-22227149D02*
X12021428Y-22227149D01*
X12021428Y-22227149D02*
X12069047Y-22250959D01*
X12069047Y-22250959D02*
X12092857Y-22274768D01*
X12092857Y-22274768D02*
X12116666Y-22322387D01*
X12116666Y-22322387D02*
X12116666Y-22393816D01*
X12116666Y-22393816D02*
X12092857Y-22441435D01*
X12092857Y-22441435D02*
X12069047Y-22465244D01*
X12069047Y-22465244D02*
X12021428Y-22489054D01*
X12021428Y-22489054D02*
X11830952Y-22489054D01*
X12283333Y-22227149D02*
X12616666Y-22227149D01*
X12616666Y-22227149D02*
X12402381Y-22727149D01*
X54678571Y-33727149D02*
X54511905Y-33489054D01*
X54392857Y-33727149D02*
X54392857Y-33227149D01*
X54392857Y-33227149D02*
X54583333Y-33227149D01*
X54583333Y-33227149D02*
X54630952Y-33250959D01*
X54630952Y-33250959D02*
X54654762Y-33274768D01*
X54654762Y-33274768D02*
X54678571Y-33322387D01*
X54678571Y-33322387D02*
X54678571Y-33393816D01*
X54678571Y-33393816D02*
X54654762Y-33441435D01*
X54654762Y-33441435D02*
X54630952Y-33465244D01*
X54630952Y-33465244D02*
X54583333Y-33489054D01*
X54583333Y-33489054D02*
X54392857Y-33489054D01*
X54869048Y-33274768D02*
X54892857Y-33250959D01*
X54892857Y-33250959D02*
X54940476Y-33227149D01*
X54940476Y-33227149D02*
X55059524Y-33227149D01*
X55059524Y-33227149D02*
X55107143Y-33250959D01*
X55107143Y-33250959D02*
X55130952Y-33274768D01*
X55130952Y-33274768D02*
X55154762Y-33322387D01*
X55154762Y-33322387D02*
X55154762Y-33370006D01*
X55154762Y-33370006D02*
X55130952Y-33441435D01*
X55130952Y-33441435D02*
X54845238Y-33727149D01*
X54845238Y-33727149D02*
X55154762Y-33727149D01*
X55345238Y-33274768D02*
X55369047Y-33250959D01*
X55369047Y-33250959D02*
X55416666Y-33227149D01*
X55416666Y-33227149D02*
X55535714Y-33227149D01*
X55535714Y-33227149D02*
X55583333Y-33250959D01*
X55583333Y-33250959D02*
X55607142Y-33274768D01*
X55607142Y-33274768D02*
X55630952Y-33322387D01*
X55630952Y-33322387D02*
X55630952Y-33370006D01*
X55630952Y-33370006D02*
X55607142Y-33441435D01*
X55607142Y-33441435D02*
X55321428Y-33727149D01*
X55321428Y-33727149D02*
X55630952Y-33727149D01*
X39678571Y-24179530D02*
X39654762Y-24203340D01*
X39654762Y-24203340D02*
X39583333Y-24227149D01*
X39583333Y-24227149D02*
X39535714Y-24227149D01*
X39535714Y-24227149D02*
X39464286Y-24203340D01*
X39464286Y-24203340D02*
X39416667Y-24155720D01*
X39416667Y-24155720D02*
X39392857Y-24108101D01*
X39392857Y-24108101D02*
X39369048Y-24012863D01*
X39369048Y-24012863D02*
X39369048Y-23941435D01*
X39369048Y-23941435D02*
X39392857Y-23846197D01*
X39392857Y-23846197D02*
X39416667Y-23798578D01*
X39416667Y-23798578D02*
X39464286Y-23750959D01*
X39464286Y-23750959D02*
X39535714Y-23727149D01*
X39535714Y-23727149D02*
X39583333Y-23727149D01*
X39583333Y-23727149D02*
X39654762Y-23750959D01*
X39654762Y-23750959D02*
X39678571Y-23774768D01*
X40154762Y-24227149D02*
X39869048Y-24227149D01*
X40011905Y-24227149D02*
X40011905Y-23727149D01*
X40011905Y-23727149D02*
X39964286Y-23798578D01*
X39964286Y-23798578D02*
X39916667Y-23846197D01*
X39916667Y-23846197D02*
X39869048Y-23870006D01*
X40583333Y-23893816D02*
X40583333Y-24227149D01*
X40464285Y-23703340D02*
X40345238Y-24060482D01*
X40345238Y-24060482D02*
X40654761Y-24060482D01*
D12*
X60940045Y-7076190D02*
X60901950Y-7152380D01*
X60901950Y-7152380D02*
X60825760Y-7228571D01*
X60825760Y-7228571D02*
X60711474Y-7342857D01*
X60711474Y-7342857D02*
X60673379Y-7419047D01*
X60673379Y-7419047D02*
X60673379Y-7495238D01*
X60863855Y-7457142D02*
X60825760Y-7533333D01*
X60825760Y-7533333D02*
X60749569Y-7609523D01*
X60749569Y-7609523D02*
X60597188Y-7647619D01*
X60597188Y-7647619D02*
X60330521Y-7647619D01*
X60330521Y-7647619D02*
X60178140Y-7609523D01*
X60178140Y-7609523D02*
X60101950Y-7533333D01*
X60101950Y-7533333D02*
X60063855Y-7457142D01*
X60063855Y-7457142D02*
X60063855Y-7304761D01*
X60063855Y-7304761D02*
X60101950Y-7228571D01*
X60101950Y-7228571D02*
X60178140Y-7152380D01*
X60178140Y-7152380D02*
X60330521Y-7114285D01*
X60330521Y-7114285D02*
X60597188Y-7114285D01*
X60597188Y-7114285D02*
X60749569Y-7152380D01*
X60749569Y-7152380D02*
X60825760Y-7228571D01*
X60825760Y-7228571D02*
X60863855Y-7304761D01*
X60863855Y-7304761D02*
X60863855Y-7457142D01*
X60063855Y-6428571D02*
X60063855Y-6580952D01*
X60063855Y-6580952D02*
X60101950Y-6657143D01*
X60101950Y-6657143D02*
X60140045Y-6695238D01*
X60140045Y-6695238D02*
X60254331Y-6771428D01*
X60254331Y-6771428D02*
X60406712Y-6809524D01*
X60406712Y-6809524D02*
X60711474Y-6809524D01*
X60711474Y-6809524D02*
X60787664Y-6771428D01*
X60787664Y-6771428D02*
X60825760Y-6733333D01*
X60825760Y-6733333D02*
X60863855Y-6657143D01*
X60863855Y-6657143D02*
X60863855Y-6504762D01*
X60863855Y-6504762D02*
X60825760Y-6428571D01*
X60825760Y-6428571D02*
X60787664Y-6390476D01*
X60787664Y-6390476D02*
X60711474Y-6352381D01*
X60711474Y-6352381D02*
X60520998Y-6352381D01*
X60520998Y-6352381D02*
X60444807Y-6390476D01*
X60444807Y-6390476D02*
X60406712Y-6428571D01*
X60406712Y-6428571D02*
X60368617Y-6504762D01*
X60368617Y-6504762D02*
X60368617Y-6657143D01*
X60368617Y-6657143D02*
X60406712Y-6733333D01*
X60406712Y-6733333D02*
X60444807Y-6771428D01*
X60444807Y-6771428D02*
X60520998Y-6809524D01*
D11*
X100479530Y-10283333D02*
X100503340Y-10307142D01*
X100503340Y-10307142D02*
X100527149Y-10378571D01*
X100527149Y-10378571D02*
X100527149Y-10426190D01*
X100527149Y-10426190D02*
X100503340Y-10497618D01*
X100503340Y-10497618D02*
X100455720Y-10545237D01*
X100455720Y-10545237D02*
X100408101Y-10569047D01*
X100408101Y-10569047D02*
X100312863Y-10592856D01*
X100312863Y-10592856D02*
X100241435Y-10592856D01*
X100241435Y-10592856D02*
X100146197Y-10569047D01*
X100146197Y-10569047D02*
X100098578Y-10545237D01*
X100098578Y-10545237D02*
X100050959Y-10497618D01*
X100050959Y-10497618D02*
X100027149Y-10426190D01*
X100027149Y-10426190D02*
X100027149Y-10378571D01*
X100027149Y-10378571D02*
X100050959Y-10307142D01*
X100050959Y-10307142D02*
X100074768Y-10283333D01*
X100193816Y-9854761D02*
X100527149Y-9854761D01*
X100003340Y-9973809D02*
X100360482Y-10092856D01*
X100360482Y-10092856D02*
X100360482Y-9783333D01*
X29178571Y-30927149D02*
X29011905Y-30689054D01*
X28892857Y-30927149D02*
X28892857Y-30427149D01*
X28892857Y-30427149D02*
X29083333Y-30427149D01*
X29083333Y-30427149D02*
X29130952Y-30450959D01*
X29130952Y-30450959D02*
X29154762Y-30474768D01*
X29154762Y-30474768D02*
X29178571Y-30522387D01*
X29178571Y-30522387D02*
X29178571Y-30593816D01*
X29178571Y-30593816D02*
X29154762Y-30641435D01*
X29154762Y-30641435D02*
X29130952Y-30665244D01*
X29130952Y-30665244D02*
X29083333Y-30689054D01*
X29083333Y-30689054D02*
X28892857Y-30689054D01*
X29654762Y-30927149D02*
X29369048Y-30927149D01*
X29511905Y-30927149D02*
X29511905Y-30427149D01*
X29511905Y-30427149D02*
X29464286Y-30498578D01*
X29464286Y-30498578D02*
X29416667Y-30546197D01*
X29416667Y-30546197D02*
X29369048Y-30570006D01*
X29821428Y-30427149D02*
X30154761Y-30427149D01*
X30154761Y-30427149D02*
X29940476Y-30927149D01*
D12*
X79066667Y-8787664D02*
X79028571Y-8825760D01*
X79028571Y-8825760D02*
X78914286Y-8863855D01*
X78914286Y-8863855D02*
X78838095Y-8863855D01*
X78838095Y-8863855D02*
X78723809Y-8825760D01*
X78723809Y-8825760D02*
X78647619Y-8749569D01*
X78647619Y-8749569D02*
X78609524Y-8673379D01*
X78609524Y-8673379D02*
X78571428Y-8520998D01*
X78571428Y-8520998D02*
X78571428Y-8406712D01*
X78571428Y-8406712D02*
X78609524Y-8254331D01*
X78609524Y-8254331D02*
X78647619Y-8178140D01*
X78647619Y-8178140D02*
X78723809Y-8101950D01*
X78723809Y-8101950D02*
X78838095Y-8063855D01*
X78838095Y-8063855D02*
X78914286Y-8063855D01*
X78914286Y-8063855D02*
X79028571Y-8101950D01*
X79028571Y-8101950D02*
X79066667Y-8140045D01*
X79828571Y-8863855D02*
X79371428Y-8863855D01*
X79600000Y-8863855D02*
X79600000Y-8063855D01*
X79600000Y-8063855D02*
X79523809Y-8178140D01*
X79523809Y-8178140D02*
X79447619Y-8254331D01*
X79447619Y-8254331D02*
X79371428Y-8292426D01*
D11*
X60178571Y-30927149D02*
X60011905Y-30689054D01*
X59892857Y-30927149D02*
X59892857Y-30427149D01*
X59892857Y-30427149D02*
X60083333Y-30427149D01*
X60083333Y-30427149D02*
X60130952Y-30450959D01*
X60130952Y-30450959D02*
X60154762Y-30474768D01*
X60154762Y-30474768D02*
X60178571Y-30522387D01*
X60178571Y-30522387D02*
X60178571Y-30593816D01*
X60178571Y-30593816D02*
X60154762Y-30641435D01*
X60154762Y-30641435D02*
X60130952Y-30665244D01*
X60130952Y-30665244D02*
X60083333Y-30689054D01*
X60083333Y-30689054D02*
X59892857Y-30689054D01*
X60369048Y-30474768D02*
X60392857Y-30450959D01*
X60392857Y-30450959D02*
X60440476Y-30427149D01*
X60440476Y-30427149D02*
X60559524Y-30427149D01*
X60559524Y-30427149D02*
X60607143Y-30450959D01*
X60607143Y-30450959D02*
X60630952Y-30474768D01*
X60630952Y-30474768D02*
X60654762Y-30522387D01*
X60654762Y-30522387D02*
X60654762Y-30570006D01*
X60654762Y-30570006D02*
X60630952Y-30641435D01*
X60630952Y-30641435D02*
X60345238Y-30927149D01*
X60345238Y-30927149D02*
X60654762Y-30927149D01*
X61107142Y-30427149D02*
X60869047Y-30427149D01*
X60869047Y-30427149D02*
X60845238Y-30665244D01*
X60845238Y-30665244D02*
X60869047Y-30641435D01*
X60869047Y-30641435D02*
X60916666Y-30617625D01*
X60916666Y-30617625D02*
X61035714Y-30617625D01*
X61035714Y-30617625D02*
X61083333Y-30641435D01*
X61083333Y-30641435D02*
X61107142Y-30665244D01*
X61107142Y-30665244D02*
X61130952Y-30712863D01*
X61130952Y-30712863D02*
X61130952Y-30831911D01*
X61130952Y-30831911D02*
X61107142Y-30879530D01*
X61107142Y-30879530D02*
X61083333Y-30903340D01*
X61083333Y-30903340D02*
X61035714Y-30927149D01*
X61035714Y-30927149D02*
X60916666Y-30927149D01*
X60916666Y-30927149D02*
X60869047Y-30903340D01*
X60869047Y-30903340D02*
X60845238Y-30879530D01*
D10*
X27738095Y-40604819D02*
X28309523Y-40604819D01*
X28023809Y-41604819D02*
X28023809Y-40604819D01*
X28642857Y-41604819D02*
X28642857Y-40604819D01*
X28642857Y-40604819D02*
X29023809Y-40604819D01*
X29023809Y-40604819D02*
X29119047Y-40652438D01*
X29119047Y-40652438D02*
X29166666Y-40700057D01*
X29166666Y-40700057D02*
X29214285Y-40795295D01*
X29214285Y-40795295D02*
X29214285Y-40938152D01*
X29214285Y-40938152D02*
X29166666Y-41033390D01*
X29166666Y-41033390D02*
X29119047Y-41081009D01*
X29119047Y-41081009D02*
X29023809Y-41128628D01*
X29023809Y-41128628D02*
X28642857Y-41128628D01*
X30119047Y-40604819D02*
X29642857Y-40604819D01*
X29642857Y-40604819D02*
X29595238Y-41081009D01*
X29595238Y-41081009D02*
X29642857Y-41033390D01*
X29642857Y-41033390D02*
X29738095Y-40985771D01*
X29738095Y-40985771D02*
X29976190Y-40985771D01*
X29976190Y-40985771D02*
X30071428Y-41033390D01*
X30071428Y-41033390D02*
X30119047Y-41081009D01*
X30119047Y-41081009D02*
X30166666Y-41176247D01*
X30166666Y-41176247D02*
X30166666Y-41414342D01*
X30166666Y-41414342D02*
X30119047Y-41509580D01*
X30119047Y-41509580D02*
X30071428Y-41557200D01*
X30071428Y-41557200D02*
X29976190Y-41604819D01*
X29976190Y-41604819D02*
X29738095Y-41604819D01*
X29738095Y-41604819D02*
X29642857Y-41557200D01*
X29642857Y-41557200D02*
X29595238Y-41509580D01*
D11*
X54678571Y-19727149D02*
X54511905Y-19489054D01*
X54392857Y-19727149D02*
X54392857Y-19227149D01*
X54392857Y-19227149D02*
X54583333Y-19227149D01*
X54583333Y-19227149D02*
X54630952Y-19250959D01*
X54630952Y-19250959D02*
X54654762Y-19274768D01*
X54654762Y-19274768D02*
X54678571Y-19322387D01*
X54678571Y-19322387D02*
X54678571Y-19393816D01*
X54678571Y-19393816D02*
X54654762Y-19441435D01*
X54654762Y-19441435D02*
X54630952Y-19465244D01*
X54630952Y-19465244D02*
X54583333Y-19489054D01*
X54583333Y-19489054D02*
X54392857Y-19489054D01*
X55154762Y-19727149D02*
X54869048Y-19727149D01*
X55011905Y-19727149D02*
X55011905Y-19227149D01*
X55011905Y-19227149D02*
X54964286Y-19298578D01*
X54964286Y-19298578D02*
X54916667Y-19346197D01*
X54916667Y-19346197D02*
X54869048Y-19370006D01*
X55440476Y-19441435D02*
X55392857Y-19417625D01*
X55392857Y-19417625D02*
X55369047Y-19393816D01*
X55369047Y-19393816D02*
X55345238Y-19346197D01*
X55345238Y-19346197D02*
X55345238Y-19322387D01*
X55345238Y-19322387D02*
X55369047Y-19274768D01*
X55369047Y-19274768D02*
X55392857Y-19250959D01*
X55392857Y-19250959D02*
X55440476Y-19227149D01*
X55440476Y-19227149D02*
X55535714Y-19227149D01*
X55535714Y-19227149D02*
X55583333Y-19250959D01*
X55583333Y-19250959D02*
X55607142Y-19274768D01*
X55607142Y-19274768D02*
X55630952Y-19322387D01*
X55630952Y-19322387D02*
X55630952Y-19346197D01*
X55630952Y-19346197D02*
X55607142Y-19393816D01*
X55607142Y-19393816D02*
X55583333Y-19417625D01*
X55583333Y-19417625D02*
X55535714Y-19441435D01*
X55535714Y-19441435D02*
X55440476Y-19441435D01*
X55440476Y-19441435D02*
X55392857Y-19465244D01*
X55392857Y-19465244D02*
X55369047Y-19489054D01*
X55369047Y-19489054D02*
X55345238Y-19536673D01*
X55345238Y-19536673D02*
X55345238Y-19631911D01*
X55345238Y-19631911D02*
X55369047Y-19679530D01*
X55369047Y-19679530D02*
X55392857Y-19703340D01*
X55392857Y-19703340D02*
X55440476Y-19727149D01*
X55440476Y-19727149D02*
X55535714Y-19727149D01*
X55535714Y-19727149D02*
X55583333Y-19703340D01*
X55583333Y-19703340D02*
X55607142Y-19679530D01*
X55607142Y-19679530D02*
X55630952Y-19631911D01*
X55630952Y-19631911D02*
X55630952Y-19536673D01*
X55630952Y-19536673D02*
X55607142Y-19489054D01*
X55607142Y-19489054D02*
X55583333Y-19465244D01*
X55583333Y-19465244D02*
X55535714Y-19441435D01*
X98130952Y-15027149D02*
X98130952Y-14527149D01*
X98130952Y-14527149D02*
X98250000Y-14527149D01*
X98250000Y-14527149D02*
X98321428Y-14550959D01*
X98321428Y-14550959D02*
X98369047Y-14598578D01*
X98369047Y-14598578D02*
X98392857Y-14646197D01*
X98392857Y-14646197D02*
X98416666Y-14741435D01*
X98416666Y-14741435D02*
X98416666Y-14812863D01*
X98416666Y-14812863D02*
X98392857Y-14908101D01*
X98392857Y-14908101D02*
X98369047Y-14955720D01*
X98369047Y-14955720D02*
X98321428Y-15003340D01*
X98321428Y-15003340D02*
X98250000Y-15027149D01*
X98250000Y-15027149D02*
X98130952Y-15027149D01*
X98583333Y-14527149D02*
X98892857Y-14527149D01*
X98892857Y-14527149D02*
X98726190Y-14717625D01*
X98726190Y-14717625D02*
X98797619Y-14717625D01*
X98797619Y-14717625D02*
X98845238Y-14741435D01*
X98845238Y-14741435D02*
X98869047Y-14765244D01*
X98869047Y-14765244D02*
X98892857Y-14812863D01*
X98892857Y-14812863D02*
X98892857Y-14931911D01*
X98892857Y-14931911D02*
X98869047Y-14979530D01*
X98869047Y-14979530D02*
X98845238Y-15003340D01*
X98845238Y-15003340D02*
X98797619Y-15027149D01*
X98797619Y-15027149D02*
X98654762Y-15027149D01*
X98654762Y-15027149D02*
X98607143Y-15003340D01*
X98607143Y-15003340D02*
X98583333Y-14979530D01*
D10*
X92785714Y-27004819D02*
X92785714Y-26004819D01*
X92785714Y-26004819D02*
X93023809Y-26004819D01*
X93023809Y-26004819D02*
X93166666Y-26052438D01*
X93166666Y-26052438D02*
X93261904Y-26147676D01*
X93261904Y-26147676D02*
X93309523Y-26242914D01*
X93309523Y-26242914D02*
X93357142Y-26433390D01*
X93357142Y-26433390D02*
X93357142Y-26576247D01*
X93357142Y-26576247D02*
X93309523Y-26766723D01*
X93309523Y-26766723D02*
X93261904Y-26861961D01*
X93261904Y-26861961D02*
X93166666Y-26957200D01*
X93166666Y-26957200D02*
X93023809Y-27004819D01*
X93023809Y-27004819D02*
X92785714Y-27004819D01*
X94309523Y-27004819D02*
X93738095Y-27004819D01*
X94023809Y-27004819D02*
X94023809Y-26004819D01*
X94023809Y-26004819D02*
X93928571Y-26147676D01*
X93928571Y-26147676D02*
X93833333Y-26242914D01*
X93833333Y-26242914D02*
X93738095Y-26290533D01*
X94642857Y-26004819D02*
X95309523Y-26004819D01*
X95309523Y-26004819D02*
X94880952Y-27004819D01*
X92785714Y-29804819D02*
X92785714Y-28804819D01*
X92785714Y-28804819D02*
X93023809Y-28804819D01*
X93023809Y-28804819D02*
X93166666Y-28852438D01*
X93166666Y-28852438D02*
X93261904Y-28947676D01*
X93261904Y-28947676D02*
X93309523Y-29042914D01*
X93309523Y-29042914D02*
X93357142Y-29233390D01*
X93357142Y-29233390D02*
X93357142Y-29376247D01*
X93357142Y-29376247D02*
X93309523Y-29566723D01*
X93309523Y-29566723D02*
X93261904Y-29661961D01*
X93261904Y-29661961D02*
X93166666Y-29757200D01*
X93166666Y-29757200D02*
X93023809Y-29804819D01*
X93023809Y-29804819D02*
X92785714Y-29804819D01*
X94309523Y-29804819D02*
X93738095Y-29804819D01*
X94023809Y-29804819D02*
X94023809Y-28804819D01*
X94023809Y-28804819D02*
X93928571Y-28947676D01*
X93928571Y-28947676D02*
X93833333Y-29042914D01*
X93833333Y-29042914D02*
X93738095Y-29090533D01*
X94642857Y-28804819D02*
X95261904Y-28804819D01*
X95261904Y-28804819D02*
X94928571Y-29185771D01*
X94928571Y-29185771D02*
X95071428Y-29185771D01*
X95071428Y-29185771D02*
X95166666Y-29233390D01*
X95166666Y-29233390D02*
X95214285Y-29281009D01*
X95214285Y-29281009D02*
X95261904Y-29376247D01*
X95261904Y-29376247D02*
X95261904Y-29614342D01*
X95261904Y-29614342D02*
X95214285Y-29709580D01*
X95214285Y-29709580D02*
X95166666Y-29757200D01*
X95166666Y-29757200D02*
X95071428Y-29804819D01*
X95071428Y-29804819D02*
X94785714Y-29804819D01*
X94785714Y-29804819D02*
X94690476Y-29757200D01*
X94690476Y-29757200D02*
X94642857Y-29709580D01*
X105238095Y-42454819D02*
X105238095Y-41454819D01*
X105238095Y-41931009D02*
X105809523Y-41931009D01*
X105809523Y-42454819D02*
X105809523Y-41454819D01*
X106714285Y-41788152D02*
X106714285Y-42454819D01*
X106476190Y-41407200D02*
X106238095Y-42121485D01*
X106238095Y-42121485D02*
X106857142Y-42121485D01*
X43261905Y-7854819D02*
X43261905Y-6854819D01*
X43261905Y-6854819D02*
X43642857Y-6854819D01*
X43642857Y-6854819D02*
X43738095Y-6902438D01*
X43738095Y-6902438D02*
X43785714Y-6950057D01*
X43785714Y-6950057D02*
X43833333Y-7045295D01*
X43833333Y-7045295D02*
X43833333Y-7188152D01*
X43833333Y-7188152D02*
X43785714Y-7283390D01*
X43785714Y-7283390D02*
X43738095Y-7331009D01*
X43738095Y-7331009D02*
X43642857Y-7378628D01*
X43642857Y-7378628D02*
X43261905Y-7378628D01*
X44785714Y-7854819D02*
X44214286Y-7854819D01*
X44500000Y-7854819D02*
X44500000Y-6854819D01*
X44500000Y-6854819D02*
X44404762Y-6997676D01*
X44404762Y-6997676D02*
X44309524Y-7092914D01*
X44309524Y-7092914D02*
X44214286Y-7140533D01*
D13*
X68107365Y-21548571D02*
X68690222Y-21548571D01*
X68690222Y-21548571D02*
X68758794Y-21514285D01*
X68758794Y-21514285D02*
X68793080Y-21480000D01*
X68793080Y-21480000D02*
X68827365Y-21411428D01*
X68827365Y-21411428D02*
X68827365Y-21274285D01*
X68827365Y-21274285D02*
X68793080Y-21205714D01*
X68793080Y-21205714D02*
X68758794Y-21171428D01*
X68758794Y-21171428D02*
X68690222Y-21137142D01*
X68690222Y-21137142D02*
X68107365Y-21137142D01*
X68347365Y-20485714D02*
X68827365Y-20485714D01*
X68073080Y-20657142D02*
X68587365Y-20828571D01*
X68587365Y-20828571D02*
X68587365Y-20382856D01*
X90395937Y-38568571D02*
X90361651Y-38637142D01*
X90361651Y-38637142D02*
X90293080Y-38705714D01*
X90293080Y-38705714D02*
X90190222Y-38808571D01*
X90190222Y-38808571D02*
X90155937Y-38877142D01*
X90155937Y-38877142D02*
X90155937Y-38945714D01*
X90327365Y-38911428D02*
X90293080Y-38980000D01*
X90293080Y-38980000D02*
X90224508Y-39048571D01*
X90224508Y-39048571D02*
X90087365Y-39082857D01*
X90087365Y-39082857D02*
X89847365Y-39082857D01*
X89847365Y-39082857D02*
X89710222Y-39048571D01*
X89710222Y-39048571D02*
X89641651Y-38980000D01*
X89641651Y-38980000D02*
X89607365Y-38911428D01*
X89607365Y-38911428D02*
X89607365Y-38774285D01*
X89607365Y-38774285D02*
X89641651Y-38705714D01*
X89641651Y-38705714D02*
X89710222Y-38637142D01*
X89710222Y-38637142D02*
X89847365Y-38602857D01*
X89847365Y-38602857D02*
X90087365Y-38602857D01*
X90087365Y-38602857D02*
X90224508Y-38637142D01*
X90224508Y-38637142D02*
X90293080Y-38705714D01*
X90293080Y-38705714D02*
X90327365Y-38774285D01*
X90327365Y-38774285D02*
X90327365Y-38911428D01*
X90327365Y-38259999D02*
X90327365Y-38122856D01*
X90327365Y-38122856D02*
X90293080Y-38054285D01*
X90293080Y-38054285D02*
X90258794Y-38019999D01*
X90258794Y-38019999D02*
X90155937Y-37951428D01*
X90155937Y-37951428D02*
X90018794Y-37917142D01*
X90018794Y-37917142D02*
X89744508Y-37917142D01*
X89744508Y-37917142D02*
X89675937Y-37951428D01*
X89675937Y-37951428D02*
X89641651Y-37985714D01*
X89641651Y-37985714D02*
X89607365Y-38054285D01*
X89607365Y-38054285D02*
X89607365Y-38191428D01*
X89607365Y-38191428D02*
X89641651Y-38259999D01*
X89641651Y-38259999D02*
X89675937Y-38294285D01*
X89675937Y-38294285D02*
X89744508Y-38328571D01*
X89744508Y-38328571D02*
X89915937Y-38328571D01*
X89915937Y-38328571D02*
X89984508Y-38294285D01*
X89984508Y-38294285D02*
X90018794Y-38259999D01*
X90018794Y-38259999D02*
X90053080Y-38191428D01*
X90053080Y-38191428D02*
X90053080Y-38054285D01*
X90053080Y-38054285D02*
X90018794Y-37985714D01*
X90018794Y-37985714D02*
X89984508Y-37951428D01*
X89984508Y-37951428D02*
X89915937Y-37917142D01*
D11*
X54678571Y-36479530D02*
X54654762Y-36503340D01*
X54654762Y-36503340D02*
X54583333Y-36527149D01*
X54583333Y-36527149D02*
X54535714Y-36527149D01*
X54535714Y-36527149D02*
X54464286Y-36503340D01*
X54464286Y-36503340D02*
X54416667Y-36455720D01*
X54416667Y-36455720D02*
X54392857Y-36408101D01*
X54392857Y-36408101D02*
X54369048Y-36312863D01*
X54369048Y-36312863D02*
X54369048Y-36241435D01*
X54369048Y-36241435D02*
X54392857Y-36146197D01*
X54392857Y-36146197D02*
X54416667Y-36098578D01*
X54416667Y-36098578D02*
X54464286Y-36050959D01*
X54464286Y-36050959D02*
X54535714Y-36027149D01*
X54535714Y-36027149D02*
X54583333Y-36027149D01*
X54583333Y-36027149D02*
X54654762Y-36050959D01*
X54654762Y-36050959D02*
X54678571Y-36074768D01*
X55154762Y-36527149D02*
X54869048Y-36527149D01*
X55011905Y-36527149D02*
X55011905Y-36027149D01*
X55011905Y-36027149D02*
X54964286Y-36098578D01*
X54964286Y-36098578D02*
X54916667Y-36146197D01*
X54916667Y-36146197D02*
X54869048Y-36170006D01*
X55321428Y-36027149D02*
X55630952Y-36027149D01*
X55630952Y-36027149D02*
X55464285Y-36217625D01*
X55464285Y-36217625D02*
X55535714Y-36217625D01*
X55535714Y-36217625D02*
X55583333Y-36241435D01*
X55583333Y-36241435D02*
X55607142Y-36265244D01*
X55607142Y-36265244D02*
X55630952Y-36312863D01*
X55630952Y-36312863D02*
X55630952Y-36431911D01*
X55630952Y-36431911D02*
X55607142Y-36479530D01*
X55607142Y-36479530D02*
X55583333Y-36503340D01*
X55583333Y-36503340D02*
X55535714Y-36527149D01*
X55535714Y-36527149D02*
X55392857Y-36527149D01*
X55392857Y-36527149D02*
X55345238Y-36503340D01*
X55345238Y-36503340D02*
X55321428Y-36479530D01*
D10*
X39738095Y-40604819D02*
X40309523Y-40604819D01*
X40023809Y-41604819D02*
X40023809Y-40604819D01*
X40642857Y-41604819D02*
X40642857Y-40604819D01*
X40642857Y-40604819D02*
X41023809Y-40604819D01*
X41023809Y-40604819D02*
X41119047Y-40652438D01*
X41119047Y-40652438D02*
X41166666Y-40700057D01*
X41166666Y-40700057D02*
X41214285Y-40795295D01*
X41214285Y-40795295D02*
X41214285Y-40938152D01*
X41214285Y-40938152D02*
X41166666Y-41033390D01*
X41166666Y-41033390D02*
X41119047Y-41081009D01*
X41119047Y-41081009D02*
X41023809Y-41128628D01*
X41023809Y-41128628D02*
X40642857Y-41128628D01*
X41547619Y-40604819D02*
X42214285Y-40604819D01*
X42214285Y-40604819D02*
X41785714Y-41604819D01*
D11*
X68178571Y-8827149D02*
X68011905Y-8589054D01*
X67892857Y-8827149D02*
X67892857Y-8327149D01*
X67892857Y-8327149D02*
X68083333Y-8327149D01*
X68083333Y-8327149D02*
X68130952Y-8350959D01*
X68130952Y-8350959D02*
X68154762Y-8374768D01*
X68154762Y-8374768D02*
X68178571Y-8422387D01*
X68178571Y-8422387D02*
X68178571Y-8493816D01*
X68178571Y-8493816D02*
X68154762Y-8541435D01*
X68154762Y-8541435D02*
X68130952Y-8565244D01*
X68130952Y-8565244D02*
X68083333Y-8589054D01*
X68083333Y-8589054D02*
X67892857Y-8589054D01*
X68345238Y-8327149D02*
X68654762Y-8327149D01*
X68654762Y-8327149D02*
X68488095Y-8517625D01*
X68488095Y-8517625D02*
X68559524Y-8517625D01*
X68559524Y-8517625D02*
X68607143Y-8541435D01*
X68607143Y-8541435D02*
X68630952Y-8565244D01*
X68630952Y-8565244D02*
X68654762Y-8612863D01*
X68654762Y-8612863D02*
X68654762Y-8731911D01*
X68654762Y-8731911D02*
X68630952Y-8779530D01*
X68630952Y-8779530D02*
X68607143Y-8803340D01*
X68607143Y-8803340D02*
X68559524Y-8827149D01*
X68559524Y-8827149D02*
X68416667Y-8827149D01*
X68416667Y-8827149D02*
X68369048Y-8803340D01*
X68369048Y-8803340D02*
X68345238Y-8779530D01*
X68821428Y-8327149D02*
X69130952Y-8327149D01*
X69130952Y-8327149D02*
X68964285Y-8517625D01*
X68964285Y-8517625D02*
X69035714Y-8517625D01*
X69035714Y-8517625D02*
X69083333Y-8541435D01*
X69083333Y-8541435D02*
X69107142Y-8565244D01*
X69107142Y-8565244D02*
X69130952Y-8612863D01*
X69130952Y-8612863D02*
X69130952Y-8731911D01*
X69130952Y-8731911D02*
X69107142Y-8779530D01*
X69107142Y-8779530D02*
X69083333Y-8803340D01*
X69083333Y-8803340D02*
X69035714Y-8827149D01*
X69035714Y-8827149D02*
X68892857Y-8827149D01*
X68892857Y-8827149D02*
X68845238Y-8803340D01*
X68845238Y-8803340D02*
X68821428Y-8779530D01*
X34678571Y-28127149D02*
X34511905Y-27889054D01*
X34392857Y-28127149D02*
X34392857Y-27627149D01*
X34392857Y-27627149D02*
X34583333Y-27627149D01*
X34583333Y-27627149D02*
X34630952Y-27650959D01*
X34630952Y-27650959D02*
X34654762Y-27674768D01*
X34654762Y-27674768D02*
X34678571Y-27722387D01*
X34678571Y-27722387D02*
X34678571Y-27793816D01*
X34678571Y-27793816D02*
X34654762Y-27841435D01*
X34654762Y-27841435D02*
X34630952Y-27865244D01*
X34630952Y-27865244D02*
X34583333Y-27889054D01*
X34583333Y-27889054D02*
X34392857Y-27889054D01*
X35154762Y-28127149D02*
X34869048Y-28127149D01*
X35011905Y-28127149D02*
X35011905Y-27627149D01*
X35011905Y-27627149D02*
X34964286Y-27698578D01*
X34964286Y-27698578D02*
X34916667Y-27746197D01*
X34916667Y-27746197D02*
X34869048Y-27770006D01*
X35583333Y-27627149D02*
X35488095Y-27627149D01*
X35488095Y-27627149D02*
X35440476Y-27650959D01*
X35440476Y-27650959D02*
X35416666Y-27674768D01*
X35416666Y-27674768D02*
X35369047Y-27746197D01*
X35369047Y-27746197D02*
X35345238Y-27841435D01*
X35345238Y-27841435D02*
X35345238Y-28031911D01*
X35345238Y-28031911D02*
X35369047Y-28079530D01*
X35369047Y-28079530D02*
X35392857Y-28103340D01*
X35392857Y-28103340D02*
X35440476Y-28127149D01*
X35440476Y-28127149D02*
X35535714Y-28127149D01*
X35535714Y-28127149D02*
X35583333Y-28103340D01*
X35583333Y-28103340D02*
X35607142Y-28079530D01*
X35607142Y-28079530D02*
X35630952Y-28031911D01*
X35630952Y-28031911D02*
X35630952Y-27912863D01*
X35630952Y-27912863D02*
X35607142Y-27865244D01*
X35607142Y-27865244D02*
X35583333Y-27841435D01*
X35583333Y-27841435D02*
X35535714Y-27817625D01*
X35535714Y-27817625D02*
X35440476Y-27817625D01*
X35440476Y-27817625D02*
X35392857Y-27841435D01*
X35392857Y-27841435D02*
X35369047Y-27865244D01*
X35369047Y-27865244D02*
X35345238Y-27912863D01*
D10*
X92785714Y-21404819D02*
X92785714Y-20404819D01*
X92785714Y-20404819D02*
X93023809Y-20404819D01*
X93023809Y-20404819D02*
X93166666Y-20452438D01*
X93166666Y-20452438D02*
X93261904Y-20547676D01*
X93261904Y-20547676D02*
X93309523Y-20642914D01*
X93309523Y-20642914D02*
X93357142Y-20833390D01*
X93357142Y-20833390D02*
X93357142Y-20976247D01*
X93357142Y-20976247D02*
X93309523Y-21166723D01*
X93309523Y-21166723D02*
X93261904Y-21261961D01*
X93261904Y-21261961D02*
X93166666Y-21357200D01*
X93166666Y-21357200D02*
X93023809Y-21404819D01*
X93023809Y-21404819D02*
X92785714Y-21404819D01*
X94309523Y-21404819D02*
X93738095Y-21404819D01*
X94023809Y-21404819D02*
X94023809Y-20404819D01*
X94023809Y-20404819D02*
X93928571Y-20547676D01*
X93928571Y-20547676D02*
X93833333Y-20642914D01*
X93833333Y-20642914D02*
X93738095Y-20690533D01*
X94880952Y-20833390D02*
X94785714Y-20785771D01*
X94785714Y-20785771D02*
X94738095Y-20738152D01*
X94738095Y-20738152D02*
X94690476Y-20642914D01*
X94690476Y-20642914D02*
X94690476Y-20595295D01*
X94690476Y-20595295D02*
X94738095Y-20500057D01*
X94738095Y-20500057D02*
X94785714Y-20452438D01*
X94785714Y-20452438D02*
X94880952Y-20404819D01*
X94880952Y-20404819D02*
X95071428Y-20404819D01*
X95071428Y-20404819D02*
X95166666Y-20452438D01*
X95166666Y-20452438D02*
X95214285Y-20500057D01*
X95214285Y-20500057D02*
X95261904Y-20595295D01*
X95261904Y-20595295D02*
X95261904Y-20642914D01*
X95261904Y-20642914D02*
X95214285Y-20738152D01*
X95214285Y-20738152D02*
X95166666Y-20785771D01*
X95166666Y-20785771D02*
X95071428Y-20833390D01*
X95071428Y-20833390D02*
X94880952Y-20833390D01*
X94880952Y-20833390D02*
X94785714Y-20881009D01*
X94785714Y-20881009D02*
X94738095Y-20928628D01*
X94738095Y-20928628D02*
X94690476Y-21023866D01*
X94690476Y-21023866D02*
X94690476Y-21214342D01*
X94690476Y-21214342D02*
X94738095Y-21309580D01*
X94738095Y-21309580D02*
X94785714Y-21357200D01*
X94785714Y-21357200D02*
X94880952Y-21404819D01*
X94880952Y-21404819D02*
X95071428Y-21404819D01*
X95071428Y-21404819D02*
X95166666Y-21357200D01*
X95166666Y-21357200D02*
X95214285Y-21309580D01*
X95214285Y-21309580D02*
X95261904Y-21214342D01*
X95261904Y-21214342D02*
X95261904Y-21023866D01*
X95261904Y-21023866D02*
X95214285Y-20928628D01*
X95214285Y-20928628D02*
X95166666Y-20881009D01*
X95166666Y-20881009D02*
X95071428Y-20833390D01*
X21738095Y-40604819D02*
X22309523Y-40604819D01*
X22023809Y-41604819D02*
X22023809Y-40604819D01*
X22642857Y-41604819D02*
X22642857Y-40604819D01*
X22642857Y-40604819D02*
X23023809Y-40604819D01*
X23023809Y-40604819D02*
X23119047Y-40652438D01*
X23119047Y-40652438D02*
X23166666Y-40700057D01*
X23166666Y-40700057D02*
X23214285Y-40795295D01*
X23214285Y-40795295D02*
X23214285Y-40938152D01*
X23214285Y-40938152D02*
X23166666Y-41033390D01*
X23166666Y-41033390D02*
X23119047Y-41081009D01*
X23119047Y-41081009D02*
X23023809Y-41128628D01*
X23023809Y-41128628D02*
X22642857Y-41128628D01*
X24071428Y-40938152D02*
X24071428Y-41604819D01*
X23833333Y-40557200D02*
X23595238Y-41271485D01*
X23595238Y-41271485D02*
X24214285Y-41271485D01*
D11*
X60416666Y-25279530D02*
X60392857Y-25303340D01*
X60392857Y-25303340D02*
X60321428Y-25327149D01*
X60321428Y-25327149D02*
X60273809Y-25327149D01*
X60273809Y-25327149D02*
X60202381Y-25303340D01*
X60202381Y-25303340D02*
X60154762Y-25255720D01*
X60154762Y-25255720D02*
X60130952Y-25208101D01*
X60130952Y-25208101D02*
X60107143Y-25112863D01*
X60107143Y-25112863D02*
X60107143Y-25041435D01*
X60107143Y-25041435D02*
X60130952Y-24946197D01*
X60130952Y-24946197D02*
X60154762Y-24898578D01*
X60154762Y-24898578D02*
X60202381Y-24850959D01*
X60202381Y-24850959D02*
X60273809Y-24827149D01*
X60273809Y-24827149D02*
X60321428Y-24827149D01*
X60321428Y-24827149D02*
X60392857Y-24850959D01*
X60392857Y-24850959D02*
X60416666Y-24874768D01*
X60583333Y-24827149D02*
X60916666Y-24827149D01*
X60916666Y-24827149D02*
X60702381Y-25327149D01*
X15179530Y-20583333D02*
X15203340Y-20607142D01*
X15203340Y-20607142D02*
X15227149Y-20678571D01*
X15227149Y-20678571D02*
X15227149Y-20726190D01*
X15227149Y-20726190D02*
X15203340Y-20797618D01*
X15203340Y-20797618D02*
X15155720Y-20845237D01*
X15155720Y-20845237D02*
X15108101Y-20869047D01*
X15108101Y-20869047D02*
X15012863Y-20892856D01*
X15012863Y-20892856D02*
X14941435Y-20892856D01*
X14941435Y-20892856D02*
X14846197Y-20869047D01*
X14846197Y-20869047D02*
X14798578Y-20845237D01*
X14798578Y-20845237D02*
X14750959Y-20797618D01*
X14750959Y-20797618D02*
X14727149Y-20726190D01*
X14727149Y-20726190D02*
X14727149Y-20678571D01*
X14727149Y-20678571D02*
X14750959Y-20607142D01*
X14750959Y-20607142D02*
X14774768Y-20583333D01*
X14727149Y-20130952D02*
X14727149Y-20369047D01*
X14727149Y-20369047D02*
X14965244Y-20392856D01*
X14965244Y-20392856D02*
X14941435Y-20369047D01*
X14941435Y-20369047D02*
X14917625Y-20321428D01*
X14917625Y-20321428D02*
X14917625Y-20202380D01*
X14917625Y-20202380D02*
X14941435Y-20154761D01*
X14941435Y-20154761D02*
X14965244Y-20130952D01*
X14965244Y-20130952D02*
X15012863Y-20107142D01*
X15012863Y-20107142D02*
X15131911Y-20107142D01*
X15131911Y-20107142D02*
X15179530Y-20130952D01*
X15179530Y-20130952D02*
X15203340Y-20154761D01*
X15203340Y-20154761D02*
X15227149Y-20202380D01*
X15227149Y-20202380D02*
X15227149Y-20321428D01*
X15227149Y-20321428D02*
X15203340Y-20369047D01*
X15203340Y-20369047D02*
X15179530Y-20392856D01*
X68178571Y-27979530D02*
X68154762Y-28003340D01*
X68154762Y-28003340D02*
X68083333Y-28027149D01*
X68083333Y-28027149D02*
X68035714Y-28027149D01*
X68035714Y-28027149D02*
X67964286Y-28003340D01*
X67964286Y-28003340D02*
X67916667Y-27955720D01*
X67916667Y-27955720D02*
X67892857Y-27908101D01*
X67892857Y-27908101D02*
X67869048Y-27812863D01*
X67869048Y-27812863D02*
X67869048Y-27741435D01*
X67869048Y-27741435D02*
X67892857Y-27646197D01*
X67892857Y-27646197D02*
X67916667Y-27598578D01*
X67916667Y-27598578D02*
X67964286Y-27550959D01*
X67964286Y-27550959D02*
X68035714Y-27527149D01*
X68035714Y-27527149D02*
X68083333Y-27527149D01*
X68083333Y-27527149D02*
X68154762Y-27550959D01*
X68154762Y-27550959D02*
X68178571Y-27574768D01*
X68654762Y-28027149D02*
X68369048Y-28027149D01*
X68511905Y-28027149D02*
X68511905Y-27527149D01*
X68511905Y-27527149D02*
X68464286Y-27598578D01*
X68464286Y-27598578D02*
X68416667Y-27646197D01*
X68416667Y-27646197D02*
X68369048Y-27670006D01*
X68821428Y-27527149D02*
X69154761Y-27527149D01*
X69154761Y-27527149D02*
X68940476Y-28027149D01*
X34678571Y-33727149D02*
X34511905Y-33489054D01*
X34392857Y-33727149D02*
X34392857Y-33227149D01*
X34392857Y-33227149D02*
X34583333Y-33227149D01*
X34583333Y-33227149D02*
X34630952Y-33250959D01*
X34630952Y-33250959D02*
X34654762Y-33274768D01*
X34654762Y-33274768D02*
X34678571Y-33322387D01*
X34678571Y-33322387D02*
X34678571Y-33393816D01*
X34678571Y-33393816D02*
X34654762Y-33441435D01*
X34654762Y-33441435D02*
X34630952Y-33465244D01*
X34630952Y-33465244D02*
X34583333Y-33489054D01*
X34583333Y-33489054D02*
X34392857Y-33489054D01*
X35154762Y-33727149D02*
X34869048Y-33727149D01*
X35011905Y-33727149D02*
X35011905Y-33227149D01*
X35011905Y-33227149D02*
X34964286Y-33298578D01*
X34964286Y-33298578D02*
X34916667Y-33346197D01*
X34916667Y-33346197D02*
X34869048Y-33370006D01*
X35607142Y-33227149D02*
X35369047Y-33227149D01*
X35369047Y-33227149D02*
X35345238Y-33465244D01*
X35345238Y-33465244D02*
X35369047Y-33441435D01*
X35369047Y-33441435D02*
X35416666Y-33417625D01*
X35416666Y-33417625D02*
X35535714Y-33417625D01*
X35535714Y-33417625D02*
X35583333Y-33441435D01*
X35583333Y-33441435D02*
X35607142Y-33465244D01*
X35607142Y-33465244D02*
X35630952Y-33512863D01*
X35630952Y-33512863D02*
X35630952Y-33631911D01*
X35630952Y-33631911D02*
X35607142Y-33679530D01*
X35607142Y-33679530D02*
X35583333Y-33703340D01*
X35583333Y-33703340D02*
X35535714Y-33727149D01*
X35535714Y-33727149D02*
X35416666Y-33727149D01*
X35416666Y-33727149D02*
X35369047Y-33703340D01*
X35369047Y-33703340D02*
X35345238Y-33679530D01*
D10*
X48261905Y-11654819D02*
X48261905Y-10654819D01*
X48261905Y-10654819D02*
X48500000Y-10654819D01*
X48500000Y-10654819D02*
X48642857Y-10702438D01*
X48642857Y-10702438D02*
X48738095Y-10797676D01*
X48738095Y-10797676D02*
X48785714Y-10892914D01*
X48785714Y-10892914D02*
X48833333Y-11083390D01*
X48833333Y-11083390D02*
X48833333Y-11226247D01*
X48833333Y-11226247D02*
X48785714Y-11416723D01*
X48785714Y-11416723D02*
X48738095Y-11511961D01*
X48738095Y-11511961D02*
X48642857Y-11607200D01*
X48642857Y-11607200D02*
X48500000Y-11654819D01*
X48500000Y-11654819D02*
X48261905Y-11654819D01*
X49690476Y-10654819D02*
X49500000Y-10654819D01*
X49500000Y-10654819D02*
X49404762Y-10702438D01*
X49404762Y-10702438D02*
X49357143Y-10750057D01*
X49357143Y-10750057D02*
X49261905Y-10892914D01*
X49261905Y-10892914D02*
X49214286Y-11083390D01*
X49214286Y-11083390D02*
X49214286Y-11464342D01*
X49214286Y-11464342D02*
X49261905Y-11559580D01*
X49261905Y-11559580D02*
X49309524Y-11607200D01*
X49309524Y-11607200D02*
X49404762Y-11654819D01*
X49404762Y-11654819D02*
X49595238Y-11654819D01*
X49595238Y-11654819D02*
X49690476Y-11607200D01*
X49690476Y-11607200D02*
X49738095Y-11559580D01*
X49738095Y-11559580D02*
X49785714Y-11464342D01*
X49785714Y-11464342D02*
X49785714Y-11226247D01*
X49785714Y-11226247D02*
X49738095Y-11131009D01*
X49738095Y-11131009D02*
X49690476Y-11083390D01*
X49690476Y-11083390D02*
X49595238Y-11035771D01*
X49595238Y-11035771D02*
X49404762Y-11035771D01*
X49404762Y-11035771D02*
X49309524Y-11083390D01*
X49309524Y-11083390D02*
X49261905Y-11131009D01*
X49261905Y-11131009D02*
X49214286Y-11226247D01*
D11*
X54678571Y-25279530D02*
X54654762Y-25303340D01*
X54654762Y-25303340D02*
X54583333Y-25327149D01*
X54583333Y-25327149D02*
X54535714Y-25327149D01*
X54535714Y-25327149D02*
X54464286Y-25303340D01*
X54464286Y-25303340D02*
X54416667Y-25255720D01*
X54416667Y-25255720D02*
X54392857Y-25208101D01*
X54392857Y-25208101D02*
X54369048Y-25112863D01*
X54369048Y-25112863D02*
X54369048Y-25041435D01*
X54369048Y-25041435D02*
X54392857Y-24946197D01*
X54392857Y-24946197D02*
X54416667Y-24898578D01*
X54416667Y-24898578D02*
X54464286Y-24850959D01*
X54464286Y-24850959D02*
X54535714Y-24827149D01*
X54535714Y-24827149D02*
X54583333Y-24827149D01*
X54583333Y-24827149D02*
X54654762Y-24850959D01*
X54654762Y-24850959D02*
X54678571Y-24874768D01*
X55154762Y-25327149D02*
X54869048Y-25327149D01*
X55011905Y-25327149D02*
X55011905Y-24827149D01*
X55011905Y-24827149D02*
X54964286Y-24898578D01*
X54964286Y-24898578D02*
X54916667Y-24946197D01*
X54916667Y-24946197D02*
X54869048Y-24970006D01*
X55345238Y-24874768D02*
X55369047Y-24850959D01*
X55369047Y-24850959D02*
X55416666Y-24827149D01*
X55416666Y-24827149D02*
X55535714Y-24827149D01*
X55535714Y-24827149D02*
X55583333Y-24850959D01*
X55583333Y-24850959D02*
X55607142Y-24874768D01*
X55607142Y-24874768D02*
X55630952Y-24922387D01*
X55630952Y-24922387D02*
X55630952Y-24970006D01*
X55630952Y-24970006D02*
X55607142Y-25041435D01*
X55607142Y-25041435D02*
X55321428Y-25327149D01*
X55321428Y-25327149D02*
X55630952Y-25327149D01*
X68178571Y-17979530D02*
X68154762Y-18003340D01*
X68154762Y-18003340D02*
X68083333Y-18027149D01*
X68083333Y-18027149D02*
X68035714Y-18027149D01*
X68035714Y-18027149D02*
X67964286Y-18003340D01*
X67964286Y-18003340D02*
X67916667Y-17955720D01*
X67916667Y-17955720D02*
X67892857Y-17908101D01*
X67892857Y-17908101D02*
X67869048Y-17812863D01*
X67869048Y-17812863D02*
X67869048Y-17741435D01*
X67869048Y-17741435D02*
X67892857Y-17646197D01*
X67892857Y-17646197D02*
X67916667Y-17598578D01*
X67916667Y-17598578D02*
X67964286Y-17550959D01*
X67964286Y-17550959D02*
X68035714Y-17527149D01*
X68035714Y-17527149D02*
X68083333Y-17527149D01*
X68083333Y-17527149D02*
X68154762Y-17550959D01*
X68154762Y-17550959D02*
X68178571Y-17574768D01*
X68654762Y-18027149D02*
X68369048Y-18027149D01*
X68511905Y-18027149D02*
X68511905Y-17527149D01*
X68511905Y-17527149D02*
X68464286Y-17598578D01*
X68464286Y-17598578D02*
X68416667Y-17646197D01*
X68416667Y-17646197D02*
X68369048Y-17670006D01*
X69107142Y-17527149D02*
X68869047Y-17527149D01*
X68869047Y-17527149D02*
X68845238Y-17765244D01*
X68845238Y-17765244D02*
X68869047Y-17741435D01*
X68869047Y-17741435D02*
X68916666Y-17717625D01*
X68916666Y-17717625D02*
X69035714Y-17717625D01*
X69035714Y-17717625D02*
X69083333Y-17741435D01*
X69083333Y-17741435D02*
X69107142Y-17765244D01*
X69107142Y-17765244D02*
X69130952Y-17812863D01*
X69130952Y-17812863D02*
X69130952Y-17931911D01*
X69130952Y-17931911D02*
X69107142Y-17979530D01*
X69107142Y-17979530D02*
X69083333Y-18003340D01*
X69083333Y-18003340D02*
X69035714Y-18027149D01*
X69035714Y-18027149D02*
X68916666Y-18027149D01*
X68916666Y-18027149D02*
X68869047Y-18003340D01*
X68869047Y-18003340D02*
X68845238Y-17979530D01*
X60178571Y-42727149D02*
X60011905Y-42489054D01*
X59892857Y-42727149D02*
X59892857Y-42227149D01*
X59892857Y-42227149D02*
X60083333Y-42227149D01*
X60083333Y-42227149D02*
X60130952Y-42250959D01*
X60130952Y-42250959D02*
X60154762Y-42274768D01*
X60154762Y-42274768D02*
X60178571Y-42322387D01*
X60178571Y-42322387D02*
X60178571Y-42393816D01*
X60178571Y-42393816D02*
X60154762Y-42441435D01*
X60154762Y-42441435D02*
X60130952Y-42465244D01*
X60130952Y-42465244D02*
X60083333Y-42489054D01*
X60083333Y-42489054D02*
X59892857Y-42489054D01*
X60345238Y-42227149D02*
X60654762Y-42227149D01*
X60654762Y-42227149D02*
X60488095Y-42417625D01*
X60488095Y-42417625D02*
X60559524Y-42417625D01*
X60559524Y-42417625D02*
X60607143Y-42441435D01*
X60607143Y-42441435D02*
X60630952Y-42465244D01*
X60630952Y-42465244D02*
X60654762Y-42512863D01*
X60654762Y-42512863D02*
X60654762Y-42631911D01*
X60654762Y-42631911D02*
X60630952Y-42679530D01*
X60630952Y-42679530D02*
X60607143Y-42703340D01*
X60607143Y-42703340D02*
X60559524Y-42727149D01*
X60559524Y-42727149D02*
X60416667Y-42727149D01*
X60416667Y-42727149D02*
X60369048Y-42703340D01*
X60369048Y-42703340D02*
X60345238Y-42679530D01*
X61107142Y-42227149D02*
X60869047Y-42227149D01*
X60869047Y-42227149D02*
X60845238Y-42465244D01*
X60845238Y-42465244D02*
X60869047Y-42441435D01*
X60869047Y-42441435D02*
X60916666Y-42417625D01*
X60916666Y-42417625D02*
X61035714Y-42417625D01*
X61035714Y-42417625D02*
X61083333Y-42441435D01*
X61083333Y-42441435D02*
X61107142Y-42465244D01*
X61107142Y-42465244D02*
X61130952Y-42512863D01*
X61130952Y-42512863D02*
X61130952Y-42631911D01*
X61130952Y-42631911D02*
X61107142Y-42679530D01*
X61107142Y-42679530D02*
X61083333Y-42703340D01*
X61083333Y-42703340D02*
X61035714Y-42727149D01*
X61035714Y-42727149D02*
X60916666Y-42727149D01*
X60916666Y-42727149D02*
X60869047Y-42703340D01*
X60869047Y-42703340D02*
X60845238Y-42679530D01*
X68178571Y-25227149D02*
X68011905Y-24989054D01*
X67892857Y-25227149D02*
X67892857Y-24727149D01*
X67892857Y-24727149D02*
X68083333Y-24727149D01*
X68083333Y-24727149D02*
X68130952Y-24750959D01*
X68130952Y-24750959D02*
X68154762Y-24774768D01*
X68154762Y-24774768D02*
X68178571Y-24822387D01*
X68178571Y-24822387D02*
X68178571Y-24893816D01*
X68178571Y-24893816D02*
X68154762Y-24941435D01*
X68154762Y-24941435D02*
X68130952Y-24965244D01*
X68130952Y-24965244D02*
X68083333Y-24989054D01*
X68083333Y-24989054D02*
X67892857Y-24989054D01*
X68369048Y-24774768D02*
X68392857Y-24750959D01*
X68392857Y-24750959D02*
X68440476Y-24727149D01*
X68440476Y-24727149D02*
X68559524Y-24727149D01*
X68559524Y-24727149D02*
X68607143Y-24750959D01*
X68607143Y-24750959D02*
X68630952Y-24774768D01*
X68630952Y-24774768D02*
X68654762Y-24822387D01*
X68654762Y-24822387D02*
X68654762Y-24870006D01*
X68654762Y-24870006D02*
X68630952Y-24941435D01*
X68630952Y-24941435D02*
X68345238Y-25227149D01*
X68345238Y-25227149D02*
X68654762Y-25227149D01*
X68940476Y-24941435D02*
X68892857Y-24917625D01*
X68892857Y-24917625D02*
X68869047Y-24893816D01*
X68869047Y-24893816D02*
X68845238Y-24846197D01*
X68845238Y-24846197D02*
X68845238Y-24822387D01*
X68845238Y-24822387D02*
X68869047Y-24774768D01*
X68869047Y-24774768D02*
X68892857Y-24750959D01*
X68892857Y-24750959D02*
X68940476Y-24727149D01*
X68940476Y-24727149D02*
X69035714Y-24727149D01*
X69035714Y-24727149D02*
X69083333Y-24750959D01*
X69083333Y-24750959D02*
X69107142Y-24774768D01*
X69107142Y-24774768D02*
X69130952Y-24822387D01*
X69130952Y-24822387D02*
X69130952Y-24846197D01*
X69130952Y-24846197D02*
X69107142Y-24893816D01*
X69107142Y-24893816D02*
X69083333Y-24917625D01*
X69083333Y-24917625D02*
X69035714Y-24941435D01*
X69035714Y-24941435D02*
X68940476Y-24941435D01*
X68940476Y-24941435D02*
X68892857Y-24965244D01*
X68892857Y-24965244D02*
X68869047Y-24989054D01*
X68869047Y-24989054D02*
X68845238Y-25036673D01*
X68845238Y-25036673D02*
X68845238Y-25131911D01*
X68845238Y-25131911D02*
X68869047Y-25179530D01*
X68869047Y-25179530D02*
X68892857Y-25203340D01*
X68892857Y-25203340D02*
X68940476Y-25227149D01*
X68940476Y-25227149D02*
X69035714Y-25227149D01*
X69035714Y-25227149D02*
X69083333Y-25203340D01*
X69083333Y-25203340D02*
X69107142Y-25179530D01*
X69107142Y-25179530D02*
X69130952Y-25131911D01*
X69130952Y-25131911D02*
X69130952Y-25036673D01*
X69130952Y-25036673D02*
X69107142Y-24989054D01*
X69107142Y-24989054D02*
X69083333Y-24965244D01*
X69083333Y-24965244D02*
X69035714Y-24941435D01*
X83516666Y-8679530D02*
X83492857Y-8703340D01*
X83492857Y-8703340D02*
X83421428Y-8727149D01*
X83421428Y-8727149D02*
X83373809Y-8727149D01*
X83373809Y-8727149D02*
X83302381Y-8703340D01*
X83302381Y-8703340D02*
X83254762Y-8655720D01*
X83254762Y-8655720D02*
X83230952Y-8608101D01*
X83230952Y-8608101D02*
X83207143Y-8512863D01*
X83207143Y-8512863D02*
X83207143Y-8441435D01*
X83207143Y-8441435D02*
X83230952Y-8346197D01*
X83230952Y-8346197D02*
X83254762Y-8298578D01*
X83254762Y-8298578D02*
X83302381Y-8250959D01*
X83302381Y-8250959D02*
X83373809Y-8227149D01*
X83373809Y-8227149D02*
X83421428Y-8227149D01*
X83421428Y-8227149D02*
X83492857Y-8250959D01*
X83492857Y-8250959D02*
X83516666Y-8274768D01*
X83707143Y-8274768D02*
X83730952Y-8250959D01*
X83730952Y-8250959D02*
X83778571Y-8227149D01*
X83778571Y-8227149D02*
X83897619Y-8227149D01*
X83897619Y-8227149D02*
X83945238Y-8250959D01*
X83945238Y-8250959D02*
X83969047Y-8274768D01*
X83969047Y-8274768D02*
X83992857Y-8322387D01*
X83992857Y-8322387D02*
X83992857Y-8370006D01*
X83992857Y-8370006D02*
X83969047Y-8441435D01*
X83969047Y-8441435D02*
X83683333Y-8727149D01*
X83683333Y-8727149D02*
X83992857Y-8727149D01*
D10*
X67761905Y-8104819D02*
X67761905Y-7104819D01*
X67761905Y-7104819D02*
X68000000Y-7104819D01*
X68000000Y-7104819D02*
X68142857Y-7152438D01*
X68142857Y-7152438D02*
X68238095Y-7247676D01*
X68238095Y-7247676D02*
X68285714Y-7342914D01*
X68285714Y-7342914D02*
X68333333Y-7533390D01*
X68333333Y-7533390D02*
X68333333Y-7676247D01*
X68333333Y-7676247D02*
X68285714Y-7866723D01*
X68285714Y-7866723D02*
X68238095Y-7961961D01*
X68238095Y-7961961D02*
X68142857Y-8057200D01*
X68142857Y-8057200D02*
X68000000Y-8104819D01*
X68000000Y-8104819D02*
X67761905Y-8104819D01*
X68666667Y-7104819D02*
X69333333Y-7104819D01*
X69333333Y-7104819D02*
X68904762Y-8104819D01*
D11*
X90892857Y-42727149D02*
X90892857Y-42227149D01*
X90892857Y-42227149D02*
X91011905Y-42227149D01*
X91011905Y-42227149D02*
X91083333Y-42250959D01*
X91083333Y-42250959D02*
X91130952Y-42298578D01*
X91130952Y-42298578D02*
X91154762Y-42346197D01*
X91154762Y-42346197D02*
X91178571Y-42441435D01*
X91178571Y-42441435D02*
X91178571Y-42512863D01*
X91178571Y-42512863D02*
X91154762Y-42608101D01*
X91154762Y-42608101D02*
X91130952Y-42655720D01*
X91130952Y-42655720D02*
X91083333Y-42703340D01*
X91083333Y-42703340D02*
X91011905Y-42727149D01*
X91011905Y-42727149D02*
X90892857Y-42727149D01*
X91654762Y-42727149D02*
X91369048Y-42727149D01*
X91511905Y-42727149D02*
X91511905Y-42227149D01*
X91511905Y-42227149D02*
X91464286Y-42298578D01*
X91464286Y-42298578D02*
X91416667Y-42346197D01*
X91416667Y-42346197D02*
X91369048Y-42370006D01*
X91964285Y-42227149D02*
X92011904Y-42227149D01*
X92011904Y-42227149D02*
X92059523Y-42250959D01*
X92059523Y-42250959D02*
X92083333Y-42274768D01*
X92083333Y-42274768D02*
X92107142Y-42322387D01*
X92107142Y-42322387D02*
X92130952Y-42417625D01*
X92130952Y-42417625D02*
X92130952Y-42536673D01*
X92130952Y-42536673D02*
X92107142Y-42631911D01*
X92107142Y-42631911D02*
X92083333Y-42679530D01*
X92083333Y-42679530D02*
X92059523Y-42703340D01*
X92059523Y-42703340D02*
X92011904Y-42727149D01*
X92011904Y-42727149D02*
X91964285Y-42727149D01*
X91964285Y-42727149D02*
X91916666Y-42703340D01*
X91916666Y-42703340D02*
X91892857Y-42679530D01*
X91892857Y-42679530D02*
X91869047Y-42631911D01*
X91869047Y-42631911D02*
X91845238Y-42536673D01*
X91845238Y-42536673D02*
X91845238Y-42417625D01*
X91845238Y-42417625D02*
X91869047Y-42322387D01*
X91869047Y-42322387D02*
X91892857Y-42274768D01*
X91892857Y-42274768D02*
X91916666Y-42250959D01*
X91916666Y-42250959D02*
X91964285Y-42227149D01*
D13*
X86895937Y-26411428D02*
X86861651Y-26479999D01*
X86861651Y-26479999D02*
X86793080Y-26548571D01*
X86793080Y-26548571D02*
X86690222Y-26651428D01*
X86690222Y-26651428D02*
X86655937Y-26719999D01*
X86655937Y-26719999D02*
X86655937Y-26788571D01*
X86827365Y-26754285D02*
X86793080Y-26822857D01*
X86793080Y-26822857D02*
X86724508Y-26891428D01*
X86724508Y-26891428D02*
X86587365Y-26925714D01*
X86587365Y-26925714D02*
X86347365Y-26925714D01*
X86347365Y-26925714D02*
X86210222Y-26891428D01*
X86210222Y-26891428D02*
X86141651Y-26822857D01*
X86141651Y-26822857D02*
X86107365Y-26754285D01*
X86107365Y-26754285D02*
X86107365Y-26617142D01*
X86107365Y-26617142D02*
X86141651Y-26548571D01*
X86141651Y-26548571D02*
X86210222Y-26479999D01*
X86210222Y-26479999D02*
X86347365Y-26445714D01*
X86347365Y-26445714D02*
X86587365Y-26445714D01*
X86587365Y-26445714D02*
X86724508Y-26479999D01*
X86724508Y-26479999D02*
X86793080Y-26548571D01*
X86793080Y-26548571D02*
X86827365Y-26617142D01*
X86827365Y-26617142D02*
X86827365Y-26754285D01*
X86827365Y-25759999D02*
X86827365Y-26171428D01*
X86827365Y-25965713D02*
X86107365Y-25965713D01*
X86107365Y-25965713D02*
X86210222Y-26034285D01*
X86210222Y-26034285D02*
X86278794Y-26102856D01*
X86278794Y-26102856D02*
X86313080Y-26171428D01*
X86827365Y-25074285D02*
X86827365Y-25485714D01*
X86827365Y-25279999D02*
X86107365Y-25279999D01*
X86107365Y-25279999D02*
X86210222Y-25348571D01*
X86210222Y-25348571D02*
X86278794Y-25417142D01*
X86278794Y-25417142D02*
X86313080Y-25485714D01*
D11*
X29178571Y-28127149D02*
X29011905Y-27889054D01*
X28892857Y-28127149D02*
X28892857Y-27627149D01*
X28892857Y-27627149D02*
X29083333Y-27627149D01*
X29083333Y-27627149D02*
X29130952Y-27650959D01*
X29130952Y-27650959D02*
X29154762Y-27674768D01*
X29154762Y-27674768D02*
X29178571Y-27722387D01*
X29178571Y-27722387D02*
X29178571Y-27793816D01*
X29178571Y-27793816D02*
X29154762Y-27841435D01*
X29154762Y-27841435D02*
X29130952Y-27865244D01*
X29130952Y-27865244D02*
X29083333Y-27889054D01*
X29083333Y-27889054D02*
X28892857Y-27889054D01*
X29369048Y-27674768D02*
X29392857Y-27650959D01*
X29392857Y-27650959D02*
X29440476Y-27627149D01*
X29440476Y-27627149D02*
X29559524Y-27627149D01*
X29559524Y-27627149D02*
X29607143Y-27650959D01*
X29607143Y-27650959D02*
X29630952Y-27674768D01*
X29630952Y-27674768D02*
X29654762Y-27722387D01*
X29654762Y-27722387D02*
X29654762Y-27770006D01*
X29654762Y-27770006D02*
X29630952Y-27841435D01*
X29630952Y-27841435D02*
X29345238Y-28127149D01*
X29345238Y-28127149D02*
X29654762Y-28127149D01*
X30083333Y-27627149D02*
X29988095Y-27627149D01*
X29988095Y-27627149D02*
X29940476Y-27650959D01*
X29940476Y-27650959D02*
X29916666Y-27674768D01*
X29916666Y-27674768D02*
X29869047Y-27746197D01*
X29869047Y-27746197D02*
X29845238Y-27841435D01*
X29845238Y-27841435D02*
X29845238Y-28031911D01*
X29845238Y-28031911D02*
X29869047Y-28079530D01*
X29869047Y-28079530D02*
X29892857Y-28103340D01*
X29892857Y-28103340D02*
X29940476Y-28127149D01*
X29940476Y-28127149D02*
X30035714Y-28127149D01*
X30035714Y-28127149D02*
X30083333Y-28103340D01*
X30083333Y-28103340D02*
X30107142Y-28079530D01*
X30107142Y-28079530D02*
X30130952Y-28031911D01*
X30130952Y-28031911D02*
X30130952Y-27912863D01*
X30130952Y-27912863D02*
X30107142Y-27865244D01*
X30107142Y-27865244D02*
X30083333Y-27841435D01*
X30083333Y-27841435D02*
X30035714Y-27817625D01*
X30035714Y-27817625D02*
X29940476Y-27817625D01*
X29940476Y-27817625D02*
X29892857Y-27841435D01*
X29892857Y-27841435D02*
X29869047Y-27865244D01*
X29869047Y-27865244D02*
X29845238Y-27912863D01*
D10*
X33738095Y-40604819D02*
X34309523Y-40604819D01*
X34023809Y-41604819D02*
X34023809Y-40604819D01*
X34642857Y-41604819D02*
X34642857Y-40604819D01*
X34642857Y-40604819D02*
X35023809Y-40604819D01*
X35023809Y-40604819D02*
X35119047Y-40652438D01*
X35119047Y-40652438D02*
X35166666Y-40700057D01*
X35166666Y-40700057D02*
X35214285Y-40795295D01*
X35214285Y-40795295D02*
X35214285Y-40938152D01*
X35214285Y-40938152D02*
X35166666Y-41033390D01*
X35166666Y-41033390D02*
X35119047Y-41081009D01*
X35119047Y-41081009D02*
X35023809Y-41128628D01*
X35023809Y-41128628D02*
X34642857Y-41128628D01*
X36071428Y-40604819D02*
X35880952Y-40604819D01*
X35880952Y-40604819D02*
X35785714Y-40652438D01*
X35785714Y-40652438D02*
X35738095Y-40700057D01*
X35738095Y-40700057D02*
X35642857Y-40842914D01*
X35642857Y-40842914D02*
X35595238Y-41033390D01*
X35595238Y-41033390D02*
X35595238Y-41414342D01*
X35595238Y-41414342D02*
X35642857Y-41509580D01*
X35642857Y-41509580D02*
X35690476Y-41557200D01*
X35690476Y-41557200D02*
X35785714Y-41604819D01*
X35785714Y-41604819D02*
X35976190Y-41604819D01*
X35976190Y-41604819D02*
X36071428Y-41557200D01*
X36071428Y-41557200D02*
X36119047Y-41509580D01*
X36119047Y-41509580D02*
X36166666Y-41414342D01*
X36166666Y-41414342D02*
X36166666Y-41176247D01*
X36166666Y-41176247D02*
X36119047Y-41081009D01*
X36119047Y-41081009D02*
X36071428Y-41033390D01*
X36071428Y-41033390D02*
X35976190Y-40985771D01*
X35976190Y-40985771D02*
X35785714Y-40985771D01*
X35785714Y-40985771D02*
X35690476Y-41033390D01*
X35690476Y-41033390D02*
X35642857Y-41081009D01*
X35642857Y-41081009D02*
X35595238Y-41176247D01*
X92785714Y-35404819D02*
X92785714Y-34404819D01*
X92785714Y-34404819D02*
X93023809Y-34404819D01*
X93023809Y-34404819D02*
X93166666Y-34452438D01*
X93166666Y-34452438D02*
X93261904Y-34547676D01*
X93261904Y-34547676D02*
X93309523Y-34642914D01*
X93309523Y-34642914D02*
X93357142Y-34833390D01*
X93357142Y-34833390D02*
X93357142Y-34976247D01*
X93357142Y-34976247D02*
X93309523Y-35166723D01*
X93309523Y-35166723D02*
X93261904Y-35261961D01*
X93261904Y-35261961D02*
X93166666Y-35357200D01*
X93166666Y-35357200D02*
X93023809Y-35404819D01*
X93023809Y-35404819D02*
X92785714Y-35404819D01*
X94309523Y-35404819D02*
X93738095Y-35404819D01*
X94023809Y-35404819D02*
X94023809Y-34404819D01*
X94023809Y-34404819D02*
X93928571Y-34547676D01*
X93928571Y-34547676D02*
X93833333Y-34642914D01*
X93833333Y-34642914D02*
X93738095Y-34690533D01*
X94690476Y-34500057D02*
X94738095Y-34452438D01*
X94738095Y-34452438D02*
X94833333Y-34404819D01*
X94833333Y-34404819D02*
X95071428Y-34404819D01*
X95071428Y-34404819D02*
X95166666Y-34452438D01*
X95166666Y-34452438D02*
X95214285Y-34500057D01*
X95214285Y-34500057D02*
X95261904Y-34595295D01*
X95261904Y-34595295D02*
X95261904Y-34690533D01*
X95261904Y-34690533D02*
X95214285Y-34833390D01*
X95214285Y-34833390D02*
X94642857Y-35404819D01*
X94642857Y-35404819D02*
X95261904Y-35404819D01*
X92785714Y-32604819D02*
X92785714Y-31604819D01*
X92785714Y-31604819D02*
X93023809Y-31604819D01*
X93023809Y-31604819D02*
X93166666Y-31652438D01*
X93166666Y-31652438D02*
X93261904Y-31747676D01*
X93261904Y-31747676D02*
X93309523Y-31842914D01*
X93309523Y-31842914D02*
X93357142Y-32033390D01*
X93357142Y-32033390D02*
X93357142Y-32176247D01*
X93357142Y-32176247D02*
X93309523Y-32366723D01*
X93309523Y-32366723D02*
X93261904Y-32461961D01*
X93261904Y-32461961D02*
X93166666Y-32557200D01*
X93166666Y-32557200D02*
X93023809Y-32604819D01*
X93023809Y-32604819D02*
X92785714Y-32604819D01*
X94309523Y-32604819D02*
X93738095Y-32604819D01*
X94023809Y-32604819D02*
X94023809Y-31604819D01*
X94023809Y-31604819D02*
X93928571Y-31747676D01*
X93928571Y-31747676D02*
X93833333Y-31842914D01*
X93833333Y-31842914D02*
X93738095Y-31890533D01*
X95166666Y-31604819D02*
X94976190Y-31604819D01*
X94976190Y-31604819D02*
X94880952Y-31652438D01*
X94880952Y-31652438D02*
X94833333Y-31700057D01*
X94833333Y-31700057D02*
X94738095Y-31842914D01*
X94738095Y-31842914D02*
X94690476Y-32033390D01*
X94690476Y-32033390D02*
X94690476Y-32414342D01*
X94690476Y-32414342D02*
X94738095Y-32509580D01*
X94738095Y-32509580D02*
X94785714Y-32557200D01*
X94785714Y-32557200D02*
X94880952Y-32604819D01*
X94880952Y-32604819D02*
X95071428Y-32604819D01*
X95071428Y-32604819D02*
X95166666Y-32557200D01*
X95166666Y-32557200D02*
X95214285Y-32509580D01*
X95214285Y-32509580D02*
X95261904Y-32414342D01*
X95261904Y-32414342D02*
X95261904Y-32176247D01*
X95261904Y-32176247D02*
X95214285Y-32081009D01*
X95214285Y-32081009D02*
X95166666Y-32033390D01*
X95166666Y-32033390D02*
X95071428Y-31985771D01*
X95071428Y-31985771D02*
X94880952Y-31985771D01*
X94880952Y-31985771D02*
X94785714Y-32033390D01*
X94785714Y-32033390D02*
X94738095Y-32081009D01*
X94738095Y-32081009D02*
X94690476Y-32176247D01*
D13*
X57431428Y-15595937D02*
X57362857Y-15561651D01*
X57362857Y-15561651D02*
X57294285Y-15493080D01*
X57294285Y-15493080D02*
X57191428Y-15390222D01*
X57191428Y-15390222D02*
X57122857Y-15355937D01*
X57122857Y-15355937D02*
X57054285Y-15355937D01*
X57088571Y-15527365D02*
X57020000Y-15493080D01*
X57020000Y-15493080D02*
X56951428Y-15424508D01*
X56951428Y-15424508D02*
X56917142Y-15287365D01*
X56917142Y-15287365D02*
X56917142Y-15047365D01*
X56917142Y-15047365D02*
X56951428Y-14910222D01*
X56951428Y-14910222D02*
X57020000Y-14841651D01*
X57020000Y-14841651D02*
X57088571Y-14807365D01*
X57088571Y-14807365D02*
X57225714Y-14807365D01*
X57225714Y-14807365D02*
X57294285Y-14841651D01*
X57294285Y-14841651D02*
X57362857Y-14910222D01*
X57362857Y-14910222D02*
X57397142Y-15047365D01*
X57397142Y-15047365D02*
X57397142Y-15287365D01*
X57397142Y-15287365D02*
X57362857Y-15424508D01*
X57362857Y-15424508D02*
X57294285Y-15493080D01*
X57294285Y-15493080D02*
X57225714Y-15527365D01*
X57225714Y-15527365D02*
X57088571Y-15527365D01*
X58014286Y-15047365D02*
X58014286Y-15527365D01*
X57842857Y-14773080D02*
X57671428Y-15287365D01*
X57671428Y-15287365D02*
X58117143Y-15287365D01*
D11*
X68178571Y-3227149D02*
X68011905Y-2989054D01*
X67892857Y-3227149D02*
X67892857Y-2727149D01*
X67892857Y-2727149D02*
X68083333Y-2727149D01*
X68083333Y-2727149D02*
X68130952Y-2750959D01*
X68130952Y-2750959D02*
X68154762Y-2774768D01*
X68154762Y-2774768D02*
X68178571Y-2822387D01*
X68178571Y-2822387D02*
X68178571Y-2893816D01*
X68178571Y-2893816D02*
X68154762Y-2941435D01*
X68154762Y-2941435D02*
X68130952Y-2965244D01*
X68130952Y-2965244D02*
X68083333Y-2989054D01*
X68083333Y-2989054D02*
X67892857Y-2989054D01*
X68345238Y-2727149D02*
X68654762Y-2727149D01*
X68654762Y-2727149D02*
X68488095Y-2917625D01*
X68488095Y-2917625D02*
X68559524Y-2917625D01*
X68559524Y-2917625D02*
X68607143Y-2941435D01*
X68607143Y-2941435D02*
X68630952Y-2965244D01*
X68630952Y-2965244D02*
X68654762Y-3012863D01*
X68654762Y-3012863D02*
X68654762Y-3131911D01*
X68654762Y-3131911D02*
X68630952Y-3179530D01*
X68630952Y-3179530D02*
X68607143Y-3203340D01*
X68607143Y-3203340D02*
X68559524Y-3227149D01*
X68559524Y-3227149D02*
X68416667Y-3227149D01*
X68416667Y-3227149D02*
X68369048Y-3203340D01*
X68369048Y-3203340D02*
X68345238Y-3179530D01*
X69083333Y-2893816D02*
X69083333Y-3227149D01*
X68964285Y-2703340D02*
X68845238Y-3060482D01*
X68845238Y-3060482D02*
X69154761Y-3060482D01*
X47178571Y-43027149D02*
X47011905Y-42789054D01*
X46892857Y-43027149D02*
X46892857Y-42527149D01*
X46892857Y-42527149D02*
X47083333Y-42527149D01*
X47083333Y-42527149D02*
X47130952Y-42550959D01*
X47130952Y-42550959D02*
X47154762Y-42574768D01*
X47154762Y-42574768D02*
X47178571Y-42622387D01*
X47178571Y-42622387D02*
X47178571Y-42693816D01*
X47178571Y-42693816D02*
X47154762Y-42741435D01*
X47154762Y-42741435D02*
X47130952Y-42765244D01*
X47130952Y-42765244D02*
X47083333Y-42789054D01*
X47083333Y-42789054D02*
X46892857Y-42789054D01*
X47345238Y-42527149D02*
X47654762Y-42527149D01*
X47654762Y-42527149D02*
X47488095Y-42717625D01*
X47488095Y-42717625D02*
X47559524Y-42717625D01*
X47559524Y-42717625D02*
X47607143Y-42741435D01*
X47607143Y-42741435D02*
X47630952Y-42765244D01*
X47630952Y-42765244D02*
X47654762Y-42812863D01*
X47654762Y-42812863D02*
X47654762Y-42931911D01*
X47654762Y-42931911D02*
X47630952Y-42979530D01*
X47630952Y-42979530D02*
X47607143Y-43003340D01*
X47607143Y-43003340D02*
X47559524Y-43027149D01*
X47559524Y-43027149D02*
X47416667Y-43027149D01*
X47416667Y-43027149D02*
X47369048Y-43003340D01*
X47369048Y-43003340D02*
X47345238Y-42979530D01*
X47940476Y-42741435D02*
X47892857Y-42717625D01*
X47892857Y-42717625D02*
X47869047Y-42693816D01*
X47869047Y-42693816D02*
X47845238Y-42646197D01*
X47845238Y-42646197D02*
X47845238Y-42622387D01*
X47845238Y-42622387D02*
X47869047Y-42574768D01*
X47869047Y-42574768D02*
X47892857Y-42550959D01*
X47892857Y-42550959D02*
X47940476Y-42527149D01*
X47940476Y-42527149D02*
X48035714Y-42527149D01*
X48035714Y-42527149D02*
X48083333Y-42550959D01*
X48083333Y-42550959D02*
X48107142Y-42574768D01*
X48107142Y-42574768D02*
X48130952Y-42622387D01*
X48130952Y-42622387D02*
X48130952Y-42646197D01*
X48130952Y-42646197D02*
X48107142Y-42693816D01*
X48107142Y-42693816D02*
X48083333Y-42717625D01*
X48083333Y-42717625D02*
X48035714Y-42741435D01*
X48035714Y-42741435D02*
X47940476Y-42741435D01*
X47940476Y-42741435D02*
X47892857Y-42765244D01*
X47892857Y-42765244D02*
X47869047Y-42789054D01*
X47869047Y-42789054D02*
X47845238Y-42836673D01*
X47845238Y-42836673D02*
X47845238Y-42931911D01*
X47845238Y-42931911D02*
X47869047Y-42979530D01*
X47869047Y-42979530D02*
X47892857Y-43003340D01*
X47892857Y-43003340D02*
X47940476Y-43027149D01*
X47940476Y-43027149D02*
X48035714Y-43027149D01*
X48035714Y-43027149D02*
X48083333Y-43003340D01*
X48083333Y-43003340D02*
X48107142Y-42979530D01*
X48107142Y-42979530D02*
X48130952Y-42931911D01*
X48130952Y-42931911D02*
X48130952Y-42836673D01*
X48130952Y-42836673D02*
X48107142Y-42789054D01*
X48107142Y-42789054D02*
X48083333Y-42765244D01*
X48083333Y-42765244D02*
X48035714Y-42741435D01*
D10*
X96238095Y-36604819D02*
X96809523Y-36604819D01*
X96523809Y-37604819D02*
X96523809Y-36604819D01*
X97142857Y-37604819D02*
X97142857Y-36604819D01*
X97142857Y-36604819D02*
X97523809Y-36604819D01*
X97523809Y-36604819D02*
X97619047Y-36652438D01*
X97619047Y-36652438D02*
X97666666Y-36700057D01*
X97666666Y-36700057D02*
X97714285Y-36795295D01*
X97714285Y-36795295D02*
X97714285Y-36938152D01*
X97714285Y-36938152D02*
X97666666Y-37033390D01*
X97666666Y-37033390D02*
X97619047Y-37081009D01*
X97619047Y-37081009D02*
X97523809Y-37128628D01*
X97523809Y-37128628D02*
X97142857Y-37128628D01*
X98666666Y-37604819D02*
X98095238Y-37604819D01*
X98380952Y-37604819D02*
X98380952Y-36604819D01*
X98380952Y-36604819D02*
X98285714Y-36747676D01*
X98285714Y-36747676D02*
X98190476Y-36842914D01*
X98190476Y-36842914D02*
X98095238Y-36890533D01*
D11*
X90416666Y-18027149D02*
X90250000Y-17789054D01*
X90130952Y-18027149D02*
X90130952Y-17527149D01*
X90130952Y-17527149D02*
X90321428Y-17527149D01*
X90321428Y-17527149D02*
X90369047Y-17550959D01*
X90369047Y-17550959D02*
X90392857Y-17574768D01*
X90392857Y-17574768D02*
X90416666Y-17622387D01*
X90416666Y-17622387D02*
X90416666Y-17693816D01*
X90416666Y-17693816D02*
X90392857Y-17741435D01*
X90392857Y-17741435D02*
X90369047Y-17765244D01*
X90369047Y-17765244D02*
X90321428Y-17789054D01*
X90321428Y-17789054D02*
X90130952Y-17789054D01*
X90869047Y-17527149D02*
X90630952Y-17527149D01*
X90630952Y-17527149D02*
X90607143Y-17765244D01*
X90607143Y-17765244D02*
X90630952Y-17741435D01*
X90630952Y-17741435D02*
X90678571Y-17717625D01*
X90678571Y-17717625D02*
X90797619Y-17717625D01*
X90797619Y-17717625D02*
X90845238Y-17741435D01*
X90845238Y-17741435D02*
X90869047Y-17765244D01*
X90869047Y-17765244D02*
X90892857Y-17812863D01*
X90892857Y-17812863D02*
X90892857Y-17931911D01*
X90892857Y-17931911D02*
X90869047Y-17979530D01*
X90869047Y-17979530D02*
X90845238Y-18003340D01*
X90845238Y-18003340D02*
X90797619Y-18027149D01*
X90797619Y-18027149D02*
X90678571Y-18027149D01*
X90678571Y-18027149D02*
X90630952Y-18003340D01*
X90630952Y-18003340D02*
X90607143Y-17979530D01*
D14*
%TO.C,R11*%
X28500000Y-21675000D02*
X30500000Y-21675000D01*
X28500000Y-22925000D02*
X28500000Y-21675000D01*
X30500000Y-21675000D02*
X30500000Y-22925000D01*
X30500000Y-22925000D02*
X28500000Y-22925000D01*
%TO.C,C11*%
X27900000Y-32900000D02*
X31100000Y-32900000D01*
X27900000Y-34500000D02*
X27900000Y-32900000D01*
X31100000Y-32900000D02*
X31100000Y-34500000D01*
X31100000Y-34500000D02*
X27900000Y-34500000D01*
%TO.C,C8*%
X28500000Y-24475000D02*
X30500000Y-24475000D01*
X28500000Y-25725000D02*
X28500000Y-24475000D01*
X30500000Y-24475000D02*
X30500000Y-25725000D01*
X30500000Y-25725000D02*
X28500000Y-25725000D01*
%TO.C,R13*%
X34000000Y-21675000D02*
X36000000Y-21675000D01*
X34000000Y-22925000D02*
X34000000Y-21675000D01*
X36000000Y-21675000D02*
X36000000Y-22925000D01*
X36000000Y-22925000D02*
X34000000Y-22925000D01*
%TO.C,C3*%
X102700000Y-9200000D02*
X104300000Y-9200000D01*
X102700000Y-12400000D02*
X102700000Y-9200000D01*
X104300000Y-9200000D02*
X104300000Y-12400000D01*
X104300000Y-12400000D02*
X102700000Y-12400000D01*
%TO.C,D1*%
X38700000Y-12200000D02*
X43300000Y-12200000D01*
X38700000Y-16200000D02*
X38700000Y-12200000D01*
X38700000Y-16200000D02*
X43300000Y-16200000D01*
X40498820Y-13449680D02*
X40498820Y-14999080D01*
X40498820Y-14198980D02*
X39500600Y-14198980D01*
X41649440Y-14198980D02*
X40498820Y-13449680D01*
X41649440Y-14198980D02*
X40498820Y-14999080D01*
X41649440Y-14198980D02*
X42551140Y-14198980D01*
X41649440Y-14999080D02*
X41649440Y-13398880D01*
X43300000Y-12200000D02*
X43300000Y-16200000D01*
%TO.C,D15*%
X93100000Y-19300000D02*
X94900000Y-19300000D01*
X93100000Y-20700000D02*
X93100000Y-19300000D01*
X93700000Y-19650000D02*
X93700000Y-20350000D01*
X93700000Y-20000000D02*
X93500000Y-20000000D01*
X93700000Y-20000000D02*
X94200000Y-19650000D01*
X94200000Y-19650000D02*
X94200000Y-20350000D01*
X94200000Y-20000000D02*
X94450000Y-20000000D01*
X94200000Y-20350000D02*
X93700000Y-20000000D01*
X94900000Y-19300000D02*
X94900000Y-20700000D01*
X94900000Y-20700000D02*
X93100000Y-20700000D01*
%TO.C,C6*%
X20800000Y-20175000D02*
X22800000Y-20175000D01*
X20800000Y-21425000D02*
X20800000Y-20175000D01*
X22800000Y-20175000D02*
X22800000Y-21425000D01*
X22800000Y-21425000D02*
X20800000Y-21425000D01*
%TO.C,C16*%
X75000000Y-20575000D02*
X77000000Y-20575000D01*
X75000000Y-21825000D02*
X75000000Y-20575000D01*
X77000000Y-20575000D02*
X77000000Y-21825000D01*
X77000000Y-21825000D02*
X75000000Y-21825000D01*
%TO.C,D8*%
X64500000Y-42200000D02*
X64500000Y-43100000D01*
X64500000Y-43100000D02*
X66500000Y-43100000D01*
X64800000Y-41900000D02*
X64500000Y-42200000D01*
X66500000Y-41900000D02*
X64800000Y-41900000D01*
X66500000Y-43100000D02*
X66500000Y-41900000D01*
%TO.C,R14*%
X34000000Y-30075000D02*
X36000000Y-30075000D01*
X34000000Y-31325000D02*
X34000000Y-30075000D01*
X36000000Y-30075000D02*
X36000000Y-31325000D01*
X36000000Y-31325000D02*
X34000000Y-31325000D01*
%TO.C,R12*%
X34000000Y-18875000D02*
X36000000Y-18875000D01*
X34000000Y-20125000D02*
X34000000Y-18875000D01*
X36000000Y-18875000D02*
X36000000Y-20125000D01*
X36000000Y-20125000D02*
X34000000Y-20125000D01*
%TO.C,Q2*%
X71150000Y-34450000D02*
X69850000Y-34450000D01*
X69850000Y-31875000D01*
X70175000Y-31550000D01*
X71150000Y-31550000D01*
X71150000Y-34450000D01*
%TO.C,R32*%
X61500000Y-14975000D02*
X63500000Y-14975000D01*
X61500000Y-16225000D02*
X61500000Y-14975000D01*
X63500000Y-14975000D02*
X63500000Y-16225000D01*
X63500000Y-16225000D02*
X61500000Y-16225000D01*
%TO.C,R8*%
X59500000Y-18875000D02*
X61500000Y-18875000D01*
X59500000Y-20125000D02*
X59500000Y-18875000D01*
X61500000Y-18875000D02*
X61500000Y-20125000D01*
X61500000Y-20125000D02*
X59500000Y-20125000D01*
%TO.C,R1*%
X93500000Y-12375000D02*
X95500000Y-12375000D01*
X93500000Y-13625000D02*
X93500000Y-12375000D01*
X95500000Y-12375000D02*
X95500000Y-13625000D01*
X95500000Y-13625000D02*
X93500000Y-13625000D01*
%TO.C,R10*%
X28500000Y-18875000D02*
X30500000Y-18875000D01*
X28500000Y-20125000D02*
X28500000Y-18875000D01*
X30500000Y-18875000D02*
X30500000Y-20125000D01*
X30500000Y-20125000D02*
X28500000Y-20125000D01*
%TO.C,Q5*%
X69450000Y-13450000D02*
X66875000Y-13450000D01*
X66550000Y-13125000D01*
X66550000Y-12150000D01*
X69450000Y-12150000D01*
X69450000Y-13450000D01*
%TO.C,L1*%
X94600000Y-2800000D02*
X95600000Y-1800000D01*
X94600000Y-5600000D02*
X94600000Y-2800000D01*
X94600000Y-5600000D02*
X95600000Y-6600000D01*
X95600000Y-1800000D02*
X98400000Y-1800000D01*
X98400000Y-1800000D02*
X99400000Y-2800000D01*
X98400000Y-6600000D02*
X95600000Y-6600000D01*
X99400000Y-2800000D02*
X99400000Y-5600000D01*
X99400000Y-5600000D02*
X98400000Y-6600000D01*
%TO.C,D11*%
X51000000Y-42500000D02*
X51000000Y-43400000D01*
X51000000Y-43400000D02*
X53000000Y-43400000D01*
X51300000Y-42200000D02*
X51000000Y-42500000D01*
X53000000Y-42200000D02*
X51300000Y-42200000D01*
X53000000Y-43400000D02*
X53000000Y-42200000D01*
%TO.C,R19*%
X54000000Y-21675000D02*
X56000000Y-21675000D01*
X54000000Y-22925000D02*
X54000000Y-21675000D01*
X56000000Y-21675000D02*
X56000000Y-22925000D01*
X56000000Y-22925000D02*
X54000000Y-22925000D01*
%TO.C,U2*%
X20500000Y-27500000D02*
X18250000Y-27500000D01*
X17500000Y-26750000D01*
X17500000Y-24500000D01*
X20500000Y-24500000D01*
X20500000Y-27500000D01*
%TO.C,D2*%
X74200000Y-11700000D02*
X78800000Y-11700000D01*
X74200000Y-14700000D02*
X74200000Y-11700000D01*
X74200000Y-14700000D02*
X78800000Y-14700000D01*
X75998820Y-12449680D02*
X75998820Y-13999080D01*
X75998820Y-13198980D02*
X75000600Y-13198980D01*
X77149440Y-13198980D02*
X75998820Y-12449680D01*
X77149440Y-13198980D02*
X75998820Y-13999080D01*
X77149440Y-13198980D02*
X78051140Y-13198980D01*
X77149440Y-13999080D02*
X77149440Y-12398880D01*
X78800000Y-11700000D02*
X78800000Y-14700000D01*
%TO.C,R24*%
X59500000Y-27275000D02*
X61500000Y-27275000D01*
X59500000Y-28525000D02*
X59500000Y-27275000D01*
X61500000Y-27275000D02*
X61500000Y-28525000D01*
X61500000Y-28525000D02*
X59500000Y-28525000D01*
%TO.C,U5*%
X74525000Y-26400000D02*
X74525000Y-24300000D01*
X75525000Y-23600000D02*
X74525000Y-24300000D01*
X75525000Y-23600000D02*
X77475000Y-23600000D01*
X77475000Y-23600000D02*
X77475000Y-26400000D01*
X77475000Y-26400000D02*
X74525000Y-26400000D01*
%TO.C,Q3*%
X71150000Y-38950000D02*
X69850000Y-38950000D01*
X69850000Y-36375000D01*
X70175000Y-36050000D01*
X71150000Y-36050000D01*
X71150000Y-38950000D01*
%TO.C,C9*%
X34000000Y-24475000D02*
X36000000Y-24475000D01*
X34000000Y-25725000D02*
X34000000Y-24475000D01*
X36000000Y-24475000D02*
X36000000Y-25725000D01*
X36000000Y-25725000D02*
X34000000Y-25725000D01*
%TO.C,R9*%
X59500000Y-21675000D02*
X61500000Y-21675000D01*
X59500000Y-22925000D02*
X59500000Y-21675000D01*
X61500000Y-21675000D02*
X61500000Y-22925000D01*
X61500000Y-22925000D02*
X59500000Y-22925000D01*
%TO.C,R6*%
X11200000Y-17875000D02*
X13200000Y-17875000D01*
X11200000Y-19125000D02*
X11200000Y-17875000D01*
X13200000Y-17875000D02*
X13200000Y-19125000D01*
X13200000Y-19125000D02*
X11200000Y-19125000D01*
%TO.C,R2*%
X93500000Y-14975000D02*
X95500000Y-14975000D01*
X93500000Y-16225000D02*
X93500000Y-14975000D01*
X95500000Y-14975000D02*
X95500000Y-16225000D01*
X95500000Y-16225000D02*
X93500000Y-16225000D01*
%TO.C,R31*%
X25000000Y-11975000D02*
X27000000Y-11975000D01*
X25000000Y-13225000D02*
X25000000Y-11975000D01*
X27000000Y-11975000D02*
X27000000Y-13225000D01*
X27000000Y-13225000D02*
X25000000Y-13225000D01*
%TO.C,R36*%
X74500000Y-41875000D02*
X76500000Y-41875000D01*
X74500000Y-43125000D02*
X74500000Y-41875000D01*
X76500000Y-41875000D02*
X76500000Y-43125000D01*
X76500000Y-43125000D02*
X74500000Y-43125000D01*
%TO.C,D5*%
X13200000Y-4300000D02*
X17800000Y-4300000D01*
X13200000Y-8300000D02*
X13200000Y-4300000D01*
X13200000Y-8300000D02*
X17800000Y-8300000D01*
X14998820Y-5549680D02*
X14998820Y-7099080D01*
X14998820Y-6298980D02*
X14000600Y-6298980D01*
X16149440Y-6298980D02*
X14998820Y-5549680D01*
X16149440Y-6298980D02*
X14998820Y-7099080D01*
X16149440Y-6298980D02*
X17051140Y-6298980D01*
X16149440Y-7099080D02*
X16149440Y-5498880D01*
X17800000Y-4300000D02*
X17800000Y-8300000D01*
%TO.C,R4*%
X83200000Y-10375000D02*
X85200000Y-10375000D01*
X83200000Y-11625000D02*
X83200000Y-10375000D01*
X85200000Y-10375000D02*
X85200000Y-11625000D01*
X85200000Y-11625000D02*
X83200000Y-11625000D01*
%TO.C,R20*%
X54000000Y-27275000D02*
X56000000Y-27275000D01*
X54000000Y-28525000D02*
X54000000Y-27275000D01*
X56000000Y-27275000D02*
X56000000Y-28525000D01*
X56000000Y-28525000D02*
X54000000Y-28525000D01*
%TO.C,U3*%
X46950000Y-33825000D02*
X43050000Y-33825000D01*
X43050000Y-26150000D01*
X44025000Y-25175000D01*
X46950000Y-25175000D01*
X46950000Y-33825000D01*
%TO.C,Q12*%
X87150000Y-32450000D02*
X85850000Y-32450000D01*
X85850000Y-29875000D01*
X86175000Y-29550000D01*
X87150000Y-29550000D01*
X87150000Y-32450000D01*
%TO.C,D9*%
X79500000Y-42200000D02*
X79500000Y-43100000D01*
X79500000Y-43100000D02*
X81500000Y-43100000D01*
X79800000Y-41900000D02*
X79500000Y-42200000D01*
X81500000Y-41900000D02*
X79800000Y-41900000D01*
X81500000Y-43100000D02*
X81500000Y-41900000D01*
%TO.C,Q10*%
X87150000Y-22450000D02*
X85850000Y-22450000D01*
X85850000Y-19875000D01*
X86175000Y-19550000D01*
X87150000Y-19550000D01*
X87150000Y-22450000D01*
%TO.C,P3*%
X98530000Y-18425000D02*
X98530000Y-19625000D01*
X98530000Y-19625000D02*
X99030000Y-19625000D01*
X98530000Y-33375000D02*
X98530000Y-34575000D01*
X98530000Y-34575000D02*
X105900000Y-34575000D01*
X99030000Y-19625000D02*
X99030000Y-33375000D01*
X99030000Y-31500000D02*
X99737107Y-31000000D01*
X99030000Y-33375000D02*
X98530000Y-33375000D01*
X99660000Y-18425000D02*
X99030000Y-19625000D01*
X99660000Y-34575000D02*
X99030000Y-33375000D01*
X99737107Y-31000000D02*
X99030000Y-30500000D01*
X105900000Y-18425000D02*
X98530000Y-18425000D01*
X105900000Y-27200000D02*
X107300000Y-27200000D01*
X105900000Y-34575000D02*
X105900000Y-18425000D01*
X107300000Y-25800000D02*
X105900000Y-25800000D01*
X107300000Y-27200000D02*
X107300000Y-25800000D01*
%TO.C,Q8*%
X79650000Y-39950000D02*
X78350000Y-39950000D01*
X78350000Y-37375000D01*
X78675000Y-37050000D01*
X79650000Y-37050000D01*
X79650000Y-39950000D01*
%TO.C,R37*%
X85500000Y-41875000D02*
X87500000Y-41875000D01*
X85500000Y-43125000D02*
X85500000Y-41875000D01*
X87500000Y-41875000D02*
X87500000Y-43125000D01*
X87500000Y-43125000D02*
X85500000Y-43125000D01*
%TO.C,R30*%
X29500000Y-11975000D02*
X31500000Y-11975000D01*
X29500000Y-13225000D02*
X29500000Y-11975000D01*
X31500000Y-11975000D02*
X31500000Y-13225000D01*
X31500000Y-13225000D02*
X29500000Y-13225000D01*
%TO.C,Q7*%
X64650000Y-39950000D02*
X63350000Y-39950000D01*
X63350000Y-37375000D01*
X63675000Y-37050000D01*
X64650000Y-37050000D01*
X64650000Y-39950000D01*
%TO.C,U1*%
X87950000Y-10550000D02*
X87950000Y-8225000D01*
X88725000Y-7450000D02*
X87950000Y-8225000D01*
X88725000Y-7450000D02*
X91050000Y-7450000D01*
X91050000Y-7450000D02*
X91050000Y-10550000D01*
X91050000Y-10550000D02*
X87950000Y-10550000D01*
%TO.C,D4*%
X28100000Y-35800000D02*
X30900000Y-35800000D01*
X28100000Y-37600000D02*
X28100000Y-35800000D01*
X28750000Y-36700000D02*
X29150000Y-36700000D01*
X29150000Y-36700000D02*
X29150000Y-36150000D01*
X29150000Y-36700000D02*
X29150000Y-37250000D01*
X29150000Y-36700000D02*
X29750000Y-36300000D01*
X29750000Y-36300000D02*
X29750000Y-37100000D01*
X29750000Y-36700000D02*
X30250000Y-36700000D01*
X29750000Y-37100000D02*
X29150000Y-36700000D01*
X30900000Y-35800000D02*
X30900000Y-37600000D01*
X30900000Y-37600000D02*
X28100000Y-37600000D01*
%TO.C,C18*%
X75000000Y-31674999D02*
X77000000Y-31674999D01*
X75000000Y-32924999D02*
X75000000Y-31674999D01*
X77000000Y-31674999D02*
X77000000Y-32924999D01*
X77000000Y-32924999D02*
X75000000Y-32924999D01*
%TO.C,R21*%
X54000000Y-30075000D02*
X56000000Y-30075000D01*
X54000000Y-31325000D02*
X54000000Y-30075000D01*
X56000000Y-30075000D02*
X56000000Y-31325000D01*
X56000000Y-31325000D02*
X54000000Y-31325000D01*
%TO.C,P2*%
X1925000Y-16530000D02*
X1925000Y-23900000D01*
X1925000Y-17660000D02*
X3125000Y-17030000D01*
X1925000Y-23900000D02*
X9075000Y-23900000D01*
X3125000Y-16530000D02*
X1925000Y-16530000D01*
X3125000Y-17030000D02*
X3125000Y-16530000D01*
X4800000Y-23900000D02*
X4800000Y-25300000D01*
X4800000Y-25300000D02*
X6200000Y-25300000D01*
X5000000Y-17030000D02*
X5500000Y-17737107D01*
X5500000Y-17737107D02*
X6000000Y-17030000D01*
X6200000Y-25300000D02*
X6200000Y-23900000D01*
X7875000Y-16530000D02*
X7875000Y-17030000D01*
X7875000Y-17030000D02*
X3125000Y-17030000D01*
X9075000Y-16530000D02*
X7875000Y-16530000D01*
X9075000Y-17660000D02*
X7875000Y-17030000D01*
X9075000Y-23900000D02*
X9075000Y-16530000D01*
%TO.C,R29*%
X75000000Y-28875000D02*
X77000000Y-28875000D01*
X75000000Y-30125000D02*
X75000000Y-28875000D01*
X77000000Y-28875000D02*
X77000000Y-30125000D01*
X77000000Y-30125000D02*
X75000000Y-30125000D01*
%TO.C,R27*%
X28500000Y-38875000D02*
X30500000Y-38875000D01*
X28500000Y-40125000D02*
X28500000Y-38875000D01*
X30500000Y-38875000D02*
X30500000Y-40125000D01*
X30500000Y-40125000D02*
X28500000Y-40125000D01*
%TO.C,R3*%
X83200000Y-12975000D02*
X85200000Y-12975000D01*
X83200000Y-14225000D02*
X83200000Y-12975000D01*
X85200000Y-12975000D02*
X85200000Y-14225000D01*
X85200000Y-14225000D02*
X83200000Y-14225000D01*
%TO.C,C10*%
X34000000Y-35675000D02*
X36000000Y-35675000D01*
X34000000Y-36925000D02*
X34000000Y-35675000D01*
X36000000Y-35675000D02*
X36000000Y-36925000D01*
X36000000Y-36925000D02*
X34000000Y-36925000D01*
%TO.C,Q1*%
X24650000Y-10350000D02*
X24650000Y-3650000D01*
X27350000Y-10350000D02*
X24650000Y-10350000D01*
X28350000Y-3650000D02*
X24650000Y-3650000D01*
X28350000Y-9350000D02*
X27350000Y-10350000D01*
X28350000Y-9350000D02*
X28350000Y-3650000D01*
%TO.C,D14*%
X93100000Y-24900000D02*
X94900000Y-24900000D01*
X93100000Y-26300000D02*
X93100000Y-24900000D01*
X93700000Y-25250000D02*
X93700000Y-25950000D01*
X93700000Y-25600000D02*
X93500000Y-25600000D01*
X93700000Y-25600000D02*
X94200000Y-25250000D01*
X94200000Y-25250000D02*
X94200000Y-25950000D01*
X94200000Y-25600000D02*
X94450000Y-25600000D01*
X94200000Y-25950000D02*
X93700000Y-25600000D01*
X94900000Y-24900000D02*
X94900000Y-26300000D01*
X94900000Y-26300000D02*
X93100000Y-26300000D01*
%TO.C,R23*%
X54000000Y-38475000D02*
X56000000Y-38475000D01*
X54000000Y-39725000D02*
X54000000Y-38475000D01*
X56000000Y-38475000D02*
X56000000Y-39725000D01*
X56000000Y-39725000D02*
X54000000Y-39725000D01*
%TO.C,R7*%
X11200000Y-21875000D02*
X13200000Y-21875000D01*
X11200000Y-23125000D02*
X11200000Y-21875000D01*
X13200000Y-21875000D02*
X13200000Y-23125000D01*
X13200000Y-23125000D02*
X11200000Y-23125000D01*
%TO.C,R22*%
X54000000Y-32875000D02*
X56000000Y-32875000D01*
X54000000Y-34125000D02*
X54000000Y-32875000D01*
X56000000Y-32875000D02*
X56000000Y-34125000D01*
X56000000Y-34125000D02*
X54000000Y-34125000D01*
%TO.C,C14*%
X39000000Y-23375000D02*
X41000000Y-23375000D01*
X39000000Y-24625000D02*
X39000000Y-23375000D01*
X41000000Y-23375000D02*
X41000000Y-24625000D01*
X41000000Y-24625000D02*
X39000000Y-24625000D01*
%TO.C,Q6*%
X58650000Y-4650000D02*
X58650000Y-10350000D01*
X58650000Y-4650000D02*
X59650000Y-3650000D01*
X58650000Y-10350000D02*
X62350000Y-10350000D01*
X59650000Y-3650000D02*
X62350000Y-3650000D01*
X62350000Y-3650000D02*
X62350000Y-10350000D01*
%TO.C,C4*%
X99675000Y-9200000D02*
X100925000Y-9200000D01*
X99675000Y-11200000D02*
X99675000Y-9200000D01*
X100925000Y-9200000D02*
X100925000Y-11200000D01*
X100925000Y-11200000D02*
X99675000Y-11200000D01*
%TO.C,R17*%
X28500000Y-30075000D02*
X30500000Y-30075000D01*
X28500000Y-31325000D02*
X28500000Y-30075000D01*
X30500000Y-30075000D02*
X30500000Y-31325000D01*
X30500000Y-31325000D02*
X28500000Y-31325000D01*
%TO.C,C1*%
X77600000Y-7250000D02*
X80800000Y-7250000D01*
X77600000Y-9750000D02*
X77600000Y-7250000D01*
X80800000Y-7250000D02*
X80800000Y-9750000D01*
X80800000Y-9750000D02*
X77600000Y-9750000D01*
%TO.C,R25*%
X59500000Y-30075000D02*
X61500000Y-30075000D01*
X59500000Y-31325000D02*
X59500000Y-30075000D01*
X61500000Y-30075000D02*
X61500000Y-31325000D01*
X61500000Y-31325000D02*
X59500000Y-31325000D01*
%TO.C,R18*%
X54000000Y-18875000D02*
X56000000Y-18875000D01*
X54000000Y-20125000D02*
X54000000Y-18875000D01*
X56000000Y-18875000D02*
X56000000Y-20125000D01*
X56000000Y-20125000D02*
X54000000Y-20125000D01*
%TO.C,D3*%
X97500000Y-14500000D02*
X97500000Y-15400000D01*
X97500000Y-15400000D02*
X99500000Y-15400000D01*
X97800000Y-14200000D02*
X97500000Y-14500000D01*
X99500000Y-14200000D02*
X97800000Y-14200000D01*
X99500000Y-15400000D02*
X99500000Y-14200000D01*
%TO.C,D17*%
X93100000Y-27700000D02*
X94900000Y-27700000D01*
X93100000Y-29100000D02*
X93100000Y-27700000D01*
X93700000Y-28050000D02*
X93700000Y-28750000D01*
X93700000Y-28400000D02*
X93500000Y-28400000D01*
X93700000Y-28400000D02*
X94200000Y-28050000D01*
X94200000Y-28050000D02*
X94200000Y-28750000D01*
X94200000Y-28400000D02*
X94450000Y-28400000D01*
X94200000Y-28750000D02*
X93700000Y-28400000D01*
X94900000Y-27700000D02*
X94900000Y-29100000D01*
X94900000Y-29100000D02*
X93100000Y-29100000D01*
%TO.C,D13*%
X93100000Y-30500000D02*
X94900000Y-30500000D01*
X93100000Y-31900000D02*
X93100000Y-30500000D01*
X93700000Y-30850000D02*
X93700000Y-31550000D01*
X93700000Y-31200000D02*
X93500000Y-31200000D01*
X93700000Y-31200000D02*
X94200000Y-30850000D01*
X94200000Y-30850000D02*
X94200000Y-31550000D01*
X94200000Y-31200000D02*
X94450000Y-31200000D01*
X94200000Y-31550000D02*
X93700000Y-31200000D01*
X94900000Y-30500000D02*
X94900000Y-31900000D01*
X94900000Y-31900000D02*
X93100000Y-31900000D01*
%TO.C,P1*%
X34425000Y-730000D02*
X34425000Y-8100000D01*
X34425000Y-1860000D02*
X35625000Y-1230000D01*
X34425000Y-8100000D02*
X53575000Y-8100000D01*
X35625000Y-730000D02*
X34425000Y-730000D01*
X35625000Y-1230000D02*
X35625000Y-730000D01*
X37500000Y-1230000D02*
X38000000Y-1937107D01*
X38000000Y-1937107D02*
X38500000Y-1230000D01*
X43300000Y-8100000D02*
X43300000Y-9500000D01*
X43300000Y-9500000D02*
X44700000Y-9500000D01*
X44700000Y-9500000D02*
X44700000Y-8100000D01*
X52375000Y-730000D02*
X52375000Y-1230000D01*
X52375000Y-1230000D02*
X35625000Y-1230000D01*
X53575000Y-730000D02*
X52375000Y-730000D01*
X53575000Y-1860000D02*
X52375000Y-1230000D01*
X53575000Y-8100000D02*
X53575000Y-730000D01*
%TO.C,U4*%
X69300000Y-22450000D02*
X67700000Y-22450000D01*
X67700000Y-19950000D01*
X68100000Y-19550000D01*
X69300000Y-19550000D01*
X69300000Y-22450000D01*
%TO.C,Q9*%
X90650000Y-39950000D02*
X89350000Y-39950000D01*
X89350000Y-37375000D01*
X89675000Y-37050000D01*
X90650000Y-37050000D01*
X90650000Y-39950000D01*
%TO.C,C13*%
X54000000Y-35675000D02*
X56000000Y-35675000D01*
X54000000Y-36925000D02*
X54000000Y-35675000D01*
X56000000Y-35675000D02*
X56000000Y-36925000D01*
X56000000Y-36925000D02*
X54000000Y-36925000D01*
%TO.C,R33*%
X67500000Y-7975000D02*
X69500000Y-7975000D01*
X67500000Y-9225000D02*
X67500000Y-7975000D01*
X69500000Y-7975000D02*
X69500000Y-9225000D01*
X69500000Y-9225000D02*
X67500000Y-9225000D01*
%TO.C,R16*%
X34000000Y-27275000D02*
X36000000Y-27275000D01*
X34000000Y-28525000D02*
X34000000Y-27275000D01*
X36000000Y-27275000D02*
X36000000Y-28525000D01*
X36000000Y-28525000D02*
X34000000Y-28525000D01*
%TO.C,D18*%
X93100000Y-22100000D02*
X94900000Y-22100000D01*
X93100000Y-23500000D02*
X93100000Y-22100000D01*
X93700000Y-22450000D02*
X93700000Y-23150000D01*
X93700000Y-22800000D02*
X93500000Y-22800000D01*
X93700000Y-22800000D02*
X94200000Y-22450000D01*
X94200000Y-22450000D02*
X94200000Y-23150000D01*
X94200000Y-22800000D02*
X94450000Y-22800000D01*
X94200000Y-23150000D02*
X93700000Y-22800000D01*
X94900000Y-22100000D02*
X94900000Y-23500000D01*
X94900000Y-23500000D02*
X93100000Y-23500000D01*
%TO.C,C7*%
X59500000Y-24475000D02*
X61500000Y-24475000D01*
X59500000Y-25725000D02*
X59500000Y-24475000D01*
X61500000Y-24475000D02*
X61500000Y-25725000D01*
X61500000Y-25725000D02*
X59500000Y-25725000D01*
%TO.C,C5*%
X14375000Y-19500000D02*
X15625000Y-19500000D01*
X14375000Y-21500000D02*
X14375000Y-19500000D01*
X15625000Y-19500000D02*
X15625000Y-21500000D01*
X15625000Y-21500000D02*
X14375000Y-21500000D01*
%TO.C,C17*%
X67500000Y-27175000D02*
X69500000Y-27175000D01*
X67500000Y-28425000D02*
X67500000Y-27175000D01*
X69500000Y-27175000D02*
X69500000Y-28425000D01*
X69500000Y-28425000D02*
X67500000Y-28425000D01*
%TO.C,R15*%
X34000000Y-32875000D02*
X36000000Y-32875000D01*
X34000000Y-34125000D02*
X34000000Y-32875000D01*
X36000000Y-32875000D02*
X36000000Y-34125000D01*
X36000000Y-34125000D02*
X34000000Y-34125000D01*
%TO.C,D6*%
X46700000Y-16200000D02*
X46700000Y-12200000D01*
X48350560Y-13400920D02*
X48350560Y-15001120D01*
X48350560Y-14201020D02*
X47448860Y-14201020D01*
X48350560Y-14201020D02*
X49501180Y-13400920D01*
X48350560Y-14201020D02*
X49501180Y-14950320D01*
X49501180Y-14201020D02*
X50499400Y-14201020D01*
X49501180Y-14950320D02*
X49501180Y-13400920D01*
X51300000Y-12200000D02*
X46700000Y-12200000D01*
X51300000Y-12200000D02*
X51300000Y-16200000D01*
X51300000Y-16200000D02*
X46700000Y-16200000D01*
%TO.C,C12*%
X54000000Y-24475000D02*
X56000000Y-24475000D01*
X54000000Y-25725000D02*
X54000000Y-24475000D01*
X56000000Y-24475000D02*
X56000000Y-25725000D01*
X56000000Y-25725000D02*
X54000000Y-25725000D01*
%TO.C,C15*%
X67500000Y-17175000D02*
X69500000Y-17175000D01*
X67500000Y-18425000D02*
X67500000Y-17175000D01*
X69500000Y-17175000D02*
X69500000Y-18425000D01*
X69500000Y-18425000D02*
X67500000Y-18425000D01*
%TO.C,R35*%
X59500000Y-41875000D02*
X61500000Y-41875000D01*
X59500000Y-43125000D02*
X59500000Y-41875000D01*
X61500000Y-41875000D02*
X61500000Y-43125000D01*
X61500000Y-43125000D02*
X59500000Y-43125000D01*
%TO.C,R28*%
X67500000Y-24375000D02*
X69500000Y-24375000D01*
X67500000Y-25625000D02*
X67500000Y-24375000D01*
X69500000Y-24375000D02*
X69500000Y-25625000D01*
X69500000Y-25625000D02*
X67500000Y-25625000D01*
%TO.C,C2*%
X82600000Y-7875000D02*
X84600000Y-7875000D01*
X82600000Y-9125000D02*
X82600000Y-7875000D01*
X84600000Y-7875000D02*
X84600000Y-9125000D01*
X84600000Y-9125000D02*
X82600000Y-9125000D01*
%TO.C,D7*%
X67600000Y-5100000D02*
X69400000Y-5100000D01*
X67600000Y-6500000D02*
X67600000Y-5100000D01*
X68300000Y-5450000D02*
X68800000Y-5800000D01*
X68300000Y-5800000D02*
X68050000Y-5800000D01*
X68300000Y-6150000D02*
X68300000Y-5450000D01*
X68800000Y-5800000D02*
X68300000Y-6150000D01*
X68800000Y-5800000D02*
X69000000Y-5800000D01*
X68800000Y-6150000D02*
X68800000Y-5450000D01*
X69400000Y-5100000D02*
X69400000Y-6500000D01*
X69400000Y-6500000D02*
X67600000Y-6500000D01*
%TO.C,D10*%
X90500000Y-42200000D02*
X90500000Y-43100000D01*
X90500000Y-43100000D02*
X92500000Y-43100000D01*
X90800000Y-41900000D02*
X90500000Y-42200000D01*
X92500000Y-41900000D02*
X90800000Y-41900000D01*
X92500000Y-43100000D02*
X92500000Y-41900000D01*
%TO.C,Q11*%
X87150000Y-27450000D02*
X85850000Y-27450000D01*
X85850000Y-24875000D01*
X86175000Y-24550000D01*
X87150000Y-24550000D01*
X87150000Y-27450000D01*
%TO.C,R26*%
X28500000Y-27275000D02*
X30500000Y-27275000D01*
X28500000Y-28525000D02*
X28500000Y-27275000D01*
X30500000Y-27275000D02*
X30500000Y-28525000D01*
X30500000Y-28525000D02*
X28500000Y-28525000D01*
%TO.C,D12*%
X93100000Y-36100000D02*
X94900000Y-36100000D01*
X93100000Y-37500000D02*
X93100000Y-36100000D01*
X93700000Y-36450000D02*
X93700000Y-37150000D01*
X93700000Y-36800000D02*
X93500000Y-36800000D01*
X93700000Y-36800000D02*
X94200000Y-36450000D01*
X94200000Y-36450000D02*
X94200000Y-37150000D01*
X94200000Y-36800000D02*
X94450000Y-36800000D01*
X94200000Y-37150000D02*
X93700000Y-36800000D01*
X94900000Y-36100000D02*
X94900000Y-37500000D01*
X94900000Y-37500000D02*
X93100000Y-37500000D01*
%TO.C,D16*%
X93100000Y-33300000D02*
X94900000Y-33300000D01*
X93100000Y-34700000D02*
X93100000Y-33300000D01*
X93700000Y-33650000D02*
X93700000Y-34350000D01*
X93700000Y-34000000D02*
X93500000Y-34000000D01*
X93700000Y-34000000D02*
X94200000Y-33650000D01*
X94200000Y-33650000D02*
X94200000Y-34350000D01*
X94200000Y-34000000D02*
X94450000Y-34000000D01*
X94200000Y-34350000D02*
X93700000Y-34000000D01*
X94900000Y-33300000D02*
X94900000Y-34700000D01*
X94900000Y-34700000D02*
X93100000Y-34700000D01*
%TO.C,Q4*%
X58950000Y-15850000D02*
X56375000Y-15850000D01*
X56050000Y-15525000D01*
X56050000Y-14550000D01*
X58950000Y-14550000D01*
X58950000Y-15850000D01*
%TO.C,R34*%
X67500000Y-2375000D02*
X69500000Y-2375000D01*
X67500000Y-3625000D02*
X67500000Y-2375000D01*
X69500000Y-2375000D02*
X69500000Y-3625000D01*
X69500000Y-3625000D02*
X67500000Y-3625000D01*
%TO.C,R38*%
X46500000Y-42175000D02*
X48500000Y-42175000D01*
X46500000Y-43425000D02*
X46500000Y-42175000D01*
X48500000Y-42175000D02*
X48500000Y-43425000D01*
X48500000Y-43425000D02*
X46500000Y-43425000D01*
%TO.C,R5*%
X89500000Y-17175000D02*
X91500000Y-17175000D01*
X89500000Y-18425000D02*
X89500000Y-17175000D01*
X91500000Y-17175000D02*
X91500000Y-18425000D01*
X91500000Y-18425000D02*
X89500000Y-18425000D01*
%TD*%
M02*
